<svg width="794" height="61" viewBox="0 0 794 61" fill="none" xmlns="http://www.w3.org/2000/svg">
<path d="M0.444336 59L-0.631958 58.4693L-1.48524 60.2H0.444336V59ZM27.2354 4.66211V3.46211H26.4891L26.1591 4.13145L27.2354 4.66211ZM30.4268 4.66211L31.4971 4.11951L31.1638 3.46211H30.4268V4.66211ZM57.9736 59V60.2H59.9274L59.0439 58.4574L57.9736 59ZM45.334 59L44.2485 59.5117L44.573 60.2H45.334V59ZM40.8408 49.4678L41.9263 48.9561L41.6018 48.2678H40.8408V49.4678ZM16.8633 49.4678V48.2678H16.0962L15.7742 48.964L16.8633 49.4678ZM12.4541 59V60.2H13.2212L13.5432 59.5038L12.4541 59ZM21.0625 40.3555L19.9723 39.854L19.1896 41.5555H21.0625V40.3555ZM36.6416 40.3555V41.5555H38.5273L37.7287 39.8473L36.6416 40.3555ZM28.7891 23.5586L29.8761 23.0504L28.7803 20.7063L27.6989 23.0571L28.7891 23.5586ZM1.52063 59.5307L28.3116 5.19277L26.1591 4.13145L-0.631958 58.4693L1.52063 59.5307ZM27.2354 5.86211H30.4268V3.46211H27.2354V5.86211ZM29.3564 5.20471L56.9033 59.5426L59.0439 58.4574L31.4971 4.11951L29.3564 5.20471ZM57.9736 57.8H45.334V60.2H57.9736V57.8ZM46.4194 58.4883L41.9263 48.9561L39.7554 49.9794L44.2485 59.5117L46.4194 58.4883ZM40.8408 48.2678H16.8633V50.6678H40.8408V48.2678ZM15.7742 48.964L11.365 58.4962L13.5432 59.5038L17.9524 49.9716L15.7742 48.964ZM12.4541 57.8H0.444336V60.2H12.4541V57.8ZM21.0625 41.5555H36.6416V39.1555H21.0625V41.5555ZM37.7287 39.8473L29.8761 23.0504L27.702 24.0668L35.5545 40.8637L37.7287 39.8473ZM27.6989 23.0571L19.9723 39.854L22.1527 40.857L29.8793 24.0601L27.6989 23.0571ZM63.6846 56.0605H62.4846V56.8084L63.156 57.1379L63.6846 56.0605ZM63.6846 0.798828V-0.401172H62.4846V0.798828H63.6846ZM75.3584 0.798828H76.5584V-0.401172H75.3584V0.798828ZM75.3584 20.5771H74.1584V23.8063L76.2672 21.3608L75.3584 20.5771ZM103.199 20.7871L102.289 21.5697L102.295 21.5764L103.199 20.7871ZM107.062 45.7305L108.197 46.1209L108.198 46.1172L107.062 45.7305ZM103.367 52.3652L102.458 51.582L102.457 51.5831L103.367 52.3652ZM97.8242 56.9004L97.2289 55.8585L97.8242 56.9004ZM90.8115 59.5879L90.5512 58.4165L90.5436 58.4182L90.5359 58.42L90.8115 59.5879ZM75.3584 48.9219H74.1584V49.7046L74.8747 50.0201L75.3584 48.9219ZM92.6172 47.1162L91.8049 46.2329L92.6172 47.1162ZM95.3887 31.4951L94.2563 31.8924L94.2594 31.9012L94.2627 31.91L95.3887 31.4951ZM89.7617 25.7842L89.3255 26.9021L89.3417 26.9084L89.3581 26.9143L89.7617 25.7842ZM75.3584 28.8076L74.5701 27.9029L74.1584 28.2616V28.8076H75.3584ZM64.8846 56.0605V0.798828H62.4846V56.0605H64.8846ZM63.6846 1.99883H75.3584V-0.401172H63.6846V1.99883ZM74.1584 0.798828V20.5771H76.5584V0.798828H74.1584ZM76.2672 21.3608C79.3335 17.8049 83.5968 15.9822 89.2158 15.9822V13.5822C83.021 13.5822 78.0461 15.6228 74.4496 19.7935L76.2672 21.3608ZM89.2158 15.9822C94.7896 15.9822 99.1015 17.8634 102.289 21.5696L104.109 20.0046C100.41 15.7043 95.3998 13.5822 89.2158 13.5822V15.9822ZM102.295 21.5764C105.525 25.2751 107.206 30.3682 107.206 36.9961H109.606C109.606 29.9625 107.816 24.2496 104.103 19.9978L102.295 21.5764ZM107.206 36.9961C107.206 40.0751 106.774 42.8537 105.927 45.3438L108.198 46.1172C109.142 43.3442 109.606 40.2999 109.606 36.9961H107.206ZM105.928 45.34C105.074 47.8204 103.913 49.8934 102.458 51.582L104.276 53.1485C105.957 51.1978 107.259 48.8476 108.197 46.1209L105.928 45.34ZM102.457 51.5831C101.011 53.2656 99.2716 54.6912 97.2289 55.8585L98.4196 57.9423C100.688 56.646 102.644 55.0482 104.277 53.1474L102.457 51.5831ZM97.2289 55.8585C95.1819 57.0282 92.9579 57.8817 90.5512 58.4165L91.0718 60.7593C93.7042 60.1743 96.1553 59.2361 98.4196 57.9423L97.2289 55.8585ZM90.5359 58.42C88.1436 58.9845 85.5772 59.2697 82.833 59.2697V61.6697C85.7437 61.6697 88.4964 61.3671 91.0871 60.7558L90.5359 58.42ZM82.833 59.2697C76.2386 59.2697 70.037 57.8407 64.2132 54.9832L63.156 57.1379C69.314 60.1593 75.8779 61.6697 82.833 61.6697V59.2697ZM74.8747 50.0201C77.4018 51.1332 80.2442 51.6756 83.3789 51.6756V49.2756C80.5227 49.2756 78.0181 48.7821 75.8421 47.8237L74.8747 50.0201ZM83.3789 51.6756C87.3625 51.6756 90.7442 50.4687 93.4294 47.9995L91.8049 46.2329C89.6191 48.2429 86.842 49.2756 83.3789 49.2756V51.6756ZM93.4294 47.9995C96.1889 45.462 97.4705 41.746 97.4705 37.0801H95.0705C95.0705 41.3165 93.9165 44.2912 91.8049 46.2329L93.4294 47.9995ZM97.4705 37.0801C97.4705 34.845 97.1621 32.8375 96.5147 31.0803L94.2627 31.91C94.7911 33.3442 95.0705 35.0599 95.0705 37.0801H97.4705ZM96.521 31.0978C95.9105 29.3579 95.0285 27.9224 93.8344 26.8609L92.2399 28.6547C93.0614 29.3849 93.7471 30.4409 94.2563 31.8924L96.521 31.0978ZM93.8344 26.8609C92.7208 25.8711 91.4973 25.1298 90.1653 24.6541L89.3581 26.9143C90.3777 27.2784 91.3378 27.8529 92.2399 28.6547L93.8344 26.8609ZM90.198 24.6663C88.899 24.1594 87.5038 23.9123 86.0244 23.9123V26.3123C87.2325 26.3123 88.3288 26.5131 89.3255 26.9021L90.198 24.6663ZM86.0244 23.9123C81.4953 23.9123 77.647 25.222 74.5701 27.9029L76.1467 29.7124C78.7247 27.4662 81.9872 26.3123 86.0244 26.3123V23.9123ZM74.1584 28.8076V48.9219H76.5584V28.8076H74.1584ZM116.511 28.6816L115.388 28.2591L116.511 28.6816ZM121.046 21.333L120.18 20.5022L120.174 20.5084L121.046 21.333ZM148.509 16.5879L148.047 17.6957L148.06 17.7006L148.509 16.5879ZM155.857 21.627L154.951 22.4138L154.957 22.4201L154.962 22.4264L155.857 21.627ZM160.141 28.8076L159.013 29.2187L159.015 29.2225L160.141 28.8076ZM158.839 49.1318L157.778 48.5715L157.776 48.5747L158.839 49.1318ZM150.734 57.4043L150.14 56.3619L150.136 56.3639L150.734 57.4043ZM138.221 60.4697L138.212 61.6697H138.221V60.4697ZM127.975 58.5801L127.509 59.6863L127.522 59.6914L127.975 58.5801ZM120.668 53.541L119.773 54.3405L120.668 53.541ZM116.385 46.4023L115.257 46.8134L115.259 46.8172L116.385 46.4023ZM127.765 42.2451L126.604 42.5505L126.605 42.5556L127.765 42.2451ZM129.696 46.5283L128.701 47.199L128.708 47.2091L129.696 46.5283ZM133.182 49.5518L132.629 50.6168L132.637 50.621L132.645 50.6251L133.182 49.5518ZM143.554 49.5518L144.074 50.633L144.082 50.6291L144.09 50.6251L143.554 49.5518ZM147.039 46.5283L146.034 45.8728L146.03 45.8783L147.039 46.5283ZM148.341 31.3691L147.216 31.787L147.219 31.794L147.221 31.801L148.341 31.3691ZM144.646 26.498L143.921 27.4544L143.93 27.4618L144.646 26.498ZM133.812 25.2803L133.382 24.1596L133.374 24.1628L133.812 25.2803ZM128.604 30.1514L127.531 29.6147L127.526 29.6256L127.521 29.6365L128.604 30.1514ZM116.115 37.8359C116.115 34.6927 116.625 31.7856 117.634 29.1042L115.388 28.2591C114.269 31.2326 113.715 34.4284 113.715 37.8359H116.115ZM117.634 29.1042C118.645 26.4171 120.074 24.1065 121.918 22.1576L120.174 20.5084C118.098 22.7027 116.504 25.2912 115.388 28.2591L117.634 29.1042ZM121.912 22.1638C123.769 20.2277 126.085 18.695 128.882 17.5761L127.991 15.3477C124.909 16.5804 122.298 18.2951 120.18 20.5022L121.912 22.1638ZM128.882 17.5761C131.662 16.464 134.77 15.8982 138.221 15.8982V13.4982C134.505 13.4982 131.09 14.1083 127.991 15.3477L128.882 17.5761ZM138.221 15.8982C141.924 15.8982 145.193 16.5062 148.047 17.6956L148.97 15.4802C145.778 14.15 142.188 13.4982 138.221 13.4982V15.8982ZM148.06 17.7006C150.965 18.8733 153.247 20.4516 154.951 22.4138L156.763 20.8401C154.772 18.5471 152.156 16.766 148.958 15.4751L148.06 17.7006ZM154.962 22.4264C156.735 24.4106 158.085 26.6719 159.013 29.2187L161.268 28.3966C160.237 25.5684 158.731 23.0425 156.752 20.8275L154.962 22.4264ZM159.015 29.2225C159.942 31.7405 160.41 34.4406 160.41 37.332H162.81C162.81 34.1765 162.299 31.1938 161.267 28.3928L159.015 29.2225ZM160.41 37.332C160.41 41.5246 159.525 45.2622 157.778 48.5715L159.9 49.6921C161.848 46.0027 162.81 41.8739 162.81 37.332H160.41ZM157.776 48.5747C156.069 51.8319 153.535 54.4257 150.14 56.3619L151.329 58.4467C155.1 56.2957 157.97 53.3744 159.902 49.689L157.776 48.5747ZM150.136 56.3639C146.791 58.2866 142.833 59.2697 138.221 59.2697V61.6697C143.182 61.6697 147.567 60.6092 151.332 58.4447L150.136 56.3639ZM138.23 59.2698C134.55 59.2427 131.288 58.6344 128.427 57.4688L127.522 59.6914C130.708 60.9893 134.277 61.6408 138.212 61.6697L138.23 59.2698ZM128.44 57.4739C125.583 56.2726 123.303 54.6893 121.563 52.7416L119.773 54.3405C121.784 56.592 124.375 58.368 127.509 59.6862L128.44 57.4739ZM121.563 52.7416C119.788 50.7553 118.439 48.5064 117.511 45.9875L115.259 46.8172C116.29 49.6173 117.796 52.1276 119.773 54.3405L121.563 52.7416ZM117.512 45.9913C116.583 43.4429 116.115 40.7272 116.115 37.8359H113.715C113.715 40.9915 114.227 43.9868 115.257 46.8134L117.512 45.9913ZM125.935 37.1641C125.935 39.05 126.156 40.847 126.604 42.5505L128.925 41.9397C128.534 40.4518 128.335 38.8614 128.335 37.1641H125.935ZM126.605 42.5556C127.058 44.2458 127.756 45.7961 128.701 47.1989L130.691 45.8577C129.901 44.685 129.311 43.3799 128.924 41.9346L126.605 42.5556ZM128.708 47.2091C129.695 48.6422 131.012 49.7771 132.629 50.6168L133.735 48.4868C132.44 47.8147 131.433 46.934 130.685 45.8476L128.708 47.2091ZM132.645 50.6251C134.293 51.4493 136.162 51.8436 138.221 51.8436V49.4436C136.472 49.4436 134.981 49.11 133.718 48.4784L132.645 50.6251ZM138.221 51.8436C140.406 51.8436 142.369 51.4542 144.074 50.633L143.033 48.4706C141.715 49.105 140.123 49.4436 138.221 49.4436V51.8436ZM144.09 50.6251C145.769 49.7856 147.105 48.6412 148.048 47.1784L146.03 45.8783C145.349 46.9349 144.361 47.8062 143.017 48.4784L144.09 50.6251ZM148.044 47.1838C148.949 45.796 149.618 44.3248 150.044 42.7727L147.73 42.1374C147.372 43.4408 146.809 44.6851 146.034 45.8728L148.044 47.1838ZM150.044 42.7727C150.466 41.2338 150.675 39.6147 150.675 37.9199H148.275C148.275 39.4166 148.091 40.8209 147.73 42.1374L150.044 42.7727ZM150.675 37.9199C150.675 35.3861 150.277 33.0533 149.46 30.9373L147.221 31.801C147.917 33.6042 148.275 35.6387 148.275 37.9199H150.675ZM149.466 30.9513C148.654 28.7662 147.276 26.9556 145.361 25.5343L143.93 27.4618C145.486 28.616 146.572 30.0528 147.216 31.787L149.466 30.9513ZM145.37 25.5418C143.392 24.0421 140.984 23.3244 138.221 23.3244V25.7244C140.553 25.7244 142.427 26.3225 143.921 27.4543L145.37 25.5418ZM138.221 23.3244C136.472 23.3244 134.854 23.5959 133.382 24.1596L134.241 26.4009C135.4 25.9568 136.722 25.7244 138.221 25.7244V23.3244ZM133.374 24.1628C131.963 24.7149 130.764 25.4551 129.814 26.4054L131.511 28.1024C132.184 27.429 133.084 26.8534 134.249 26.3978L133.374 24.1628ZM129.814 26.4054C128.903 27.3163 128.144 28.39 127.531 29.6147L129.678 30.688C130.185 29.6732 130.798 28.8152 131.511 28.1024L129.814 26.4054ZM127.521 29.6365C126.948 30.8416 126.537 32.0708 126.293 33.3229L128.648 33.7825C128.852 32.7391 129.197 31.7007 129.688 30.6662L127.521 29.6365ZM126.293 33.3229C126.053 34.552 125.935 35.833 125.935 37.1641H128.335C128.335 35.9756 128.44 34.8491 128.648 33.7825L126.293 33.3229ZM170.051 16.168V14.968H168.851V16.168H170.051ZM181.935 16.168H183.135V14.968H181.935V16.168ZM183.95 48.9639L183.139 49.8485L183.148 49.8567L183.95 48.9639ZM189.661 50.8115V52.0115H189.686L189.712 52.0105L189.661 50.8115ZM194.952 49.1318L195.622 50.1275L195.628 50.1233L195.634 50.1191L194.952 49.1318ZM198.689 44.7227L199.76 45.2657L199.889 45.0097V44.7227H198.689ZM198.689 16.168V14.968H197.489V16.168H198.689ZM210.531 16.168H211.731V14.968H210.531V16.168ZM210.531 59V60.2H211.731V59H210.531ZM200.075 59H198.875V60.2H200.075V59ZM200.075 52.0293H201.275L199.001 51.4948L200.075 52.0293ZM174.124 56.3545L173.271 57.1987L174.124 56.3545ZM171.251 44.5547V16.168H168.851V44.5547H171.251ZM170.051 17.368H181.935V14.968H170.051V17.368ZM180.735 16.168V42.4131H183.135V16.168H180.735ZM180.735 42.4131C180.735 45.656 181.418 48.2708 183.139 49.8485L184.761 48.0793C183.795 47.1934 183.135 45.441 183.135 42.4131H180.735ZM183.148 49.8567C184.803 51.3426 187.027 52.0115 189.661 52.0115V49.6115C187.425 49.6115 185.841 49.0486 184.752 48.071L183.148 49.8567ZM189.712 52.0105C191.904 51.9178 193.885 51.2958 195.622 50.1275L194.282 48.1362C192.94 49.0395 191.393 49.5373 189.61 49.6126L189.712 52.0105ZM195.634 50.1191C197.358 48.9283 198.729 47.297 199.76 45.2657L197.619 44.1796C196.747 45.8996 195.626 47.2077 194.27 48.1446L195.634 50.1191ZM199.889 44.7227V16.168H197.489V44.7227H199.889ZM198.689 17.368H210.531V14.968H198.689V17.368ZM209.331 16.168V59H211.731V16.168H209.331ZM210.531 57.8H200.075V60.2H210.531V57.8ZM201.275 59V52.0293H198.875V59H201.275ZM199.001 51.4948C197.697 54.1165 195.913 56.0384 193.658 57.3154C191.393 58.5975 188.581 59.2697 185.168 59.2697V61.6697C188.893 61.6697 192.135 60.9352 194.84 59.4039C197.554 57.8674 199.654 55.5691 201.15 52.5638L199.001 51.4948ZM185.168 59.2697C180.771 59.2697 177.422 57.9808 174.977 55.5103L173.271 57.1987C176.257 60.2152 180.27 61.6697 185.168 61.6697V59.2697ZM174.977 55.5103C172.549 53.0575 171.251 49.4685 171.251 44.5547H168.851C168.851 49.887 170.268 54.1645 173.271 57.1987L174.977 55.5103ZM221.533 8.02148L221.156 6.88226L220.333 7.15462V8.02148H221.533ZM233.333 4.11621H234.533V2.45504L232.956 2.97698L233.333 4.11621ZM233.333 16.168H232.133V17.368H233.333V16.168ZM246.477 16.168H247.677V14.968H246.477V16.168ZM246.477 25.2803V26.4803H247.677V25.2803H246.477ZM233.333 25.2803V24.0803H232.133V25.2803H233.333ZM233.333 44.3867H232.133V44.3961L232.133 44.4055L233.333 44.3867ZM234.803 48.25L234.04 49.1763L234.055 49.1885L234.07 49.2001L234.803 48.25ZM245.427 47.998H246.627V45.8786L244.809 46.9691L245.427 47.998ZM245.427 57.8662L246.039 58.8982L246.627 58.5495V57.8662H245.427ZM222.733 46.4443V8.02148H220.333V46.4443H222.733ZM221.91 9.16071L233.71 5.25544L232.956 2.97698L221.156 6.88226L221.91 9.16071ZM232.133 4.11621V16.168H234.533V4.11621H232.133ZM233.333 17.368H246.477V14.968H233.333V17.368ZM245.277 16.168V25.2803H247.677V16.168H245.277ZM246.477 24.0803H233.333V26.4803H246.477V24.0803ZM232.133 25.2803V44.3867H234.533V25.2803H232.133ZM232.133 44.4055C232.164 46.3853 232.711 48.0821 234.04 49.1763L235.566 47.3237C234.991 46.8502 234.558 45.9715 234.533 44.368L232.133 44.4055ZM234.07 49.2001C235.358 50.1936 237.187 50.5838 239.338 50.5838V48.1838C237.401 48.1838 236.208 47.8181 235.536 47.2999L234.07 49.2001ZM239.338 50.5838C241.991 50.5838 244.257 50.0991 246.044 49.027L244.809 46.9691C243.517 47.7447 241.723 48.1838 239.338 48.1838V50.5838ZM244.227 47.998V57.8662H246.627V47.998H244.227ZM244.814 56.8342C242.514 58.1993 239.376 58.9338 235.307 58.9338V61.3338C239.636 61.3338 243.245 60.5565 246.039 58.8982L244.814 56.8342ZM235.307 58.9338C230.899 58.9338 227.813 57.8391 225.822 55.8603C223.833 53.8829 222.733 50.8207 222.733 46.4443H220.333C220.333 51.1943 221.529 54.9768 224.131 57.5625C226.731 60.1469 230.532 61.3338 235.307 61.3338V58.9338ZM280.868 58.832H279.668V59.9635L280.798 60.03L280.868 58.832ZM280.868 4.66211L280.819 3.46313L279.668 3.51071V4.66211H280.868ZM316.562 7.81152L315.899 8.81239L315.908 8.81818L316.562 7.81152ZM314.042 30.1094L313.558 29.0113L310.471 30.372L313.724 31.2664L314.042 30.1094ZM317.485 55.0527L316.844 54.0388L316.841 54.0406L317.485 55.0527ZM292.458 49.6357H291.258V50.7596L292.379 50.8332L292.458 49.6357ZM308.961 48.166L309.583 49.1925L309.587 49.19L308.961 48.166ZM292.458 35.7783V34.5783H291.258V35.7783H292.458ZM292.458 26.918H291.258V28.118H292.458V26.918ZM307.155 25.1123L306.486 24.1162L306.479 24.1212L307.155 25.1123ZM307.113 15.1602L306.489 16.1849L306.498 16.1906L306.508 16.1961L307.113 15.1602ZM292.458 13.6904L292.409 12.4914L291.258 12.5384V13.6904H292.458ZM282.068 58.832V4.66211H279.668V58.832H282.068ZM280.918 5.86108C288.354 5.55359 294.747 5.4002 300.101 5.4002V3.00019C294.704 3.00019 288.276 3.15475 280.819 3.46313L280.918 5.86108ZM300.101 5.4002C307.343 5.4002 312.549 6.59603 315.899 8.81235L317.224 6.8107C313.295 4.21192 307.527 3.00019 300.101 3.00019V5.4002ZM315.908 8.81818C319.249 10.9856 320.862 13.9175 320.862 17.7217H323.263C323.263 13.0715 321.209 9.39657 317.215 6.80486L315.908 8.81818ZM320.862 17.7217C320.862 20.3769 320.228 22.6364 318.996 24.546L321.013 25.8465C322.526 23.501 323.263 20.7774 323.263 17.7217H320.862ZM318.996 24.546C317.767 26.4524 315.974 27.9461 313.558 29.0113L314.526 31.2074C317.317 29.977 319.499 28.1954 321.013 25.8465L318.996 24.546ZM313.724 31.2664C316.906 32.1416 319.176 33.5566 320.658 35.4391C322.135 37.3168 322.92 39.7768 322.92 42.917H325.32C325.32 39.3664 324.425 36.3464 322.544 33.955C320.666 31.5682 317.897 29.9249 314.36 28.9523L313.724 31.2664ZM322.92 42.917C322.92 47.8021 320.915 51.4621 316.844 54.0388L318.127 56.0667C322.902 53.0444 325.32 48.6139 325.32 42.917H322.92ZM316.841 54.0406C312.707 56.6735 306.969 58.052 299.513 58.052V60.452C307.229 60.452 313.473 59.0309 318.13 56.0649L316.841 54.0406ZM299.513 58.052C291.853 58.052 285.665 57.9121 280.939 57.6341L280.798 60.03C285.59 60.3119 291.831 60.452 299.513 60.452V58.052ZM292.379 50.8332C295.798 51.0573 298.323 51.1717 299.933 51.1717V48.7717C298.407 48.7717 295.949 48.6621 292.537 48.4383L292.379 50.8332ZM299.933 51.1717C304.042 51.1717 307.315 50.5655 309.583 49.1924L308.339 47.1396C306.631 48.1741 303.886 48.7717 299.933 48.7717V51.1717ZM309.587 49.19C311.992 47.7203 313.184 45.4231 313.184 42.4971H310.784C310.784 44.6661 309.962 46.1482 308.335 47.1421L309.587 49.19ZM313.184 42.4971C313.184 39.8354 312.003 37.7589 309.713 36.4217C307.522 35.1426 304.391 34.5783 300.479 34.5783V36.9783C304.236 36.9783 306.858 37.5338 308.503 38.4943C310.048 39.3967 310.784 40.6796 310.784 42.4971H313.184ZM300.479 34.5783H292.458V36.9783H300.479V34.5783ZM291.258 35.7783V49.6357H293.658V35.7783H291.258ZM292.458 28.118H300.101V25.718H292.458V28.118ZM300.101 28.118C303.193 28.118 305.807 27.4858 307.832 26.1034L306.479 24.1212C304.977 25.1464 302.887 25.718 300.101 25.718V28.118ZM307.824 26.1084C309.972 24.6654 311.043 22.5284 311.043 19.8633H308.643C308.643 21.7893 307.922 23.1517 306.486 24.1162L307.824 26.1084ZM311.043 19.8633C311.043 17.3562 309.899 15.3986 307.719 14.1242L306.508 16.1961C307.967 17.0494 308.643 18.2272 308.643 19.8633H311.043ZM307.738 14.1354C305.68 12.8817 302.895 12.3225 299.513 12.3225V14.7225C302.681 14.7225 304.963 15.255 306.489 16.1849L307.738 14.1354ZM299.513 12.3225C297.532 12.3225 295.163 12.379 292.409 12.4914L292.507 14.8894C295.24 14.7779 297.574 14.7225 299.513 14.7225V12.3225ZM291.258 13.6904V26.918H293.658V13.6904H291.258ZM332.435 28.6816L331.311 28.2591L332.435 28.6816ZM336.97 21.333L336.104 20.5022L336.098 20.5084L336.97 21.333ZM364.433 16.5879L363.971 17.6957L363.983 17.7006L364.433 16.5879ZM371.781 21.627L370.875 22.4138L370.881 22.4201L370.886 22.4264L371.781 21.627ZM376.064 28.8076L374.937 29.2187L374.938 29.2225L376.064 28.8076ZM374.763 49.1318L373.702 48.5715L373.7 48.5747L374.763 49.1318ZM366.658 57.4043L366.064 56.3619L366.06 56.3639L366.658 57.4043ZM354.145 60.4697L354.136 61.6697H354.145V60.4697ZM343.898 58.5801L343.433 59.6863L343.446 59.6914L343.898 58.5801ZM336.592 53.541L335.697 54.3405L336.592 53.541ZM332.309 46.4023L331.181 46.8134L331.183 46.8172L332.309 46.4023ZM343.688 42.2451L342.528 42.5505L342.529 42.5556L343.688 42.2451ZM345.62 46.5283L344.625 47.199L344.632 47.2091L345.62 46.5283ZM349.105 49.5518L348.552 50.6168L348.561 50.621L348.569 50.6251L349.105 49.5518ZM359.478 49.5518L359.998 50.633L360.006 50.6291L360.014 50.6251L359.478 49.5518ZM362.963 46.5283L361.958 45.8728L361.954 45.8783L362.963 46.5283ZM364.265 31.3691L363.14 31.787L363.142 31.794L363.145 31.801L364.265 31.3691ZM360.569 26.498L359.844 27.4544L359.854 27.4618L360.569 26.498ZM349.735 25.2803L349.306 24.1596L349.298 24.1628L349.735 25.2803ZM344.528 30.1514L343.455 29.6147L343.45 29.6256L343.444 29.6365L344.528 30.1514ZM332.039 37.8359C332.039 34.6927 332.549 31.7856 333.558 29.1042L331.311 28.2591C330.193 31.2326 329.639 34.4284 329.639 37.8359H332.039ZM333.558 29.1042C334.569 26.4171 335.998 24.1065 337.841 22.1576L336.098 20.5084C334.022 22.7027 332.428 25.2912 331.311 28.2591L333.558 29.1042ZM337.836 22.1638C339.693 20.2277 342.009 18.695 344.806 17.5761L343.915 15.3477C340.833 16.5804 338.221 18.2951 336.104 20.5022L337.836 22.1638ZM344.806 17.5761C347.586 16.464 350.694 15.8982 354.145 15.8982V13.4982C350.429 13.4982 347.013 14.1083 343.915 15.3477L344.806 17.5761ZM354.145 15.8982C357.848 15.8982 361.117 16.5062 363.971 17.6956L364.894 15.4802C361.702 14.15 358.112 13.4982 354.145 13.4982V15.8982ZM363.983 17.7006C366.888 18.8733 369.171 20.4516 370.875 22.4138L372.687 20.8401C370.696 18.5471 368.08 16.766 364.882 15.4751L363.983 17.7006ZM370.886 22.4264C372.659 24.4106 374.009 26.6719 374.937 29.2187L377.192 28.3966C376.161 25.5684 374.655 23.0425 372.676 20.8275L370.886 22.4264ZM374.938 29.2225C375.866 31.7405 376.334 34.4406 376.334 37.332H378.734C378.734 34.1765 378.222 31.1938 377.19 28.3928L374.938 29.2225ZM376.334 37.332C376.334 41.5246 375.449 45.2622 373.702 48.5715L375.824 49.6921C377.772 46.0027 378.734 41.8739 378.734 37.332H376.334ZM373.7 48.5747C371.992 51.8319 369.459 54.4257 366.064 56.3619L367.253 58.4467C371.024 56.2957 373.894 53.3744 375.826 49.689L373.7 48.5747ZM366.06 56.3639C362.715 58.2866 358.757 59.2697 354.145 59.2697V61.6697C359.106 61.6697 363.49 60.6092 367.256 58.4447L366.06 56.3639ZM354.153 59.2698C350.473 59.2427 347.212 58.6344 344.351 57.4688L343.446 59.6914C346.632 60.9893 350.201 61.6408 354.136 61.6697L354.153 59.2698ZM344.364 57.4739C341.507 56.2726 339.227 54.6893 337.487 52.7416L335.697 54.3405C337.708 56.592 340.299 58.368 343.433 59.6862L344.364 57.4739ZM337.487 52.7416C335.712 50.7553 334.363 48.5064 333.435 45.9875L331.183 46.8172C332.214 49.6173 333.72 52.1276 335.697 54.3405L337.487 52.7416ZM333.436 45.9913C332.507 43.4429 332.039 40.7272 332.039 37.8359H329.639C329.639 40.9915 330.151 43.9868 331.181 46.8134L333.436 45.9913ZM341.859 37.1641C341.859 39.05 342.08 40.847 342.528 42.5505L344.849 41.9397C344.457 40.4518 344.259 38.8614 344.259 37.1641H341.859ZM342.529 42.5556C342.982 44.2458 343.68 45.7961 344.625 47.1989L346.615 45.8577C345.825 44.685 345.235 43.3799 344.848 41.9346L342.529 42.5556ZM344.632 47.2091C345.619 48.6422 346.935 49.7771 348.552 50.6168L349.658 48.4868C348.364 47.8147 347.357 46.934 346.608 45.8476L344.632 47.2091ZM348.569 50.6251C350.217 51.4493 352.086 51.8436 354.145 51.8436V49.4436C352.396 49.4436 350.905 49.11 349.642 48.4784L348.569 50.6251ZM354.145 51.8436C356.33 51.8436 358.292 51.4542 359.998 50.633L358.957 48.4706C357.639 49.105 356.047 49.4436 354.145 49.4436V51.8436ZM360.014 50.6251C361.693 49.7856 363.029 48.6412 363.972 47.1784L361.954 45.8783C361.273 46.9349 360.285 47.8062 358.941 48.4784L360.014 50.6251ZM363.968 47.1838C364.873 45.796 365.542 44.3248 365.968 42.7727L363.653 42.1374C363.296 43.4408 362.732 44.6851 361.958 45.8728L363.968 47.1838ZM365.968 42.7727C366.39 41.2338 366.598 39.6147 366.598 37.9199H364.198C364.198 39.4166 364.015 40.8209 363.653 42.1374L365.968 42.7727ZM366.598 37.9199C366.598 35.3861 366.2 33.0533 365.384 30.9373L363.145 31.801C363.841 33.6042 364.198 35.6387 364.198 37.9199H366.598ZM365.39 30.9513C364.578 28.7662 363.2 26.9556 361.284 25.5343L359.854 27.4618C361.41 28.616 362.496 30.0528 363.14 31.787L365.39 30.9513ZM361.294 25.5418C359.316 24.0421 356.908 23.3244 354.145 23.3244V25.7244C356.476 25.7244 358.351 26.3225 359.844 27.4543L361.294 25.5418ZM354.145 23.3244C352.396 23.3244 350.778 23.5959 349.306 24.1596L350.165 26.4009C351.324 25.9568 352.645 25.7244 354.145 25.7244V23.3244ZM349.298 24.1628C347.887 24.7149 346.688 25.4551 345.737 26.4054L347.434 28.1024C348.108 27.429 349.008 26.8534 350.173 26.3978L349.298 24.1628ZM345.737 26.4054C344.826 27.3163 344.067 28.39 343.455 29.6147L345.602 30.688C346.109 29.6732 346.722 28.8152 347.434 28.1024L345.737 26.4054ZM343.444 29.6365C342.872 30.8416 342.461 32.0708 342.217 33.3229L344.572 33.7825C344.776 32.7391 345.121 31.7007 345.612 30.6662L343.444 29.6365ZM342.217 33.3229C341.977 34.552 341.859 35.833 341.859 37.1641H344.259C344.259 35.9756 344.364 34.8491 344.572 33.7825L342.217 33.3229ZM385.681 28.6816L384.558 28.2591L385.681 28.6816ZM390.216 21.333L389.35 20.5022L389.344 20.5084L390.216 21.333ZM417.679 16.5879L417.217 17.6957L417.23 17.7006L417.679 16.5879ZM425.027 21.627L424.121 22.4138L424.127 22.4201L424.132 22.4264L425.027 21.627ZM429.311 28.8076L428.183 29.2187L428.185 29.2225L429.311 28.8076ZM428.009 49.1318L426.948 48.5715L426.946 48.5747L428.009 49.1318ZM419.904 57.4043L419.31 56.3619L419.306 56.3639L419.904 57.4043ZM407.391 60.4697L407.382 61.6697H407.391V60.4697ZM397.145 58.5801L396.679 59.6863L396.692 59.6914L397.145 58.5801ZM389.838 53.541L388.943 54.3405L389.838 53.541ZM385.555 46.4023L384.427 46.8134L384.429 46.8172L385.555 46.4023ZM396.935 42.2451L395.774 42.5505L395.775 42.5556L396.935 42.2451ZM398.866 46.5283L397.871 47.199L397.878 47.2091L398.866 46.5283ZM402.352 49.5518L401.799 50.6168L401.807 50.621L401.815 50.6251L402.352 49.5518ZM412.724 49.5518L413.244 50.633L413.252 50.6291L413.26 50.6251L412.724 49.5518ZM416.209 46.5283L415.204 45.8728L415.2 45.8783L416.209 46.5283ZM417.511 31.3691L416.386 31.787L416.388 31.794L416.391 31.801L417.511 31.3691ZM413.815 26.498L413.09 27.4544L413.1 27.4618L413.815 26.498ZM402.981 25.2803L402.552 24.1596L402.544 24.1628L402.981 25.2803ZM397.774 30.1514L396.701 29.6147L396.696 29.6256L396.69 29.6365L397.774 30.1514ZM385.285 37.8359C385.285 34.6927 385.795 31.7856 386.804 29.1042L384.558 28.2591C383.439 31.2326 382.885 34.4284 382.885 37.8359H385.285ZM386.804 29.1042C387.815 26.4171 389.244 24.1065 391.088 22.1576L389.344 20.5084C387.268 22.7027 385.674 25.2912 384.558 28.2591L386.804 29.1042ZM391.082 22.1638C392.939 20.2277 395.255 18.695 398.052 17.5761L397.161 15.3477C394.079 16.5804 391.468 18.2951 389.35 20.5022L391.082 22.1638ZM398.052 17.5761C400.832 16.464 403.94 15.8982 407.391 15.8982V13.4982C403.675 13.4982 400.259 14.1083 397.161 15.3477L398.052 17.5761ZM407.391 15.8982C411.094 15.8982 414.363 16.5062 417.217 17.6956L418.14 15.4802C414.948 14.15 411.358 13.4982 407.391 13.4982V15.8982ZM417.23 17.7006C420.135 18.8733 422.417 20.4516 424.121 22.4138L425.933 20.8401C423.942 18.5471 421.326 16.766 418.128 15.4751L417.23 17.7006ZM424.132 22.4264C425.905 24.4106 427.255 26.6719 428.183 29.2187L430.438 28.3966C429.407 25.5684 427.901 23.0425 425.922 20.8275L424.132 22.4264ZM428.185 29.2225C429.112 31.7405 429.58 34.4406 429.58 37.332H431.98C431.98 34.1765 431.469 31.1938 430.437 28.3928L428.185 29.2225ZM429.58 37.332C429.58 41.5246 428.695 45.2622 426.948 48.5715L429.07 49.6921C431.018 46.0027 431.98 41.8739 431.98 37.332H429.58ZM426.946 48.5747C425.239 51.8319 422.705 54.4257 419.31 56.3619L420.499 58.4467C424.27 56.2957 427.14 53.3744 429.072 49.689L426.946 48.5747ZM419.306 56.3639C415.961 58.2866 412.003 59.2697 407.391 59.2697V61.6697C412.352 61.6697 416.737 60.6092 420.502 58.4447L419.306 56.3639ZM407.399 59.2698C403.719 59.2427 400.458 58.6344 397.597 57.4688L396.692 59.6914C399.878 60.9893 403.447 61.6408 407.382 61.6697L407.399 59.2698ZM397.61 57.4739C394.753 56.2726 392.473 54.6893 390.733 52.7416L388.943 54.3405C390.954 56.592 393.545 58.368 396.679 59.6862L397.61 57.4739ZM390.733 52.7416C388.958 50.7553 387.609 48.5064 386.681 45.9875L384.429 46.8172C385.46 49.6173 386.966 52.1276 388.943 54.3405L390.733 52.7416ZM386.682 45.9913C385.753 43.4429 385.285 40.7272 385.285 37.8359H382.885C382.885 40.9915 383.397 43.9868 384.427 46.8134L386.682 45.9913ZM395.105 37.1641C395.105 39.05 395.326 40.847 395.774 42.5505L398.095 41.9397C397.703 40.4518 397.505 38.8614 397.505 37.1641H395.105ZM395.775 42.5556C396.228 44.2458 396.926 45.7961 397.871 47.1989L399.861 45.8577C399.071 44.685 398.481 43.3799 398.094 41.9346L395.775 42.5556ZM397.878 47.2091C398.865 48.6422 400.181 49.7771 401.799 50.6168L402.905 48.4868C401.61 47.8147 400.603 46.934 399.854 45.8476L397.878 47.2091ZM401.815 50.6251C403.463 51.4493 405.332 51.8436 407.391 51.8436V49.4436C405.642 49.4436 404.151 49.11 402.888 48.4784L401.815 50.6251ZM407.391 51.8436C409.576 51.8436 411.539 51.4542 413.244 50.633L412.203 48.4706C410.885 49.105 409.293 49.4436 407.391 49.4436V51.8436ZM413.26 50.6251C414.939 49.7856 416.275 48.6412 417.218 47.1784L415.2 45.8783C414.519 46.9349 413.531 47.8062 412.187 48.4784L413.26 50.6251ZM417.214 47.1838C418.119 45.796 418.788 44.3248 419.214 42.7727L416.899 42.1374C416.542 43.4408 415.978 44.6851 415.204 45.8728L417.214 47.1838ZM419.214 42.7727C419.636 41.2338 419.845 39.6147 419.845 37.9199H417.445C417.445 39.4166 417.261 40.8209 416.899 42.1374L419.214 42.7727ZM419.845 37.9199C419.845 35.3861 419.447 33.0533 418.63 30.9373L416.391 31.801C417.087 33.6042 417.445 35.6387 417.445 37.9199H419.845ZM418.636 30.9513C417.824 28.7662 416.446 26.9556 414.53 25.5343L413.1 27.4618C414.656 28.616 415.742 30.0528 416.386 31.787L418.636 30.9513ZM414.54 25.5418C412.562 24.0421 410.154 23.3244 407.391 23.3244V25.7244C409.722 25.7244 411.597 26.3225 413.091 27.4543L414.54 25.5418ZM407.391 23.3244C405.642 23.3244 404.024 23.5959 402.552 24.1596L403.411 26.4009C404.57 25.9568 405.892 25.7244 407.391 25.7244V23.3244ZM402.544 24.1628C401.133 24.7149 399.934 25.4551 398.984 26.4054L400.681 28.1024C401.354 27.429 402.254 26.8534 403.419 26.3978L402.544 24.1628ZM398.984 26.4054C398.073 27.3163 397.313 28.39 396.701 29.6147L398.848 30.688C399.355 29.6732 399.968 28.8152 400.681 28.1024L398.984 26.4054ZM396.69 29.6365C396.118 30.8416 395.707 32.0708 395.463 33.3229L397.818 33.7825C398.022 32.7391 398.367 31.7007 398.858 30.6662L396.69 29.6365ZM395.463 33.3229C395.223 34.552 395.105 35.833 395.105 37.1641H397.505C397.505 35.9756 397.61 34.8491 397.818 33.7825L395.463 33.3229ZM442.622 18.3936L441.901 17.4345L441.897 17.4375L442.622 18.3936ZM471.639 18.0576H472.839V17.3223L472.183 16.9884L471.639 18.0576ZM471.639 27.5898L471.074 28.6487L472.839 29.5898V27.5898H471.639ZM464.836 25.6162L464.593 26.7914L464.604 26.7937L464.836 25.6162ZM451.608 25.1543L451.988 26.2927L452.001 26.2882L452.015 26.2834L451.608 25.1543ZM450.097 26.2881L449.082 25.6473L449.07 25.6668L449.058 25.6868L450.097 26.2881ZM452.574 32.041L452.113 33.1487L452.126 33.1542L452.139 33.1594L452.574 32.041ZM455.556 33.0068L455.257 34.169L455.556 33.0068ZM459.335 33.8467L459.1 35.0234L459.11 35.0254L459.12 35.0273L459.335 33.8467ZM460.007 33.9727L460.242 32.796L460.007 33.9727ZM466.516 35.6523L466.128 36.788L466.14 36.7922L466.153 36.7962L466.516 35.6523ZM469.287 36.8281L468.67 37.8571L468.694 37.8715L468.718 37.8847L469.287 36.8281ZM471.513 38.3818L470.735 39.2953L470.745 39.3038L470.755 39.3121L471.513 38.3818ZM473.276 40.4814L472.219 41.0481L472.231 41.0709L472.244 41.0932L473.276 40.4814ZM474.326 43.2109L473.158 43.4875L473.163 43.5058L473.168 43.524L474.326 43.2109ZM438.423 56.3545H437.223V57.0656L437.847 57.4071L438.423 56.3545ZM438.423 46.6123L438.937 45.5281L437.223 44.7149V46.6123H438.423ZM446.947 49.5098L446.65 50.6723L446.658 50.6745L446.947 49.5098ZM461.687 44.7227L460.937 45.6597L460.957 45.6761L460.979 45.6915L461.687 44.7227ZM458.873 43.5049L458.595 44.6722L458.608 44.6754L458.622 44.6782L458.873 43.5049ZM454.842 42.665L454.598 43.84L454.611 43.8426L454.623 43.845L454.842 42.665ZM445.646 40.3975L445.168 41.4983L445.175 41.5015L445.646 40.3975ZM441.656 38.1299L440.929 39.0844L440.936 39.0899L440.944 39.0954L441.656 38.1299ZM438.801 34.4346L437.702 34.9166L437.707 34.9283L437.712 34.9399L438.801 34.4346ZM438.951 28.8916C438.951 24.6833 440.436 21.5584 443.347 19.3496L441.897 17.4375C438.314 20.1558 436.551 24.0296 436.551 28.8916H438.951ZM443.343 19.3526C446.333 17.1041 450.7 15.8982 456.605 15.8982V13.4982C450.417 13.4982 445.462 14.7559 441.901 17.4345L443.343 19.3526ZM456.605 15.8982C462.07 15.8982 466.89 16.9846 471.094 19.1268L472.183 16.9884C467.597 14.6515 462.395 13.4982 456.605 13.4982V15.8982ZM470.439 18.0576V27.5898H472.839V18.0576H470.439ZM472.203 26.531C470.771 25.7671 468.346 25.0832 465.067 24.4387L464.604 26.7937C467.877 27.437 469.987 28.0689 471.074 28.6487L472.203 26.531ZM465.079 24.4411C461.772 23.7569 458.763 23.4084 456.06 23.4084V25.8084C458.563 25.8084 461.405 26.1317 464.593 26.7913L465.079 24.4411ZM456.06 23.4084C455.008 23.4084 454.141 23.4366 453.473 23.4973L453.691 25.8875C454.255 25.8362 455.039 25.8084 456.06 25.8084V23.4084ZM453.473 23.4973C452.738 23.5642 451.979 23.7454 451.202 24.0252L452.015 26.2834C452.637 26.0592 453.195 25.9326 453.691 25.8875L453.473 23.4973ZM451.229 24.0159C450.329 24.3158 449.585 24.8518 449.082 25.6473L451.111 26.9289C451.281 26.6606 451.544 26.4408 451.988 26.2927L451.229 24.0159ZM449.058 25.6868C448.61 26.4616 448.435 27.3911 448.435 28.3877H450.835C450.835 27.6486 450.968 27.1784 451.135 26.8893L449.058 25.6868ZM448.435 28.3877C448.435 29.4702 448.748 30.459 449.416 31.2843L451.281 29.7743C450.998 29.4238 450.835 28.9849 450.835 28.3877H448.435ZM449.416 31.2843C450.06 32.0806 450.997 32.6839 452.113 33.1487L453.036 30.9333C452.136 30.5583 451.589 30.1538 451.281 29.7743L449.416 31.2843ZM452.139 33.1594C453.189 33.5675 454.228 33.9044 455.257 34.169L455.854 31.8446C454.924 31.6053 453.976 31.2984 453.009 30.9226L452.139 33.1594ZM455.257 34.169C456.266 34.4285 457.549 34.7132 459.1 35.0234L459.57 32.67C458.042 32.3643 456.805 32.0891 455.854 31.8446L455.257 34.169ZM459.12 35.0273C459.427 35.0832 459.643 35.1236 459.771 35.1494L460.242 32.796C460.091 32.7658 459.858 32.7222 459.55 32.666L459.12 35.0273ZM459.771 35.1494C461.161 35.4273 462.289 35.6751 463.159 35.8927L463.741 33.5643C462.82 33.334 461.652 33.0779 460.242 32.796L459.771 35.1494ZM463.159 35.8927C464.014 36.1064 465.003 36.4038 466.128 36.788L466.903 34.5167C465.733 34.1171 464.678 33.7985 463.741 33.5643L463.159 35.8927ZM466.153 36.7962C467.25 37.1439 468.078 37.5021 468.67 37.8571L469.904 35.7991C469.096 35.3143 468.077 34.8886 466.878 34.5085L466.153 36.7962ZM468.718 37.8847C469.358 38.2294 470.031 38.6958 470.735 39.2953L472.291 37.4683C471.483 36.7801 470.672 36.2107 469.856 35.7716L468.718 37.8847ZM470.755 39.3121C471.399 39.8375 471.88 40.417 472.219 41.0481L474.334 39.9148C473.832 38.9782 473.138 38.1579 472.271 37.4516L470.755 39.3121ZM472.244 41.0932C472.617 41.723 472.928 42.5141 473.158 43.4875L475.494 42.9344C475.221 41.7802 474.831 40.7516 474.309 39.8697L472.244 41.0932ZM473.168 43.524C473.415 44.4398 473.546 45.4939 473.546 46.6963H475.946C475.946 45.3232 475.797 44.0537 475.485 42.8978L473.168 43.524ZM473.546 46.6963C473.546 50.4272 471.977 53.4031 468.719 55.7113L470.107 57.6695C473.96 54.9387 475.946 51.2518 475.946 46.6963H473.546ZM468.719 55.7113C465.422 58.0478 461.04 59.2697 455.472 59.2697V61.6697C461.381 61.6697 466.293 60.3721 470.107 57.6695L468.719 55.7113ZM455.472 59.2697C449.295 59.2697 443.814 57.9382 438.999 55.3019L437.847 57.4071C443.054 60.2578 448.939 61.6697 455.472 61.6697V59.2697ZM439.623 56.3545V46.6123H437.223V56.3545H439.623ZM437.909 47.6965C440.187 48.7772 443.108 49.7657 446.65 50.6723L447.245 48.3473C443.787 47.4621 441.026 46.5191 438.937 45.5281L437.909 47.6965ZM446.658 50.6745C450.225 51.5589 453.446 52.0115 456.312 52.0115V49.6115C453.69 49.6115 450.669 49.1963 447.236 48.345L446.658 50.6745ZM456.312 52.0115C458.352 52.0115 460.134 51.6376 461.576 50.7991L460.37 48.7243C459.404 49.2856 458.078 49.6115 456.312 49.6115V52.0115ZM461.576 50.7991C463.113 49.9057 463.978 48.5361 463.978 46.7803H461.578C461.578 47.6 461.24 48.218 460.37 48.7243L461.576 50.7991ZM463.978 46.7803C463.978 45.5258 463.405 44.4923 462.395 43.7538L460.979 45.6915C461.424 46.0168 461.578 46.3551 461.578 46.7803H463.978ZM462.436 43.7856C461.55 43.0766 460.423 42.6098 459.125 42.3315L458.622 44.6782C459.675 44.9039 460.423 45.249 460.937 45.6597L462.436 43.7856ZM459.151 42.3375C457.951 42.0518 456.587 41.7678 455.06 41.4851L454.623 43.845C456.12 44.1222 457.443 44.398 458.595 44.6722L459.151 42.3375ZM455.086 41.4901C453.59 41.1798 452.054 40.8837 450.476 40.6019L450.054 42.9645C451.611 43.2426 453.126 43.5344 454.598 43.84L455.086 41.4901ZM450.476 40.6019C449 40.3383 447.547 39.903 446.116 39.2934L445.175 41.5015C446.768 42.1797 448.394 42.6682 450.054 42.9645L450.476 40.6019ZM446.123 39.2966C444.714 38.6851 443.464 37.973 442.369 37.1644L440.944 39.0954C442.2 40.0224 443.61 40.8221 445.168 41.4983L446.123 39.2966ZM442.383 37.1754C441.387 36.4162 440.549 35.3501 439.889 33.9292L437.712 34.9399C438.508 36.6545 439.574 38.0519 440.929 39.0844L442.383 37.1754ZM439.9 33.9526C439.279 32.5366 438.951 30.8586 438.951 28.8916H436.551C436.551 31.1238 436.923 33.1411 437.702 34.9166L439.9 33.9526ZM482.641 8.02148L482.264 6.88226L481.441 7.15462V8.02148H482.641ZM494.44 4.11621H495.64V2.45504L494.063 2.97698L494.44 4.11621ZM494.44 16.168H493.24V17.368H494.44V16.168ZM507.584 16.168H508.784V14.968H507.584V16.168ZM507.584 25.2803V26.4803H508.784V25.2803H507.584ZM494.44 25.2803V24.0803H493.24V25.2803H494.44ZM494.44 44.3867H493.24V44.3961L493.241 44.4055L494.44 44.3867ZM495.91 48.25L495.147 49.1763L495.162 49.1885L495.177 49.2001L495.91 48.25ZM506.534 47.998H507.734V45.8786L505.917 46.9691L506.534 47.998ZM506.534 57.8662L507.147 58.8982L507.734 58.5495V57.8662H506.534ZM483.841 46.4443V8.02148H481.441V46.4443H483.841ZM483.018 9.16071L494.817 5.25544L494.063 2.97698L482.264 6.88226L483.018 9.16071ZM493.24 4.11621V16.168H495.64V4.11621H493.24ZM494.44 17.368H507.584V14.968H494.44V17.368ZM506.384 16.168V25.2803H508.784V16.168H506.384ZM507.584 24.0803H494.44V26.4803H507.584V24.0803ZM493.24 25.2803V44.3867H495.64V25.2803H493.24ZM493.241 44.4055C493.271 46.3853 493.819 48.0821 495.147 49.1763L496.673 47.3237C496.098 46.8502 495.665 45.9715 495.64 44.368L493.241 44.4055ZM495.177 49.2001C496.465 50.1936 498.295 50.5838 500.445 50.5838V48.1838C498.509 48.1838 497.315 47.8181 496.643 47.2999L495.177 49.2001ZM500.445 50.5838C503.099 50.5838 505.365 50.0991 507.152 49.027L505.917 46.9691C504.624 47.7447 502.831 48.1838 500.445 48.1838V50.5838ZM505.334 47.998V57.8662H507.734V47.998H505.334ZM505.922 56.8342C503.621 58.1993 500.483 58.9338 496.414 58.9338V61.3338C500.743 61.3338 504.352 60.5565 507.147 58.8982L505.922 56.8342ZM496.414 58.9338C492.006 58.9338 488.921 57.8391 486.93 55.8603C484.94 53.8829 483.841 50.8207 483.841 46.4443H481.441C481.441 51.1943 482.636 54.9768 485.238 57.5625C487.838 60.1469 491.64 61.3338 496.414 61.3338V58.9338ZM513.127 29.1855L511.989 28.8061L511.986 28.8138L513.127 29.1855ZM516.528 22.8027L517.455 23.5651L517.461 23.5578L516.528 22.8027ZM521.525 18.3516L522.167 19.3658L522.171 19.3634L521.525 18.3516ZM527.698 15.6641L527.996 16.8265L528.007 16.8238L527.698 15.6641ZM544.075 16.5459L543.598 17.6471L543.605 17.6501L543.612 17.6529L544.075 16.5459ZM550.542 21.333L551.494 20.6026L550.542 21.333ZM554.027 28.1357L552.879 28.4841L552.88 28.4877L554.027 28.1357ZM554.657 42.4971V43.6971H555.694L555.845 42.6708L554.657 42.4971ZM523.667 42.4971V41.2971H522.264L522.482 42.683L523.667 42.4971ZM528.118 48.7959L527.553 49.8547L527.558 49.8573L528.118 48.7959ZM551.55 48.166H552.75V46.5299L551.189 47.0215L551.55 48.166ZM551.55 57.4463L552.142 58.4902L552.75 58.1454V57.4463H551.55ZM525.305 58.7061L524.878 59.8277L524.89 59.8321L525.305 58.7061ZM517.662 53.751L516.768 54.5511L516.773 54.5573L516.779 54.5634L517.662 53.751ZM513.337 46.4443L512.203 46.8377L512.207 46.8479L513.337 46.4443ZM523.247 34.6445L522.051 34.5501L521.949 35.8445H523.247V34.6445ZM543.907 34.6445V35.8445H545.107V34.6445H543.907ZM526.648 27.2119L527.439 28.115L527.446 28.1088L526.648 27.2119ZM513.109 37.416C513.109 34.5291 513.5 31.913 514.268 29.5573L511.986 28.8138C511.13 31.4411 510.709 34.3121 510.709 37.416H513.109ZM514.265 29.565C515.067 27.1602 516.136 25.1686 517.455 23.5651L515.602 22.0404C514.065 23.9082 512.867 26.1719 511.989 28.8061L514.265 29.565ZM517.461 23.5578C518.807 21.895 520.375 20.4991 522.167 19.3658L520.884 17.3373C518.869 18.6116 517.105 20.1831 515.596 22.0477L517.461 23.5578ZM522.171 19.3634C523.997 18.1987 525.938 17.3543 527.996 16.8265L527.4 14.5017C525.092 15.0936 522.917 16.0409 520.88 17.3398L522.171 19.3634ZM528.007 16.8238C530.114 16.2637 532.305 15.9822 534.585 15.9822V13.5822C532.105 13.5822 529.706 13.8887 527.39 14.5043L528.007 16.8238ZM534.585 15.9822C538.068 15.9822 541.063 16.5492 543.598 17.6471L544.552 15.4447C541.657 14.1911 538.325 13.5822 534.585 13.5822V15.9822ZM543.612 17.6529C546.193 18.7326 548.168 20.21 549.59 22.0634L551.494 20.6026C549.78 18.3688 547.445 16.6548 544.538 15.4389L543.612 17.6529ZM549.59 22.0634C551.069 23.9912 552.165 26.1291 552.879 28.4841L555.176 27.7874C554.378 25.1593 553.151 22.762 551.494 20.6026L549.59 22.0634ZM552.88 28.4877C553.597 30.8235 553.961 33.3908 553.961 36.1982H556.361C556.361 33.1827 555.97 30.3751 555.175 27.7838L552.88 28.4877ZM553.961 36.1982C553.961 38.0328 553.799 40.0733 553.47 42.3233L555.845 42.6708C556.187 40.3297 556.361 38.171 556.361 36.1982H553.961ZM554.657 41.2971H523.667V43.6971H554.657V41.2971ZM522.482 42.683C522.987 45.9054 524.697 48.3311 527.553 49.8547L528.683 47.7371C526.501 46.5732 525.243 44.7997 524.852 42.3111L522.482 42.683ZM527.558 49.8573C530.328 51.3184 533.755 52.0115 537.776 52.0115V49.6115C534.015 49.6115 531.003 48.9609 528.678 47.7345L527.558 49.8573ZM537.776 52.0115C541.535 52.0115 546.259 51.0907 551.91 49.3106L551.189 47.0215C545.643 48.7687 541.185 49.6115 537.776 49.6115V52.0115ZM550.35 48.166V57.4463H552.75V48.166H550.35ZM550.958 56.4024C547.662 58.271 542.821 59.2697 536.307 59.2697V61.6697C543.006 61.6697 548.327 60.6528 552.142 58.4902L550.958 56.4024ZM536.307 59.2697C532.275 59.2697 528.753 58.6975 525.72 57.58L524.89 59.8321C528.24 61.0662 532.052 61.6697 536.307 61.6697V59.2697ZM525.731 57.5845C522.71 56.4347 520.329 54.8778 518.545 52.9385L516.779 54.5634C518.858 56.8234 521.573 58.5699 524.878 59.8276L525.731 57.5845ZM518.556 52.9508C516.758 50.9413 515.396 48.6411 514.467 46.0407L512.207 46.8479C513.238 49.7346 514.759 52.3054 516.768 54.5511L518.556 52.9508ZM514.471 46.051C513.568 43.4491 513.109 40.5745 513.109 37.416H510.709C510.709 40.8084 511.202 43.9526 512.203 46.8377L514.471 46.051ZM523.247 35.8445H543.907V33.4445H523.247V35.8445ZM545.107 34.6445C545.107 31.1232 544.218 28.2522 542.243 26.2444L540.532 27.9274C541.917 29.3351 542.707 31.5031 542.707 34.6445H545.107ZM542.243 26.2444C540.295 24.264 537.696 23.3244 534.585 23.3244V25.7244C537.185 25.7244 539.121 26.4925 540.532 27.9274L542.243 26.2444ZM534.585 23.3244C531.082 23.3244 528.131 24.2883 525.851 26.315L527.446 28.1088C529.197 26.5522 531.537 25.7244 534.585 25.7244V23.3244ZM525.858 26.3088C523.562 28.3181 522.322 31.1116 522.051 34.5501L524.443 34.739C524.676 31.7947 525.704 29.6331 527.439 28.115L525.858 26.3088ZM564.945 59H563.745V60.2H564.945V59ZM564.945 16.168V14.968H563.745V16.168H564.945ZM575.359 16.168L576.553 16.0459L576.443 14.968H575.359V16.168ZM576.115 23.5586L574.921 23.6807L575.326 27.632L577.177 24.1179L576.115 23.5586ZM593.332 15.0342H594.532V14.0972L593.623 13.87L593.332 15.0342ZM593.332 26.918L593.081 28.0913L594.532 28.4024V26.918H593.332ZM581.28 28.0098L581.817 29.0831L581.823 29.0802L581.28 28.0098ZM576.829 32.9229L575.715 32.4772L575.629 32.6918V32.9229H576.829ZM576.829 59V60.2H578.029V59H576.829ZM566.145 59V16.168H563.745V59H566.145ZM564.945 17.368H575.359V14.968H564.945V17.368ZM574.166 16.2901L574.921 23.6807L577.309 23.4365L576.553 16.0459L574.166 16.2901ZM577.177 24.1179C578.587 21.4405 580.5 19.469 582.914 18.1565C585.337 16.8387 588.331 16.1502 591.946 16.1502V13.7502C588.031 13.7502 584.621 14.4964 581.767 16.0481C578.904 17.6051 576.666 19.9378 575.054 22.9993L577.177 24.1179ZM591.946 16.1502C592.283 16.1502 592.547 16.157 592.745 16.169C592.844 16.175 592.919 16.1818 592.974 16.1885C593.032 16.1957 593.05 16.2006 593.041 16.1984L593.623 13.87C593.231 13.7721 592.619 13.7502 591.946 13.7502V16.1502ZM592.132 15.0342V26.918H594.532V15.0342H592.132ZM593.583 25.7446C591.928 25.3899 590.206 25.2141 588.419 25.2141V27.6141C590.048 27.6141 591.601 27.7742 593.081 28.0913L593.583 25.7446ZM588.419 25.2141C585.596 25.2141 583.026 25.7798 580.738 26.9393L581.823 29.0802C583.733 28.1121 585.923 27.6141 588.419 27.6141V25.2141ZM580.744 26.9365C578.397 28.1095 576.715 29.9771 575.715 32.4772L577.943 33.3685C578.735 31.3894 580.02 29.9816 581.817 29.0831L580.744 26.9365ZM575.629 32.9229V59H578.029V32.9229H575.629ZM576.829 57.8H564.945V60.2H576.829V57.8ZM623.944 59H622.744V60.2H623.944V59ZM623.944 4.66211V3.46211H622.744V4.66211H623.944ZM655.48 6.17383L655.085 7.30663L655.088 7.30781L655.48 6.17383ZM666.062 16.4619L664.928 16.854L664.931 16.8624L664.934 16.8709L666.062 16.4619ZM666.021 31.4111L664.897 30.9898L664.894 30.9976L666.021 31.4111ZM662.661 36.9541L661.796 36.122L661.788 36.1306L662.661 36.9541ZM657.664 40.6494L657.121 39.5792L657.115 39.5825L657.664 40.6494ZM651.617 42.791L651.853 43.9678L651.864 43.9653L651.617 42.791ZM635.534 42.665L635.794 41.4936L634.334 41.1691V42.665H635.534ZM635.534 59V60.2H636.734V59H635.534ZM635.534 33.1328H634.334V34.1133L635.295 34.3087L635.534 33.1328ZM652.793 17.1758L651.929 18.009L651.937 18.0167L651.944 18.0243L652.793 17.1758ZM635.534 14.7822V13.5822H634.334V14.7822H635.534ZM625.144 59V4.66211H622.744V59H625.144ZM623.944 5.86211H645.36V3.46211H623.944V5.86211ZM645.36 5.86211C649.123 5.86211 652.357 6.3533 655.085 7.30663L655.876 5.04103C652.837 3.97873 649.324 3.46211 645.36 3.46211V5.86211ZM655.088 7.30781C657.861 8.26781 659.975 9.57579 661.492 11.1938L663.243 9.55232C661.4 7.58697 658.923 6.09547 655.873 5.03984L655.088 7.30781ZM661.492 11.1938C663.059 12.8653 664.201 14.7497 664.928 16.854L667.197 16.0699C666.356 13.639 665.035 11.4641 663.243 9.55232L661.492 11.1938ZM664.934 16.8709C665.693 18.9624 666.08 21.2992 666.08 23.8945H668.48C668.48 21.0588 668.056 18.4406 667.191 16.053L664.934 16.8709ZM666.08 23.8945C666.08 26.5446 665.679 28.9045 664.897 30.9898L667.144 31.8325C668.042 29.4386 668.48 26.7874 668.48 23.8945H666.08ZM664.894 30.9976C664.131 33.0755 663.093 34.7743 661.796 36.122L663.526 37.7862C665.084 36.1665 666.286 34.17 667.147 31.8247L664.894 30.9976ZM661.788 36.1306C660.489 37.5076 658.937 38.6581 657.121 39.5792L658.207 41.7196C660.254 40.6811 662.034 39.368 663.534 37.7776L661.788 36.1306ZM657.115 39.5825C655.308 40.5124 653.394 41.1906 651.37 41.6168L651.864 43.9653C654.095 43.4956 656.213 42.7461 658.213 41.7164L657.115 39.5825ZM651.382 41.6143C649.366 42.0175 647.234 42.2209 644.982 42.2209V44.6209C647.378 44.6209 649.669 44.4044 651.853 43.9677L651.382 41.6143ZM644.982 42.2209C640.985 42.2209 637.936 41.9696 635.794 41.4936L635.274 43.8365C637.667 44.3683 640.917 44.6209 644.982 44.6209V42.2209ZM634.334 42.665V59H636.734V42.665H634.334ZM635.534 57.8H623.944V60.2H635.534V57.8ZM635.295 34.3087C637.072 34.6701 639.777 34.8367 643.345 34.8367V32.4367C639.802 32.4367 637.3 32.2674 635.773 31.9569L635.295 34.3087ZM643.345 34.8367C647.124 34.8367 650.275 34.0019 652.673 32.2032L651.233 30.2832C649.376 31.6758 646.788 32.4367 643.345 32.4367V34.8367ZM652.673 32.2032C655.191 30.3146 656.345 27.3656 656.345 23.6426H653.945C653.945 26.8622 652.97 28.9803 651.233 30.2832L652.673 32.2032ZM656.345 23.6426C656.345 20.6609 655.485 18.1709 653.641 16.3273L651.944 18.0243C653.236 19.3161 653.945 21.1373 653.945 23.6426H656.345ZM653.656 16.3425C651.77 14.3876 648.635 13.5822 644.646 13.5822V15.9822C648.44 15.9822 650.736 16.7726 651.929 18.009L653.656 16.3425ZM644.646 13.5822H635.534V15.9822H644.646V13.5822ZM634.334 14.7822V33.1328H636.734V14.7822H634.334ZM673.915 28.6816L672.792 28.2591L673.915 28.6816ZM678.45 21.333L677.584 20.5022L677.578 20.5084L678.45 21.333ZM705.913 16.5879L705.452 17.6957L705.464 17.7006L705.913 16.5879ZM713.262 21.627L712.356 22.4138L712.361 22.4201L712.367 22.4264L713.262 21.627ZM717.545 28.8076L716.417 29.2187L716.419 29.2225L717.545 28.8076ZM716.243 49.1318L715.182 48.5715L715.18 48.5747L716.243 49.1318ZM708.139 57.4043L707.544 56.3619L707.541 56.3639L708.139 57.4043ZM695.625 60.4697L695.616 61.6697H695.625V60.4697ZM685.379 58.5801L684.914 59.6863L684.926 59.6914L685.379 58.5801ZM678.072 53.541L677.177 54.3405L678.072 53.541ZM673.789 46.4023L672.662 46.8134L672.663 46.8172L673.789 46.4023ZM685.169 42.2451L684.008 42.5505L684.01 42.5556L685.169 42.2451ZM687.101 46.5283L686.105 47.199L686.112 47.2091L687.101 46.5283ZM690.586 49.5518L690.033 50.6168L690.041 50.621L690.049 50.6251L690.586 49.5518ZM700.958 49.5518L701.479 50.633L701.487 50.6291L701.495 50.6251L700.958 49.5518ZM704.443 46.5283L703.438 45.8728L703.435 45.8783L704.443 46.5283ZM705.745 31.3691L704.62 31.787L704.623 31.794L704.625 31.801L705.745 31.3691ZM702.05 26.498L701.325 27.4544L701.335 27.4618L702.05 26.498ZM691.216 25.2803L690.787 24.1596L690.779 24.1628L691.216 25.2803ZM686.009 30.1514L684.935 29.6147L684.93 29.6256L684.925 29.6365L686.009 30.1514ZM673.519 37.8359C673.519 34.6927 674.029 31.7856 675.038 29.1042L672.792 28.2591C671.673 31.2326 671.119 34.4284 671.119 37.8359H673.519ZM675.038 29.1042C676.049 26.4171 677.478 24.1065 679.322 22.1576L677.578 20.5084C675.503 22.7027 673.909 25.2912 672.792 28.2591L675.038 29.1042ZM679.316 22.1638C681.174 20.2277 683.489 18.695 686.286 17.5761L685.395 15.3477C682.313 16.5804 679.702 18.2951 677.584 20.5022L679.316 22.1638ZM686.286 17.5761C689.067 16.464 692.174 15.8982 695.625 15.8982V13.4982C691.909 13.4982 688.494 14.1083 685.395 15.3477L686.286 17.5761ZM695.625 15.8982C699.329 15.8982 702.597 16.5062 705.452 17.6956L706.375 15.4802C703.182 14.15 699.592 13.4982 695.625 13.4982V15.8982ZM705.464 17.7006C708.369 18.8733 710.652 20.4516 712.356 22.4138L714.168 20.8401C712.176 18.5471 709.56 16.766 706.362 15.4751L705.464 17.7006ZM712.367 22.4264C714.139 24.4106 715.489 26.6719 716.418 29.2187L718.672 28.3966C717.641 25.5684 716.135 23.0425 714.157 20.8275L712.367 22.4264ZM716.419 29.2225C717.347 31.7405 717.815 34.4406 717.815 37.332H720.215C720.215 34.1765 719.703 31.1938 718.671 28.3928L716.419 29.2225ZM717.815 37.332C717.815 41.5246 716.929 45.2622 715.182 48.5715L717.304 49.6921C719.252 46.0027 720.215 41.8739 720.215 37.332H717.815ZM715.18 48.5747C713.473 51.8319 710.939 54.4257 707.544 56.3619L708.733 58.4467C712.505 56.2957 715.374 53.3744 717.306 49.689L715.18 48.5747ZM707.541 56.3639C704.196 58.2866 700.238 59.2697 695.625 59.2697V61.6697C700.587 61.6697 704.971 60.6092 708.737 58.4447L707.541 56.3639ZM695.634 59.2698C691.954 59.2427 688.693 58.6344 685.832 57.4688L684.926 59.6914C688.112 60.9893 691.682 61.6408 695.616 61.6697L695.634 59.2698ZM685.844 57.4739C682.988 56.2726 680.707 54.6893 678.967 52.7416L677.177 54.3405C679.189 56.592 681.779 58.368 684.914 59.6862L685.844 57.4739ZM678.967 52.7416C677.193 50.7553 675.843 48.5064 674.915 45.9875L672.663 46.8172C673.695 49.6173 675.201 52.1276 677.177 54.3405L678.967 52.7416ZM674.916 45.9913C673.987 43.4429 673.519 40.7272 673.519 37.8359H671.119C671.119 40.9915 671.631 43.9868 672.662 46.8134L674.916 45.9913ZM683.339 37.1641C683.339 39.05 683.56 40.847 684.008 42.5505L686.329 41.9397C685.938 40.4518 685.739 38.8614 685.739 37.1641H683.339ZM684.01 42.5556C684.463 44.2458 685.16 45.7961 686.105 47.1989L688.096 45.8577C687.305 44.685 686.715 43.3799 686.328 41.9346L684.01 42.5556ZM686.112 47.2091C687.1 48.6422 688.416 49.7771 690.033 50.6168L691.139 48.4868C689.845 47.8147 688.837 46.934 688.089 45.8476L686.112 47.2091ZM690.049 50.6251C691.698 51.4493 693.567 51.8436 695.625 51.8436V49.4436C693.876 49.4436 692.386 49.11 691.123 48.4784L690.049 50.6251ZM695.625 51.8436C697.81 51.8436 699.773 51.4542 701.479 50.633L700.437 48.4706C699.12 49.105 697.527 49.4436 695.625 49.4436V51.8436ZM701.495 50.6251C703.174 49.7856 704.509 48.6412 705.452 47.1784L703.435 45.8783C702.754 46.9349 701.766 47.8062 700.421 48.4784L701.495 50.6251ZM705.448 47.1838C706.354 45.796 707.022 44.3248 707.448 42.7727L705.134 42.1374C704.776 43.4408 704.213 44.6851 703.438 45.8728L705.448 47.1838ZM707.448 42.7727C707.871 41.2338 708.079 39.6147 708.079 37.9199H705.679C705.679 39.4166 705.495 40.8209 705.134 42.1374L707.448 42.7727ZM708.079 37.9199C708.079 35.3861 707.681 33.0533 706.865 30.9373L704.625 31.801C705.321 33.6042 705.679 35.6387 705.679 37.9199H708.079ZM706.87 30.9513C706.058 28.7662 704.68 26.9556 702.765 25.5343L701.335 27.4618C702.891 28.616 703.976 30.0528 704.62 31.787L706.87 30.9513ZM702.775 25.5418C700.797 24.0421 698.388 23.3244 695.625 23.3244V25.7244C697.957 25.7244 699.832 26.3225 701.325 27.4543L702.775 25.5418ZM695.625 23.3244C693.877 23.3244 692.259 23.5959 690.787 24.1596L691.645 26.4009C692.805 25.9568 694.126 25.7244 695.625 25.7244V23.3244ZM690.779 24.1628C689.367 24.7149 688.168 25.4551 687.218 26.4054L688.915 28.1024C689.588 27.429 690.489 26.8534 691.653 26.3978L690.779 24.1628ZM687.218 26.4054C686.307 27.3163 685.548 28.39 684.935 29.6147L687.082 30.688C687.59 29.6732 688.202 28.8152 688.915 28.1024L687.218 26.4054ZM684.925 29.6365C684.352 30.8416 683.942 32.0708 683.697 33.3229L686.053 33.7825C686.256 32.7391 686.601 31.7007 687.093 30.6662L684.925 29.6365ZM683.697 33.3229C683.457 34.552 683.339 35.833 683.339 37.1641H685.739C685.739 35.9756 685.845 34.8491 686.053 33.7825L683.697 33.3229ZM727.161 28.6816L726.038 28.2591L727.161 28.6816ZM731.696 21.333L730.83 20.5022L730.825 20.5084L731.696 21.333ZM759.159 16.5879L758.698 17.6957L758.71 17.7006L759.159 16.5879ZM766.508 21.627L765.602 22.4138L765.607 22.4201L765.613 22.4264L766.508 21.627ZM770.791 28.8076L769.664 29.2187L769.665 29.2225L770.791 28.8076ZM769.489 49.1318L768.428 48.5715L768.426 48.5747L769.489 49.1318ZM761.385 57.4043L760.79 56.3619L760.787 56.3639L761.385 57.4043ZM748.871 60.4697L748.862 61.6697H748.871V60.4697ZM738.625 58.5801L738.16 59.6863L738.172 59.6914L738.625 58.5801ZM731.318 53.541L730.423 54.3405L731.318 53.541ZM727.035 46.4023L725.908 46.8134L725.909 46.8172L727.035 46.4023ZM738.415 42.2451L737.255 42.5505L737.256 42.5556L738.415 42.2451ZM740.347 46.5283L739.352 47.199L739.358 47.2091L740.347 46.5283ZM743.832 49.5518L743.279 50.6168L743.287 50.621L743.295 50.6251L743.832 49.5518ZM754.204 49.5518L754.725 50.633L754.733 50.6291L754.741 50.6251L754.204 49.5518ZM757.689 46.5283L756.684 45.8728L756.681 45.8783L757.689 46.5283ZM758.991 31.3691L757.866 31.787L757.869 31.794L757.872 31.801L758.991 31.3691ZM755.296 26.498L754.571 27.4544L754.581 27.4618L755.296 26.498ZM744.462 25.2803L744.033 24.1596L744.025 24.1628L744.462 25.2803ZM739.255 30.1514L738.182 29.6147L738.176 29.6256L738.171 29.6365L739.255 30.1514ZM726.765 37.8359C726.765 34.6927 727.275 31.7856 728.284 29.1042L726.038 28.2591C724.919 31.2326 724.365 34.4284 724.365 37.8359H726.765ZM728.284 29.1042C729.295 26.4171 730.725 24.1065 732.568 22.1576L730.825 20.5084C728.749 22.7027 727.155 25.2912 726.038 28.2591L728.284 29.1042ZM732.562 22.1638C734.42 20.2277 736.735 18.695 739.533 17.5761L738.641 15.3477C735.56 16.5804 732.948 18.2951 730.83 20.5022L732.562 22.1638ZM739.533 17.5761C742.313 16.464 745.42 15.8982 748.871 15.8982V13.4982C745.155 13.4982 741.74 14.1083 738.641 15.3477L739.533 17.5761ZM748.871 15.8982C752.575 15.8982 755.843 16.5062 758.698 17.6956L759.621 15.4802C756.428 14.15 752.838 13.4982 748.871 13.4982V15.8982ZM758.71 17.7006C761.615 18.8733 763.898 20.4516 765.602 22.4138L767.414 20.8401C765.422 18.5471 762.806 16.766 759.608 15.4751L758.71 17.7006ZM765.613 22.4264C767.385 24.4106 768.735 26.6719 769.664 29.2187L771.918 28.3966C770.887 25.5684 769.381 23.0425 767.403 20.8275L765.613 22.4264ZM769.665 29.2225C770.593 31.7405 771.061 34.4406 771.061 37.332H773.461C773.461 34.1765 772.949 31.1938 771.917 28.3928L769.665 29.2225ZM771.061 37.332C771.061 41.5246 770.175 45.2622 768.428 48.5715L770.55 49.6921C772.498 46.0027 773.461 41.8739 773.461 37.332H771.061ZM768.426 48.5747C766.719 51.8319 764.185 54.4257 760.79 56.3619L761.979 58.4467C765.751 56.2957 768.62 53.3744 770.552 49.689L768.426 48.5747ZM760.787 56.3639C757.442 58.2866 753.484 59.2697 748.871 59.2697V61.6697C753.833 61.6697 758.217 60.6092 761.983 58.4447L760.787 56.3639ZM748.88 59.2698C745.2 59.2427 741.939 58.6344 739.078 57.4688L738.172 59.6914C741.358 60.9893 744.928 61.6408 748.862 61.6697L748.88 59.2698ZM739.09 57.4739C736.234 56.2726 733.953 54.6893 732.213 52.7416L730.423 54.3405C732.435 56.592 735.025 58.368 738.16 59.6862L739.09 57.4739ZM732.213 52.7416C730.439 50.7553 729.089 48.5064 728.161 45.9875L725.909 46.8172C726.941 49.6173 728.447 52.1276 730.423 54.3405L732.213 52.7416ZM728.163 45.9913C727.233 43.4429 726.765 40.7272 726.765 37.8359H724.365C724.365 40.9915 724.877 43.9868 725.908 46.8134L728.163 45.9913ZM736.585 37.1641C736.585 39.05 736.806 40.847 737.255 42.5505L739.576 41.9397C739.184 40.4518 738.985 38.8614 738.985 37.1641H736.585ZM737.256 42.5556C737.709 44.2458 738.406 45.7961 739.352 47.1989L741.342 45.8577C740.552 44.685 739.961 43.3799 739.574 41.9346L737.256 42.5556ZM739.358 47.2091C740.346 48.6422 741.662 49.7771 743.279 50.6168L744.385 48.4868C743.091 47.8147 742.083 46.934 741.335 45.8476L739.358 47.2091ZM743.295 50.6251C744.944 51.4493 746.813 51.8436 748.871 51.8436V49.4436C747.122 49.4436 745.632 49.11 744.369 48.4784L743.295 50.6251ZM748.871 51.8436C751.056 51.8436 753.019 51.4542 754.725 50.633L753.684 48.4706C752.366 49.105 750.773 49.4436 748.871 49.4436V51.8436ZM754.741 50.6251C756.42 49.7856 757.755 48.6412 758.698 47.1784L756.681 45.8783C756 46.9349 755.012 47.8062 753.667 48.4784L754.741 50.6251ZM758.695 47.1838C759.6 45.796 760.268 44.3248 760.694 42.7727L758.38 42.1374C758.022 43.4408 757.459 44.6851 756.684 45.8728L758.695 47.1838ZM760.694 42.7727C761.117 41.2338 761.325 39.6147 761.325 37.9199H758.925C758.925 39.4166 758.741 40.8209 758.38 42.1374L760.694 42.7727ZM761.325 37.9199C761.325 35.3861 760.927 33.0533 760.111 30.9373L757.872 31.801C758.567 33.6042 758.925 35.6387 758.925 37.9199H761.325ZM760.116 30.9513C759.305 28.7662 757.927 26.9556 756.011 25.5343L754.581 27.4618C756.137 28.616 757.222 30.0528 757.866 31.787L760.116 30.9513ZM756.021 25.5418C754.043 24.0421 751.634 23.3244 748.871 23.3244V25.7244C751.203 25.7244 753.078 26.3225 754.571 27.4543L756.021 25.5418ZM748.871 23.3244C747.123 23.3244 745.505 23.5959 744.033 24.1596L744.891 26.4009C746.051 25.9568 747.372 25.7244 748.871 25.7244V23.3244ZM744.025 24.1628C742.614 24.7149 741.414 25.4551 740.464 26.4054L742.161 28.1024C742.834 27.429 743.735 26.8534 744.899 26.3978L744.025 24.1628ZM740.464 26.4054C739.553 27.3163 738.794 28.39 738.182 29.6147L740.328 30.688C740.836 29.6732 741.448 28.8152 742.161 28.1024L740.464 26.4054ZM738.171 29.6365C737.599 30.8416 737.188 32.0708 736.943 33.3229L739.299 33.7825C739.503 32.7391 739.847 31.7007 740.339 30.6662L738.171 29.6365ZM736.943 33.3229C736.703 34.552 736.585 35.833 736.585 37.1641H738.985C738.985 35.9756 739.091 34.8491 739.299 33.7825L736.943 33.3229ZM781.289 59H780.089V60.2H781.289V59ZM781.289 0.798828V-0.401172H780.089V0.798828H781.289ZM793.257 0.798828H794.457V-0.401172H793.257V0.798828ZM793.257 59V60.2H794.457V59H793.257ZM782.489 59V0.798828H780.089V59H782.489ZM781.289 1.99883H793.257V-0.401172H781.289V1.99883ZM792.057 0.798828V59H794.457V0.798828H792.057ZM793.257 57.8H781.289V60.2H793.257V57.8Z" fill="url(#paint0_linear_0_12)"/>
<defs>
<linearGradient id="paint0_linear_0_12" x1="22.5" y1="22.5" x2="786.791" y2="109.281" gradientUnits="userSpaceOnUse">
<stop offset="0.0246473" stop-color="#5EC7EC"/>
<stop offset="0.994004" stop-color="white"/>
</linearGradient>
</defs>
</svg>
