<svg width="63" height="70" viewBox="0 0 63 70" fill="none" xmlns="http://www.w3.org/2000/svg">
<path d="M39.0612 32.0733L44.2021 23.3505L58.0583 44.9323L58.0648 49.0738L58.0197 20.5734C57.9869 19.8767 57.6169 19.2394 57.0267 18.8636L32.0802 4.51398C31.4967 4.22723 30.7566 4.23027 30.1742 4.52288C30.0956 4.56242 30.0215 4.60522 29.9509 4.65192L29.864 4.70666L5.64937 18.7389L5.55531 18.7815C5.43453 18.8371 5.31244 18.9077 5.19774 18.9898C4.73873 19.3191 4.43373 19.8059 4.33511 20.3521C4.32034 20.4348 4.30947 20.5191 4.30426 20.604L4.34228 43.8292L17.2488 23.8248C18.8737 21.1721 22.4142 20.3177 25.7007 20.3642L29.5581 20.4661L6.83026 56.9151L9.5094 58.4577L32.5097 20.503L42.6758 20.4661L19.7348 59.3785L29.2948 64.8772L30.437 65.5341C30.9202 65.7305 31.4898 65.7402 31.977 65.5645L57.2741 50.9045L52.4376 53.707L39.0612 32.0733ZM41.0226 60.3222L31.3668 45.1675L37.261 35.1657L49.942 55.1531L41.0226 60.3222Z" fill="#2D374B"/>
<path d="M31.3668 45.1675L41.0226 60.3222L49.9423 55.1531L37.2612 35.1656L31.3668 45.1675Z" fill="#28A0F0"/>
<path d="M58.0648 49.0739L58.0583 44.9323L44.2021 23.3506L39.0612 32.0734L52.4376 53.707L57.2741 50.9045C57.7486 50.5194 58.0355 49.9539 58.0657 49.3437L58.0648 49.0739Z" fill="#28A0F0"/>
<path d="M0.000218772 52.9797L6.83005 56.9151L29.5579 20.4661L25.7005 20.3642C22.414 20.3177 18.8737 21.1721 17.2486 23.8247L4.34207 43.8292L0 50.5006V52.9797H0.000218772Z" fill="white"/>
<path d="M42.6756 20.4661L32.5097 20.503L9.50941 58.4576L17.5486 63.0865L19.7348 59.3785L42.6756 20.4661Z" fill="white"/>
<path d="M62.349 20.4138C62.2641 18.2877 61.113 16.3413 59.3097 15.2082L34.0363 0.674185C32.2526 -0.224076 30.0242 -0.225163 28.2377 0.673533C28.0265 0.779978 3.65962 14.9119 3.65962 14.9119C3.32247 15.0735 2.9977 15.2662 2.69205 15.4847C1.08235 16.6385 0.101109 18.4311 0.000312805 20.4007V50.5009L4.34238 43.8294L4.30436 20.6043C4.30958 20.5194 4.32022 20.4359 4.33521 20.3534C4.43319 19.8068 4.7384 19.3194 5.19785 18.99C5.31255 18.9079 30.0954 4.56267 30.1743 4.52313C30.7569 4.23052 31.497 4.22748 32.0803 4.51423L57.0268 18.8638C57.617 19.2396 57.987 19.877 58.0198 20.5737V49.3439C57.9896 49.9541 57.7484 50.5193 57.274 50.9047L52.4375 53.7072L49.9421 55.1534L41.0225 60.3224L31.9769 65.5647C31.4897 65.7407 30.9201 65.7309 30.4369 65.5343L19.7347 59.3788L17.5485 63.0865L27.1663 68.624C27.4843 68.8048 27.7678 68.9651 28.0002 69.0959C28.3604 69.2979 28.6057 69.4328 28.6923 69.4747C29.376 69.8067 30.3594 70 31.2457 70C32.0584 70 32.8506 69.8508 33.6005 69.5571L59.8738 54.3414C61.3819 53.1731 62.2691 51.4111 62.349 49.5023V20.4138Z" fill="#96BEDC"/>
</svg>
