<svg width="119" height="49" viewBox="0 0 119 49" fill="none" xmlns="http://www.w3.org/2000/svg">
<path fill-rule="evenodd" clip-rule="evenodd" d="M32.376 26.1819H16.2671C15.2282 26.1819 14.3863 25.3396 14.3863 24.3007C14.3863 23.2618 15.2282 22.4199 16.2671 22.4199H32.376C33.4148 22.4199 34.2571 23.2618 34.2571 24.3007C34.2571 25.3396 33.4146 26.1819 32.376 26.1819Z" fill="white"/>
<path fill-rule="evenodd" clip-rule="evenodd" d="M35.5362 19.8233H20.6506C19.612 19.8233 18.7699 18.9811 18.7699 17.9427C18.7699 16.9038 19.612 16.0619 20.6506 16.0619L35.5362 16.0618C36.5749 16.0618 37.4175 16.9038 37.4175 17.9427C37.4175 18.9811 36.5749 19.8233 35.5362 19.8233Z" fill="white"/>
<path fill-rule="evenodd" clip-rule="evenodd" d="M20.6523 19.8241C20.0025 19.8241 19.3704 19.4868 19.0219 18.8835L11.4752 5.81323C10.956 4.9135 11.2644 3.7633 12.1636 3.24346C13.0631 2.72598 14.2136 3.03311 14.7333 3.93208L22.28 17.0023C22.7992 17.9019 22.4908 19.0523 21.5914 19.572C21.2953 19.7427 20.9717 19.8241 20.6523 19.8241Z" fill="white"/>
<path fill-rule="evenodd" clip-rule="evenodd" d="M27.9924 32.54H13.1065C12.0677 32.54 11.2256 31.6975 11.2256 30.6589C11.2256 29.6202 12.0677 28.7777 13.1065 28.7777H27.9924C29.0312 28.7777 29.8735 29.6202 29.8735 30.6589C29.8735 31.6975 29.0312 32.54 27.9924 32.54Z" fill="white"/>
<path fill-rule="evenodd" clip-rule="evenodd" d="M35.5399 45.6098C34.8895 45.6098 34.2577 45.273 33.9092 44.669L26.3632 31.599C25.8442 30.6996 26.1521 29.5495 27.052 29.0296C27.9534 28.51 29.1022 28.8184 29.6213 29.7187L37.1672 42.7885C37.6863 43.6879 37.3784 44.8383 36.4783 45.3579C36.1823 45.529 35.8588 45.6098 35.5399 45.6098Z" fill="white"/>
<mask id="mask0_0_487" style="mask-type:alpha" maskUnits="userSpaceOnUse" x="11" y="0" width="38" height="38">
<path d="M11.2252 0.000610352H48.6431V37.3967H11.2252V0.000610352Z" fill="white"/>
</mask>
<g mask="url(#mask0_0_487)">
<path fill-rule="evenodd" clip-rule="evenodd" d="M43.7445 37.3967C43.4255 37.3967 43.1023 37.3158 42.806 37.1446C41.906 36.625 41.5984 35.4748 42.1172 34.5754C44.8623 29.8217 45.5911 24.2848 44.1701 18.9824C42.7497 13.6807 39.349 9.24924 34.5961 6.50512C28.2574 2.84601 20.3838 2.84662 14.0469 6.50512C13.1473 7.02412 11.9973 6.71608 11.4775 5.81665C10.9579 4.91684 11.2663 3.76649 12.1657 3.24703C15.9146 1.08285 20.118 0.000610352 24.3214 0.000610352C28.5247 0.000610352 32.7279 1.08285 36.4767 3.24703C42.1004 6.49406 46.1231 11.7365 47.8041 18.0089C49.4848 24.2816 48.6225 30.8328 45.3752 36.456C45.0268 37.0599 44.3943 37.3967 43.7445 37.3967Z" fill="white"/>
</g>
<mask id="mask1_0_487" style="mask-type:alpha" maskUnits="userSpaceOnUse" x="0" y="11" width="38" height="38">
<path d="M0 11.2051H37.4175V48.6019H0V11.2051Z" fill="white"/>
</mask>
<g mask="url(#mask1_0_487)">
<path fill-rule="evenodd" clip-rule="evenodd" d="M24.3217 48.6017C20.118 48.6017 15.915 47.5196 12.1657 45.3547C6.54231 42.1075 2.51956 36.865 0.838924 30.5926C-0.842097 24.3202 0.0207221 17.7688 3.26745 12.1454C3.78775 11.2463 4.93809 10.9377 5.83714 11.4574C6.73657 11.9766 7.045 13.1268 6.52576 14.0264C3.78103 18.7799 3.05176 24.3177 4.4724 29.6193C5.89304 34.9213 9.29337 39.3523 14.0468 42.0965C20.3847 45.7563 28.2575 45.7563 34.596 42.0971C35.4968 41.5774 36.6462 41.8859 37.1652 42.7859C37.6843 43.6853 37.3766 44.8355 36.4766 45.3552C32.7278 47.5188 28.5243 48.6017 24.3217 48.6017Z" fill="white"/>
</g>
<path fill-rule="evenodd" clip-rule="evenodd" d="M64.6067 16.9805H77.4655C77.9688 16.9805 78.2205 17.278 78.2205 17.8729C78.2205 18.4527 77.9688 18.7423 77.4655 18.7423H64.6067V21.5015C64.6067 22.7585 65.7886 23.387 68.1531 23.387H77.4655C77.9992 23.387 78.2663 23.6655 78.2663 24.2225C78.2663 24.8095 77.9992 25.103 77.4655 25.103H68.0846C64.3014 25.103 62.4102 23.9287 62.4102 21.5795V14.0976C62.4102 11.703 64.37 10.5054 68.2904 10.5054H70.8302C71.3335 10.5054 71.5852 10.7953 71.5852 11.3748C71.5852 11.9393 71.3335 12.2214 70.8302 12.2214H69.1142C66.1089 12.2214 64.6067 12.847 64.6067 14.0976V16.9805Z" fill="white"/>
<path fill-rule="evenodd" clip-rule="evenodd" d="M98.2636 23.7531C98.2636 24.2415 98.1298 24.6076 97.8632 24.8514C97.5961 25.0955 97.2872 25.2175 96.9365 25.2175C96.7838 25.2175 96.6197 25.1867 96.4445 25.1259C96.269 25.0652 96.0974 24.9508 95.9297 24.7827L83.0252 13.251V24.2794C83.0252 24.905 82.6666 25.2175 81.9499 25.2175C81.2481 25.2175 80.8974 24.905 80.8974 24.2794V11.7638C80.8974 11.3062 81.0347 10.9744 81.3091 10.7685C81.5838 10.5626 81.8887 10.4596 82.2244 10.4596C82.4378 10.4596 82.6363 10.4865 82.8193 10.5397C83.0023 10.5933 83.1775 10.7038 83.3455 10.8715L96.1357 22.1744V11.2833C96.1357 10.6884 96.5017 10.391 97.234 10.391C97.9204 10.391 98.2636 10.6884 98.2636 11.2833V23.7531Z" fill="white"/>
<path fill-rule="evenodd" clip-rule="evenodd" d="M116.201 14.1475C116.201 12.8637 114.829 12.2216 112.083 12.2216H107.232C104.547 12.2216 103.205 12.8637 103.205 14.1475V21.3694C103.205 22.7147 104.547 23.3872 107.232 23.3872H113.044C115.149 23.3872 116.201 22.7227 116.201 21.3927V14.1475ZM118.398 21.3087C118.398 22.9568 117.52 24.0858 115.763 24.696L116.865 25.3123C116.987 25.3885 117.09 25.5065 117.174 25.6667C117.258 25.8261 117.3 25.9669 117.3 26.0889C117.3 26.3477 117.2 26.5608 117.002 26.7285C116.804 26.8954 116.575 26.9795 116.316 26.9795C116.163 26.9795 115.988 26.9258 115.79 26.8192L112.747 25.0347H106.615C102.877 25.0347 101.009 23.7916 101.009 21.3051V14.1893C101.009 11.7336 102.872 10.5056 106.599 10.5056H112.693C116.496 10.5056 118.398 11.7264 118.398 14.1675V21.3087Z" fill="white"/>
<path fill-rule="evenodd" clip-rule="evenodd" d="M63.3131 35.1738H68.4995C68.7025 35.1738 68.804 35.2937 68.804 35.5338C68.804 35.7676 68.7025 35.8844 68.4995 35.8844H63.3131V36.9973C63.3131 37.5043 63.7898 37.7577 64.7436 37.7577H68.4995C68.7147 37.7577 68.8224 37.8702 68.8224 38.0948C68.8224 38.3315 68.7147 38.4499 68.4995 38.4499H64.7159C63.19 38.4499 62.4273 37.9762 62.4273 37.0287V34.011C62.4273 33.0452 63.2177 32.5621 64.7988 32.5621H65.8233C66.0263 32.5621 66.1277 32.6791 66.1277 32.9128C66.1277 33.1406 66.0263 33.2543 65.8233 33.2543H65.1312C63.9191 33.2543 63.3131 33.5066 63.3131 34.011V35.1738Z" fill="white"/>
<path fill-rule="evenodd" clip-rule="evenodd" d="M76.8881 37.9055C76.8881 38.1024 76.8342 38.2502 76.7267 38.3485C76.619 38.447 76.4944 38.4961 76.3529 38.4961C76.2914 38.4961 76.2251 38.4837 76.1545 38.4592C76.0837 38.4347 76.0145 38.3886 75.9468 38.3208L70.742 33.6697V38.1178C70.742 38.3701 70.5974 38.4961 70.3083 38.4961C70.0252 38.4961 69.8838 38.3701 69.8838 38.1178V33.0698C69.8838 32.8853 69.9391 32.7515 70.0499 32.6683C70.1606 32.5853 70.2836 32.5438 70.4191 32.5438C70.5052 32.5438 70.5851 32.5546 70.659 32.5761C70.7328 32.5977 70.8035 32.6423 70.8713 32.7099L76.0299 37.2687V32.876C76.0299 32.6361 76.1776 32.5161 76.4728 32.5161C76.7498 32.5161 76.8881 32.6361 76.8881 32.876V37.9055Z" fill="white"/>
<path fill-rule="evenodd" clip-rule="evenodd" d="M78.8813 35.1738H84.0677C84.2707 35.1738 84.3722 35.2937 84.3722 35.5338C84.3722 35.7676 84.2707 35.8844 84.0677 35.8844H78.8813V36.9973C78.8813 37.5043 79.358 37.7577 80.3118 37.7577H84.0677C84.2829 37.7577 84.3906 37.8702 84.3906 38.0948C84.3906 38.3315 84.2829 38.4499 84.0677 38.4499H80.2841C78.7582 38.4499 77.9955 37.9762 77.9955 37.0287V34.011C77.9955 33.0452 78.7859 32.5621 80.367 32.5621H81.3915C81.5945 32.5621 81.6959 32.6791 81.6959 32.9128C81.6959 33.1406 81.5945 33.2543 81.3915 33.2543H80.6994C79.4873 33.2543 78.8813 33.5066 78.8813 34.011V35.1738Z" fill="white"/>
<path fill-rule="evenodd" clip-rule="evenodd" d="M87.7129 33.2543C86.7284 33.2543 86.2364 33.4856 86.2364 33.9478V36.9533C86.2364 37.4896 86.7776 37.7577 87.8606 37.7577H91.0904C91.3058 37.7577 91.4135 37.8701 91.4135 38.0948C91.4135 38.3315 91.3058 38.4499 91.0904 38.4499H87.7406C86.1594 38.4499 85.3689 37.9578 85.3689 36.9734V33.9464C85.3689 33.0236 86.141 32.5621 87.6852 32.5621H91.0904C91.3058 32.5621 91.4135 32.6761 91.4135 32.9036C91.4135 33.1375 91.3058 33.2543 91.0904 33.2543H87.7129Z" fill="white"/>
<path fill-rule="evenodd" clip-rule="evenodd" d="M99.3868 36.8258C99.3868 37.9087 98.4178 38.45 96.4798 38.45H95.1602C93.3329 38.45 92.4193 37.9087 92.4193 36.8258V32.876C92.4193 32.6361 92.5622 32.5161 92.8483 32.5161C93.1528 32.5161 93.3052 32.6364 93.3052 32.8766V36.7687C93.3052 37.4282 93.8824 37.7579 95.0372 37.7579H96.6307C97.8897 37.7579 98.5192 37.4282 98.5192 36.7687V32.8766C98.5192 32.6364 98.6638 32.5161 98.9531 32.5161C99.2422 32.5161 99.3868 32.6361 99.3868 32.876V36.8258Z" fill="white"/>
<path fill-rule="evenodd" clip-rule="evenodd" d="M107.462 36.8258C107.462 37.9087 106.493 38.45 104.555 38.45H103.235C101.408 38.45 100.494 37.9087 100.494 36.8258V32.876C100.494 32.6361 100.637 32.5161 100.923 32.5161C101.228 32.5161 101.38 32.6364 101.38 32.8766V36.7687C101.38 37.4282 101.957 37.7579 103.112 37.7579H104.706C105.965 37.7579 106.594 37.4282 106.594 36.7687V32.8766C106.594 32.6364 106.739 32.5161 107.028 32.5161C107.317 32.5161 107.462 32.6361 107.462 32.876V36.8258Z" fill="white"/>
<path fill-rule="evenodd" clip-rule="evenodd" d="M118.185 38.1178C118.185 38.3701 118.034 38.4961 117.733 38.4961C117.456 38.4961 117.318 38.3701 117.318 38.1178V33.8265L114.023 38.1824C113.869 38.3916 113.672 38.4961 113.433 38.4961C113.174 38.4961 112.968 38.3916 112.814 38.1824L109.464 33.8357V38.1178C109.464 38.3701 109.323 38.4961 109.04 38.4961C108.751 38.4961 108.606 38.3701 108.606 38.1178V33.0144C108.606 32.6821 108.769 32.5161 109.095 32.5161C109.323 32.5161 109.517 32.6176 109.676 32.8206L113.442 37.6287L117.133 32.7744C117.268 32.6024 117.447 32.5161 117.668 32.5161C118.013 32.5161 118.185 32.6884 118.185 33.0329V38.1178Z" fill="white"/>
</svg>
