<svg width="641" height="63" viewBox="0 0 641 63" fill="none" xmlns="http://www.w3.org/2000/svg">
<path d="M0.103516 60.832H-1.09648V61.9635L0.0330505 62.03L0.103516 60.832ZM0.103516 6.66211L0.0539398 5.46313L-1.09648 5.51071V6.66211H0.103516ZM35.7969 9.81152L35.1348 10.8124L35.1437 10.8182L35.7969 9.81152ZM33.2773 32.1094L32.7933 31.0113L29.7068 32.372L32.9592 33.2664L33.2773 32.1094ZM36.7207 57.0527L36.0789 56.0388L36.076 56.0406L36.7207 57.0527ZM11.6934 51.6357H10.4934V52.7596L11.6148 52.8332L11.6934 51.6357ZM28.1963 50.166L28.8179 51.1925L28.822 51.19L28.1963 50.166ZM11.6934 37.7783V36.5783H10.4934V37.7783H11.6934ZM11.6934 28.918H10.4934V30.118H11.6934V28.918ZM26.3906 27.1123L25.7214 26.1162L25.7141 26.1212L26.3906 27.1123ZM26.3486 17.1602L25.7242 18.1849L25.7335 18.1906L25.743 18.1961L26.3486 17.1602ZM11.6934 15.6904L11.6444 14.4914L10.4934 14.5384V15.6904H11.6934ZM1.30351 60.832V6.66211H-1.09648V60.832H1.30351ZM0.153091 7.86108C7.58897 7.55359 13.9824 7.4002 19.3359 7.4002V5.00019C13.9395 5.00019 7.51128 5.15475 0.0539398 5.46313L0.153091 7.86108ZM19.3359 7.4002C26.5786 7.4002 31.7845 8.59603 35.1348 10.8123L36.459 8.8107C32.5306 6.21192 26.7626 5.00019 19.3359 5.00019V7.4002ZM35.1437 10.8182C38.4841 12.9856 40.0978 15.9175 40.0978 19.7217H42.4979C42.4979 15.0715 40.4443 11.3966 36.45 8.80486L35.1437 10.8182ZM40.0978 19.7217C40.0978 22.3769 39.4629 24.6364 38.2317 26.546L40.2488 27.8465C41.761 25.501 42.4979 22.7774 42.4979 19.7217H40.0978ZM38.2317 26.546C37.0026 28.4524 35.2095 29.9461 32.7933 31.0113L33.7614 33.2074C36.5523 31.977 38.7344 30.1954 40.2488 27.8465L38.2317 26.546ZM32.9592 33.2664C36.1415 34.1416 38.4116 35.5566 39.8929 37.4391C41.3705 39.3168 42.1555 41.7768 42.1555 44.917H44.5555C44.5555 41.3664 43.6608 38.3464 41.779 35.955C39.9009 33.5682 37.132 31.9249 33.5955 30.9523L32.9592 33.2664ZM42.1555 44.917C42.1555 49.8021 40.15 53.4621 36.0789 56.0388L37.3625 58.0667C42.1377 55.0444 44.5555 50.6139 44.5555 44.917H42.1555ZM36.076 56.0406C31.9424 58.6735 26.2046 60.052 18.748 60.052V62.452C26.4646 62.452 32.7087 61.0309 37.3654 58.0649L36.076 56.0406ZM18.748 60.052C11.0887 60.052 4.89995 59.9121 0.173981 59.6341L0.0330505 62.03C4.8253 62.3119 11.0662 62.452 18.748 62.452V60.052ZM11.6148 52.8332C15.0333 53.0573 17.5582 53.1717 19.168 53.1717V50.7717C17.6423 50.7717 15.1842 50.6621 11.7719 50.4383L11.6148 52.8332ZM19.168 53.1717C23.2775 53.1717 26.5508 52.5655 28.8179 51.1924L27.5746 49.1396C25.8665 50.1741 23.121 50.7717 19.168 50.7717V53.1717ZM28.822 51.19C31.2269 49.7203 32.4197 47.4231 32.4197 44.4971H30.0197C30.0197 46.6661 29.197 48.1482 27.5706 49.1421L28.822 51.19ZM32.4197 44.4971C32.4197 41.8354 31.2383 39.7589 28.9484 38.4217C26.7578 37.1426 23.6266 36.5783 19.7139 36.5783V38.9783C23.4717 38.9783 26.0934 39.5338 27.7381 40.4943C29.2835 41.3967 30.0197 42.6796 30.0197 44.4971H32.4197ZM19.7139 36.5783H11.6934V38.9783H19.7139V36.5783ZM10.4934 37.7783V51.6357H12.8934V37.7783H10.4934ZM11.6934 30.118H19.3359V27.718H11.6934V30.118ZM19.3359 30.118C22.4285 30.118 25.0419 29.4858 27.0671 28.1034L25.7141 26.1212C24.2121 27.1464 22.1223 27.718 19.3359 27.718V30.118ZM27.0598 28.1084C29.2076 26.6654 30.2781 24.5284 30.2781 21.8633H27.8781C27.8781 23.7893 27.157 25.1517 25.7214 26.1162L27.0598 28.1084ZM30.2781 21.8633C30.2781 19.3562 29.1341 17.3986 26.9543 16.1242L25.743 18.1961C27.2025 19.0494 27.8781 20.2272 27.8781 21.8633H30.2781ZM26.9731 16.1354C24.9157 14.8817 22.1306 14.3225 18.748 14.3225V16.7225C21.9163 16.7225 24.1982 17.255 25.7242 18.1849L26.9731 16.1354ZM18.748 14.3225C16.7671 14.3225 14.3983 14.379 11.6444 14.4914L11.7423 16.8894C14.4754 16.7779 16.8097 16.7225 18.748 16.7225V14.3225ZM10.4934 15.6904V28.918H12.8934V15.6904H10.4934ZM51.292 31.1855L50.1535 30.8061L50.151 30.8138L51.292 31.1855ZM54.6934 24.8027L55.6201 25.5651L55.6261 25.5578L54.6934 24.8027ZM59.6904 20.3516L60.3318 21.3658L60.3356 21.3634L59.6904 20.3516ZM65.8633 17.6641L66.1613 18.8265L66.1716 18.8238L65.8633 17.6641ZM82.2402 18.5459L81.7634 19.6471L81.7702 19.6501L81.7771 19.6529L82.2402 18.5459ZM88.707 23.333L89.6591 22.6026L88.707 23.333ZM92.1924 30.1357L91.0441 30.4841L91.0452 30.4877L92.1924 30.1357ZM92.8223 44.4971V45.6971H93.8594L94.0096 44.6708L92.8223 44.4971ZM61.832 44.4971V43.2971H60.4291L60.6465 44.683L61.832 44.4971ZM66.2832 50.7959L65.7185 51.8547L65.7234 51.8573L66.2832 50.7959ZM89.7148 50.166H90.9149V48.5299L89.3543 49.0215L89.7148 50.166ZM89.7148 59.4463L90.3067 60.4902L90.9149 60.1454V59.4463H89.7148ZM63.4697 60.7061L63.0429 61.8277L63.0549 61.8321L63.4697 60.7061ZM55.8271 55.751L54.9329 56.5511L54.9384 56.5573L54.944 56.5634L55.8271 55.751ZM51.502 48.4443L50.3682 48.8377L50.3719 48.8479L51.502 48.4443ZM61.4121 36.6445L60.2158 36.5501L60.1136 37.8445H61.4121V36.6445ZM82.0723 36.6445V37.8445H83.2723V36.6445H82.0723ZM64.8135 29.2119L65.6037 30.115L65.6107 30.1088L64.8135 29.2119ZM51.2742 39.416C51.2742 36.5291 51.6654 33.913 52.433 31.5573L50.151 30.8138C49.2949 33.4411 48.8742 36.3121 48.8742 39.416H51.2742ZM52.4304 31.565C53.232 29.1602 54.3011 27.1686 55.6201 25.5651L53.7666 24.0404C52.2302 25.9082 51.0316 28.1719 50.1536 30.8061L52.4304 31.565ZM55.6261 25.5578C56.9721 23.895 58.5396 22.4991 60.3318 21.3658L59.0491 19.3373C57.034 20.6116 55.2701 22.1831 53.7607 24.0477L55.6261 25.5578ZM60.3356 21.3634C62.162 20.1987 64.1027 19.3543 66.1613 18.8265L65.5652 16.5017C63.2567 17.0936 61.0821 18.0409 59.0452 19.3398L60.3356 21.3634ZM66.1716 18.8238C68.2786 18.2637 70.4704 17.9822 72.75 17.9822V15.5822C70.2705 15.5822 67.8711 15.8887 65.555 16.5043L66.1716 18.8238ZM72.75 17.9822C76.2326 17.9822 79.2278 18.5492 81.7634 19.6471L82.717 17.4447C79.8217 16.1911 76.4901 15.5822 72.75 15.5822V17.9822ZM81.7771 19.6529C84.3578 20.7326 86.3331 22.21 87.7549 24.0634L89.6591 22.6026C87.9455 20.3688 85.6097 18.6548 82.7034 17.4389L81.7771 19.6529ZM87.7549 24.0634C89.2338 25.9912 90.3296 28.1291 91.0441 30.4841L93.3407 29.7874C92.5434 27.1593 91.3157 24.762 89.6591 22.6026L87.7549 24.0634ZM91.0452 30.4877C91.7618 32.8235 92.1262 35.3908 92.1262 38.1982H94.5262C94.5262 35.1827 94.1346 32.3751 93.3396 29.7838L91.0452 30.4877ZM92.1262 38.1982C92.1262 40.0328 91.9642 42.0733 91.6349 44.3233L94.0096 44.6708C94.3522 42.3297 94.5262 40.171 94.5262 38.1982H92.1262ZM92.8223 43.2971H61.832V45.6971H92.8223V43.2971ZM60.6465 44.683C61.152 47.9054 62.8617 50.3311 65.7185 51.8547L66.8479 49.7371C64.6656 48.5732 63.4079 46.7997 63.0175 44.3111L60.6465 44.683ZM65.7234 51.8573C68.4933 53.3184 71.9204 54.0115 75.9414 54.0115V51.6115C72.1798 51.6115 69.1682 50.9609 66.843 49.7345L65.7234 51.8573ZM75.9414 54.0115C79.7 54.0115 84.4241 53.0907 90.0754 51.3106L89.3543 49.0215C83.8077 50.7687 79.3495 51.6115 75.9414 51.6115V54.0115ZM88.5148 50.166V59.4463H90.9149V50.166H88.5148ZM89.123 58.4024C85.8269 60.271 80.9857 61.2697 74.4717 61.2697V63.6697C81.1712 63.6697 86.4921 62.6528 90.3067 60.4902L89.123 58.4024ZM74.4717 61.2697C70.4401 61.2697 66.9177 60.6975 63.8846 59.58L63.0549 61.8321C66.4046 63.0662 70.2168 63.6697 74.4717 63.6697V61.2697ZM63.8965 59.5845C60.8749 58.4347 58.4944 56.8778 56.7103 54.9385L54.944 56.5634C57.0232 58.8234 59.7377 60.5699 63.0429 61.8276L63.8965 59.5845ZM56.7214 54.9508C54.9234 52.9413 53.5607 50.6411 52.632 48.0407L50.3719 48.8479C51.4028 51.7346 52.9236 54.3054 54.9329 56.5511L56.7214 54.9508ZM52.6357 48.051C51.7329 45.4491 51.2742 42.5745 51.2742 39.416H48.8742C48.8742 42.8084 49.3673 45.9526 50.3683 48.8377L52.6357 48.051ZM61.4121 37.8445H82.0723V35.4445H61.4121V37.8445ZM83.2723 36.6445C83.2723 33.1232 82.383 30.2522 80.4082 28.2444L78.6972 29.9274C80.0818 31.3351 80.8723 33.5031 80.8723 36.6445H83.2723ZM80.4082 28.2444C78.4603 26.264 75.8607 25.3244 72.75 25.3244V27.7244C75.3502 27.7244 77.2858 28.4925 78.6972 29.9274L80.4082 28.2444ZM72.75 25.3244C69.2468 25.3244 66.2963 26.2883 64.0162 28.315L65.6107 30.1088C67.3619 28.5522 69.7025 27.7244 72.75 27.7244V25.3244ZM64.0233 28.3088C61.727 30.3181 60.4873 33.1116 60.2158 36.5501L62.6084 36.739C62.8408 33.7947 63.8687 31.6331 65.6037 30.115L64.0233 28.3088ZM103.11 61H101.91V62.2H103.11V61ZM103.11 2.79883V1.59883H101.91V2.79883H103.11ZM114.91 2.79883H116.11V1.59883H114.91V2.79883ZM114.91 24.0049H113.71V28.2137L115.93 24.6377L114.91 24.0049ZM139.644 20.8135L138.786 21.6532L138.791 21.6576L139.644 20.8135ZM143.717 61V62.2H144.917V61H143.717ZM131.917 61H130.717V62.2H131.917V61ZM124.19 26.3564V25.1564H124.165L124.14 25.1575L124.19 26.3564ZM118.731 28.0781L119.377 29.0898L119.381 29.087L118.731 28.0781ZM114.91 32.4453L113.834 31.9151L113.71 32.1658V32.4453H114.91ZM114.91 61V62.2H116.11V61H114.91ZM104.31 61V2.79883H101.91V61H104.31ZM103.11 3.99883H114.91V1.59883H103.11V3.99883ZM113.71 2.79883V24.0049H116.11V2.79883H113.71ZM115.93 24.6377C118.717 20.1478 122.891 17.8982 128.642 17.8982V15.4982C122.13 15.4982 117.151 18.1198 113.891 23.372L115.93 24.6377ZM128.642 17.8982C133.039 17.8982 136.371 19.1873 138.786 21.6532L140.501 19.9737C137.541 16.9527 133.539 15.4982 128.642 15.4982V17.8982ZM138.791 21.6576C141.218 24.1105 142.517 27.6995 142.517 32.6133H144.917C144.917 27.281 143.5 23.0035 140.496 19.9693L138.791 21.6576ZM142.517 32.6133V61H144.917V32.6133H142.517ZM143.717 59.8H131.917V62.2H143.717V59.8ZM133.117 61V34.7549H130.717V61H133.117ZM133.117 34.7549C133.117 31.5062 132.417 28.8878 130.661 27.3112L129.058 29.097C130.045 29.984 130.717 31.7327 130.717 34.7549H133.117ZM130.661 27.3112C129.009 25.8275 126.801 25.1564 124.19 25.1564V27.5564C126.395 27.5564 127.967 28.1172 129.058 29.097L130.661 27.3112ZM124.14 25.1575C121.942 25.2504 119.915 25.8885 118.082 27.0693L119.381 29.087C120.851 28.1402 122.464 27.6305 124.241 27.5554L124.14 25.1575ZM118.086 27.0664C116.262 28.2303 114.846 29.86 113.834 31.9151L115.987 32.9755C116.822 31.2793 117.954 29.9975 119.377 29.0898L118.086 27.0664ZM113.71 32.4453V61H116.11V32.4453H113.71ZM114.91 59.8H103.11V62.2H114.91V59.8ZM156.86 2.63086L157.7 3.48832L157.709 3.47939L156.86 2.63086ZM166.603 2.58887L165.754 3.43744L165.763 3.44628L166.603 2.58887ZM166.603 12.2891L165.754 11.4405L165.745 11.4495L166.603 12.2891ZM156.86 12.3311L156.012 13.1796L156.021 13.1885L156.86 12.3311ZM155.811 61H154.611V62.2H155.811V61ZM155.811 18.168V16.968H154.611V18.168H155.811ZM167.736 18.168H168.936V16.968H167.736V18.168ZM167.736 61V62.2H168.936V61H167.736ZM156.045 7.41797C156.045 5.86593 156.586 4.57898 157.7 3.48827L156.021 1.77345C154.447 3.31425 153.645 5.21871 153.645 7.41797H156.045ZM157.709 3.47939C158.827 2.36112 160.145 1.81523 161.731 1.81523V-0.584765C159.51 -0.584765 157.581 0.213099 156.012 1.78233L157.709 3.47939ZM161.731 1.81523C163.358 1.81523 164.673 2.35608 165.754 3.4374L167.451 1.74034C165.901 0.190148 163.968 -0.584765 161.731 -0.584765V1.81523ZM165.763 3.44628C166.873 4.53322 167.418 5.83252 167.418 7.41797H169.818C169.818 5.19613 169.02 3.27603 167.442 1.73145L165.763 3.44628ZM167.418 7.41797C167.418 9.00398 166.872 10.3223 165.754 11.4405L167.451 13.1376C169.02 11.5684 169.818 9.63925 169.818 7.41797H167.418ZM165.745 11.4495C164.662 12.5558 163.35 13.1047 161.731 13.1047V15.5047C163.976 15.5047 165.912 14.7098 167.46 13.1286L165.745 11.4495ZM161.731 13.1047C160.137 13.1047 158.816 12.5668 157.7 11.4736L156.021 13.1885C157.592 14.7268 159.518 15.5047 161.731 15.5047V13.1047ZM157.709 11.4825C156.594 10.3679 156.045 9.03723 156.045 7.41797H153.645C153.645 9.66199 154.439 11.6067 156.012 13.1796L157.709 11.4825ZM157.011 61V18.168H154.611V61H157.011ZM155.811 19.368H167.736V16.968H155.811V19.368ZM166.536 18.168V61H168.936V18.168H166.536ZM167.736 59.8H155.811V62.2H167.736V59.8ZM179.704 61H178.504V62.2H179.704V61ZM179.704 18.168V16.968H178.504V18.168H179.704ZM190.202 18.168H191.402V16.968H190.202V18.168ZM190.202 25.2227H189.002L191.291 25.7269L190.202 25.2227ZM216.363 20.8135L215.515 21.662L215.519 21.6663L216.363 20.8135ZM220.479 61V62.2H221.679V61H220.479ZM208.595 61H207.395V62.2H208.595V61ZM206.579 28.1621L205.749 29.0289L205.759 29.0379L205.768 29.0467L206.579 28.1621ZM200.952 26.2725V25.0725H200.915L200.878 25.0748L200.952 26.2725ZM191.588 32.3613L190.547 31.7643L190.388 32.0416V32.3613H191.588ZM191.588 61V62.2H192.788V61H191.588ZM180.904 61V18.168H178.504V61H180.904ZM179.704 19.368H190.202V16.968H179.704V19.368ZM189.002 18.168V25.2227H191.402V18.168H189.002ZM191.291 25.7269C192.51 23.0947 194.265 21.1625 196.554 19.8753C198.856 18.5807 201.772 17.8982 205.361 17.8982V15.4982C201.476 15.4982 198.128 16.2365 195.377 17.7834C192.613 19.3377 190.526 21.6677 189.113 24.7184L191.291 25.7269ZM205.361 17.8982C209.697 17.8982 213.037 19.1843 215.515 21.662L217.212 19.9649C214.202 16.9556 210.208 15.4982 205.361 15.4982V17.8982ZM215.519 21.6663C217.969 24.0912 219.279 27.6482 219.279 32.5293H221.679C221.679 27.2203 220.245 22.9667 217.207 19.9606L215.519 21.6663ZM219.279 32.5293V61H221.679V32.5293H219.279ZM220.479 59.8H208.595V62.2H220.479V59.8ZM209.795 61V34.7549H207.395V61H209.795ZM209.795 34.7549C209.795 31.4879 209.113 28.8567 207.39 27.2775L205.768 29.0467C206.733 29.931 207.395 31.695 207.395 34.7549H209.795ZM207.409 27.2953C205.803 25.7578 203.59 25.0725 200.952 25.0725V27.4725C203.185 27.4725 204.724 28.0469 205.749 29.0289L207.409 27.2953ZM200.878 25.0748C196.379 25.354 192.912 27.64 190.547 31.7643L192.629 32.9583C194.631 29.4681 197.406 27.6949 201.026 27.4702L200.878 25.0748ZM190.388 32.3613V61H192.788V32.3613H190.388ZM191.588 59.8H179.704V62.2H191.588V59.8ZM235.176 22.9131L234.307 22.0854L234.307 22.0855L235.176 22.9131ZM262.555 20.4775L261.803 21.4129L263.755 22.9813V20.4775H262.555ZM262.555 2.79883V1.59883H261.355V2.79883H262.555ZM274.187 2.79883H275.387V1.59883H274.187V2.79883ZM274.187 61V62.2H275.387V61H274.187ZM264.36 61L263.165 61.1111L263.267 62.2H264.36V61ZM263.856 55.583L265.051 55.4719L264.802 52.7957L262.976 54.7676L263.856 55.583ZM240.593 60.1182L240.09 61.2078L240.1 61.2122L240.593 60.1182ZM234.336 55.3311L233.396 56.0776L233.401 56.0838L234.336 55.3311ZM230.599 48.2764L229.457 48.6451L229.458 48.6486L230.599 48.2764ZM244.288 29.8838L243.344 29.1433L243.343 29.1448L244.288 29.8838ZM244.12 48.7383L243.142 49.4337L243.146 49.4389L244.12 48.7383ZM262.849 46.1348L263.876 46.7542L264.049 46.4684V46.1348H262.849ZM262.849 29.5898H264.049V28.98L263.556 28.6205L262.849 29.5898ZM230.497 39.584C230.497 32.8183 232.385 27.5837 236.045 23.7407L234.307 22.0855C230.128 26.4729 228.097 32.3523 228.097 39.584H230.497ZM236.045 23.7408C239.735 19.8673 244.612 17.8982 250.797 17.8982V15.4982C244.049 15.4982 238.511 17.6724 234.307 22.0854L236.045 23.7408ZM250.797 17.8982C255.275 17.8982 258.916 19.0927 261.803 21.4129L263.306 19.5421C259.923 16.8233 255.725 15.4982 250.797 15.4982V17.8982ZM263.755 20.4775V2.79883H261.355V20.4775H263.755ZM262.555 3.99883H274.187V1.59883H262.555V3.99883ZM272.987 2.79883V61H275.387V2.79883H272.987ZM274.187 59.8H264.36V62.2H274.187V59.8ZM265.555 60.8889L265.051 55.4719L262.662 55.6942L263.165 61.1111L265.555 60.8889ZM262.976 54.7676C259.351 58.6817 254.776 60.6398 249.159 60.6398V63.0398C255.412 63.0398 260.635 60.8267 264.737 56.3984L262.976 54.7676ZM249.159 60.6398C246.143 60.6398 243.459 60.0934 241.086 59.0241L240.1 61.2122C242.822 62.4385 245.848 63.0398 249.159 63.0398V60.6398ZM241.096 59.0286C238.702 57.9237 236.769 56.438 235.27 54.5783L233.401 56.0838C235.151 58.2553 237.389 59.9611 240.09 61.2077L241.096 59.0286ZM235.275 54.5846C233.747 52.6605 232.566 50.4377 231.739 47.9041L229.458 48.6486C230.367 51.4341 231.678 53.9144 233.396 56.0775L235.275 54.5846ZM231.741 47.9076C230.915 45.3506 230.497 42.5787 230.497 39.584H228.097C228.097 42.8041 228.547 45.8272 229.457 48.6451L231.741 47.9076ZM243.343 29.1448C241.239 31.8365 240.233 35.2365 240.233 39.248H242.633C242.633 35.645 243.53 32.8021 245.234 30.6228L243.343 29.1448ZM240.233 39.248C240.233 43.2461 241.176 46.6681 243.142 49.4337L245.098 48.0429C243.481 45.7694 242.633 42.8646 242.633 39.248H240.233ZM243.146 49.4389C245.18 52.2679 248.09 53.6756 251.721 53.6756V51.2756C248.801 51.2756 246.643 50.1917 245.094 48.0377L243.146 49.4389ZM251.721 53.6756C257.019 53.6756 261.115 51.3358 263.876 46.7542L261.821 45.5154C259.487 49.3881 256.164 51.2756 251.721 51.2756V53.6756ZM264.049 46.1348V29.5898H261.649V46.1348H264.049ZM263.556 28.6205C260.25 26.2084 256.589 24.9885 252.603 24.9885V27.3885C256.063 27.3885 259.232 28.4362 262.141 30.5592L263.556 28.6205ZM252.603 24.9885C248.686 24.9885 245.54 26.3429 243.344 29.1434L245.232 30.6242C246.9 28.4976 249.296 27.3885 252.603 27.3885V24.9885ZM309.628 10.0215L309.251 8.88226L308.428 9.15462V10.0215H309.628ZM321.428 6.11621H322.628V4.45504L321.051 4.97698L321.428 6.11621ZM321.428 18.168H320.228V19.368H321.428V18.168ZM334.571 18.168H335.771V16.968H334.571V18.168ZM334.571 27.2803V28.4803H335.771V27.2803H334.571ZM321.428 27.2803V26.0803H320.228V27.2803H321.428ZM321.428 46.3867H320.228V46.3961L320.228 46.4055L321.428 46.3867ZM322.897 50.25L322.135 51.1763L322.149 51.1885L322.164 51.2001L322.897 50.25ZM333.521 49.998H334.721V47.8786L332.904 48.9691L333.521 49.998ZM333.521 59.8662L334.134 60.8982L334.721 60.5495V59.8662H333.521ZM310.828 48.4443V10.0215H308.428V48.4443H310.828ZM310.005 11.1607L321.805 7.25544L321.051 4.97698L309.251 8.88226L310.005 11.1607ZM320.228 6.11621V18.168H322.628V6.11621H320.228ZM321.428 19.368H334.571V16.968H321.428V19.368ZM333.371 18.168V27.2803H335.771V18.168H333.371ZM334.571 26.0803H321.428V28.4803H334.571V26.0803ZM320.228 27.2803V46.3867H322.628V27.2803H320.228ZM320.228 46.4055C320.259 48.3853 320.806 50.0821 322.135 51.1763L323.66 49.3237C323.085 48.8502 322.653 47.9715 322.628 46.368L320.228 46.4055ZM322.164 51.2001C323.452 52.1936 325.282 52.5838 327.433 52.5838V50.1838C325.496 50.1838 324.302 49.8181 323.63 49.2999L322.164 51.2001ZM327.433 52.5838C330.086 52.5838 332.352 52.0991 334.139 51.027L332.904 48.9691C331.611 49.7447 329.818 50.1838 327.433 50.1838V52.5838ZM332.321 49.998V59.8662H334.721V49.998H332.321ZM332.909 58.8342C330.609 60.1993 327.47 60.9338 323.401 60.9338V63.3338C327.731 63.3338 331.339 62.5565 334.134 60.8982L332.909 58.8342ZM323.401 60.9338C318.993 60.9338 315.908 59.8391 313.917 57.8603C311.928 55.8829 310.828 52.8207 310.828 48.4443H308.428C308.428 53.1943 309.624 56.9768 312.225 59.5625C314.826 62.1469 318.627 63.3338 323.401 63.3338V60.9338ZM343.222 61H342.022V62.2H343.222V61ZM343.222 2.79883V1.59883H342.022V2.79883H343.222ZM355.021 2.79883H356.221V1.59883H355.021V2.79883ZM355.021 24.0049H353.821V28.2137L356.041 24.6377L355.021 24.0049ZM379.755 20.8135L378.898 21.6532L378.902 21.6576L379.755 20.8135ZM383.828 61V62.2H385.028V61H383.828ZM372.028 61H370.828V62.2H372.028V61ZM364.302 26.3564V25.1564H364.276L364.251 25.1575L364.302 26.3564ZM358.843 28.0781L359.488 29.0898L359.493 29.087L358.843 28.0781ZM355.021 32.4453L353.945 31.9151L353.821 32.1658V32.4453H355.021ZM355.021 61V62.2H356.221V61H355.021ZM344.422 61V2.79883H342.022V61H344.422ZM343.222 3.99883H355.021V1.59883H343.222V3.99883ZM353.821 2.79883V24.0049H356.221V2.79883H353.821ZM356.041 24.6377C358.828 20.1478 363.002 17.8982 368.753 17.8982V15.4982C362.242 15.4982 357.262 18.1198 354.002 23.372L356.041 24.6377ZM368.753 17.8982C373.15 17.8982 376.482 19.1873 378.898 21.6532L380.612 19.9737C377.653 16.9527 373.65 15.4982 368.753 15.4982V17.8982ZM378.902 21.6576C381.33 24.1105 382.628 27.6995 382.628 32.6133H385.028C385.028 27.281 383.611 23.0035 380.608 19.9693L378.902 21.6576ZM382.628 32.6133V61H385.028V32.6133H382.628ZM383.828 59.8H372.028V62.2H383.828V59.8ZM373.228 61V34.7549H370.828V61H373.228ZM373.228 34.7549C373.228 31.5062 372.528 28.8878 370.772 27.3112L369.169 29.097C370.157 29.984 370.828 31.7327 370.828 34.7549H373.228ZM370.772 27.3112C369.12 25.8275 366.913 25.1564 364.302 25.1564V27.5564C366.506 27.5564 368.078 28.1172 369.169 29.097L370.772 27.3112ZM364.251 25.1575C362.053 25.2504 360.026 25.8885 358.193 27.0693L359.493 29.087C360.963 28.1402 362.575 27.6305 364.352 27.5554L364.251 25.1575ZM358.197 27.0664C356.373 28.2303 354.957 29.86 353.945 31.9151L356.098 32.9755C356.933 31.2793 358.065 29.9975 359.488 29.0898L358.197 27.0664ZM353.821 32.4453V61H356.221V32.4453H353.821ZM355.021 59.8H343.222V62.2H355.021V59.8ZM394.116 31.1855L392.978 30.8061L392.975 30.8138L394.116 31.1855ZM397.518 24.8027L398.444 25.5651L398.45 25.5578L397.518 24.8027ZM402.515 20.3516L403.156 21.3658L403.16 21.3634L402.515 20.3516ZM408.688 17.6641L408.986 18.8265L408.996 18.8238L408.688 17.6641ZM425.064 18.5459L424.588 19.6471L424.594 19.6501L424.601 19.6529L425.064 18.5459ZM431.531 23.333L432.483 22.6026L431.531 23.333ZM435.017 30.1357L433.868 30.4841L433.869 30.4877L435.017 30.1357ZM435.646 44.4971V45.6971H436.684L436.834 44.6708L435.646 44.4971ZM404.656 44.4971V43.2971H403.253L403.471 44.683L404.656 44.4971ZM409.107 50.7959L408.543 51.8547L408.548 51.8573L409.107 50.7959ZM432.539 50.166H433.739V48.5299L432.179 49.0215L432.539 50.166ZM432.539 59.4463L433.131 60.4902L433.739 60.1454V59.4463H432.539ZM406.294 60.7061L405.867 61.8277L405.879 61.8321L406.294 60.7061ZM398.651 55.751L397.757 56.5511L397.763 56.5573L397.768 56.5634L398.651 55.751ZM394.326 48.4443L393.192 48.8377L393.196 48.8479L394.326 48.4443ZM404.236 36.6445L403.04 36.5501L402.938 37.8445H404.236V36.6445ZM424.896 36.6445V37.8445H426.096V36.6445H424.896ZM407.638 29.2119L408.428 30.115L408.435 30.1088L407.638 29.2119ZM394.098 39.416C394.098 36.5291 394.49 33.913 395.257 31.5573L392.975 30.8138C392.119 33.4411 391.698 36.3121 391.698 39.416H394.098ZM395.255 31.565C396.056 29.1602 397.125 27.1686 398.444 25.5651L396.591 24.0404C395.054 25.9082 393.856 28.1719 392.978 30.8061L395.255 31.565ZM398.45 25.5578C399.796 23.895 401.364 22.4991 403.156 21.3658L401.873 19.3373C399.858 20.6116 398.094 22.1831 396.585 24.0477L398.45 25.5578ZM403.16 21.3634C404.986 20.1987 406.927 19.3543 408.986 18.8265L408.389 16.5017C406.081 17.0936 403.906 18.0409 401.869 19.3398L403.16 21.3634ZM408.996 18.8238C411.103 18.2637 413.295 17.9822 415.574 17.9822V15.5822C413.095 15.5822 410.695 15.8887 408.379 16.5043L408.996 18.8238ZM415.574 17.9822C419.057 17.9822 422.052 18.5492 424.588 19.6471L425.541 17.4447C422.646 16.1911 419.314 15.5822 415.574 15.5822V17.9822ZM424.601 19.6529C427.182 20.7326 429.157 22.21 430.579 24.0634L432.483 22.6026C430.77 20.3688 428.434 18.6548 425.528 17.4389L424.601 19.6529ZM430.579 24.0634C432.058 25.9912 433.154 28.1291 433.868 30.4841L436.165 29.7874C435.368 27.1593 434.14 24.762 432.483 22.6026L430.579 24.0634ZM433.869 30.4877C434.586 32.8235 434.95 35.3908 434.95 38.1982H437.35C437.35 35.1827 436.959 32.3751 436.164 29.7838L433.869 30.4877ZM434.95 38.1982C434.95 40.0328 434.788 42.0733 434.459 44.3233L436.834 44.6708C437.176 42.3297 437.35 40.171 437.35 38.1982H434.95ZM435.646 43.2971H404.656V45.6971H435.646V43.2971ZM403.471 44.683C403.976 47.9054 405.686 50.3311 408.543 51.8547L409.672 49.7371C407.49 48.5732 406.232 46.7997 405.842 44.3111L403.471 44.683ZM408.548 51.8573C411.318 53.3184 414.745 54.0115 418.766 54.0115V51.6115C415.004 51.6115 411.992 50.9609 409.667 49.7345L408.548 51.8573ZM418.766 54.0115C422.524 54.0115 427.248 53.0907 432.9 51.3106L432.179 49.0215C426.632 50.7687 422.174 51.6115 418.766 51.6115V54.0115ZM431.339 50.166V59.4463H433.739V50.166H431.339ZM431.947 58.4024C428.651 60.271 423.81 61.2697 417.296 61.2697V63.6697C423.995 63.6697 429.316 62.6528 433.131 60.4902L431.947 58.4024ZM417.296 61.2697C413.264 61.2697 409.742 60.6975 406.709 59.58L405.879 61.8321C409.229 63.0662 413.041 63.6697 417.296 63.6697V61.2697ZM406.721 59.5845C403.699 58.4347 401.319 56.8778 399.534 54.9385L397.768 56.5634C399.847 58.8234 402.562 60.5699 405.867 61.8276L406.721 59.5845ZM399.546 54.9508C397.748 52.9413 396.385 50.6411 395.456 48.0407L393.196 48.8479C394.227 51.7346 395.748 54.3054 397.757 56.5511L399.546 54.9508ZM395.46 48.051C394.557 45.4491 394.098 42.5745 394.098 39.416H391.698C391.698 42.8084 392.192 45.9526 393.192 48.8377L395.46 48.051ZM404.236 37.8445H424.896V35.4445H404.236V37.8445ZM426.096 36.6445C426.096 33.1232 425.207 30.2522 423.232 28.2444L421.521 29.9274C422.906 31.3351 423.696 33.5031 423.696 36.6445H426.096ZM423.232 28.2444C421.284 26.264 418.685 25.3244 415.574 25.3244V27.7244C418.174 27.7244 420.11 28.4925 421.521 29.9274L423.232 28.2444ZM415.574 25.3244C412.071 25.3244 409.121 26.2883 406.84 28.315L408.435 30.1088C410.186 28.5522 412.527 27.7244 415.574 27.7244V25.3244ZM406.847 28.3088C404.551 30.3181 403.312 33.1116 403.04 36.5501L405.433 36.739C405.665 33.7947 406.693 31.6331 408.428 30.115L406.847 28.3088ZM471.676 61H470.476V62.2H471.676V61ZM471.676 6.66211V5.46211H470.476V6.66211H471.676ZM503.212 8.17383L502.816 9.30663L502.819 9.30781L503.212 8.17383ZM513.794 18.4619L512.66 18.854L512.663 18.8624L512.666 18.8709L513.794 18.4619ZM513.752 33.4111L512.628 32.9898L512.625 32.9976L513.752 33.4111ZM510.393 38.9541L509.528 38.122L509.52 38.1306L510.393 38.9541ZM505.396 42.6494L504.853 41.5792L504.846 41.5825L505.396 42.6494ZM499.349 44.791L499.584 45.9678L499.596 45.9653L499.349 44.791ZM483.266 44.665L483.526 43.4936L482.066 43.1691V44.665H483.266ZM483.266 61V62.2H484.466V61H483.266ZM483.266 35.1328H482.066V36.1133L483.026 36.3087L483.266 35.1328ZM500.524 19.1758L499.661 20.009L499.668 20.0167L499.676 20.0243L500.524 19.1758ZM483.266 16.7822V15.5822H482.066V16.7822H483.266ZM472.876 61V6.66211H470.476V61H472.876ZM471.676 7.86211H493.092V5.46211H471.676V7.86211ZM493.092 7.86211C496.854 7.86211 500.088 8.3533 502.816 9.30663L503.608 7.04103C500.568 5.97873 497.056 5.46211 493.092 5.46211V7.86211ZM502.819 9.30781C505.593 10.2678 507.706 11.5758 509.223 13.1938L510.974 11.5523C509.132 9.58697 506.654 8.09547 503.604 7.03984L502.819 9.30781ZM509.223 13.1938C510.79 14.8653 511.932 16.7497 512.66 18.854L514.928 18.0699C514.088 15.639 512.766 13.4641 510.974 11.5523L509.223 13.1938ZM512.666 18.8709C513.424 20.9624 513.812 23.2992 513.812 25.8945H516.212C516.212 23.0588 515.788 20.4406 514.922 18.053L512.666 18.8709ZM513.812 25.8945C513.812 28.5446 513.41 30.9045 512.628 32.9898L514.876 33.8325C515.773 31.4386 516.212 28.7874 516.212 25.8945H513.812ZM512.625 32.9976C511.863 35.0755 510.825 36.7743 509.528 38.122L511.257 39.7862C512.816 38.1665 514.018 36.17 514.878 33.8247L512.625 32.9976ZM509.52 38.1306C508.221 39.5076 506.669 40.6581 504.853 41.5792L505.938 43.7196C507.986 42.6811 509.765 41.368 511.265 39.7776L509.52 38.1306ZM504.846 41.5825C503.04 42.5124 501.126 43.1906 499.101 43.6168L499.596 45.9653C501.827 45.4956 503.944 44.7461 505.945 43.7164L504.846 41.5825ZM499.113 43.6143C497.097 44.0175 494.965 44.2209 492.714 44.2209V46.6209C495.11 46.6209 497.401 46.4044 499.584 45.9677L499.113 43.6143ZM492.714 44.2209C488.716 44.2209 485.668 43.9696 483.526 43.4936L483.005 45.8365C485.398 46.3683 488.649 46.6209 492.714 46.6209V44.2209ZM482.066 44.665V61H484.466V44.665H482.066ZM483.266 59.8H471.676V62.2H483.266V59.8ZM483.026 36.3087C484.803 36.6701 487.509 36.8367 491.076 36.8367V34.4367C487.533 34.4367 485.031 34.2674 483.505 33.9569L483.026 36.3087ZM491.076 36.8367C494.855 36.8367 498.006 36.0019 500.405 34.2032L498.965 32.2832C497.108 33.6758 494.52 34.4367 491.076 34.4367V36.8367ZM500.405 34.2032C502.923 32.3146 504.076 29.3656 504.076 25.6426H501.676C501.676 28.8622 500.702 30.9803 498.965 32.2832L500.405 34.2032ZM504.076 25.6426C504.076 22.6609 503.217 20.1709 501.373 18.3273L499.676 20.0243C500.968 21.3161 501.676 23.1373 501.676 25.6426H504.076ZM501.388 18.3425C499.502 16.3876 496.367 15.5822 492.378 15.5822V17.9822C496.172 17.9822 498.468 18.7726 499.661 20.009L501.388 18.3425ZM492.378 15.5822H483.266V17.9822H492.378V15.5822ZM482.066 16.7822V35.1328H484.466V16.7822H482.066ZM521.646 30.6816L520.523 30.2591L521.646 30.6816ZM526.182 23.333L525.316 22.5022L525.31 22.5084L526.182 23.333ZM553.645 18.5879L553.183 19.6957L553.195 19.7006L553.645 18.5879ZM560.993 23.627L560.087 24.4138L560.093 24.4201L560.098 24.4264L560.993 23.627ZM565.276 30.8076L564.149 31.2187L564.15 31.2225L565.276 30.8076ZM563.975 51.1318L562.913 50.5715L562.912 50.5747L563.975 51.1318ZM555.87 59.4043L555.276 58.3619L555.272 58.3639L555.87 59.4043ZM543.356 62.4697L543.348 63.6697H543.356V62.4697ZM533.11 60.5801L532.645 61.6863L532.658 61.6914L533.11 60.5801ZM525.804 55.541L524.909 56.3405L525.804 55.541ZM521.521 48.4023L520.393 48.8134L520.394 48.8172L521.521 48.4023ZM532.9 44.2451L531.74 44.5505L531.741 44.5556L532.9 44.2451ZM534.832 48.5283L533.837 49.199L533.844 49.2091L534.832 48.5283ZM538.317 51.5518L537.764 52.6168L537.773 52.621L537.781 52.6251L538.317 51.5518ZM548.689 51.5518L549.21 52.633L549.218 52.6291L549.226 52.6251L548.689 51.5518ZM552.175 48.5283L551.17 47.8728L551.166 47.8783L552.175 48.5283ZM553.477 33.3691L552.352 33.787L552.354 33.794L552.357 33.801L553.477 33.3691ZM549.781 28.498L549.056 29.4544L549.066 29.4618L549.781 28.498ZM538.947 27.2803L538.518 26.1596L538.51 26.1628L538.947 27.2803ZM533.74 32.1514L532.667 31.6147L532.661 31.6256L532.656 31.6365L533.74 32.1514ZM521.251 39.8359C521.251 36.6927 521.761 33.7856 522.77 31.1042L520.523 30.2591C519.405 33.2326 518.851 36.4284 518.851 39.8359H521.251ZM522.77 31.1042C523.781 28.4171 525.21 26.1065 527.053 24.1576L525.31 22.5084C523.234 24.7027 521.64 27.2912 520.523 30.2591L522.77 31.1042ZM527.048 24.1638C528.905 22.2277 531.221 20.695 534.018 19.5761L533.127 17.3477C530.045 18.5804 527.433 20.2951 525.316 22.5022L527.048 24.1638ZM534.018 19.5761C536.798 18.464 539.906 17.8982 543.356 17.8982V15.4982C539.64 15.4982 536.225 16.1083 533.127 17.3477L534.018 19.5761ZM543.356 17.8982C547.06 17.8982 550.329 18.5062 553.183 19.6956L554.106 17.4802C550.914 16.15 547.323 15.4982 543.356 15.4982V17.8982ZM553.195 19.7006C556.1 20.8733 558.383 22.4516 560.087 24.4138L561.899 22.8401C559.908 20.5471 557.292 18.766 554.094 17.4751L553.195 19.7006ZM560.098 24.4264C561.871 26.4106 563.22 28.6719 564.149 31.2187L566.404 30.3966C565.373 27.5684 563.867 25.0425 561.888 22.8275L560.098 24.4264ZM564.15 31.2225C565.078 33.7405 565.546 36.4406 565.546 39.332H567.946C567.946 36.1765 567.434 33.1938 566.402 30.3928L564.15 31.2225ZM565.546 39.332C565.546 43.5246 564.661 47.2622 562.913 50.5715L565.036 51.6921C566.984 48.0027 567.946 43.8739 567.946 39.332H565.546ZM562.912 50.5747C561.204 53.8319 558.671 56.4257 555.276 58.3619L556.465 60.4467C560.236 58.2957 563.106 55.3744 565.037 51.689L562.912 50.5747ZM555.272 58.3639C551.927 60.2866 547.969 61.2697 543.356 61.2697V63.6697C548.318 63.6697 552.702 62.6092 556.468 60.4447L555.272 58.3639ZM543.365 61.2698C539.685 61.2427 536.424 60.6344 533.563 59.4688L532.658 61.6914C535.843 62.9893 539.413 63.6408 543.348 63.6697L543.365 61.2698ZM533.576 59.4739C530.719 58.2726 528.439 56.6893 526.699 54.7416L524.909 56.3405C526.92 58.592 529.511 60.368 532.645 61.6862L533.576 59.4739ZM526.699 54.7416C524.924 52.7553 523.575 50.5064 522.647 47.9875L520.394 48.8172C521.426 51.6173 522.932 54.1276 524.909 56.3405L526.699 54.7416ZM522.648 47.9913C521.719 45.4429 521.251 42.7272 521.251 39.8359H518.851C518.851 42.9915 519.363 45.9868 520.393 48.8134L522.648 47.9913ZM531.07 39.1641C531.07 41.05 531.292 42.847 531.74 44.5505L534.061 43.9397C533.669 42.4518 533.471 40.8614 533.471 39.1641H531.07ZM531.741 44.5556C532.194 46.2458 532.892 47.7961 533.837 49.1989L535.827 47.8577C535.037 46.685 534.447 45.3799 534.06 43.9346L531.741 44.5556ZM533.844 49.2091C534.831 50.6422 536.147 51.7771 537.764 52.6168L538.87 50.4868C537.576 49.8147 536.569 48.934 535.82 47.8476L533.844 49.2091ZM537.781 52.6251C539.429 53.4493 541.298 53.8436 543.356 53.8436V51.4436C541.608 51.4436 540.117 51.11 538.854 50.4784L537.781 52.6251ZM543.356 53.8436C545.542 53.8436 547.504 53.4542 549.21 52.633L548.169 50.4706C546.851 51.105 545.258 51.4436 543.356 51.4436V53.8436ZM549.226 52.6251C550.905 51.7856 552.241 50.6412 553.183 49.1784L551.166 47.8783C550.485 48.9349 549.497 49.8062 548.153 50.4784L549.226 52.6251ZM553.18 49.1838C554.085 47.796 554.754 46.3248 555.18 44.7727L552.865 44.1374C552.508 45.4408 551.944 46.6851 551.17 47.8728L553.18 49.1838ZM555.18 44.7727C555.602 43.2338 555.81 41.6147 555.81 39.9199H553.41C553.41 41.4166 553.227 42.8209 552.865 44.1374L555.18 44.7727ZM555.81 39.9199C555.81 37.3861 555.412 35.0533 554.596 32.9373L552.357 33.801C553.052 35.6042 553.41 37.6387 553.41 39.9199H555.81ZM554.602 32.9513C553.79 30.7662 552.412 28.9556 550.496 27.5343L549.066 29.4618C550.622 30.616 551.708 32.0528 552.352 33.787L554.602 32.9513ZM550.506 27.5418C548.528 26.0421 546.12 25.3244 543.356 25.3244V27.7244C545.688 27.7244 547.563 28.3225 549.056 29.4543L550.506 27.5418ZM543.356 25.3244C541.608 25.3244 539.99 25.5959 538.518 26.1596L539.376 28.4009C540.536 27.9568 541.857 27.7244 543.356 27.7244V25.3244ZM538.51 26.1628C537.099 26.7149 535.9 27.4551 534.949 28.4054L536.646 30.1024C537.32 29.429 538.22 28.8534 539.385 28.3978L538.51 26.1628ZM534.949 28.4054C534.038 29.3163 533.279 30.39 532.667 31.6147L534.814 32.688C535.321 31.6732 535.934 30.8152 536.646 30.1024L534.949 28.4054ZM532.656 31.6365C532.084 32.8416 531.673 34.0708 531.429 35.3229L533.784 35.7825C533.988 34.7391 534.333 33.7007 534.824 32.6662L532.656 31.6365ZM531.429 35.3229C531.189 36.552 531.07 37.833 531.07 39.1641H533.471C533.471 37.9756 533.576 36.8491 533.784 35.7825L531.429 35.3229ZM574.893 30.6816L573.769 30.2591L574.893 30.6816ZM579.428 23.333L578.562 22.5022L578.556 22.5084L579.428 23.333ZM606.891 18.5879L606.429 19.6957L606.441 19.7006L606.891 18.5879ZM614.239 23.627L613.333 24.4138L613.339 24.4201L613.344 24.4264L614.239 23.627ZM618.522 30.8076L617.395 31.2187L617.396 31.2225L618.522 30.8076ZM617.221 51.1318L616.16 50.5715L616.158 50.5747L617.221 51.1318ZM609.116 59.4043L608.522 58.3619L608.518 58.3639L609.116 59.4043ZM596.603 62.4697L596.594 63.6697H596.603V62.4697ZM586.356 60.5801L585.891 61.6863L585.904 61.6914L586.356 60.5801ZM579.05 55.541L578.155 56.3405L579.05 55.541ZM574.767 48.4023L573.639 48.8134L573.641 48.8172L574.767 48.4023ZM586.146 44.2451L584.986 44.5505L584.987 44.5556L586.146 44.2451ZM588.078 48.5283L587.083 49.199L587.09 49.2091L588.078 48.5283ZM591.563 51.5518L591.01 52.6168L591.019 52.621L591.027 52.6251L591.563 51.5518ZM601.936 51.5518L602.456 52.633L602.464 52.6291L602.472 52.6251L601.936 51.5518ZM605.421 48.5283L604.416 47.8728L604.412 47.8783L605.421 48.5283ZM606.723 33.3691L605.598 33.787L605.6 33.794L605.603 33.801L606.723 33.3691ZM603.027 28.498L602.302 29.4544L602.312 29.4618L603.027 28.498ZM592.193 27.2803L591.764 26.1596L591.756 26.1628L592.193 27.2803ZM586.986 32.1514L585.913 31.6147L585.908 31.6256L585.902 31.6365L586.986 32.1514ZM574.497 39.8359C574.497 36.6927 575.007 33.7856 576.016 31.1042L573.769 30.2591C572.651 33.2326 572.097 36.4284 572.097 39.8359H574.497ZM576.016 31.1042C577.027 28.4171 578.456 26.1065 580.299 24.1576L578.556 22.5084C576.48 24.7027 574.886 27.2912 573.769 30.2591L576.016 31.1042ZM580.294 24.1638C582.151 22.2277 584.467 20.695 587.264 19.5761L586.373 17.3477C583.291 18.5804 580.679 20.2951 578.562 22.5022L580.294 24.1638ZM587.264 19.5761C590.044 18.464 593.152 17.8982 596.603 17.8982V15.4982C592.887 15.4982 589.471 16.1083 586.373 17.3477L587.264 19.5761ZM596.603 17.8982C600.306 17.8982 603.575 18.5062 606.429 19.6956L607.352 17.4802C604.16 16.15 600.57 15.4982 596.603 15.4982V17.8982ZM606.441 19.7006C609.346 20.8733 611.629 22.4516 613.333 24.4138L615.145 22.8401C613.154 20.5471 610.538 18.766 607.34 17.4751L606.441 19.7006ZM613.344 24.4264C615.117 26.4106 616.467 28.6719 617.395 31.2187L619.65 30.3966C618.619 27.5684 617.113 25.0425 615.134 22.8275L613.344 24.4264ZM617.396 31.2225C618.324 33.7405 618.792 36.4406 618.792 39.332H621.192C621.192 36.1765 620.68 33.1938 619.648 30.3928L617.396 31.2225ZM618.792 39.332C618.792 43.5246 617.907 47.2622 616.16 50.5715L618.282 51.6921C620.23 48.0027 621.192 43.8739 621.192 39.332H618.792ZM616.158 50.5747C614.45 53.8319 611.917 56.4257 608.522 58.3619L609.711 60.4467C613.482 58.2957 616.352 55.3744 618.284 51.689L616.158 50.5747ZM608.518 58.3639C605.173 60.2866 601.215 61.2697 596.603 61.2697V63.6697C601.564 63.6697 605.948 62.6092 609.714 60.4447L608.518 58.3639ZM596.611 61.2698C592.931 61.2427 589.67 60.6344 586.809 59.4688L585.904 61.6914C589.09 62.9893 592.659 63.6408 596.594 63.6697L596.611 61.2698ZM586.822 59.4739C583.965 58.2726 581.685 56.6893 579.945 54.7416L578.155 56.3405C580.166 58.592 582.757 60.368 585.891 61.6862L586.822 59.4739ZM579.945 54.7416C578.17 52.7553 576.821 50.5064 575.893 47.9875L573.641 48.8172C574.672 51.6173 576.178 54.1276 578.155 56.3405L579.945 54.7416ZM575.894 47.9913C574.965 45.4429 574.497 42.7272 574.497 39.8359H572.097C572.097 42.9915 572.609 45.9868 573.639 48.8134L575.894 47.9913ZM584.317 39.1641C584.317 41.05 584.538 42.847 584.986 44.5505L587.307 43.9397C586.915 42.4518 586.717 40.8614 586.717 39.1641H584.317ZM584.987 44.5556C585.44 46.2458 586.138 47.7961 587.083 49.1989L589.073 47.8577C588.283 46.685 587.693 45.3799 587.306 43.9346L584.987 44.5556ZM587.09 49.2091C588.077 50.6422 589.393 51.7771 591.01 52.6168L592.116 50.4868C590.822 49.8147 589.815 48.934 589.066 47.8476L587.09 49.2091ZM591.027 52.6251C592.675 53.4493 594.544 53.8436 596.603 53.8436V51.4436C594.854 51.4436 593.363 51.11 592.1 50.4784L591.027 52.6251ZM596.603 53.8436C598.788 53.8436 600.75 53.4542 602.456 52.633L601.415 50.4706C600.097 51.105 598.505 51.4436 596.603 51.4436V53.8436ZM602.472 52.6251C604.151 51.7856 605.487 50.6412 606.43 49.1784L604.412 47.8783C603.731 48.9349 602.743 49.8062 601.399 50.4784L602.472 52.6251ZM606.426 49.1838C607.331 47.796 608 46.3248 608.426 44.7727L606.111 44.1374C605.754 45.4408 605.19 46.6851 604.416 47.8728L606.426 49.1838ZM608.426 44.7727C608.848 43.2338 609.056 41.6147 609.056 39.9199H606.656C606.656 41.4166 606.473 42.8209 606.111 44.1374L608.426 44.7727ZM609.056 39.9199C609.056 37.3861 608.658 35.0533 607.842 32.9373L605.603 33.801C606.299 35.6042 606.656 37.6387 606.656 39.9199H609.056ZM607.848 32.9513C607.036 30.7662 605.658 28.9556 603.742 27.5343L602.312 29.4618C603.868 30.616 604.954 32.0528 605.598 33.787L607.848 32.9513ZM603.752 27.5418C601.774 26.0421 599.366 25.3244 596.603 25.3244V27.7244C598.934 27.7244 600.809 28.3225 602.302 29.4543L603.752 27.5418ZM596.603 25.3244C594.854 25.3244 593.236 25.5959 591.764 26.1596L592.623 28.4009C593.782 27.9568 595.104 27.7244 596.603 27.7244V25.3244ZM591.756 26.1628C590.345 26.7149 589.146 27.4551 588.195 28.4054L589.892 30.1024C590.566 29.429 591.466 28.8534 592.631 28.3978L591.756 26.1628ZM588.195 28.4054C587.284 29.3163 586.525 30.39 585.913 31.6147L588.06 32.688C588.567 31.6732 589.18 30.8152 589.892 30.1024L588.195 28.4054ZM585.902 31.6365C585.33 32.8416 584.919 34.0708 584.675 35.3229L587.03 35.7825C587.234 34.7391 587.579 33.7007 588.07 32.6662L585.902 31.6365ZM584.675 35.3229C584.435 36.552 584.317 37.833 584.317 39.1641H586.717C586.717 37.9756 586.822 36.8491 587.03 35.7825L584.675 35.3229ZM629.021 61H627.82V62.2H629.021V61ZM629.021 2.79883V1.59883H627.82V2.79883H629.021ZM640.988 2.79883H642.188V1.59883H640.988V2.79883ZM640.988 61V62.2H642.188V61H640.988ZM630.221 61V2.79883H627.82V61H630.221ZM629.021 3.99883H640.988V1.59883H629.021V3.99883ZM639.788 2.79883V61H642.188V2.79883H639.788ZM640.988 59.8H629.021V62.2H640.988V59.8Z" fill="url(#paint0_linear_0_481)"/>
<defs>
<linearGradient id="paint0_linear_0_481" x1="0.500001" y1="17.5" x2="635.888" y2="102.8" gradientUnits="userSpaceOnUse">
<stop offset="0.0246473" stop-color="#5EC7EC"/>
<stop offset="0.994004" stop-color="white"/>
</linearGradient>
</defs>
</svg>
