<svg width="665" height="78" viewBox="0 0 665 78" fill="none" xmlns="http://www.w3.org/2000/svg">
<path d="M8.52637 13.5488L7.698 12.6806L7.69579 12.6827L8.52637 13.5488ZM46.2773 9.13965H47.4773V8.34729L46.7487 8.03608L46.2773 9.13965ZM46.2773 20.3096L45.7162 21.3703L47.4773 22.302V20.3096H46.2773ZM17.9326 21.4854L17.1106 20.6111L17.1069 20.6146L17.9326 21.4854ZM13.0615 34.251H11.8615V34.2697L11.8621 34.2885L13.0615 34.251ZM18.2266 46.8486L17.4126 47.7304L17.4164 47.7338L18.2266 46.8486ZM46.6973 46.4707H47.8973V44.2031L46.0223 45.4785L46.6973 46.4707ZM46.6973 58.3545L47.2679 59.4101L47.8973 59.0699V58.3545H46.6973ZM13.9434 58.8584L13.3458 59.8991L13.3538 59.9036L13.9434 58.8584ZM3.86523 48.6963L2.81172 49.2709L2.81624 49.2791L3.86523 48.6963ZM1.53789 34.251C1.53789 25.964 4.16621 19.3927 9.35695 14.4149L7.69579 12.6827C1.96855 18.175 -0.862106 25.4051 -0.862106 34.251H1.53789ZM9.35472 14.4171C14.5787 9.43292 21.4848 6.89629 30.1943 6.89629V4.49629C20.9872 4.49629 13.448 7.19468 7.69801 12.6806L9.35472 14.4171ZM30.1943 6.89629C35.3648 6.89629 40.566 8.00531 45.806 10.2432L46.7487 8.03608C41.2386 5.68284 35.7179 4.49629 30.1943 4.49629V6.89629ZM45.0773 9.13965V20.3096H47.4773V9.13965H45.0773ZM46.8385 19.2489C42.2985 16.8471 37.0465 15.6662 31.1182 15.6662V18.0662C36.7237 18.0662 41.5778 19.1809 45.7162 21.3703L46.8385 19.2489ZM31.1182 15.6662C25.3707 15.6662 20.6566 17.2773 17.1106 20.6111L18.7546 22.3596C21.7594 19.5345 25.8357 18.0662 31.1182 18.0662V15.6662ZM17.1069 20.6146C13.5707 23.9679 11.8615 28.5663 11.8615 34.251H14.2615C14.2615 29.0737 15.7997 25.1617 18.7583 22.3561L17.1069 20.6146ZM11.8621 34.2885C12.0379 39.914 13.8531 44.4446 17.4126 47.7304L19.0405 45.9669C16.0493 43.2057 14.4211 39.3379 14.2609 34.2135L11.8621 34.2885ZM17.4164 47.7338C20.9571 50.9745 25.2979 52.5838 30.3623 52.5838V50.1838C25.8525 50.1838 22.1028 48.7696 19.0368 45.9634L17.4164 47.7338ZM30.3623 52.5838C36.6669 52.5838 42.3491 50.8798 47.3722 47.4629L46.0223 45.4785C41.4152 48.6124 36.2075 50.1838 30.3623 50.1838V52.5838ZM45.4973 46.4707V58.3545H47.8973V46.4707H45.4973ZM46.1266 57.2988C41.147 59.9905 35.3855 61.3537 28.8086 61.3537V63.7537C35.7252 63.7537 41.8894 62.3174 47.2679 59.4101L46.1266 57.2988ZM28.8086 61.3537C23.4499 61.3537 18.7017 60.1648 14.5329 57.8132L13.3538 59.9036C17.9194 62.479 23.0813 63.7537 28.8086 63.7537V61.3537ZM14.5409 57.8177C10.3868 55.4325 7.18541 52.2017 4.91423 48.1135L2.81624 49.2791C5.30417 53.7573 8.82152 57.3012 13.3458 59.899L14.5409 57.8177ZM4.91872 48.1217C2.67117 44.0012 1.53789 39.3863 1.53789 34.251H-0.862106C-0.862106 39.7536 0.356171 44.769 2.81175 49.2709L4.91872 48.1217ZM53.332 30.6816L52.2089 30.2591L53.332 30.6816ZM57.8672 23.333L57.0013 22.5022L56.9954 22.5084L57.8672 23.333ZM85.3301 18.5879L84.8685 19.6957L84.8809 19.7006L85.3301 18.5879ZM92.6787 23.627L91.7727 24.4138L91.7782 24.4201L91.7838 24.4264L92.6787 23.627ZM96.9619 30.8076L95.8345 31.2187L95.8359 31.2225L96.9619 30.8076ZM95.6602 51.1318L94.599 50.5715L94.5973 50.5747L95.6602 51.1318ZM87.5557 59.4043L86.9612 58.3619L86.9576 58.3639L87.5557 59.4043ZM75.042 62.4697L75.0332 63.6697H75.042V62.4697ZM64.7959 60.5801L64.3307 61.6863L64.3431 61.6914L64.7959 60.5801ZM57.4893 55.541L56.5943 56.3405L57.4893 55.541ZM53.2061 48.4023L52.0786 48.8134L52.08 48.8172L53.2061 48.4023ZM64.5859 44.2451L63.4254 44.5505L63.4268 44.5556L64.5859 44.2451ZM66.5176 48.5283L65.5224 49.199L65.5294 49.2091L66.5176 48.5283ZM70.0029 51.5518L69.45 52.6168L69.4581 52.621L69.4663 52.6251L70.0029 51.5518ZM80.375 51.5518L80.8956 52.633L80.9037 52.6291L80.9117 52.6251L80.375 51.5518ZM83.8604 48.5283L82.8552 47.8728L82.8517 47.8783L83.8604 48.5283ZM85.1621 33.3691L84.0372 33.787L84.0398 33.794L84.0425 33.801L85.1621 33.3691ZM81.4668 28.498L80.7418 29.4544L80.7518 29.4618L81.4668 28.498ZM70.6328 27.2803L70.2036 26.1596L70.1955 26.1628L70.6328 27.2803ZM65.4258 32.1514L64.3525 31.6147L64.347 31.6256L64.3419 31.6365L65.4258 32.1514ZM52.9363 39.8359C52.9363 36.6927 53.4463 33.7856 54.4552 31.1042L52.2089 30.2591C51.0901 33.2326 50.5363 36.4284 50.5363 39.8359H52.9363ZM54.4552 31.1042C55.4662 28.4171 56.8954 26.1065 58.739 24.1576L56.9954 22.5084C54.9197 24.7027 53.3255 27.2912 52.2089 30.2591L54.4552 31.1042ZM58.7331 24.1638C60.5907 22.2277 62.9062 20.695 65.7035 19.5761L64.8121 17.3477C61.7305 18.5804 59.1189 20.2951 57.0013 22.5022L58.7331 24.1638ZM65.7035 19.5761C68.4837 18.464 71.5913 17.8982 75.042 17.8982V15.4982C71.326 15.4982 67.9108 16.1083 64.8121 17.3477L65.7035 19.5761ZM75.042 17.8982C78.7455 17.8982 82.0141 18.5062 84.8685 19.6956L85.7916 17.4802C82.5992 16.15 79.009 15.4982 75.042 15.4982V17.8982ZM84.8809 19.7006C87.7859 20.8733 90.0687 22.4516 91.7727 24.4138L93.5847 22.8401C91.5934 20.5471 88.9771 18.766 85.7793 17.4751L84.8809 19.7006ZM91.7838 24.4264C93.5564 26.4106 94.906 28.6719 95.8345 31.2187L98.0893 30.3966C97.0582 27.5684 95.5524 25.0425 93.5736 22.8275L91.7838 24.4264ZM95.8359 31.2225C96.7636 33.7405 97.2316 36.4406 97.2316 39.332H99.6317C99.6317 36.1765 99.1199 33.1938 98.0879 30.3928L95.8359 31.2225ZM97.2316 39.332C97.2316 43.5246 96.3463 47.2622 94.599 50.5715L96.7213 51.6921C98.6693 48.0027 99.6317 43.8739 99.6317 39.332H97.2316ZM94.5973 50.5747C92.8899 53.8319 90.3562 56.4257 86.9612 58.3619L88.1501 60.4467C91.9218 58.2957 94.7911 55.3744 96.723 51.689L94.5973 50.5747ZM86.9576 58.3639C83.6127 60.2866 79.6547 61.2697 75.042 61.2697V63.6697C80.0035 63.6697 84.3879 62.6092 88.1537 60.4447L86.9576 58.3639ZM75.0508 61.2698C71.3708 61.2427 68.1097 60.6344 65.2487 59.4688L64.3431 61.6914C67.529 62.9893 71.0985 63.6408 75.0332 63.6697L75.0508 61.2698ZM65.2611 59.4739C62.4046 58.2726 60.1241 56.6893 58.3842 54.7416L56.5943 56.3405C58.6057 58.592 61.1963 60.368 64.3307 61.6862L65.2611 59.4739ZM58.3842 54.7416C56.6097 52.7553 55.2601 50.5064 54.3321 47.9875L52.08 48.8172C53.1117 51.6173 54.6175 54.1276 56.5943 56.3405L58.3842 54.7416ZM54.3335 47.9913C53.4044 45.4429 52.9363 42.7272 52.9363 39.8359H50.5363C50.5363 42.9915 51.0481 45.9868 52.0786 48.8134L54.3335 47.9913ZM62.756 39.1641C62.756 41.05 62.9771 42.847 63.4254 44.5505L65.7464 43.9397C65.3549 42.4518 65.1561 40.8614 65.1561 39.1641H62.756ZM63.4268 44.5556C63.8795 46.2458 64.5771 47.7961 65.5225 49.1989L67.5127 47.8577C66.7224 46.685 66.1322 45.3799 65.7451 43.9346L63.4268 44.5556ZM65.5294 49.2091C66.5166 50.6422 67.8328 51.7771 69.45 52.6168L70.5559 50.4868C69.2616 49.8147 68.2542 48.934 67.5058 47.8476L65.5294 49.2091ZM69.4663 52.6251C71.1147 53.4493 72.9836 53.8436 75.042 53.8436V51.4436C73.2931 51.4436 71.8026 51.11 70.5396 50.4784L69.4663 52.6251ZM75.042 53.8436C77.2272 53.8436 79.1899 53.4542 80.8956 52.633L79.8544 50.4706C78.5366 51.105 76.944 51.4436 75.042 51.4436V53.8436ZM80.9117 52.6251C82.5907 51.7856 83.9263 50.6412 84.869 49.1784L82.8517 47.8783C82.1707 48.9349 81.1827 49.8062 79.8383 50.4784L80.9117 52.6251ZM84.8655 49.1838C85.7706 47.796 86.4391 46.3248 86.8652 44.7727L84.5508 44.1374C84.193 45.4408 83.6298 46.6851 82.8552 47.8728L84.8655 49.1838ZM86.8652 44.7727C87.2877 43.2338 87.4959 41.6147 87.4959 39.9199H85.0959C85.0959 41.4166 84.9122 42.8209 84.5508 44.1374L86.8652 44.7727ZM87.4959 39.9199C87.4959 37.3861 87.0979 35.0533 86.2817 32.9373L84.0425 33.801C84.738 35.6042 85.0959 37.6387 85.0959 39.9199H87.4959ZM86.287 32.9513C85.4754 30.7662 84.0974 28.9556 82.1818 27.5343L80.7518 29.4618C82.3075 30.616 83.3931 32.0528 84.0372 33.787L86.287 32.9513ZM82.1917 27.5418C80.2135 26.0421 77.8052 25.3244 75.042 25.3244V27.7244C77.3738 27.7244 79.2487 28.3225 80.7419 29.4543L82.1917 27.5418ZM75.042 25.3244C73.2936 25.3244 71.6756 25.5959 70.2036 26.1596L71.062 28.4009C72.2216 27.9568 73.5429 27.7244 75.042 27.7244V25.3244ZM70.1955 26.1628C68.7845 26.7149 67.5852 27.4551 66.6349 28.4054L68.3319 30.1024C69.0053 29.429 69.9056 28.8534 71.0701 28.3978L70.1955 26.1628ZM66.6349 28.4054C65.7239 29.3163 64.9648 30.39 64.3525 31.6147L66.4991 32.688C67.0065 31.6732 67.6191 30.8152 68.3319 30.1024L66.6349 28.4054ZM64.3419 31.6365C63.7694 32.8416 63.3585 34.0708 63.1142 35.3229L65.4698 35.7825C65.6734 34.7391 66.0183 33.7007 66.5097 32.6662L64.3419 31.6365ZM63.1142 35.3229C62.8744 36.552 62.756 37.833 62.756 39.1641H65.1561C65.1561 37.9756 65.2617 36.8491 65.4698 35.7825L63.1142 35.3229ZM107.46 61H106.26V62.2H107.46V61ZM107.46 18.168V16.968H106.26V18.168H107.46ZM117.874 18.168H119.074V16.968H117.874V18.168ZM117.874 25.1387H116.674V29.7322L118.921 25.7256L117.874 25.1387ZM123.921 18.6719L123.335 17.6247L123.921 18.6719ZM140.34 18.9238L139.665 19.9164L139.673 19.9213L139.68 19.9262L140.34 18.9238ZM145.043 25.4746L143.899 25.8375L144.776 28.6001L146.109 26.0264L145.043 25.4746ZM150.922 18.7559L151.528 19.7915L151.532 19.7892L150.922 18.7559ZM173.094 61V62.2H174.294V61H173.094ZM161.294 61H160.094V62.2H161.294V61ZM159.698 28.3721L158.748 29.1047L158.753 29.1108L158.757 29.1169L159.698 28.3721ZM154.869 26.3564V25.1564H154.844L154.818 25.1575L154.869 26.3564ZM146.009 32.4453L144.934 31.9118L144.809 32.1639V32.4453H146.009ZM146.009 61V62.2H147.209V61H146.009ZM134.629 61H133.429V62.2H134.629V61ZM133.033 28.3721L132.083 29.1047L132.088 29.1108L132.092 29.1169L133.033 28.3721ZM128.204 26.3564V25.1564H128.177L128.15 25.1577L128.204 26.3564ZM119.344 32.4453L118.297 31.8581L118.144 32.1316V32.4453H119.344ZM119.344 61V62.2H120.544V61H119.344ZM108.66 61V18.168H106.26V61H108.66ZM107.46 19.368H117.874V16.968H107.46V19.368ZM116.674 18.168V25.1387H119.074V18.168H116.674ZM118.921 25.7256C120.521 22.8708 122.395 20.9009 124.507 19.7191L123.335 17.6247C120.744 19.0744 118.586 21.4156 116.827 24.5518L118.921 25.7256ZM124.507 19.7191C126.649 18.5205 129.211 17.8982 132.235 17.8982V15.4982C128.877 15.4982 125.896 16.1917 123.335 17.6247L124.507 19.7191ZM132.235 17.8982C135.268 17.8982 137.721 18.595 139.665 19.9164L141.014 17.9313C138.592 16.2852 135.642 15.4982 132.235 15.4982V17.8982ZM139.68 19.9262C141.627 21.2078 143.045 23.1461 143.899 25.8375L146.187 25.1117C145.193 21.9803 143.476 19.5513 141 17.9215L139.68 19.9262ZM146.109 26.0264C147.661 23.0281 149.483 20.9888 151.528 19.7915L150.316 17.7202C147.77 19.2104 145.672 21.6503 143.977 24.9228L146.109 26.0264ZM151.532 19.7892C153.641 18.5441 156.166 17.8982 159.152 17.8982V15.4982C155.812 15.4982 152.85 16.2241 150.312 17.7225L151.532 19.7892ZM159.152 17.8982C163.194 17.8982 166.252 19.1462 168.476 21.5453L170.236 19.9137C167.478 16.9378 163.733 15.4982 159.152 15.4982V17.8982ZM168.476 21.5453C170.689 23.9316 171.894 27.5517 171.894 32.6133H174.294C174.294 27.2048 173.007 22.9024 170.236 19.9137L168.476 21.5453ZM171.894 32.6133V61H174.294V32.6133H171.894ZM173.094 59.8H161.294V62.2H173.094V59.8ZM162.494 61V34.7549H160.094V61H162.494ZM162.494 34.7549C162.494 31.7447 161.953 29.2867 160.639 27.6272L158.757 29.1169C159.571 30.1449 160.094 31.9422 160.094 34.7549H162.494ZM160.649 27.6395C159.323 25.9194 157.308 25.1564 154.869 25.1564V27.5564C156.797 27.5564 158.002 28.1372 158.748 29.1047L160.649 27.6395ZM154.818 25.1575C152.631 25.2499 150.676 25.8594 148.993 27.0157C147.316 28.1684 145.971 29.8218 144.934 31.9118L147.084 32.9789C147.978 31.1776 149.076 29.8705 150.352 28.9936C151.623 28.1203 153.132 27.6309 154.92 27.5554L154.818 25.1575ZM144.809 32.4453V61H147.209V32.4453H144.809ZM146.009 59.8H134.629V62.2H146.009V59.8ZM135.829 61V34.7549H133.429V61H135.829ZM135.829 34.7549C135.829 31.7447 135.288 29.2867 133.974 27.6272L132.092 29.1169C132.906 30.1449 133.429 31.9422 133.429 34.7549H135.829ZM133.984 27.6395C132.658 25.9194 130.643 25.1564 128.204 25.1564V27.5564C130.132 27.5564 131.337 28.1372 132.083 29.1047L133.984 27.6395ZM128.15 25.1577C123.925 25.3482 120.637 27.6882 118.297 31.8581L120.39 33.0326C122.418 29.4198 125.036 27.7006 128.258 27.5552L128.15 25.1577ZM118.144 32.4453V61H120.544V32.4453H118.144ZM119.344 59.8H107.46V62.2H119.344V59.8ZM184.306 61H183.106V62.2H184.306V61ZM184.306 18.168V16.968H183.106V18.168H184.306ZM194.72 18.168H195.92V16.968H194.72V18.168ZM194.72 25.1387H193.52V29.7322L195.766 25.7256L194.72 25.1387ZM200.767 18.6719L200.181 17.6247L200.767 18.6719ZM217.186 18.9238L216.511 19.9164L216.518 19.9213L216.526 19.9262L217.186 18.9238ZM221.889 25.4746L220.745 25.8375L221.621 28.6001L222.954 26.0264L221.889 25.4746ZM227.768 18.7559L228.374 19.7915L228.378 19.7892L227.768 18.7559ZM249.939 61V62.2H251.139V61H249.939ZM238.14 61H236.94V62.2H238.14V61ZM236.544 28.3721L235.594 29.1047L235.598 29.1108L235.603 29.1169L236.544 28.3721ZM231.715 26.3564V25.1564H231.69L231.664 25.1575L231.715 26.3564ZM222.854 32.4453L221.78 31.9118L221.654 32.1639V32.4453H222.854ZM222.854 61V62.2H224.055V61H222.854ZM211.475 61H210.275V62.2H211.475V61ZM209.879 28.3721L208.928 29.1047L208.933 29.1108L208.938 29.1169L209.879 28.3721ZM205.05 26.3564V25.1564H205.023L204.996 25.1577L205.05 26.3564ZM196.189 32.4453L195.143 31.8581L194.989 32.1316V32.4453H196.189ZM196.189 61V62.2H197.389V61H196.189ZM185.506 61V18.168H183.106V61H185.506ZM184.306 19.368H194.72V16.968H184.306V19.368ZM193.52 18.168V25.1387H195.92V18.168H193.52ZM195.766 25.7256C197.367 22.8708 199.24 20.9009 201.353 19.7191L200.181 17.6247C197.59 19.0744 195.432 21.4156 193.673 24.5518L195.766 25.7256ZM201.353 19.7191C203.495 18.5205 206.057 17.8982 209.081 17.8982V15.4982C205.722 15.4982 202.742 16.1917 200.181 17.6247L201.353 19.7191ZM209.081 17.8982C212.113 17.8982 214.566 18.595 216.511 19.9164L217.86 17.9313C215.437 16.2852 212.488 15.4982 209.081 15.4982V17.8982ZM216.526 19.9262C218.473 21.2078 219.891 23.1461 220.745 25.8375L223.032 25.1117C222.039 21.9803 220.321 19.5513 217.845 17.9215L216.526 19.9262ZM222.954 26.0264C224.507 23.0281 226.328 20.9888 228.374 19.7915L227.161 17.7202C224.616 19.2104 222.518 21.6503 220.823 24.9228L222.954 26.0264ZM228.378 19.7892C230.487 18.5441 233.012 17.8982 235.998 17.8982V15.4982C232.657 15.4982 229.696 16.2241 227.158 17.7225L228.378 19.7892ZM235.998 17.8982C240.039 17.8982 243.098 19.1462 245.322 21.5453L247.082 19.9137C244.323 16.9378 240.579 15.4982 235.998 15.4982V17.8982ZM245.322 21.5453C247.534 23.9316 248.739 27.5517 248.739 32.6133H251.139C251.139 27.2048 249.853 22.9024 247.082 19.9137L245.322 21.5453ZM248.739 32.6133V61H251.139V32.6133H248.739ZM249.939 59.8H238.14V62.2H249.939V59.8ZM239.34 61V34.7549H236.94V61H239.34ZM239.34 34.7549C239.34 31.7447 238.799 29.2867 237.485 27.6272L235.603 29.1169C236.417 30.1449 236.94 31.9422 236.94 34.7549H239.34ZM237.494 27.6395C236.169 25.9194 234.154 25.1564 231.715 25.1564V27.5564C233.643 27.5564 234.848 28.1372 235.594 29.1047L237.494 27.6395ZM231.664 25.1575C229.477 25.2499 227.521 25.8594 225.839 27.0157C224.161 28.1684 222.817 29.8218 221.78 31.9118L223.929 32.9789C224.824 31.1776 225.922 29.8705 227.198 28.9936C228.469 28.1203 229.977 27.6309 231.766 27.5554L231.664 25.1575ZM221.654 32.4453V61H224.055V32.4453H221.654ZM222.854 59.8H211.475V62.2H222.854V59.8ZM212.675 61V34.7549H210.275V61H212.675ZM212.675 34.7549C212.675 31.7447 212.134 29.2867 210.82 27.6272L208.938 29.1169C209.752 30.1449 210.275 31.9422 210.275 34.7549H212.675ZM210.829 27.6395C209.503 25.9194 207.489 25.1564 205.05 25.1564V27.5564C206.978 27.5564 208.183 28.1372 208.928 29.1047L210.829 27.6395ZM204.996 25.1577C200.771 25.3482 197.483 27.6882 195.143 31.8581L197.236 33.0326C199.263 29.4198 201.882 27.7006 205.104 27.5552L204.996 25.1577ZM194.989 32.4453V61H197.389V32.4453H194.989ZM196.189 59.8H184.306V62.2H196.189V59.8ZM260.563 18.168V16.968H259.363V18.168H260.563ZM272.447 18.168H273.647V16.968H272.447V18.168ZM274.463 50.9639L273.652 51.8485L273.661 51.8567L274.463 50.9639ZM280.174 52.8115V54.0115H280.199L280.224 54.0105L280.174 52.8115ZM285.465 51.1318L286.135 52.1275L286.141 52.1233L286.147 52.1191L285.465 51.1318ZM289.202 46.7227L290.272 47.2657L290.402 47.0097V46.7227H289.202ZM289.202 18.168V16.968H288.002V18.168H289.202ZM301.044 18.168H302.244V16.968H301.044V18.168ZM301.044 61V62.2H302.244V61H301.044ZM290.588 61H289.388V62.2H290.588V61ZM290.588 54.0293H291.788L289.514 53.4948L290.588 54.0293ZM264.637 58.3545L263.784 59.1987L264.637 58.3545ZM261.763 46.5547V18.168H259.363V46.5547H261.763ZM260.563 19.368H272.447V16.968H260.563V19.368ZM271.247 18.168V44.4131H273.647V18.168H271.247ZM271.247 44.4131C271.247 47.656 271.931 50.2708 273.652 51.8485L275.274 50.0793C274.307 49.1934 273.647 47.441 273.647 44.4131H271.247ZM273.661 51.8567C275.316 53.3426 277.539 54.0115 280.174 54.0115V51.6115C277.937 51.6115 276.353 51.0486 275.265 50.071L273.661 51.8567ZM280.224 54.0105C282.417 53.9178 284.398 53.2958 286.135 52.1275L284.795 50.1362C283.452 51.0395 281.906 51.5373 280.123 51.6126L280.224 54.0105ZM286.147 52.1191C287.87 50.9283 289.241 49.297 290.272 47.2657L288.132 46.1796C287.259 47.8996 286.139 49.2077 284.783 50.1446L286.147 52.1191ZM290.402 46.7227V18.168H288.002V46.7227H290.402ZM289.202 19.368H301.044V16.968H289.202V19.368ZM299.844 18.168V61H302.244V18.168H299.844ZM301.044 59.8H290.588V62.2H301.044V59.8ZM291.788 61V54.0293H289.388V61H291.788ZM289.514 53.4948C288.209 56.1165 286.426 58.0384 284.17 59.3154C281.906 60.5975 279.094 61.2697 275.681 61.2697V63.6697C279.406 63.6697 282.648 62.9352 285.353 61.4039C288.066 59.8674 290.167 57.5691 291.662 54.5638L289.514 53.4948ZM275.681 61.2697C271.284 61.2697 267.935 59.9808 265.49 57.5103L263.784 59.1987C266.77 62.2152 270.783 63.6697 275.681 63.6697V61.2697ZM265.49 57.5103C263.062 55.0575 261.763 51.4685 261.763 46.5547H259.363C259.363 51.887 260.781 56.1645 263.784 59.1987L265.49 57.5103ZM312.466 61H311.266V62.2H312.466V61ZM312.466 18.168V16.968H311.266V18.168H312.466ZM322.964 18.168H324.164V16.968H322.964V18.168ZM322.964 25.2227H321.764L324.053 25.7269L322.964 25.2227ZM349.125 20.8135L348.276 21.662L348.281 21.6663L349.125 20.8135ZM353.24 61V62.2H354.44V61H353.24ZM341.356 61H340.156V62.2H341.356V61ZM339.341 28.1621L338.511 29.0289L338.52 29.0379L338.53 29.0467L339.341 28.1621ZM333.714 26.2725V25.0725H333.677L333.64 25.0748L333.714 26.2725ZM324.35 32.3613L323.309 31.7643L323.15 32.0416V32.3613H324.35ZM324.35 61V62.2H325.55V61H324.35ZM313.666 61V18.168H311.266V61H313.666ZM312.466 19.368H322.964V16.968H312.466V19.368ZM321.764 18.168V25.2227H324.164V18.168H321.764ZM324.053 25.7269C325.272 23.0947 327.026 21.1625 329.315 19.8753C331.618 18.5807 334.534 17.8982 338.123 17.8982V15.4982C334.238 15.4982 330.89 16.2365 328.139 17.7834C325.375 19.3377 323.288 21.6677 321.875 24.7184L324.053 25.7269ZM338.123 17.8982C342.459 17.8982 345.799 19.1843 348.276 21.662L349.974 19.9649C346.964 16.9556 342.97 15.4982 338.123 15.4982V17.8982ZM348.281 21.6663C350.731 24.0912 352.04 27.6482 352.04 32.5293H354.44C354.44 27.2203 353.006 22.9667 349.969 19.9606L348.281 21.6663ZM352.04 32.5293V61H354.44V32.5293H352.04ZM353.24 59.8H341.356V62.2H353.24V59.8ZM342.556 61V34.7549H340.156V61H342.556ZM342.556 34.7549C342.556 31.4879 341.874 28.8567 340.152 27.2775L338.53 29.0467C339.495 29.931 340.156 31.695 340.156 34.7549H342.556ZM340.171 27.2953C338.565 25.7578 336.352 25.0725 333.714 25.0725V27.4725C335.947 27.4725 337.485 28.0469 338.511 29.0289L340.171 27.2953ZM333.64 25.0748C329.141 25.354 325.674 27.64 323.309 31.7643L325.391 32.9583C327.392 29.4681 330.168 27.6949 333.788 27.4702L333.64 25.0748ZM323.15 32.3613V61H325.55V32.3613H323.15ZM324.35 59.8H312.466V62.2H324.35V59.8ZM366.132 2.63086L366.971 3.48832L366.98 3.47939L366.132 2.63086ZM375.874 2.58887L375.025 3.43744L375.034 3.44628L375.874 2.58887ZM375.874 12.2891L375.025 11.4405L375.017 11.4495L375.874 12.2891ZM366.132 12.3311L365.283 13.1796L365.292 13.1885L366.132 12.3311ZM365.082 61H363.882V62.2H365.082V61ZM365.082 18.168V16.968H363.882V18.168H365.082ZM377.008 18.168H378.208V16.968H377.008V18.168ZM377.008 61V62.2H378.208V61H377.008ZM365.316 7.41797C365.316 5.86593 365.857 4.57898 366.971 3.48827L365.292 1.77345C363.719 3.31425 362.916 5.21871 362.916 7.41797H365.316ZM366.98 3.47939C368.099 2.36112 369.417 1.81523 371.003 1.81523V-0.584765C368.782 -0.584765 366.853 0.213099 365.283 1.78233L366.98 3.47939ZM371.003 1.81523C372.63 1.81523 373.944 2.35608 375.026 3.4374L376.723 1.74034C375.172 0.190148 373.239 -0.584765 371.003 -0.584765V1.81523ZM375.034 3.44628C376.145 4.53322 376.69 5.83252 376.69 7.41797H379.09C379.09 5.19613 378.291 3.27603 376.714 1.73145L375.034 3.44628ZM376.69 7.41797C376.69 9.00398 376.144 10.3223 375.026 11.4405L376.723 13.1376C378.292 11.5684 379.09 9.63925 379.09 7.41797H376.69ZM375.017 11.4495C373.933 12.5558 372.622 13.1047 371.003 13.1047V15.5047C373.247 15.5047 375.183 14.7098 376.731 13.1286L375.017 11.4495ZM371.003 13.1047C369.409 13.1047 368.088 12.5668 366.971 11.4736L365.292 13.1885C366.863 14.7268 368.79 15.5047 371.003 15.5047V13.1047ZM366.98 11.4825C365.866 10.3679 365.316 9.03723 365.316 7.41797H362.916C362.916 9.66199 363.71 11.6067 365.283 13.1796L366.98 11.4825ZM366.282 61V18.168H363.882V61H366.282ZM365.082 19.368H377.008V16.968H365.082V19.368ZM375.808 18.168V61H378.208V18.168H375.808ZM377.008 59.8H365.082V62.2H377.008V59.8ZM388.556 10.0215L388.179 8.88226L387.356 9.15462V10.0215H388.556ZM400.355 6.11621H401.555V4.45504L399.978 4.97698L400.355 6.11621ZM400.355 18.168H399.155V19.368H400.355V18.168ZM413.499 18.168H414.699V16.968H413.499V18.168ZM413.499 27.2803V28.4803H414.699V27.2803H413.499ZM400.355 27.2803V26.0803H399.155V27.2803H400.355ZM400.355 46.3867H399.155V46.3961L399.156 46.4055L400.355 46.3867ZM401.825 50.25L401.062 51.1763L401.077 51.1885L401.092 51.2001L401.825 50.25ZM412.449 49.998H413.649V47.8786L411.832 48.9691L412.449 49.998ZM412.449 59.8662L413.062 60.8982L413.649 60.5495V59.8662H412.449ZM389.756 48.4443V10.0215H387.356V48.4443H389.756ZM388.933 11.1607L400.732 7.25544L399.978 4.97698L388.179 8.88226L388.933 11.1607ZM399.155 6.11621V18.168H401.555V6.11621H399.155ZM400.355 19.368H413.499V16.968H400.355V19.368ZM412.299 18.168V27.2803H414.699V18.168H412.299ZM413.499 26.0803H400.355V28.4803H413.499V26.0803ZM399.155 27.2803V46.3867H401.555V27.2803H399.155ZM399.156 46.4055C399.187 48.3853 399.734 50.0821 401.062 51.1763L402.588 49.3237C402.013 48.8502 401.58 47.9715 401.555 46.368L399.156 46.4055ZM401.092 51.2001C402.38 52.1936 404.21 52.5838 406.36 52.5838V50.1838C404.424 50.1838 403.23 49.8181 402.558 49.2999L401.092 51.2001ZM406.36 52.5838C409.014 52.5838 411.28 52.0991 413.067 51.027L411.832 48.9691C410.539 49.7447 408.746 50.1838 406.36 50.1838V52.5838ZM411.249 49.998V59.8662H413.649V49.998H411.249ZM411.837 58.8342C409.536 60.1993 406.398 60.9338 402.329 60.9338V63.3338C406.659 63.3338 410.267 62.5565 413.062 60.8982L411.837 58.8342ZM402.329 60.9338C397.921 60.9338 394.836 59.8391 392.845 57.8603C390.855 55.8829 389.756 52.8207 389.756 48.4443H387.356C387.356 53.1943 388.552 56.9768 391.153 59.5625C393.753 62.1469 397.555 63.3338 402.329 63.3338V60.9338ZM417.152 18.168V16.968H415.271L416.064 18.674L417.152 18.168ZM430.212 18.168L431.331 17.7354L431.035 16.968H430.212V18.168ZM440.29 44.2451L439.171 44.6777L440.316 47.6421L441.416 44.6603L440.29 44.2451ZM449.906 18.168V16.968H449.07L448.78 17.7528L449.906 18.168ZM462.378 18.168L463.473 18.6584L464.23 16.968H462.378V18.168ZM435.881 77.335V78.535H436.658L436.976 77.8254L435.881 77.335ZM423.871 77.335L422.815 76.7651L421.86 78.535H423.871V77.335ZM435.041 56.6328L436.097 57.2026L436.383 56.6727L436.129 56.1268L435.041 56.6328ZM417.152 19.368H430.212V16.968H417.152V19.368ZM429.093 18.6006L439.171 44.6777L441.409 43.8125L431.331 17.7354L429.093 18.6006ZM441.416 44.6603L451.032 18.5832L448.78 17.7528L439.164 43.8299L441.416 44.6603ZM449.906 19.368H462.378V16.968H449.906V19.368ZM461.283 17.6775L434.786 76.8445L436.976 77.8254L463.473 18.6584L461.283 17.6775ZM435.881 76.135H423.871V78.535H435.881V76.135ZM424.927 77.9048L436.097 57.2026L433.985 56.063L422.815 76.7651L424.927 77.9048ZM436.129 56.1268L418.24 17.6619L416.064 18.674L433.953 57.1388L436.129 56.1268ZM494.754 61H493.554V62.2H494.754V61ZM494.754 6.66211V5.46211H493.554V6.66211H494.754ZM526.29 8.17383L525.894 9.30663L525.898 9.30781L526.29 8.17383ZM536.872 18.4619L535.738 18.854L535.741 18.8624L535.744 18.8709L536.872 18.4619ZM536.83 33.4111L535.706 32.9898L535.704 32.9976L536.83 33.4111ZM533.471 38.9541L532.606 38.122L532.598 38.1306L533.471 38.9541ZM528.474 42.6494L527.931 41.5792L527.924 41.5825L528.474 42.6494ZM522.427 44.791L522.662 45.9678L522.674 45.9653L522.427 44.791ZM506.344 44.665L506.604 43.4936L505.144 43.1691V44.665H506.344ZM506.344 61V62.2H507.544V61H506.344ZM506.344 35.1328H505.144V36.1133L506.105 36.3087L506.344 35.1328ZM523.603 19.1758L522.739 20.009L522.746 20.0167L522.754 20.0243L523.603 19.1758ZM506.344 16.7822V15.5822H505.144V16.7822H506.344ZM495.954 61V6.66211H493.554V61H495.954ZM494.754 7.86211H516.17V5.46211H494.754V7.86211ZM516.17 7.86211C519.932 7.86211 523.167 8.3533 525.894 9.30663L526.686 7.04103C523.647 5.97873 520.134 5.46211 516.17 5.46211V7.86211ZM525.898 9.30781C528.671 10.2678 530.784 11.5758 532.301 13.1938L534.052 11.5523C532.21 9.58697 529.732 8.09547 526.683 7.03984L525.898 9.30781ZM532.301 13.1938C533.868 14.8653 535.01 16.7497 535.738 18.854L538.006 18.0699C537.166 15.639 535.844 13.4641 534.052 11.5523L532.301 13.1938ZM535.744 18.8709C536.502 20.9624 536.89 23.2992 536.89 25.8945H539.29C539.29 23.0588 538.866 20.4406 538 18.053L535.744 18.8709ZM536.89 25.8945C536.89 28.5446 536.488 30.9045 535.706 32.9898L537.954 33.8325C538.851 31.4386 539.29 28.7874 539.29 25.8945H536.89ZM535.704 32.9976C534.941 35.0755 533.903 36.7743 532.606 38.122L534.335 39.7862C535.894 38.1665 537.096 36.17 537.957 33.8247L535.704 32.9976ZM532.598 38.1306C531.299 39.5076 529.747 40.6581 527.931 41.5792L529.016 43.7196C531.064 42.6811 532.843 41.368 534.344 39.7776L532.598 38.1306ZM527.924 41.5825C526.118 42.5124 524.204 43.1906 522.18 43.6168L522.674 45.9653C524.905 45.4956 527.022 44.7461 529.023 43.7164L527.924 41.5825ZM522.191 43.6143C520.176 44.0175 518.043 44.2209 515.792 44.2209V46.6209C518.188 46.6209 520.479 46.4044 522.662 45.9677L522.191 43.6143ZM515.792 44.2209C511.794 44.2209 508.746 43.9696 506.604 43.4936L506.083 45.8365C508.477 46.3683 511.727 46.6209 515.792 46.6209V44.2209ZM505.144 44.665V61H507.544V44.665H505.144ZM506.344 59.8H494.754V62.2H506.344V59.8ZM506.105 36.3087C507.881 36.6701 510.587 36.8367 514.154 36.8367V34.4367C510.611 34.4367 508.109 34.2674 506.583 33.9569L506.105 36.3087ZM514.154 36.8367C517.934 36.8367 521.084 36.0019 523.483 34.2032L522.043 32.2832C520.186 33.6758 517.598 34.4367 514.154 34.4367V36.8367ZM523.483 34.2032C526.001 32.3146 527.154 29.3656 527.154 25.6426H524.754C524.754 28.8622 523.78 30.9803 522.043 32.2832L523.483 34.2032ZM527.154 25.6426C527.154 22.6609 526.295 20.1709 524.451 18.3273L522.754 20.0243C524.046 21.3161 524.754 23.1373 524.754 25.6426H527.154ZM524.466 18.3425C522.58 16.3876 519.445 15.5822 515.456 15.5822V17.9822C519.25 17.9822 521.546 18.7726 522.739 20.009L524.466 18.3425ZM515.456 15.5822H506.344V17.9822H515.456V15.5822ZM505.144 16.7822V35.1328H507.544V16.7822H505.144ZM544.725 30.6816L543.602 30.2591L544.725 30.6816ZM549.26 23.333L548.394 22.5022L548.388 22.5084L549.26 23.333ZM576.723 18.5879L576.261 19.6957L576.273 19.7006L576.723 18.5879ZM584.071 23.627L583.165 24.4138L583.171 24.4201L583.176 24.4264L584.071 23.627ZM588.354 30.8076L587.227 31.2187L587.228 31.2225L588.354 30.8076ZM587.053 51.1318L585.992 50.5715L585.99 50.5747L587.053 51.1318ZM578.948 59.4043L578.354 58.3619L578.35 58.3639L578.948 59.4043ZM566.435 62.4697L566.426 63.6697H566.435V62.4697ZM556.188 60.5801L555.723 61.6863L555.736 61.6914L556.188 60.5801ZM548.882 55.541L547.987 56.3405L548.882 55.541ZM544.599 48.4023L543.471 48.8134L543.473 48.8172L544.599 48.4023ZM555.979 44.2451L554.818 44.5505L554.819 44.5556L555.979 44.2451ZM557.91 48.5283L556.915 49.199L556.922 49.2091L557.91 48.5283ZM561.396 51.5518L560.843 52.6168L560.851 52.621L560.859 52.6251L561.396 51.5518ZM571.768 51.5518L572.288 52.633L572.296 52.6291L572.304 52.6251L571.768 51.5518ZM575.253 48.5283L574.248 47.8728L574.244 47.8783L575.253 48.5283ZM576.555 33.3691L575.43 33.787L575.432 33.794L575.435 33.801L576.555 33.3691ZM572.859 28.498L572.134 29.4544L572.144 29.4618L572.859 28.498ZM562.025 27.2803L561.596 26.1596L561.588 26.1628L562.025 27.2803ZM556.818 32.1514L555.745 31.6147L555.74 31.6256L555.734 31.6365L556.818 32.1514ZM544.329 39.8359C544.329 36.6927 544.839 33.7856 545.848 31.1042L543.602 30.2591C542.483 33.2326 541.929 36.4284 541.929 39.8359H544.329ZM545.848 31.1042C546.859 28.4171 548.288 26.1065 550.132 24.1576L548.388 22.5084C546.312 24.7027 544.718 27.2912 543.602 30.2591L545.848 31.1042ZM550.126 24.1638C551.983 22.2277 554.299 20.695 557.096 19.5761L556.205 17.3477C553.123 18.5804 550.511 20.2951 548.394 22.5022L550.126 24.1638ZM557.096 19.5761C559.876 18.464 562.984 17.8982 566.435 17.8982V15.4982C562.719 15.4982 559.303 16.1083 556.205 17.3477L557.096 19.5761ZM566.435 17.8982C570.138 17.8982 573.407 18.5062 576.261 19.6956L577.184 17.4802C573.992 16.15 570.402 15.4982 566.435 15.4982V17.8982ZM576.273 19.7006C579.178 20.8733 581.461 22.4516 583.165 24.4138L584.977 22.8401C582.986 20.5471 580.37 18.766 577.172 17.4751L576.273 19.7006ZM583.176 24.4264C584.949 26.4106 586.299 28.6719 587.227 31.2187L589.482 30.3966C588.451 27.5684 586.945 25.0425 584.966 22.8275L583.176 24.4264ZM587.228 31.2225C588.156 33.7405 588.624 36.4406 588.624 39.332H591.024C591.024 36.1765 590.512 33.1938 589.481 30.3928L587.228 31.2225ZM588.624 39.332C588.624 43.5246 587.739 47.2622 585.992 50.5715L588.114 51.6921C590.062 48.0027 591.024 43.8739 591.024 39.332H588.624ZM585.99 50.5747C584.282 53.8319 581.749 56.4257 578.354 58.3619L579.543 60.4467C583.314 58.2957 586.184 55.3744 588.116 51.689L585.99 50.5747ZM578.35 58.3639C575.005 60.2866 571.047 61.2697 566.435 61.2697V63.6697C571.396 63.6697 575.781 62.6092 579.546 60.4447L578.35 58.3639ZM566.443 61.2698C562.763 61.2427 559.502 60.6344 556.641 59.4688L555.736 61.6914C558.922 62.9893 562.491 63.6408 566.426 63.6697L566.443 61.2698ZM556.654 59.4739C553.797 58.2726 551.517 56.6893 549.777 54.7416L547.987 56.3405C549.998 58.592 552.589 60.368 555.723 61.6862L556.654 59.4739ZM549.777 54.7416C548.002 52.7553 546.653 50.5064 545.725 47.9875L543.473 48.8172C544.504 51.6173 546.01 54.1276 547.987 56.3405L549.777 54.7416ZM545.726 47.9913C544.797 45.4429 544.329 42.7272 544.329 39.8359H541.929C541.929 42.9915 542.441 45.9868 543.471 48.8134L545.726 47.9913ZM554.149 39.1641C554.149 41.05 554.37 42.847 554.818 44.5505L557.139 43.9397C556.747 42.4518 556.549 40.8614 556.549 39.1641H554.149ZM554.819 44.5556C555.272 46.2458 555.97 47.7961 556.915 49.1989L558.905 47.8577C558.115 46.685 557.525 45.3799 557.138 43.9346L554.819 44.5556ZM556.922 49.2091C557.909 50.6422 559.225 51.7771 560.843 52.6168L561.948 50.4868C560.654 49.8147 559.647 48.934 558.898 47.8476L556.922 49.2091ZM560.859 52.6251C562.507 53.4493 564.376 53.8436 566.435 53.8436V51.4436C564.686 51.4436 563.195 51.11 561.932 50.4784L560.859 52.6251ZM566.435 53.8436C568.62 53.8436 570.583 53.4542 572.288 52.633L571.247 50.4706C569.929 51.105 568.337 51.4436 566.435 51.4436V53.8436ZM572.304 52.6251C573.983 51.7856 575.319 50.6412 576.262 49.1784L574.244 47.8783C573.563 48.9349 572.575 49.8062 571.231 50.4784L572.304 52.6251ZM576.258 49.1838C577.163 47.796 577.832 46.3248 578.258 44.7727L575.943 44.1374C575.586 45.4408 575.022 46.6851 574.248 47.8728L576.258 49.1838ZM578.258 44.7727C578.68 43.2338 578.888 41.6147 578.888 39.9199H576.488C576.488 41.4166 576.305 42.8209 575.943 44.1374L578.258 44.7727ZM578.888 39.9199C578.888 37.3861 578.49 35.0533 577.674 32.9373L575.435 33.801C576.131 35.6042 576.488 37.6387 576.488 39.9199H578.888ZM577.68 32.9513C576.868 30.7662 575.49 28.9556 573.574 27.5343L572.144 29.4618C573.7 30.616 574.786 32.0528 575.43 33.787L577.68 32.9513ZM573.584 27.5418C571.606 26.0421 569.198 25.3244 566.435 25.3244V27.7244C568.766 27.7244 570.641 28.3225 572.134 29.4543L573.584 27.5418ZM566.435 25.3244C564.686 25.3244 563.068 25.5959 561.596 26.1596L562.455 28.4009C563.614 27.9568 564.936 27.7244 566.435 27.7244V25.3244ZM561.588 26.1628C560.177 26.7149 558.978 27.4551 558.027 28.4054L559.724 30.1024C560.398 29.429 561.298 28.8534 562.463 28.3978L561.588 26.1628ZM558.027 28.4054C557.117 29.3163 556.357 30.39 555.745 31.6147L557.892 32.688C558.399 31.6732 559.012 30.8152 559.724 30.1024L558.027 28.4054ZM555.734 31.6365C555.162 32.8416 554.751 34.0708 554.507 35.3229L556.862 35.7825C557.066 34.7391 557.411 33.7007 557.902 32.6662L555.734 31.6365ZM554.507 35.3229C554.267 36.552 554.149 37.833 554.149 39.1641H556.549C556.549 37.9756 556.654 36.8491 556.862 35.7825L554.507 35.3229ZM597.971 30.6816L596.848 30.2591L597.971 30.6816ZM602.506 23.333L601.64 22.5022L601.634 22.5084L602.506 23.333ZM629.969 18.5879L629.507 19.6957L629.52 19.7006L629.969 18.5879ZM637.317 23.627L636.411 24.4138L636.417 24.4201L636.422 24.4264L637.317 23.627ZM641.601 30.8076L640.473 31.2187L640.475 31.2225L641.601 30.8076ZM640.299 51.1318L639.238 50.5715L639.236 50.5747L640.299 51.1318ZM632.194 59.4043L631.6 58.3619L631.596 58.3639L632.194 59.4043ZM619.681 62.4697L619.672 63.6697H619.681V62.4697ZM609.435 60.5801L608.969 61.6863L608.982 61.6914L609.435 60.5801ZM602.128 55.541L601.233 56.3405L602.128 55.541ZM597.845 48.4023L596.717 48.8134L596.719 48.8172L597.845 48.4023ZM609.225 44.2451L608.064 44.5505L608.065 44.5556L609.225 44.2451ZM611.156 48.5283L610.161 49.199L610.168 49.2091L611.156 48.5283ZM614.642 51.5518L614.089 52.6168L614.097 52.621L614.105 52.6251L614.642 51.5518ZM625.014 51.5518L625.534 52.633L625.542 52.6291L625.55 52.6251L625.014 51.5518ZM628.499 48.5283L627.494 47.8728L627.49 47.8783L628.499 48.5283ZM629.801 33.3691L628.676 33.787L628.678 33.794L628.681 33.801L629.801 33.3691ZM626.105 28.498L625.38 29.4544L625.39 29.4618L626.105 28.498ZM615.271 27.2803L614.842 26.1596L614.834 26.1628L615.271 27.2803ZM610.064 32.1514L608.991 31.6147L608.986 31.6256L608.981 31.6365L610.064 32.1514ZM597.575 39.8359C597.575 36.6927 598.085 33.7856 599.094 31.1042L596.848 30.2591C595.729 33.2326 595.175 36.4284 595.175 39.8359H597.575ZM599.094 31.1042C600.105 28.4171 601.534 26.1065 603.378 24.1576L601.634 22.5084C599.558 24.7027 597.964 27.2912 596.848 30.2591L599.094 31.1042ZM603.372 24.1638C605.229 22.2277 607.545 20.695 610.342 19.5761L609.451 17.3477C606.369 18.5804 603.758 20.2951 601.64 22.5022L603.372 24.1638ZM610.342 19.5761C613.122 18.464 616.23 17.8982 619.681 17.8982V15.4982C615.965 15.4982 612.549 16.1083 609.451 17.3477L610.342 19.5761ZM619.681 17.8982C623.384 17.8982 626.653 18.5062 629.507 19.6956L630.43 17.4802C627.238 16.15 623.648 15.4982 619.681 15.4982V17.8982ZM629.52 19.7006C632.425 20.8733 634.707 22.4516 636.411 24.4138L638.223 22.8401C636.232 20.5471 633.616 18.766 630.418 17.4751L629.52 19.7006ZM636.422 24.4264C638.195 26.4106 639.545 28.6719 640.473 31.2187L642.728 30.3966C641.697 27.5684 640.191 25.0425 638.212 22.8275L636.422 24.4264ZM640.475 31.2225C641.402 33.7405 641.87 36.4406 641.87 39.332H644.27C644.27 36.1765 643.759 33.1938 642.727 30.3928L640.475 31.2225ZM641.87 39.332C641.87 43.5246 640.985 47.2622 639.238 50.5715L641.36 51.6921C643.308 48.0027 644.27 43.8739 644.27 39.332H641.87ZM639.236 50.5747C637.529 53.8319 634.995 56.4257 631.6 58.3619L632.789 60.4467C636.56 58.2957 639.43 55.3744 641.362 51.689L639.236 50.5747ZM631.596 58.3639C628.251 60.2866 624.293 61.2697 619.681 61.2697V63.6697C624.642 63.6697 629.027 62.6092 632.792 60.4447L631.596 58.3639ZM619.69 61.2698C616.01 61.2427 612.748 60.6344 609.887 59.4688L608.982 61.6914C612.168 62.9893 615.737 63.6408 619.672 63.6697L619.69 61.2698ZM609.9 59.4739C607.043 58.2726 604.763 56.6893 603.023 54.7416L601.233 56.3405C603.244 58.592 605.835 60.368 608.969 61.6862L609.9 59.4739ZM603.023 54.7416C601.248 52.7553 599.899 50.5064 598.971 47.9875L596.719 48.8172C597.75 51.6173 599.256 54.1276 601.233 56.3405L603.023 54.7416ZM598.972 47.9913C598.043 45.4429 597.575 42.7272 597.575 39.8359H595.175C595.175 42.9915 595.687 45.9868 596.717 48.8134L598.972 47.9913ZM607.395 39.1641C607.395 41.05 607.616 42.847 608.064 44.5505L610.385 43.9397C609.994 42.4518 609.795 40.8614 609.795 39.1641H607.395ZM608.065 44.5556C608.518 46.2458 609.216 47.7961 610.161 49.1989L612.151 47.8577C611.361 46.685 610.771 45.3799 610.384 43.9346L608.065 44.5556ZM610.168 49.2091C611.155 50.6422 612.471 51.7771 614.089 52.6168L615.195 50.4868C613.9 49.8147 612.893 48.934 612.144 47.8476L610.168 49.2091ZM614.105 52.6251C615.753 53.4493 617.622 53.8436 619.681 53.8436V51.4436C617.932 51.4436 616.441 51.11 615.178 50.4784L614.105 52.6251ZM619.681 53.8436C621.866 53.8436 623.829 53.4542 625.534 52.633L624.493 50.4706C623.175 51.105 621.583 51.4436 619.681 51.4436V53.8436ZM625.55 52.6251C627.229 51.7856 628.565 50.6412 629.508 49.1784L627.49 47.8783C626.809 48.9349 625.821 49.8062 624.477 50.4784L625.55 52.6251ZM629.504 49.1838C630.409 47.796 631.078 46.3248 631.504 44.7727L629.19 44.1374C628.832 45.4408 628.268 46.6851 627.494 47.8728L629.504 49.1838ZM631.504 44.7727C631.926 43.2338 632.135 41.6147 632.135 39.9199H629.735C629.735 41.4166 629.551 42.8209 629.19 44.1374L631.504 44.7727ZM632.135 39.9199C632.135 37.3861 631.737 35.0533 630.92 32.9373L628.681 33.801C629.377 35.6042 629.735 37.6387 629.735 39.9199H632.135ZM630.926 32.9513C630.114 30.7662 628.736 28.9556 626.82 27.5343L625.39 29.4618C626.946 30.616 628.032 32.0528 628.676 33.787L630.926 32.9513ZM626.83 27.5418C624.852 26.0421 622.444 25.3244 619.681 25.3244V27.7244C622.013 27.7244 623.887 28.3225 625.381 29.4543L626.83 27.5418ZM619.681 25.3244C617.932 25.3244 616.314 25.5959 614.842 26.1596L615.701 28.4009C616.86 27.9568 618.182 27.7244 619.681 27.7244V25.3244ZM614.834 26.1628C613.423 26.7149 612.224 27.4551 611.274 28.4054L612.971 30.1024C613.644 29.429 614.544 28.8534 615.709 28.3978L614.834 26.1628ZM611.274 28.4054C610.363 29.3163 609.604 30.39 608.991 31.6147L611.138 32.688C611.645 31.6732 612.258 30.8152 612.971 30.1024L611.274 28.4054ZM608.981 31.6365C608.408 32.8416 607.997 34.0708 607.753 35.3229L610.108 35.7825C610.312 34.7391 610.657 33.7007 611.148 32.6662L608.981 31.6365ZM607.753 35.3229C607.513 36.552 607.395 37.833 607.395 39.1641H609.795C609.795 37.9756 609.9 36.8491 610.108 35.7825L607.753 35.3229ZM652.099 61H650.899V62.2H652.099V61ZM652.099 2.79883V1.59883H650.899V2.79883H652.099ZM664.066 2.79883H665.266V1.59883H664.066V2.79883ZM664.066 61V62.2H665.266V61H664.066ZM653.299 61V2.79883H650.899V61H653.299ZM652.099 3.99883H664.066V1.59883H652.099V3.99883ZM662.866 2.79883V61H665.266V2.79883H662.866ZM664.066 59.8H652.099V62.2H664.066V59.8Z" fill="url(#paint0_linear_0_17)"/>
<defs>
<linearGradient id="paint0_linear_0_17" x1="-12.5" y1="16" x2="681.536" y2="106.659" gradientUnits="userSpaceOnUse">
<stop offset="0.0246473" stop-color="#5EC7EC"/>
<stop offset="0.994004" stop-color="white"/>
</linearGradient>
</defs>
</svg>
