<svg width="80" height="61" viewBox="0 0 80 61" fill="none" xmlns="http://www.w3.org/2000/svg">
<rect x="8" y="1" width="60" height="60" rx="30" fill="url(#paint0_linear_0_678)"/>
<path d="M22.8161 25.3036L23.6162 24.7037L22.8356 23.6627L22.0305 24.6848L22.8161 25.3036ZM37.9195 45.4464L37.1195 46.0463L37.8414 47.0092L38.6558 46.1231L37.9195 45.4464ZM68.6667 6C68.6667 8.94552 71.0545 11.3333 74 11.3333C76.9455 11.3333 79.3333 8.94552 79.3333 6C79.3333 3.05448 76.9455 0.666667 74 0.666667C71.0545 0.666667 68.6667 3.05448 68.6667 6ZM1.78557 53.6188L23.6017 25.9223L22.0305 24.6848L0.214435 52.3812L1.78557 53.6188ZM22.016 25.9035L37.1195 46.0463L38.7196 44.8465L23.6162 24.7037L22.016 25.9035ZM37.9195 45.4464C38.6558 46.1231 38.6559 46.123 38.6561 46.1228C38.6563 46.1226 38.6565 46.1223 38.6569 46.122C38.6576 46.1212 38.6587 46.12 38.6601 46.1185C38.6629 46.1154 38.6671 46.1108 38.6728 46.1047C38.684 46.0924 38.7008 46.0741 38.7231 46.0499C38.7676 46.0015 38.8338 45.9294 38.9207 45.8349C39.0945 45.6457 39.3511 45.3664 39.6822 45.006C40.3443 44.2852 41.3045 43.2397 42.4966 41.9411C44.8809 39.3439 48.1931 35.7342 51.9047 31.684C59.3274 23.584 68.3491 13.7207 74.7408 6.67172L73.2592 5.32828C66.8713 12.373 57.8528 22.2329 50.4302 30.3328C46.7191 34.3824 43.4073 37.9917 41.0233 40.5886C39.8313 41.887 38.8713 42.9323 38.2093 43.653C37.8783 44.0134 37.6217 44.2926 37.448 44.4817C37.3611 44.5762 37.2949 44.6482 37.2505 44.6966C37.2282 44.7208 37.2114 44.7391 37.2002 44.7513C37.1946 44.7575 37.1903 44.7621 37.1875 44.7651C37.1861 44.7667 37.185 44.7678 37.1843 44.7686C37.184 44.769 37.1837 44.7693 37.1835 44.7695C37.1834 44.7696 37.1833 44.7697 37.9195 45.4464Z" fill="url(#paint1_linear_0_678)" style="mix-blend-mode:lighten"/>
<defs>
<linearGradient id="paint0_linear_0_678" x1="41" y1="1" x2="35.5" y2="61" gradientUnits="userSpaceOnUse">
<stop stop-color="#5EC7EC"/>
<stop offset="1" stop-color="#553D90" stop-opacity="0.4"/>
</linearGradient>
<linearGradient id="paint1_linear_0_678" x1="28.6897" y1="30.3393" x2="6.02784" y2="58.0303" gradientUnits="userSpaceOnUse">
<stop stop-color="#FF5855"/>
<stop offset="1" stop-color="#FF5855" stop-opacity="0"/>
</linearGradient>
</defs>
</svg>
