<svg width="82" height="78" viewBox="0 0 82 78" fill="none" xmlns="http://www.w3.org/2000/svg">
<rect x="9.10022" y="9.10022" width="60" height="60" rx="30" fill="url(#paint0_linear_0_669)"/>
<path d="M71.0373 37.7288C70.9376 34.785 73.2433 32.3177 76.1872 32.2181C79.131 32.1185 81.5982 34.4242 81.6978 37.368C81.7975 40.3118 79.4918 42.779 76.5479 42.8787C73.6041 42.9783 71.1369 40.6726 71.0373 37.7288ZM68.1125 15.2948L68.8922 14.6686L68.1125 15.2948ZM48.1657 2.43038L47.9169 3.39895L48.1657 2.43038ZM24.4883 4.08982L24.8698 5.01421L24.4883 4.08982ZM6.53084 19.6107L7.39026 20.122L7.39026 20.122L6.53084 19.6107ZM1.46056 42.7983L0.46618 42.9042L1.46056 42.7983ZM11.3012 64.3976L10.5687 65.0784L10.5687 65.0784L11.3012 64.3976ZM32.125 75.7879L32.3032 74.8039L32.125 75.7879ZM55.1735 71.5284C55.6674 71.2814 56.2681 71.4816 56.5151 71.9756C56.7621 72.4696 56.5619 73.0702 56.0679 73.3172L55.1735 71.5284ZM75.3681 37.5822C75.1008 29.6832 72.2816 22.0833 67.3328 15.9209L68.8922 14.6686C74.1117 21.1681 77.085 29.1835 77.367 37.5146L75.3681 37.5822ZM67.3328 15.9209C62.384 9.75848 55.572 5.36516 47.9169 3.39895L48.4144 1.46182C56.4882 3.53558 63.6728 8.16917 68.8922 14.6686L67.3328 15.9209ZM47.9169 3.39895C40.2618 1.43273 32.1757 1.99944 24.8698 5.01421L24.1069 3.16543C31.8124 -0.0142183 40.3407 -0.611929 48.4144 1.46182L47.9169 3.39895ZM24.8698 5.01421C17.5638 8.02897 11.4311 13.3295 7.39026 20.122L5.67142 19.0994C9.93327 11.9355 16.4013 6.34507 24.1069 3.16543L24.8698 5.01421ZM7.39026 20.122C3.3494 26.9145 1.61784 34.8332 2.45493 42.6923L0.46618 42.9042C-0.416687 34.6153 1.40957 26.2634 5.67142 19.0994L7.39026 20.122ZM2.45493 42.6923C3.29202 50.5514 6.65269 57.9279 12.0336 63.7168L10.5687 65.0784C4.89351 58.9729 1.34905 51.1931 0.46618 42.9042L2.45493 42.6923ZM12.0336 63.7168C17.4145 69.5057 24.5261 73.3956 32.3032 74.8039L31.9468 76.7718C23.7444 75.2866 16.2439 71.184 10.5687 65.0784L12.0336 63.7168ZM32.3032 74.8039C40.0803 76.2121 48.1043 75.0629 55.1735 71.5284L56.0679 73.3172C48.6121 77.0451 40.1492 78.2571 31.9468 76.7718L32.3032 74.8039Z" fill="url(#paint1_linear_0_669)" style="mix-blend-mode:lighten"/>
<path d="M38.3423 49.2362C36.8689 49.1682 35.6676 48.9982 34.7383 48.7262C33.8316 48.4542 33.0723 48.1936 32.4603 47.9442V44.8502C33.3896 45.2356 34.4096 45.5869 35.5203 45.9042C36.6536 46.1989 37.7756 46.3462 38.8863 46.3462C40.3823 46.3462 41.5156 46.0856 42.2863 45.5642C43.0796 45.0429 43.4763 44.2269 43.4763 43.1162C43.4763 42.3456 43.1929 41.7676 42.6263 41.3822C42.0596 40.9969 41.3456 40.7022 40.4843 40.4982C39.6229 40.2716 38.6936 40.0562 37.6963 39.8522C36.7216 39.6482 35.8036 39.3422 34.9423 38.9342C34.0809 38.5262 33.3669 37.9482 32.8003 37.2002C32.2336 36.4296 31.9503 35.3756 31.9503 34.0382C31.9503 33.0409 32.1203 32.1909 32.4603 31.4882C32.8003 30.7629 33.2536 30.1736 33.8203 29.7202C34.4096 29.2442 35.0896 28.8816 35.8603 28.6322C36.6536 28.3829 37.4809 28.2129 38.3423 28.1222V25.4702H40.8583V28.0882C41.7196 28.1336 42.5583 28.2356 43.3743 28.3942C44.1903 28.5529 44.9496 28.7456 45.6523 28.9722V31.9982C45.2669 31.8622 44.8249 31.7376 44.3263 31.6242C43.8503 31.4882 43.3403 31.3749 42.7963 31.2842C42.2749 31.1709 41.7423 31.0802 41.1983 31.0122C40.6543 30.9442 40.1329 30.9102 39.6343 30.9102C39.0903 30.9102 38.5576 30.9442 38.0363 31.0122C37.5149 31.0802 37.0503 31.2162 36.6423 31.4202C36.2569 31.6242 35.9396 31.9189 35.6903 32.3042C35.4636 32.6669 35.3503 33.1542 35.3503 33.7662C35.3503 34.6276 35.6336 35.2736 36.2003 35.7042C36.7669 36.1349 37.4809 36.4749 38.3423 36.7242C39.2036 36.9736 40.1216 37.2002 41.0963 37.4042C42.0936 37.5856 43.0229 37.8802 43.8843 38.2882C44.7456 38.6736 45.4596 39.2402 46.0263 39.9882C46.5929 40.7136 46.8763 41.7336 46.8763 43.0482C46.8763 44.8842 46.3209 46.3236 45.2103 47.3662C44.1223 48.3862 42.6716 48.9982 40.8583 49.2022V51.8542H38.3423V49.2362Z" fill="#FF5855"/>
<defs>
<linearGradient id="paint0_linear_0_669" x1="42.1002" y1="9.10022" x2="36.6002" y2="69.1002" gradientUnits="userSpaceOnUse">
<stop stop-color="#5EC7EC"/>
<stop offset="1" stop-color="#553D90" stop-opacity="0.4"/>
</linearGradient>
<linearGradient id="paint1_linear_0_669" x1="81.338" y1="64.2474" x2="69.9442" y2="32.9144" gradientUnits="userSpaceOnUse">
<stop stop-color="#FF5855" stop-opacity="0"/>
<stop offset="0.841774" stop-color="#FF5855"/>
</linearGradient>
</defs>
</svg>
