<svg width="344" height="57" viewBox="0 0 344 57" fill="none" xmlns="http://www.w3.org/2000/svg">
<path d="M0.351562 55H-0.84845V56.2H0.351562V55ZM0.351562 0.662109V-0.537891H-0.84845V0.662109H0.351562ZM41.252 0.662109H42.452V-0.537891H41.252V0.662109ZM41.252 10.7822V11.9822H42.452V10.7822H41.252ZM11.9414 10.7822V9.58223H10.7414V10.7822H11.9414ZM11.9414 24.1357H10.7414V25.3357H11.9414V24.1357ZM34.7432 24.1357H35.9432V22.9357H34.7432V24.1357ZM34.7432 34.1719V35.3719H35.9432V34.1719H34.7432ZM11.9414 34.1719V32.9719H10.7414V34.1719H11.9414ZM11.9414 55V56.2H13.1414V55H11.9414ZM1.55157 55V0.662109H-0.84845V55H1.55157ZM0.351562 1.86211H41.252V-0.537891H0.351562V1.86211ZM40.0519 0.662109V10.7822H42.452V0.662109H40.0519ZM41.252 9.58223H11.9414V11.9822H41.252V9.58223ZM10.7414 10.7822V24.1357H13.1414V10.7822H10.7414ZM11.9414 25.3357H34.7432V22.9357H11.9414V25.3357ZM33.5432 24.1357V34.1719H35.9432V24.1357H33.5432ZM34.7432 32.9719H11.9414V35.3719H34.7432V32.9719ZM10.7414 34.1719V55H13.1414V34.1719H10.7414ZM11.9414 53.8H0.351562V56.2H11.9414V53.8ZM41.9658 25.1855L40.8274 24.8061L40.8249 24.8138L41.9658 25.1855ZM45.3672 18.8027L46.294 19.5651L46.2999 19.5578L45.3672 18.8027ZM50.3643 14.3516L51.0056 15.3658L51.0095 15.3634L50.3643 14.3516ZM56.5371 11.6641L56.8352 12.8265L56.8454 12.8238L56.5371 11.6641ZM72.9141 12.5459L72.4373 13.6471L72.4441 13.6501L72.4509 13.6529L72.9141 12.5459ZM79.3809 17.333L80.333 16.6026L79.3809 17.333ZM82.8662 24.1357L81.7179 24.4841L81.719 24.4877L82.8662 24.1357ZM83.4961 38.4971V39.6971H84.5333L84.6834 38.6708L83.4961 38.4971ZM52.5059 38.4971V37.2971H51.1029L51.3203 38.683L52.5059 38.4971ZM56.957 44.7959L56.3923 45.8547L56.3972 45.8573L56.957 44.7959ZM80.3887 44.166H81.5887V42.5299L80.0281 43.0215L80.3887 44.166ZM80.3887 53.4463L80.9805 54.4902L81.5887 54.1454V53.4463H80.3887ZM54.1436 54.7061L53.7167 55.8277L53.7287 55.8321L54.1436 54.7061ZM46.501 49.751L45.6067 50.5511L45.6122 50.5573L45.6179 50.5634L46.501 49.751ZM42.1758 42.4443L41.042 42.8377L41.0457 42.8479L42.1758 42.4443ZM52.0859 30.6445L50.8896 30.5501L50.7875 31.8445H52.0859V30.6445ZM72.7461 30.6445V31.8445H73.9461V30.6445H72.7461ZM55.4873 23.2119L56.2775 24.115L56.2845 24.1088L55.4873 23.2119ZM41.9481 33.416C41.9481 30.5291 42.3392 27.913 43.1068 25.5573L40.8249 24.8138C39.9688 27.4411 39.548 30.3121 39.548 33.416H41.9481ZM43.1042 25.565C43.9059 23.1602 44.9749 21.1686 46.2939 19.5651L44.4404 18.0404C42.904 19.9082 41.7055 22.1719 40.8274 24.8061L43.1042 25.565ZM46.2999 19.5578C47.6459 17.895 49.2134 16.4991 51.0056 15.3658L49.7229 13.3373C47.7078 14.6116 45.9439 16.1831 44.4345 18.0477L46.2999 19.5578ZM51.0095 15.3634C52.8358 14.1987 54.7766 13.3543 56.8352 12.8265L56.239 10.5017C53.9305 11.0936 51.756 12.0409 49.7191 13.3398L51.0095 15.3634ZM56.8454 12.8238C58.9525 12.2637 61.1442 11.9822 63.4238 11.9822V9.58223C60.9444 9.58223 58.5449 9.88866 56.2288 10.5043L56.8454 12.8238ZM63.4238 11.9822C66.9064 11.9822 69.9016 12.5492 72.4373 13.6471L73.3909 11.4447C70.4955 10.1911 67.1639 9.58223 63.4238 9.58223V11.9822ZM72.4509 13.6529C75.0316 14.7326 77.007 16.21 78.4287 18.0634L80.333 16.6026C78.6194 14.3688 76.2835 12.6548 73.3772 11.4389L72.4509 13.6529ZM78.4287 18.0634C79.9076 19.9912 81.0034 22.1291 81.7179 24.4841L84.0145 23.7874C83.2173 21.1593 81.9895 18.762 80.333 16.6026L78.4287 18.0634ZM81.719 24.4877C82.4357 26.8235 82.8 29.3908 82.8 32.1982H85.2C85.2 29.1827 84.8085 26.3751 84.0134 23.7838L81.719 24.4877ZM82.8 32.1982C82.8 34.0328 82.638 36.0733 82.3087 38.3233L84.6834 38.6708C85.0261 36.3297 85.2 34.171 85.2 32.1982H82.8ZM83.4961 37.2971H52.5059V39.6971H83.4961V37.2971ZM51.3203 38.683C51.8258 41.9054 53.5355 44.3311 56.3923 45.8547L57.5217 43.7371C55.3395 42.5732 54.0817 40.7997 53.6914 38.3111L51.3203 38.683ZM56.3972 45.8573C59.1671 47.3184 62.5943 48.0115 66.6152 48.0115V45.6115C62.8536 45.6115 59.842 44.9609 57.5169 43.7345L56.3972 45.8573ZM66.6152 48.0115C70.3738 48.0115 75.0979 47.0907 80.7492 45.3106L80.0281 43.0215C74.4815 44.7687 70.0234 45.6115 66.6152 45.6115V48.0115ZM79.1887 44.166V53.4463H81.5887V44.166H79.1887ZM79.7968 52.4024C76.5008 54.271 71.6595 55.2697 65.1455 55.2697V57.6697C71.845 57.6697 77.1659 56.6528 80.9805 54.4902L79.7968 52.4024ZM65.1455 55.2697C61.1139 55.2697 57.5915 54.6975 54.5584 53.58L53.7287 55.8321C57.0784 57.0662 60.8906 57.6697 65.1455 57.6697V55.2697ZM54.5703 53.5845C51.5487 52.4347 49.1682 50.8778 47.3841 48.9385L45.6179 50.5634C47.697 52.8234 50.4115 54.5699 53.7168 55.8276L54.5703 53.5845ZM47.3953 48.9508C45.5973 46.9413 44.2346 44.6411 43.3059 42.0407L41.0457 42.8479C42.0766 45.7346 43.5974 48.3054 45.6067 50.5511L47.3953 48.9508ZM43.3095 42.051C42.4068 39.4491 41.9481 36.5745 41.9481 33.416H39.548C39.548 36.8084 40.0411 39.9526 41.0421 42.8377L43.3095 42.051ZM52.0859 31.8445H72.7461V29.4445H52.0859V31.8445ZM73.9461 30.6445C73.9461 27.1232 73.0569 24.2522 71.0821 22.2444L69.3711 23.9274C70.7556 25.3351 71.5461 27.5031 71.5461 30.6445H73.9461ZM71.0821 22.2444C69.1341 20.264 66.5345 19.3244 63.4238 19.3244V21.7244C66.024 21.7244 67.9597 22.4925 69.3711 23.9274L71.0821 22.2444ZM63.4238 19.3244C59.9206 19.3244 56.9702 20.2883 54.6901 22.315L56.2845 24.1088C58.0357 22.5522 60.3763 21.7244 63.4238 21.7244V19.3244ZM54.6971 22.3088C52.4008 24.3181 51.1611 27.1116 50.8896 30.5501L53.2822 30.739C53.5146 27.7947 54.5425 25.6331 56.2775 24.115L54.6971 22.3088ZM96.8496 30.1406L97.5116 31.1416L97.5226 31.1341L96.8496 30.1406ZM102.645 27.5371L102.343 26.3756L102.339 26.3766L102.645 27.5371ZM120.113 28.335L119.658 29.4451L121.313 30.1248V28.335H120.113ZM95.9258 23.5059H94.7258V25.4475L96.4624 24.5792L95.9258 23.5059ZM95.9258 13.2178L95.5574 12.0757L94.7258 12.344V13.2178H95.9258ZM131.451 55V56.2H132.651V55H131.451ZM122.927 55L121.747 55.2176L121.928 56.2H122.927V55ZM121.835 49.0791L123.015 48.8615L122.532 46.2414L120.89 48.3395L121.835 49.0791ZM115.032 54.4541L114.587 53.3399L114.582 53.3417L115.032 54.4541ZM95.0859 51.8086L94.1939 52.6114L94.2025 52.6207L95.0859 51.8086ZM104.912 45.6357L104.096 46.5152L104.106 46.5246L104.912 45.6357ZM120.113 41.3945L121.146 42.005L121.313 41.7226V41.3945H120.113ZM120.113 36.5234H121.313V35.864L120.757 35.5105L120.113 36.5234ZM105.374 36.2715L106.097 37.2293L106.1 37.2272L105.374 36.2715ZM92.5067 41.7725C92.5067 39.2907 92.9681 37.1688 93.8527 35.3743L91.7 34.3132C90.625 36.494 90.1066 38.9912 90.1066 41.7725H92.5067ZM93.8527 35.3743C94.7448 33.5646 95.9648 32.1644 97.5115 31.1416L96.1877 29.1397C94.2631 30.4124 92.7675 32.1477 91.7 34.3132L93.8527 35.3743ZM97.5226 31.1341C99.1406 30.0381 100.947 29.2247 102.95 28.6976L102.339 26.3766C100.087 26.9693 98.03 27.8916 96.1766 29.1471L97.5226 31.1341ZM102.946 28.6986C104.99 28.1676 107.239 27.8973 109.699 27.8973V25.4973C107.064 25.4973 104.61 25.7868 102.343 26.3756L102.946 28.6986ZM109.699 27.8973C113.896 27.8973 117.195 28.4343 119.658 29.4451L120.569 27.2249C117.712 26.052 114.069 25.4973 109.699 25.4973V27.8973ZM121.313 28.335V26.7812H118.913V28.335H121.313ZM121.313 26.7812C121.313 24.3181 120.473 22.2968 118.659 20.9391C116.912 19.6303 114.433 19.0725 111.421 19.0725V21.4725C114.203 21.4725 116.071 21.9994 117.221 22.8602C118.305 23.6721 118.913 24.9052 118.913 26.7812H121.313ZM111.421 19.0725C105.261 19.0725 99.9032 20.1755 95.3891 22.4325L96.4624 24.5792C100.571 22.525 105.543 21.4725 111.421 21.4725V19.0725ZM97.1258 23.5059V13.2178H94.7258V23.5059H97.1258ZM96.2942 14.3598C101.367 12.7234 106.952 11.8982 113.059 11.8982V9.49824C106.735 9.49824 100.898 10.3528 95.5574 12.0757L96.2942 14.3598ZM113.059 11.8982C119.018 11.8982 123.265 13.321 126.025 15.9545C128.774 18.5781 130.251 22.5997 130.251 28.251H132.651C132.651 22.2004 131.063 17.4457 127.682 14.2183C124.31 11.0009 119.361 9.49824 113.059 9.49824V11.8982ZM130.251 28.251V55H132.651V28.251H130.251ZM131.451 53.8H122.927V56.2H131.451V53.8ZM124.107 54.7824L123.015 48.8615L120.655 49.2967L121.747 55.2176L124.107 54.7824ZM120.89 48.3395C118.978 50.7825 116.873 52.4255 114.587 53.3399L115.478 55.5683C118.231 54.4671 120.661 52.5267 122.78 49.8187L120.89 48.3395ZM114.582 53.3417C112.283 54.2716 109.246 54.7658 105.416 54.7658V57.1658C109.425 57.1658 112.798 56.6523 115.482 55.5665L114.582 53.3417ZM105.416 54.7658C101.356 54.7658 98.2542 53.4821 95.9694 50.9965L94.2025 52.6207C97.0127 55.678 100.797 57.1658 105.416 57.1658V54.7658ZM95.9779 51.0058C93.6638 48.4346 92.5067 45.3781 92.5067 41.7725H90.1066C90.1066 45.9494 91.469 49.5836 94.194 52.6114L95.9779 51.0058ZM101.948 41.4785C101.948 43.4743 102.663 45.1845 104.096 46.5151L105.729 44.7564C104.81 43.9034 104.348 42.8421 104.348 41.4785H101.948ZM104.106 46.5246C105.583 47.8644 107.521 48.4734 109.783 48.4734V46.0734C107.958 46.0734 106.649 45.5907 105.718 44.7469L104.106 46.5246ZM109.783 48.4734C111.989 48.4734 114.13 47.8965 116.194 46.7738L115.047 44.6657C113.303 45.6146 111.553 46.0734 109.783 46.0734V48.4734ZM116.194 46.7738C118.286 45.6354 119.943 44.0413 121.146 42.005L119.08 40.7841C118.1 42.4431 116.762 43.7324 115.047 44.6657L116.194 46.7738ZM121.313 41.3945V36.5234H118.913V41.3945H121.313ZM120.757 35.5105C118.446 34.0429 115.603 33.3498 112.303 33.3498V35.7498C115.273 35.7498 117.637 36.3725 119.47 37.5364L120.757 35.5105ZM112.303 33.3498C109.087 33.3498 106.465 33.9367 104.648 35.3158L106.1 37.2272C107.307 36.3107 109.304 35.7498 112.303 35.7498V33.3498ZM104.651 35.3137C102.789 36.7192 101.948 38.8606 101.948 41.4785H104.348C104.348 39.3933 104.992 38.0633 106.097 37.2293L104.651 35.3137ZM141.739 4.02148L141.362 2.88226L140.539 3.15462V4.02148H141.739ZM153.539 0.116211H154.739V-1.54496L153.162 -1.02302L153.539 0.116211ZM153.539 12.168H152.339V13.368H153.539V12.168ZM166.683 12.168H167.883V10.968H166.683V12.168ZM166.683 21.2803V22.4803H167.883V21.2803H166.683ZM153.539 21.2803V20.0803H152.339V21.2803H153.539ZM153.539 40.3867H152.339V40.3961L152.339 40.4055L153.539 40.3867ZM155.009 44.25L154.246 45.1763L154.261 45.1885L154.276 45.2001L155.009 44.25ZM165.633 43.998H166.833V41.8786L165.015 42.9691L165.633 43.998ZM165.633 53.8662L166.245 54.8982L166.833 54.5495V53.8662H165.633ZM142.939 42.4443V4.02148H140.539V42.4443H142.939ZM142.116 5.16071L153.916 1.25544L153.162 -1.02302L141.362 2.88226L142.116 5.16071ZM152.339 0.116211V12.168H154.739V0.116211H152.339ZM153.539 13.368H166.683V10.968H153.539V13.368ZM165.483 12.168V21.2803H167.883V12.168H165.483ZM166.683 20.0803H153.539V22.4803H166.683V20.0803ZM152.339 21.2803V40.3867H154.739V21.2803H152.339ZM152.339 40.4055C152.37 42.3853 152.917 44.0821 154.246 45.1763L155.772 43.3237C155.197 42.8502 154.764 41.9715 154.739 40.368L152.339 40.4055ZM154.276 45.2001C155.564 46.1936 157.393 46.5838 159.544 46.5838V44.1838C157.607 44.1838 156.414 43.8181 155.742 43.2999L154.276 45.2001ZM159.544 46.5838C162.197 46.5838 164.463 46.0991 166.25 45.027L165.015 42.9691C163.723 43.7447 161.93 44.1838 159.544 44.1838V46.5838ZM164.433 43.998V53.8662H166.833V43.998H164.433ZM165.02 52.8342C162.72 54.1993 159.582 54.9338 155.513 54.9338V57.3338C159.842 57.3338 163.451 56.5565 166.245 54.8982L165.02 52.8342ZM155.513 54.9338C151.105 54.9338 148.019 53.8391 146.029 51.8603C144.039 49.8829 142.939 46.8207 142.939 42.4443H140.539C140.539 47.1943 141.735 50.9768 144.337 53.5625C146.937 56.1469 150.738 57.3338 155.513 57.3338V54.9338ZM174.745 12.168V10.968H173.545V12.168H174.745ZM186.629 12.168H187.829V10.968H186.629V12.168ZM188.645 44.9639L187.834 45.8485L187.843 45.8567L188.645 44.9639ZM194.355 46.8115V48.0115H194.381L194.406 48.0105L194.355 46.8115ZM199.646 45.1318L200.316 46.1275L200.322 46.1233L200.329 46.1191L199.646 45.1318ZM203.384 40.7227L204.454 41.2657L204.584 41.0097V40.7227H203.384ZM203.384 12.168V10.968H202.184V12.168H203.384ZM215.226 12.168H216.426V10.968H215.226V12.168ZM215.226 55V56.2H216.426V55H215.226ZM204.77 55H203.57V56.2H204.77V55ZM204.77 48.0293H205.97L203.695 47.4948L204.77 48.0293ZM178.818 52.3545L177.966 53.1987L178.818 52.3545ZM175.945 40.5547V12.168H173.545V40.5547H175.945ZM174.745 13.368H186.629V10.968H174.745V13.368ZM185.429 12.168V38.4131H187.829V12.168H185.429ZM185.429 38.4131C185.429 41.656 186.113 44.2708 187.834 45.8485L189.455 44.0793C188.489 43.1934 187.829 41.441 187.829 38.4131H185.429ZM187.843 45.8567C189.498 47.3426 191.721 48.0115 194.355 48.0115V45.6115C192.119 45.6115 190.535 45.0486 189.446 44.071L187.843 45.8567ZM194.406 48.0105C196.598 47.9178 198.58 47.2958 200.316 46.1275L198.977 44.1362C197.634 45.0395 196.088 45.5373 194.305 45.6126L194.406 48.0105ZM200.329 46.1191C202.052 44.9283 203.423 43.297 204.454 41.2657L202.314 40.1796C201.441 41.8996 200.32 43.2077 198.964 44.1446L200.329 46.1191ZM204.584 40.7227V12.168H202.184V40.7227H204.584ZM203.384 13.368H215.226V10.968H203.384V13.368ZM214.026 12.168V55H216.426V12.168H214.026ZM215.226 53.8H204.77V56.2H215.226V53.8ZM205.97 55V48.0293H203.57V55H205.97ZM203.695 47.4948C202.391 50.1165 200.607 52.0384 198.352 53.3154C196.087 54.5975 193.276 55.2697 189.862 55.2697V57.6697C193.588 57.6697 196.83 56.9352 199.534 55.4039C202.248 53.8674 204.349 51.5691 205.844 48.5638L203.695 47.4948ZM189.862 55.2697C185.466 55.2697 182.116 53.9808 179.671 51.5103L177.966 53.1987C180.951 56.2152 184.965 57.6697 189.862 57.6697V55.2697ZM179.671 51.5103C177.243 49.0575 175.945 45.4685 175.945 40.5547H173.545C173.545 45.887 174.962 50.1645 177.966 53.1987L179.671 51.5103ZM226.647 55H225.447V56.2H226.647V55ZM226.647 12.168V10.968H225.447V12.168H226.647ZM237.062 12.168L238.255 12.0459L238.145 10.968H237.062V12.168ZM237.817 19.5586L236.624 19.6807L237.028 23.632L238.879 20.1179L237.817 19.5586ZM255.034 11.0342H256.234V10.0972L255.325 9.87001L255.034 11.0342ZM255.034 22.918L254.783 24.0913L256.234 24.4024V22.918H255.034ZM242.982 24.0098L243.519 25.0831L243.525 25.0802L242.982 24.0098ZM238.531 28.9229L237.417 28.4772L237.331 28.6918V28.9229H238.531ZM238.531 55V56.2H239.731V55H238.531ZM227.847 55V12.168H225.447V55H227.847ZM226.647 13.368H237.062V10.968H226.647V13.368ZM235.868 12.2901L236.624 19.6807L239.011 19.4365L238.255 12.0459L235.868 12.2901ZM238.879 20.1179C240.29 17.4405 242.202 15.469 244.616 14.1565C247.039 12.8387 250.034 12.1502 253.648 12.1502V9.75019C249.733 9.75019 246.323 10.4964 243.469 12.0481C240.606 13.6051 238.369 15.9378 236.756 18.9993L238.879 20.1179ZM253.648 12.1502C253.985 12.1502 254.249 12.157 254.447 12.169C254.546 12.175 254.621 12.1818 254.676 12.1885C254.734 12.1957 254.752 12.2006 254.743 12.1984L255.325 9.87001C254.934 9.77211 254.321 9.75019 253.648 9.75019V12.1502ZM253.834 11.0342V22.918H256.234V11.0342H253.834ZM255.286 21.7446C253.63 21.3899 251.908 21.2141 250.121 21.2141V23.6141C251.75 23.6141 253.303 23.7742 254.783 24.0913L255.286 21.7446ZM250.121 21.2141C247.298 21.2141 244.729 21.7798 242.44 22.9393L243.525 25.0802C245.436 24.1121 247.625 23.6141 250.121 23.6141V21.2141ZM242.446 22.9365C240.1 24.1095 238.417 25.9771 237.417 28.4772L239.645 29.3685C240.437 27.3894 241.722 25.9816 243.519 25.0831L242.446 22.9365ZM237.331 28.9229V55H239.731V28.9229H237.331ZM238.531 53.8H226.647V56.2H238.531V53.8ZM258.646 25.1855L257.507 24.8061L257.505 24.8138L258.646 25.1855ZM262.047 18.8027L262.974 19.5651L262.98 19.5578L262.047 18.8027ZM267.044 14.3516L267.685 15.3658L267.689 15.3634L267.044 14.3516ZM273.217 11.6641L273.515 12.8265L273.525 12.8238L273.217 11.6641ZM289.594 12.5459L289.117 13.6471L289.124 13.6501L289.131 13.6529L289.594 12.5459ZM296.061 17.333L297.013 16.6026L296.061 17.333ZM299.546 24.1357L298.398 24.4841L298.399 24.4877L299.546 24.1357ZM300.176 38.4971V39.6971H301.213L301.363 38.6708L300.176 38.4971ZM269.186 38.4971V37.2971H267.783L268 38.683L269.186 38.4971ZM273.637 44.7959L273.072 45.8547L273.077 45.8573L273.637 44.7959ZM297.068 44.166H298.268V42.5299L296.708 43.0215L297.068 44.166ZM297.068 53.4463L297.66 54.4902L298.268 54.1454V53.4463H297.068ZM270.823 54.7061L270.396 55.8277L270.408 55.8321L270.823 54.7061ZM263.181 49.751L262.286 50.5511L262.292 50.5573L262.298 50.5634L263.181 49.751ZM258.855 42.4443L257.722 42.8377L257.725 42.8479L258.855 42.4443ZM268.766 30.6445L267.569 30.5501L267.467 31.8445H268.766V30.6445ZM289.426 30.6445V31.8445H290.626V30.6445H289.426ZM272.167 23.2119L272.957 24.115L272.964 24.1088L272.167 23.2119ZM258.628 33.416C258.628 30.5291 259.019 27.913 259.786 25.5573L257.505 24.8138C256.648 27.4411 256.228 30.3121 256.228 33.416H258.628ZM259.784 25.565C260.586 23.1602 261.655 21.1686 262.974 19.5651L261.12 18.0404C259.584 19.9082 258.385 22.1719 257.507 24.8061L259.784 25.565ZM262.98 19.5578C264.326 17.895 265.893 16.4991 267.685 15.3658L266.403 13.3373C264.388 14.6116 262.624 16.1831 261.114 18.0477L262.98 19.5578ZM267.689 15.3634C269.516 14.1987 271.456 13.3543 273.515 12.8265L272.919 10.5017C270.61 11.0936 268.436 12.0409 266.399 13.3398L267.689 15.3634ZM273.525 12.8238C275.632 12.2637 277.824 11.9822 280.104 11.9822V9.58223C277.624 9.58223 275.225 9.88866 272.909 10.5043L273.525 12.8238ZM280.104 11.9822C283.586 11.9822 286.581 12.5492 289.117 13.6471L290.071 11.4447C287.175 10.1911 283.844 9.58223 280.104 9.58223V11.9822ZM289.131 13.6529C291.711 14.7326 293.687 16.21 295.108 18.0634L297.013 16.6026C295.299 14.3688 292.963 12.6548 290.057 11.4389L289.131 13.6529ZM295.108 18.0634C296.587 19.9912 297.683 22.1291 298.398 24.4841L300.694 23.7874C299.897 21.1593 298.669 18.762 297.013 16.6026L295.108 18.0634ZM298.399 24.4877C299.115 26.8235 299.48 29.3908 299.48 32.1982H301.88C301.88 29.1827 301.488 26.3751 300.693 23.7838L298.399 24.4877ZM299.48 32.1982C299.48 34.0328 299.318 36.0733 298.988 38.3233L301.363 38.6708C301.706 36.3297 301.88 34.171 301.88 32.1982H299.48ZM300.176 37.2971H269.186V39.6971H300.176V37.2971ZM268 38.683C268.505 41.9054 270.215 44.3311 273.072 45.8547L274.201 43.7371C272.019 42.5732 270.761 40.7997 270.371 38.3111L268 38.683ZM273.077 45.8573C275.847 47.3184 279.274 48.0115 283.295 48.0115V45.6115C279.533 45.6115 276.522 44.9609 274.197 43.7345L273.077 45.8573ZM283.295 48.0115C287.053 48.0115 291.778 47.0907 297.429 45.3106L296.708 43.0215C291.161 44.7687 286.703 45.6115 283.295 45.6115V48.0115ZM295.868 44.166V53.4463H298.268V44.166H295.868ZM296.477 52.4024C293.18 54.271 288.339 55.2697 281.825 55.2697V57.6697C288.525 57.6697 293.846 56.6528 297.66 54.4902L296.477 52.4024ZM281.825 55.2697C277.794 55.2697 274.271 54.6975 271.238 53.58L270.408 55.8321C273.758 57.0662 277.57 57.6697 281.825 57.6697V55.2697ZM271.25 53.5845C268.228 52.4347 265.848 50.8778 264.064 48.9385L262.298 50.5634C264.377 52.8234 267.091 54.5699 270.396 55.8276L271.25 53.5845ZM264.075 48.9508C262.277 46.9413 260.914 44.6411 259.986 42.0407L257.725 42.8479C258.756 45.7346 260.277 48.3054 262.286 50.5511L264.075 48.9508ZM259.989 42.051C259.086 39.4491 258.628 36.5745 258.628 33.416H256.228C256.228 36.8084 256.721 39.9526 257.722 42.8377L259.989 42.051ZM268.766 31.8445H289.426V29.4445H268.766V31.8445ZM290.626 30.6445C290.626 27.1232 289.737 24.2522 287.762 22.2444L286.051 23.9274C287.435 25.3351 288.226 27.5031 288.226 30.6445H290.626ZM287.762 22.2444C285.814 20.264 283.214 19.3244 280.104 19.3244V21.7244C282.704 21.7244 284.639 22.4925 286.051 23.9274L287.762 22.2444ZM280.104 19.3244C276.6 19.3244 273.65 20.2883 271.37 22.315L272.964 24.1088C274.715 22.5522 277.056 21.7244 280.104 21.7244V19.3244ZM271.377 22.3088C269.081 24.3181 267.841 27.1116 267.569 30.5501L269.962 30.739C270.194 27.7947 271.222 25.6331 272.957 24.115L271.377 22.3088ZM311.514 14.3936L310.792 13.4345L310.788 13.4375L311.514 14.3936ZM340.53 14.0576H341.73V13.3223L341.075 12.9884L340.53 14.0576ZM340.53 23.5898L339.966 24.6487L341.73 25.5898V23.5898H340.53ZM333.728 21.6162L333.484 22.7914L333.496 22.7937L333.728 21.6162ZM320.5 21.1543L320.879 22.2927L320.893 22.2882L320.906 22.2834L320.5 21.1543ZM318.988 22.2881L317.974 21.6473L317.961 21.6668L317.95 21.6868L318.988 22.2881ZM321.466 28.041L321.004 29.1487L321.018 29.1542L321.031 29.1594L321.466 28.041ZM324.447 29.0068L324.148 30.169L324.447 29.0068ZM328.227 29.8467L327.991 31.0234L328.002 31.0254L328.012 31.0273L328.227 29.8467ZM328.898 29.9727L329.134 28.796L328.898 29.9727ZM335.407 31.6523L335.019 32.788L335.032 32.7922L335.045 32.7962L335.407 31.6523ZM338.179 32.8281L337.561 33.8571L337.585 33.8715L337.61 33.8847L338.179 32.8281ZM340.404 34.3818L339.626 35.2953L339.636 35.3038L339.646 35.3121L340.404 34.3818ZM342.168 36.4814L341.11 37.0481L341.122 37.0709L341.136 37.0932L342.168 36.4814ZM343.218 39.2109L342.05 39.4875L342.054 39.5058L342.059 39.524L343.218 39.2109ZM307.314 52.3545H306.114V53.0656L306.738 53.4071L307.314 52.3545ZM307.314 42.6123L307.829 41.5281L306.114 40.7149V42.6123H307.314ZM315.839 45.5098L315.541 46.6723L315.55 46.6745L315.839 45.5098ZM330.578 40.7227L329.828 41.6597L329.849 41.6761L329.87 41.6915L330.578 40.7227ZM327.765 39.5049L327.487 40.6722L327.5 40.6754L327.513 40.6782L327.765 39.5049ZM323.733 38.665L323.49 39.84L323.502 39.8426L323.515 39.845L323.733 38.665ZM314.537 36.3975L314.059 37.4983L314.067 37.5015L314.537 36.3975ZM310.548 34.1299L309.821 35.0844L309.828 35.0899L309.835 35.0954L310.548 34.1299ZM307.692 30.4346L306.593 30.9166L306.599 30.9283L306.604 30.9399L307.692 30.4346ZM307.843 24.8916C307.843 20.6833 309.327 17.5584 312.239 15.3496L310.788 13.4375C307.205 16.1558 305.443 20.0296 305.443 24.8916H307.843ZM312.235 15.3526C315.224 13.1041 319.592 11.8982 325.497 11.8982V9.49824C319.308 9.49824 314.354 10.7559 310.792 13.4345L312.235 15.3526ZM325.497 11.8982C330.961 11.8982 335.781 12.9846 339.985 15.1268L341.075 12.9884C336.489 10.6515 331.287 9.49824 325.497 9.49824V11.8982ZM339.33 14.0576V23.5898H341.73V14.0576H339.33ZM341.095 22.531C339.663 21.7671 337.237 21.0832 333.959 20.4387L333.496 22.7937C336.769 23.437 338.878 24.0689 339.966 24.6487L341.095 22.531ZM333.971 20.4411C330.664 19.7569 327.655 19.4084 324.951 19.4084V21.8084C327.454 21.8084 330.296 22.1317 333.484 22.7913L333.971 20.4411ZM324.951 19.4084C323.9 19.4084 323.033 19.4366 322.365 19.4973L322.582 21.8875C323.146 21.8362 323.931 21.8084 324.951 21.8084V19.4084ZM322.365 19.4973C321.629 19.5642 320.871 19.7454 320.094 20.0252L320.906 22.2834C321.529 22.0592 322.086 21.9326 322.582 21.8875L322.365 19.4973ZM320.121 20.0159C319.221 20.3158 318.476 20.8518 317.974 21.6473L320.003 22.9289C320.172 22.6606 320.435 22.4408 320.879 22.2927L320.121 20.0159ZM317.95 21.6868C317.501 22.4616 317.326 23.3911 317.326 24.3877H319.726C319.726 23.6486 319.859 23.1784 320.027 22.8893L317.95 21.6868ZM317.326 24.3877C317.326 25.4702 317.639 26.459 318.308 27.2843L320.173 25.7743C319.889 25.4238 319.726 24.9849 319.726 24.3877H317.326ZM318.308 27.2843C318.952 28.0806 319.889 28.6839 321.004 29.1487L321.927 26.9333C321.027 26.5583 320.48 26.1538 320.173 25.7743L318.308 27.2843ZM321.031 29.1594C322.08 29.5675 323.119 29.9044 324.148 30.169L324.746 27.8446C323.815 27.6053 322.867 27.2984 321.901 26.9226L321.031 29.1594ZM324.148 30.169C325.157 30.4285 326.44 30.7132 327.991 31.0234L328.462 28.67C326.933 28.3643 325.697 28.0891 324.746 27.8446L324.148 30.169ZM328.012 31.0273C328.319 31.0832 328.534 31.1236 328.663 31.1494L329.134 28.796C328.983 28.7658 328.75 28.7222 328.441 28.666L328.012 31.0273ZM328.663 31.1494C330.053 31.4273 331.18 31.6751 332.051 31.8927L332.633 29.5643C331.711 29.334 330.543 29.0779 329.134 28.796L328.663 31.1494ZM332.051 31.8927C332.906 32.1064 333.894 32.4038 335.019 32.788L335.795 30.5167C334.625 30.1171 333.57 29.7985 332.633 29.5643L332.051 31.8927ZM335.045 32.7962C336.141 33.1439 336.97 33.5021 337.561 33.8571L338.796 31.7991C337.988 31.3143 336.969 30.8886 335.77 30.5085L335.045 32.7962ZM337.61 33.8847C338.25 34.2294 338.922 34.6958 339.626 35.2953L341.182 33.4683C340.375 32.7801 339.563 32.2107 338.748 31.7716L337.61 33.8847ZM339.646 35.3121C340.291 35.8375 340.772 36.417 341.11 37.0481L343.226 35.9148C342.724 34.9782 342.029 34.1579 341.162 33.4516L339.646 35.3121ZM341.136 37.0932C341.509 37.723 341.82 38.5141 342.05 39.4875L344.385 38.9344C344.112 37.7802 343.723 36.7516 343.2 35.8697L341.136 37.0932ZM342.059 39.524C342.307 40.4398 342.438 41.4939 342.438 42.6963H344.838C344.838 41.3232 344.689 40.0537 344.376 38.8978L342.059 39.524ZM342.438 42.6963C342.438 46.4272 340.868 49.4031 337.611 51.7113L338.999 53.6695C342.852 50.9387 344.838 47.2518 344.838 42.6963H342.438ZM337.611 51.7113C334.314 54.0478 329.932 55.2697 324.363 55.2697V57.6697C330.273 57.6697 335.185 56.3721 338.999 53.6695L337.611 51.7113ZM324.363 55.2697C318.187 55.2697 312.706 53.9382 307.891 51.3019L306.738 53.4071C311.945 56.2578 317.83 57.6697 324.363 57.6697V55.2697ZM308.514 52.3545V42.6123H306.114V52.3545H308.514ZM306.8 43.6965C309.078 44.7772 312 45.7657 315.541 46.6723L316.136 44.3473C312.679 43.4621 309.918 42.5191 307.829 41.5281L306.8 43.6965ZM315.55 46.6745C319.116 47.5589 322.337 48.0115 325.203 48.0115V45.6115C322.582 45.6115 319.56 45.1963 316.128 44.345L315.55 46.6745ZM325.203 48.0115C327.244 48.0115 329.025 47.6376 330.467 46.7991L329.261 44.7243C328.296 45.2856 326.969 45.6115 325.203 45.6115V48.0115ZM330.467 46.7991C332.004 45.9057 332.87 44.5361 332.87 42.7803H330.47C330.47 43.6 330.132 44.218 329.261 44.7243L330.467 46.7991ZM332.87 42.7803C332.87 41.5258 332.297 40.4923 331.286 39.7538L329.87 41.6915C330.315 42.0168 330.47 42.3551 330.47 42.7803H332.87ZM331.328 39.7856C330.441 39.0766 329.315 38.6098 328.016 38.3315L327.513 40.6782C328.566 40.9039 329.315 41.249 329.828 41.6597L331.328 39.7856ZM328.043 38.3375C326.843 38.0518 325.478 37.7678 323.952 37.4851L323.515 39.845C325.012 40.1222 326.335 40.398 327.487 40.6722L328.043 38.3375ZM323.977 37.4901C322.482 37.1798 320.945 36.8837 319.367 36.6019L318.945 38.9645C320.503 39.2426 322.017 39.5344 323.49 39.84L323.977 37.4901ZM319.367 36.6019C317.891 36.3383 316.438 35.903 315.007 35.2934L314.067 37.5015C315.659 38.1797 317.286 38.6682 318.945 38.9645L319.367 36.6019ZM315.015 35.2966C313.606 34.6851 312.356 33.973 311.26 33.1644L309.835 35.0954C311.091 36.0224 312.501 36.8221 314.059 37.4983L315.015 35.2966ZM311.275 33.1754C310.279 32.4162 309.44 31.3501 308.781 29.9292L306.604 30.9399C307.4 32.6545 308.465 34.0519 309.821 35.0844L311.275 33.1754ZM308.791 29.9526C308.17 28.5366 307.843 26.8586 307.843 24.8916H305.443C305.443 27.1238 305.815 29.1411 306.593 30.9166L308.791 29.9526Z" fill="url(#paint0_linear_0_453)"/>
<defs>
<linearGradient id="paint0_linear_0_453" x1="-43" y1="29" x2="383.136" y2="72.5343" gradientUnits="userSpaceOnUse">
<stop offset="0.0246473" stop-color="#5EC7EC"/>
<stop offset="0.994004" stop-color="white"/>
</linearGradient>
</defs>
</svg>
