<svg width="50" height="49" viewBox="0 0 50 49" fill="none" xmlns="http://www.w3.org/2000/svg">
<path d="M0.0142201 23.2307C0.142076 22.3499 0.255711 21.455 0.397773 20.5884C0.888206 17.6652 1.92439 14.8603 3.45215 12.3203C6.16301 7.67641 10.3119 4.04117 15.2717 1.96401C18.6905 0.502782 22.398 -0.158114 26.1111 0.031892C31.2101 0.221331 36.1223 1.99951 40.1611 5.11776C43.9926 8.0121 46.8958 11.962 48.5144 16.4828C49.8394 20.1448 50.287 24.0666 49.8214 27.933C49.4599 31.4147 48.3293 34.7725 46.5113 37.7637C44.0412 41.973 40.3776 45.3548 35.9845 47.4808C35.0753 47.907 34.1377 48.2764 33.1432 48.6315C31.9073 49.1003 31.1543 48.6315 31.1401 47.2109C31.1401 44.8527 31.1401 42.4944 31.1401 40.1078C31.1663 39.3435 31.0347 38.582 30.7536 37.8707C30.4726 37.1595 30.048 36.5137 29.5064 35.9737L30.927 35.7464C33.0105 35.4727 35.0032 34.7243 36.7516 33.5587C38.4336 32.3846 39.6463 30.6536 40.1753 28.6718C40.9759 26.238 41.1229 23.6366 40.6015 21.1282C40.2914 19.7425 39.6367 18.4574 38.6979 17.392C38.5697 17.2647 38.4823 17.1022 38.4469 16.9251C38.4115 16.7479 38.4296 16.5643 38.499 16.3975C39.0902 14.452 38.959 12.3584 38.1296 10.5019C38.0848 10.4352 38.026 10.3791 37.9573 10.3374C37.8886 10.2957 37.8117 10.2694 37.7318 10.2604C36.8986 10.1849 36.0612 10.3475 35.3168 10.7292C34.0524 11.3401 32.8165 12.0362 31.5521 12.6613C31.3336 12.7741 31.0846 12.8139 30.8418 12.775C28.2579 12.0956 25.5741 11.8791 22.9147 12.1357C21.693 12.2635 20.4854 12.5192 19.2779 12.7607C19.1018 12.8054 18.9183 12.812 18.7395 12.7802C18.5607 12.7483 18.3907 12.6787 18.2408 12.576C16.6974 11.5472 14.9929 10.7837 13.1976 10.3172H13.0556C12.0327 10.1467 11.8054 10.3173 11.5071 11.2833C10.9248 13.0551 10.9248 14.9667 11.5071 16.7385C11.5156 16.8352 11.5049 16.9327 11.4756 17.0254C11.4463 17.118 11.3991 17.204 11.3366 17.2783C10.2095 18.5315 9.47374 20.0871 9.21989 21.7533C8.60445 25.204 9.3257 28.7596 11.2372 31.6977C12.3275 33.1985 13.8714 34.3091 15.6411 34.8657C16.9197 35.3203 18.2693 35.5334 19.5904 35.8601C19.8319 35.8601 20.0735 35.8601 20.386 35.9737C20.1527 36.2095 19.9476 36.4718 19.7751 36.7551C19.4472 37.452 19.1625 38.1684 18.9227 38.9003C18.8989 39.0402 18.8374 39.171 18.7448 39.2787C18.6522 39.3863 18.532 39.4667 18.3971 39.5111C17.0414 40.0735 15.5285 40.129 14.1352 39.6674C13.1264 39.2313 12.2916 38.4715 11.7628 37.508C11.4327 36.8795 10.9817 36.3225 10.4355 35.869C9.88941 35.4156 9.25901 35.0746 8.58059 34.8657C8.05845 34.78 7.52586 34.78 7.00372 34.8657C6.69118 34.8657 6.54908 35.1356 6.79059 35.4197C6.98784 35.7185 7.23825 35.9785 7.52934 36.1868C8.75451 36.9719 9.69175 38.1335 10.2001 39.4969C10.4758 40.2979 10.9217 41.0298 11.5071 41.6421C12.554 42.5654 13.9042 43.0711 15.3002 43.0627C16.4509 43.0627 17.6016 43.0627 18.8233 43.0627V43.7304C18.8233 44.9379 18.8233 46.1312 18.8233 47.3387C18.8233 48.5462 18.0278 49.1287 16.8486 48.7593C12.1648 47.1633 8.07065 44.1929 5.10004 40.2356C2.48778 36.8492 0.807826 32.838 0.227305 28.6007C0.142068 28.0467 0.0710313 27.4784 0 26.9243L0.0142201 23.2307Z" fill="#5EC7EC"/>
</svg>
