<svg width="562" height="76" viewBox="0 0 562 76" fill="none" xmlns="http://www.w3.org/2000/svg">
<path d="M0.820312 59H-0.3797V60.2H0.820312V59ZM0.820312 54.7168L-0.0771484 53.9202L-0.3797 54.261V54.7168H0.820312ZM17.4072 36.0303L18.3047 36.8269L18.3052 36.8262L17.4072 36.0303ZM24.126 27.7158L25.1314 28.3709L25.1359 28.364L24.126 27.7158ZM23.4541 16.3779L22.7581 17.3556L22.7693 17.3634L23.4541 16.3779ZM9.42871 16.042L9.83783 17.1701L9.8447 17.1676L9.42871 16.042ZM2.5 19.7793H1.29999V22.1923L3.22412 20.7362L2.5 19.7793ZM2.5 8.60938L1.81506 7.62404L1.29999 7.98208V8.60938H2.5ZM26.1416 4.83008L25.7491 5.96406L25.7578 5.96706L25.7664 5.96993L26.1416 4.83008ZM32.0205 7.97949L31.269 8.91507L31.2764 8.92096L32.0205 7.97949ZM36.1357 13.2285L35.0512 13.7422L35.0568 13.7538L36.1357 13.2285ZM36.4717 27.0859L37.5909 27.5187L37.5928 27.5137L36.4717 27.0859ZM33.0703 33.1748L32.107 32.4592L32.1053 32.4615L33.0703 33.1748ZM26.7715 40.6074L25.8869 39.7966L25.8865 39.797L26.7715 40.6074ZM19.4648 48.5859L18.5799 47.7755L16.7387 49.7859H19.4648V48.5859ZM39.5791 48.5859H40.7791V47.3859H39.5791V48.5859ZM39.5791 59V60.2H40.7791V59H39.5791ZM2.02032 59V54.7168H-0.3797V59H2.02032ZM1.71777 55.5134L18.3047 36.8269L16.5098 35.2337L-0.0771484 53.9202L1.71777 55.5134ZM18.3052 36.8262C21.584 33.1272 23.8753 30.2989 25.1314 28.3709L23.1205 27.0608C21.9691 28.8281 19.7812 31.5428 16.5092 35.2343L18.3052 36.8262ZM25.1359 28.364C26.4593 26.3018 27.1317 24.0624 27.1317 21.6689H24.7316C24.7316 23.5867 24.2002 25.3785 23.1161 27.0677L25.1359 28.364ZM27.1317 21.6689C27.1317 18.9788 26.1756 16.8078 24.1389 15.3925L22.7693 17.3634C24.036 18.2436 24.7316 19.6 24.7316 21.6689H27.1317ZM24.15 15.4003C22.2363 14.038 19.7849 13.4143 16.9033 13.4143V15.8143C19.4528 15.8143 21.3685 16.3663 22.7582 17.3555L24.15 15.4003ZM16.9033 13.4143C14.3354 13.4143 11.7029 13.9222 9.01273 14.9164L9.8447 17.1676C12.3055 16.2581 14.6562 15.8143 16.9033 15.8143V13.4143ZM9.01962 14.9139C6.36398 15.8769 3.94739 17.1791 1.77588 18.8224L3.22412 20.7362C5.19583 19.2441 7.39838 18.0547 9.8378 17.1701L9.01962 14.9139ZM3.70001 19.7793V8.60938H1.29999V19.7793H3.70001ZM3.18494 9.59471C5.36066 8.0823 7.86868 6.91805 10.7213 6.1107L10.0677 3.80141C6.98547 4.67375 4.2305 5.94504 1.81506 7.62404L3.18494 9.59471ZM10.7213 6.1107C13.5887 5.29917 16.4183 4.89629 19.2129 4.89629V2.49629C16.1846 2.49629 13.1352 2.93326 10.0677 3.80141L10.7213 6.1107ZM19.2129 4.89629C21.5221 4.89629 23.6984 5.25422 25.7491 5.96406L26.5341 3.69609C24.2176 2.89421 21.7748 2.49629 19.2129 2.49629V4.89629ZM25.7664 5.96993C27.85 6.65567 29.6804 7.63896 31.269 8.91504L32.772 7.04395C30.9452 5.57654 28.8564 4.46022 26.5168 3.69022L25.7664 5.96993ZM31.2764 8.92096C32.858 10.1709 34.1173 11.7705 35.0513 13.7422L37.2202 12.7148C36.1385 10.4313 34.6544 8.53156 32.7646 7.03802L31.2764 8.92096ZM35.0568 13.7538C36.0061 15.7036 36.4894 17.8733 36.4894 20.2832H38.8895C38.8895 17.542 38.337 15.0086 37.2147 12.7032L35.0568 13.7538ZM36.4894 20.2832C36.4894 22.553 36.1073 24.6748 35.3505 26.6581L37.5928 27.5137C38.4597 25.2418 38.8895 22.8285 38.8895 20.2832H36.4894ZM35.3524 26.6532C34.5827 28.6438 33.5037 30.5791 32.107 32.4592L34.0336 33.8904C35.5484 31.8512 36.7369 29.7273 37.5909 27.5187L35.3524 26.6532ZM32.1053 32.4615C30.7141 34.3438 28.6468 36.7858 25.8869 39.7966L27.6561 41.4183C30.4392 38.3822 32.5711 35.8691 34.0353 33.8881L32.1053 32.4615ZM25.8865 39.797L18.5799 47.7755L20.3498 49.3964L27.6565 41.4179L25.8865 39.797ZM19.4648 49.7859H39.5791V47.3859H19.4648V49.7859ZM38.3791 48.5859V59H40.7791V48.5859H38.3791ZM39.5791 57.8H0.820312V60.2H39.5791V57.8ZM48.2295 43.1689L47.0883 43.5401L47.0892 43.5428L48.2295 43.1689ZM48.2295 21.0391L49.3698 21.4129L49.3707 21.4102L48.2295 21.0391ZM53.0166 12.0107L52.0865 11.2525L52.0815 11.2586L53.0166 12.0107ZM82.2012 5.96387L81.6875 7.04838L81.6953 7.05202L82.2012 5.96387ZM90.0957 12.0947L89.1567 12.8419L89.1611 12.8475L89.1656 12.853L90.0957 12.0947ZM94.9248 21.123L93.7836 21.4942L93.7845 21.4969L94.9248 21.123ZM94.9248 43.2529L96.0651 43.6268L96.066 43.624L94.9248 43.2529ZM90.0957 52.2393L89.1656 51.481L89.1606 51.4871L90.0957 52.2393ZM60.9531 58.3281L60.4394 59.4126L60.4472 59.4163L60.9531 58.3281ZM53.0166 52.1973L52.0776 52.9444L52.082 52.95L52.0865 52.9555L53.0166 52.1973ZM59.5674 39.0117L58.3971 39.277L58.3991 39.2862L58.4014 39.2953L59.5674 39.0117ZM61.793 44.5967L60.7609 45.2089L60.7671 45.2193L60.7734 45.2295L61.793 44.5967ZM65.7822 48.418L65.1964 49.4653L65.2039 49.4694L65.7822 48.418ZM78.8418 47.4102L79.606 48.3353L79.6074 48.3342L78.8418 47.4102ZM83.5449 25.2803L82.3746 25.5455L82.3767 25.5547L82.3789 25.5639L83.5449 25.2803ZM81.3193 19.6953L80.2873 20.3076L80.2934 20.3179L80.2998 20.3281L81.3193 19.6953ZM77.3301 15.832L76.7443 16.8794L76.7518 16.8835L77.3301 15.832ZM64.2705 16.8818L65.0348 17.807L65.0361 17.8059L64.2705 16.8818ZM49.3707 42.7978C48.2932 39.4846 47.7498 35.9156 47.7498 32.083H45.3498C45.3498 36.145 45.9262 39.9665 47.0883 43.5401L49.3707 42.7978ZM47.7498 32.083C47.7498 28.2503 48.2932 24.6964 49.3698 21.4129L47.0892 20.6652C45.9262 24.2125 45.3498 28.0211 45.3498 32.083H47.7498ZM49.3707 21.4102C50.4497 18.092 51.9796 15.2146 53.9517 12.7629L52.0815 11.2586C49.9103 13.958 48.2488 17.0994 47.0883 20.6679L49.3707 21.4102ZM53.9467 12.769C55.9249 10.3424 58.4222 8.42189 61.459 7.01003L60.4472 4.83372C57.1013 6.38931 54.3075 8.52808 52.0865 11.2525L53.9467 12.769ZM61.459 7.01003C64.4759 5.60745 67.842 4.89629 71.5771 4.89629V2.49629C67.5298 2.49629 63.8132 3.26885 60.4472 4.83372L61.459 7.01003ZM71.5771 4.89629C75.3091 4.89629 78.6724 5.62016 81.6875 7.04835L82.7149 4.87938C79.3471 3.28413 75.6278 2.49629 71.5771 2.49629V4.89629ZM81.6953 7.05202C84.7278 8.46189 87.2077 10.3925 89.1567 12.8419L91.0347 11.3476C88.8405 8.58991 86.0573 6.43329 82.7071 4.87572L81.6953 7.05202ZM89.1656 12.853C91.1635 15.3037 92.7056 18.1791 93.7836 21.4942L96.066 20.7519C94.9045 17.1803 93.2271 14.0368 91.0258 11.3365L89.1656 12.853ZM93.7845 21.4969C94.8611 24.7804 95.4045 28.3343 95.4045 32.167H97.8045C97.8045 28.1051 97.2281 24.2965 96.0651 20.7492L93.7845 21.4969ZM95.4045 32.167C95.4045 35.9995 94.8611 39.5686 93.7836 42.8818L96.066 43.624C97.2281 40.0505 97.8045 36.229 97.8045 32.167H95.4045ZM93.7845 42.8791C92.7068 46.166 91.1648 49.0287 89.1656 51.481L91.0258 52.9975C93.2258 50.2988 94.9032 47.1706 96.0651 43.6268L93.7845 42.8791ZM89.1606 51.4871C87.2118 53.91 84.7308 55.8287 81.6953 57.24L82.7071 59.4163C86.0543 57.8601 88.8363 55.7196 91.0308 52.9914L89.1606 51.4871ZM81.6953 57.24C78.6784 58.6425 75.3123 59.3537 71.5771 59.3537V61.7537C75.6245 61.7537 79.3411 60.9811 82.7071 59.4163L81.6953 57.24ZM71.5771 59.3537C67.842 59.3537 64.4759 58.6425 61.459 57.24L60.4472 59.4163C63.8132 60.9811 67.5298 61.7537 71.5771 61.7537V59.3537ZM61.4668 57.2436C58.4264 55.8034 55.9265 53.8676 53.9467 51.439L52.0865 52.9555C54.3059 55.678 57.097 57.8294 60.4394 59.4126L61.4668 57.2436ZM53.9556 51.4501C51.9796 48.9667 50.4487 46.086 49.3698 42.7951L47.0892 43.5428C48.2498 47.0827 49.9104 50.2208 52.0776 52.9444L53.9556 51.4501ZM57.6535 32.083C57.6535 34.6771 57.8984 37.0771 58.3971 39.277L60.7377 38.7464C60.2845 36.7471 60.0535 34.528 60.0535 32.083H57.6535ZM58.4014 39.2953C58.9303 41.4699 59.7141 43.4444 60.7609 45.2089L62.825 43.9844C61.9122 42.4456 61.2122 40.6967 60.7334 38.7281L58.4014 39.2953ZM60.7734 45.2295C61.8873 47.0241 63.3656 48.4412 65.1964 49.4653L66.368 47.3707C64.8955 46.547 63.7143 45.4167 62.8125 43.9638L60.7734 45.2295ZM65.2039 49.4694C67.0842 50.5036 69.2198 51.0037 71.5771 51.0037V48.6037C69.5673 48.6037 67.8397 48.18 66.3605 47.3665L65.2039 49.4694ZM71.5771 51.0037C74.72 51.0037 77.4254 50.1368 79.606 48.3353L78.0775 46.485C76.395 47.875 74.2572 48.6037 71.5771 48.6037V51.0037ZM79.6074 48.3342C81.7532 46.5562 83.2764 44.2601 84.1819 41.4834L81.9001 40.7393C81.1259 43.1136 79.8496 45.0167 78.0762 46.4861L79.6074 48.3342ZM84.1819 41.4834C85.0693 38.762 85.5008 35.6505 85.5008 32.167H83.1008C83.1008 35.4583 82.6924 38.3096 81.9001 40.7393L84.1819 41.4834ZM85.5008 32.167C85.5008 29.5687 85.2411 27.1761 84.7109 24.9967L82.3789 25.5639C82.8566 27.5277 83.1008 29.7263 83.1008 32.167H85.5008ZM84.7152 25.015C84.2135 22.8016 83.4253 20.8128 82.3389 19.0625L80.2998 20.3281C81.229 21.8252 81.9245 23.5597 82.3746 25.5455L84.7152 25.015ZM82.3514 19.0831C81.2625 17.2474 79.7762 15.8079 77.9084 14.7806L76.7518 16.8835C78.2433 17.7039 79.4166 18.8398 80.2873 20.3076L82.3514 19.0831ZM77.9159 14.7847C76.0593 13.7463 73.934 13.2463 71.5771 13.2463V15.6463C73.5875 15.6463 75.2975 16.0701 76.7443 16.8793L77.9159 14.7847ZM71.5771 13.2463C68.4287 13.2463 65.7104 14.1304 63.5049 15.9578L65.0361 17.8059C66.7498 16.3859 68.9027 15.6463 71.5771 15.6463V13.2463ZM63.5063 15.9567C61.3849 17.7091 59.8768 19.9931 58.9724 22.7666L61.2542 23.5107C62.0294 21.1332 63.2928 19.246 65.0348 17.807L63.5063 15.9567ZM58.9724 22.7666C58.085 25.488 57.6535 28.5995 57.6535 32.083H60.0535C60.0535 28.7917 60.4619 25.9404 61.2542 23.5107L58.9724 22.7666ZM102.777 59H101.577V60.2H102.777V59ZM102.777 54.7168L101.88 53.9202L101.577 54.261V54.7168H102.777ZM119.364 36.0303L120.262 36.8269L120.262 36.8262L119.364 36.0303ZM126.083 27.7158L127.088 28.3709L127.093 28.364L126.083 27.7158ZM125.411 16.3779L124.715 17.3556L124.726 17.3634L125.411 16.3779ZM111.386 16.042L111.795 17.1701L111.802 17.1676L111.386 16.042ZM104.457 19.7793H103.257V22.1923L105.181 20.7362L104.457 19.7793ZM104.457 8.60938L103.772 7.62404L103.257 7.98208V8.60938H104.457ZM128.099 4.83008L127.706 5.96406L127.715 5.96706L127.723 5.96993L128.099 4.83008ZM133.978 7.97949L133.226 8.91507L133.233 8.92096L133.978 7.97949ZM138.093 13.2285L137.008 13.7422L137.014 13.7538L138.093 13.2285ZM138.429 27.0859L139.548 27.5187L139.55 27.5137L138.429 27.0859ZM135.027 33.1748L134.064 32.4592L134.062 32.4615L135.027 33.1748ZM128.729 40.6074L127.844 39.7966L127.844 39.797L128.729 40.6074ZM121.422 48.5859L120.537 47.7755L118.696 49.7859H121.422V48.5859ZM141.536 48.5859H142.736V47.3859H141.536V48.5859ZM141.536 59V60.2H142.736V59H141.536ZM103.977 59V54.7168H101.577V59H103.977ZM103.675 55.5134L120.262 36.8269L118.467 35.2337L101.88 53.9202L103.675 55.5134ZM120.262 36.8262C123.541 33.1272 125.832 30.2989 127.088 28.3709L125.078 27.0608C123.926 28.8281 121.738 31.5428 118.466 35.2343L120.262 36.8262ZM127.093 28.364C128.416 26.3018 129.089 24.0624 129.089 21.6689H126.689C126.689 23.5867 126.157 25.3785 125.073 27.0677L127.093 28.364ZM129.089 21.6689C129.089 18.9788 128.133 16.8078 126.096 15.3925L124.726 17.3634C125.993 18.2436 126.689 19.6 126.689 21.6689H129.089ZM126.107 15.4003C124.193 14.038 121.742 13.4143 118.86 13.4143V15.8143C121.41 15.8143 123.326 16.3663 124.715 17.3555L126.107 15.4003ZM118.86 13.4143C116.292 13.4143 113.66 13.9222 110.97 14.9164L111.802 17.1676C114.263 16.2581 116.613 15.8143 118.86 15.8143V13.4143ZM110.977 14.9139C108.321 15.8769 105.904 17.1791 103.733 18.8224L105.181 20.7362C107.153 19.2441 109.355 18.0547 111.795 17.1701L110.977 14.9139ZM105.657 19.7793V8.60938H103.257V19.7793H105.657ZM105.142 9.59471C107.318 8.0823 109.826 6.91805 112.678 6.1107L112.025 3.80141C108.943 4.67375 106.188 5.94504 103.772 7.62404L105.142 9.59471ZM112.678 6.1107C115.546 5.29917 118.375 4.89629 121.17 4.89629V2.49629C118.142 2.49629 115.092 2.93326 112.025 3.80141L112.678 6.1107ZM121.17 4.89629C123.479 4.89629 125.655 5.25422 127.706 5.96406L128.491 3.69609C126.175 2.89421 123.732 2.49629 121.17 2.49629V4.89629ZM127.723 5.96993C129.807 6.65567 131.637 7.63896 133.226 8.91504L134.729 7.04395C132.902 5.57654 130.813 4.46022 128.474 3.69022L127.723 5.96993ZM133.233 8.92096C134.815 10.1709 136.074 11.7705 137.008 13.7422L139.177 12.7148C138.096 10.4313 136.611 8.53156 134.722 7.03802L133.233 8.92096ZM137.014 13.7538C137.963 15.7036 138.446 17.8733 138.446 20.2832H140.846C140.846 17.542 140.294 15.0086 139.172 12.7032L137.014 13.7538ZM138.446 20.2832C138.446 22.553 138.064 24.6748 137.308 26.6581L139.55 27.5137C140.417 25.2418 140.846 22.8285 140.846 20.2832H138.446ZM137.309 26.6532C136.54 28.6438 135.461 30.5791 134.064 32.4592L135.991 33.8904C137.505 31.8512 138.694 29.7273 139.548 27.5187L137.309 26.6532ZM134.062 32.4615C132.671 34.3438 130.604 36.7858 127.844 39.7966L129.613 41.4183C132.396 38.3822 134.528 35.8691 135.992 33.8881L134.062 32.4615ZM127.844 39.797L120.537 47.7755L122.307 49.3964L129.613 41.4179L127.844 39.797ZM121.422 49.7859H141.536V47.3859H121.422V49.7859ZM140.336 48.5859V59H142.736V48.5859H140.336ZM141.536 57.8H102.777V60.2H141.536V57.8ZM149.473 59H148.273V60.2H149.473V59ZM149.473 54.7168L148.575 53.9202L148.273 54.261V54.7168H149.473ZM166.06 36.0303L166.957 36.8269L166.958 36.8262L166.06 36.0303ZM172.778 27.7158L173.784 28.3709L173.788 28.364L172.778 27.7158ZM172.106 16.3779L171.41 17.3556L171.422 17.3634L172.106 16.3779ZM158.081 16.042L158.49 17.1701L158.497 17.1676L158.081 16.042ZM151.152 19.7793H149.952V22.1923L151.876 20.7362L151.152 19.7793ZM151.152 8.60938L150.467 7.62404L149.952 7.98208V8.60938H151.152ZM174.794 4.83008L174.401 5.96406L174.41 5.96706L174.419 5.96993L174.794 4.83008ZM180.673 7.97949L179.921 8.91507L179.929 8.92096L180.673 7.97949ZM184.788 13.2285L183.704 13.7422L183.709 13.7538L184.788 13.2285ZM185.124 27.0859L186.243 27.5187L186.245 27.5137L185.124 27.0859ZM181.723 33.1748L180.759 32.4592L180.758 32.4615L181.723 33.1748ZM175.424 40.6074L174.539 39.7966L174.539 39.797L175.424 40.6074ZM168.117 48.5859L167.232 47.7755L165.391 49.7859H168.117V48.5859ZM188.231 48.5859H189.431V47.3859H188.231V48.5859ZM188.231 59V60.2H189.431V59H188.231ZM150.673 59V54.7168H148.273V59H150.673ZM150.37 55.5134L166.957 36.8269L165.162 35.2337L148.575 53.9202L150.37 55.5134ZM166.958 36.8262C170.236 33.1272 172.528 30.2989 173.784 28.3709L171.773 27.0608C170.621 28.8281 168.434 31.5428 165.162 35.2343L166.958 36.8262ZM173.788 28.364C175.112 26.3018 175.784 24.0624 175.784 21.6689H173.384C173.384 23.5867 172.853 25.3785 171.768 27.0677L173.788 28.364ZM175.784 21.6689C175.784 18.9788 174.828 16.8078 172.791 15.3925L171.422 17.3634C172.688 18.2436 173.384 19.6 173.384 21.6689H175.784ZM172.802 15.4003C170.889 14.038 168.437 13.4143 165.556 13.4143V15.8143C168.105 15.8143 170.021 16.3663 171.411 17.3555L172.802 15.4003ZM165.556 13.4143C162.988 13.4143 160.355 13.9222 157.665 14.9164L158.497 17.1676C160.958 16.2581 163.309 15.8143 165.556 15.8143V13.4143ZM157.672 14.9139C155.016 15.8769 152.6 17.1791 150.428 18.8224L151.876 20.7362C153.848 19.2441 156.051 18.0547 158.49 17.1701L157.672 14.9139ZM152.352 19.7793V8.60938H149.952V19.7793H152.352ZM151.837 9.59471C154.013 8.0823 156.521 6.91805 159.374 6.1107L158.72 3.80141C155.638 4.67375 152.883 5.94504 150.467 7.62404L151.837 9.59471ZM159.374 6.1107C162.241 5.29917 165.071 4.89629 167.865 4.89629V2.49629C164.837 2.49629 161.788 2.93326 158.72 3.80141L159.374 6.1107ZM167.865 4.89629C170.174 4.89629 172.351 5.25422 174.401 5.96406L175.186 3.69609C172.87 2.89421 170.427 2.49629 167.865 2.49629V4.89629ZM174.419 5.96993C176.502 6.65567 178.333 7.63896 179.921 8.91504L181.424 7.04395C179.598 5.57654 177.509 4.46022 175.169 3.69022L174.419 5.96993ZM179.929 8.92096C181.51 10.1709 182.77 11.7705 183.704 13.7422L185.873 12.7148C184.791 10.4313 183.307 8.53156 181.417 7.03802L179.929 8.92096ZM183.709 13.7538C184.658 15.7036 185.142 17.8733 185.142 20.2832H187.542C187.542 17.542 186.989 15.0086 185.867 12.7032L183.709 13.7538ZM185.142 20.2832C185.142 22.553 184.76 24.6748 184.003 26.6581L186.245 27.5137C187.112 25.2418 187.542 22.8285 187.542 20.2832H185.142ZM184.005 26.6532C183.235 28.6438 182.156 30.5791 180.759 32.4592L182.686 33.8904C184.201 31.8512 185.389 29.7273 186.243 27.5187L184.005 26.6532ZM180.758 32.4615C179.366 34.3438 177.299 36.7858 174.539 39.7966L176.308 41.4183C179.092 38.3822 181.223 35.8691 182.688 33.8881L180.758 32.4615ZM174.539 39.797L167.232 47.7755L169.002 49.3964L176.309 41.4179L174.539 39.797ZM168.117 49.7859H188.231V47.3859H168.117V49.7859ZM187.031 48.5859V59H189.431V48.5859H187.031ZM188.231 57.8H149.473V60.2H188.231V57.8ZM195.79 43.1689H194.59V44.3689H195.79V43.1689ZM195.79 32.251V31.051H194.59V32.251H195.79ZM222.371 32.251H223.571V31.051H222.371V32.251ZM222.371 43.1689V44.3689H223.571V43.1689H222.371ZM196.99 43.1689V32.251H194.59V43.1689H196.99ZM195.79 33.451H222.371V31.051H195.79V33.451ZM221.171 32.251V43.1689H223.571V32.251H221.171ZM222.371 41.9689H195.79V44.3689H222.371V41.9689ZM226.822 59H225.622V60.2H226.822V59ZM226.822 54.7168L225.925 53.9202L225.622 54.261V54.7168H226.822ZM243.409 36.0303L244.307 36.8269L244.307 36.8262L243.409 36.0303ZM250.128 27.7158L251.133 28.3709L251.138 28.364L250.128 27.7158ZM249.456 16.3779L248.76 17.3556L248.771 17.3634L249.456 16.3779ZM235.431 16.042L235.84 17.1701L235.847 17.1676L235.431 16.042ZM228.502 19.7793H227.302V22.1923L229.226 20.7362L228.502 19.7793ZM228.502 8.60938L227.817 7.62404L227.302 7.98208V8.60938H228.502ZM252.144 4.83008L251.751 5.96406L251.76 5.96706L251.768 5.96993L252.144 4.83008ZM258.022 7.97949L257.271 8.91507L257.278 8.92096L258.022 7.97949ZM262.138 13.2285L261.053 13.7422L261.059 13.7538L262.138 13.2285ZM262.474 27.0859L263.593 27.5187L263.595 27.5137L262.474 27.0859ZM259.072 33.1748L258.109 32.4592L258.107 32.4615L259.072 33.1748ZM252.773 40.6074L251.889 39.7966L251.888 39.797L252.773 40.6074ZM245.467 48.5859L244.582 47.7755L242.741 49.7859H245.467V48.5859ZM265.581 48.5859H266.781V47.3859H265.581V48.5859ZM265.581 59V60.2H266.781V59H265.581ZM228.022 59V54.7168H225.622V59H228.022ZM227.72 55.5134L244.307 36.8269L242.512 35.2337L225.925 53.9202L227.72 55.5134ZM244.307 36.8262C247.586 33.1272 249.877 30.2989 251.133 28.3709L249.122 27.0608C247.971 28.8281 245.783 31.5428 242.511 35.2343L244.307 36.8262ZM251.138 28.364C252.461 26.3018 253.134 24.0624 253.134 21.6689H250.734C250.734 23.5867 250.202 25.3785 249.118 27.0677L251.138 28.364ZM253.134 21.6689C253.134 18.9788 252.178 16.8078 250.141 15.3925L248.771 17.3634C250.038 18.2436 250.734 19.6 250.734 21.6689H253.134ZM250.152 15.4003C248.238 14.038 245.787 13.4143 242.905 13.4143V15.8143C245.455 15.8143 247.37 16.3663 248.76 17.3555L250.152 15.4003ZM242.905 13.4143C240.337 13.4143 237.705 13.9222 235.015 14.9164L235.847 17.1676C238.307 16.2581 240.658 15.8143 242.905 15.8143V13.4143ZM235.022 14.9139C232.366 15.8769 229.949 17.1791 227.778 18.8224L229.226 20.7362C231.198 19.2441 233.4 18.0547 235.84 17.1701L235.022 14.9139ZM229.702 19.7793V8.60938H227.302V19.7793H229.702ZM229.187 9.59471C231.363 8.0823 233.871 6.91805 236.723 6.1107L236.07 3.80141C232.987 4.67375 230.232 5.94504 227.817 7.62404L229.187 9.59471ZM236.723 6.1107C239.591 5.29917 242.42 4.89629 245.215 4.89629V2.49629C242.187 2.49629 239.137 2.93326 236.07 3.80141L236.723 6.1107ZM245.215 4.89629C247.524 4.89629 249.7 5.25422 251.751 5.96406L252.536 3.69609C250.22 2.89421 247.777 2.49629 245.215 2.49629V4.89629ZM251.768 5.96993C253.852 6.65567 255.682 7.63896 257.271 8.91504L258.774 7.04395C256.947 5.57654 254.858 4.46022 252.519 3.69022L251.768 5.96993ZM257.278 8.92096C258.86 10.1709 260.119 11.7705 261.053 13.7422L263.222 12.7148C262.141 10.4313 260.656 8.53156 258.767 7.03802L257.278 8.92096ZM261.059 13.7538C262.008 15.7036 262.491 17.8733 262.491 20.2832H264.891C264.891 17.542 264.339 15.0086 263.217 12.7032L261.059 13.7538ZM262.491 20.2832C262.491 22.553 262.109 24.6748 261.352 26.6581L263.595 27.5137C264.462 25.2418 264.891 22.8285 264.891 20.2832H262.491ZM261.354 26.6532C260.585 28.6438 259.506 30.5791 258.109 32.4592L260.036 33.8904C261.55 31.8512 262.739 29.7273 263.593 27.5187L261.354 26.6532ZM258.107 32.4615C256.716 34.3438 254.649 36.7858 251.889 39.7966L253.658 41.4183C256.441 38.3822 258.573 35.8691 260.037 33.8881L258.107 32.4615ZM251.888 39.797L244.582 47.7755L246.352 49.3964L253.658 41.4179L251.888 39.797ZM245.467 49.7859H265.581V47.3859H245.467V49.7859ZM264.381 48.5859V59H266.781V48.5859H264.381ZM265.581 57.8H226.822V60.2H265.581V57.8ZM272.762 14.7822L271.596 14.4969L271.232 15.9822H272.762V14.7822ZM275.239 4.66211V3.46211H274.298L274.074 4.37676L275.239 4.66211ZM310.009 4.66211H311.209V3.46211H310.009V4.66211ZM310.009 11.8008L310.883 12.6229L311.209 12.2764V11.8008H310.009ZM296.739 25.9102L295.865 25.088L294.052 27.0155L296.697 27.1094L296.739 25.9102ZM305.642 55.3467L306.431 56.2506L306.431 56.2502L305.642 55.3467ZM281.412 59.5039L281.676 58.3332L281.666 58.331L281.412 59.5039ZM273.812 56.1445H272.612V56.7213L273.062 57.0816L273.812 56.1445ZM273.812 44.9746L274.473 43.9736L272.612 42.7426V44.9746H273.812ZM296.697 47.6621L295.906 46.7598L295.899 46.766L296.697 47.6621ZM298.587 37.458L297.508 37.9836L297.513 37.9946L297.519 38.0056L298.587 37.458ZM296.319 34.9385L295.681 35.9544L295.691 35.9611L295.702 35.9675L296.319 34.9385ZM293.128 33.6367L292.844 34.8025L292.857 34.8058L292.871 34.8088L293.128 33.6367ZM282.756 34.0566L281.61 34.4117L281.944 35.4899L283.04 35.2225L282.756 34.0566ZM281.286 29.3115L280.409 28.4927L279.934 29.0015L280.14 29.6666L281.286 29.3115ZM294.85 14.7822L295.727 15.6011L297.611 13.5822H294.85V14.7822ZM273.927 15.0676L276.405 4.94746L274.074 4.37676L271.596 14.4969L273.927 15.0676ZM275.239 5.86211H310.009V3.46211H275.239V5.86211ZM308.809 4.66211V11.8008H311.209V4.66211H308.809ZM309.135 10.9787L295.865 25.088L297.613 26.7323L310.883 12.6229L309.135 10.9787ZM296.697 27.1094C301.161 27.2679 304.487 28.7576 306.832 31.4803L308.651 29.9142C305.788 26.5901 301.779 24.8883 296.782 24.7109L296.697 27.1094ZM306.832 31.4803C309.23 34.2648 310.446 37.6742 310.446 41.7832H312.846C312.846 37.1579 311.46 33.1766 308.651 29.9142L306.832 31.4803ZM310.446 41.7832C310.446 46.9967 308.582 51.1825 304.852 54.4432L306.431 56.2502C310.708 52.5121 312.846 47.6556 312.846 41.7832H310.446ZM304.852 54.4428C301.12 57.7021 296.497 59.3537 290.902 59.3537V61.7537C297.01 61.7537 302.213 59.934 306.431 56.2506L304.852 54.4428ZM290.902 59.3537C287.771 59.3537 284.696 59.0134 281.676 58.3332L281.148 60.6746C284.343 61.3941 287.595 61.7537 290.902 61.7537V59.3537ZM281.666 58.331C278.693 57.6882 276.342 56.6326 274.561 55.2075L273.062 57.0816C275.2 58.7919 277.917 59.9759 281.159 60.6768L281.666 58.331ZM275.012 56.1445V44.9746H272.612V56.1445H275.012ZM273.15 45.9756C278.432 49.4682 283.809 51.2557 289.265 51.2557V48.8557C284.362 48.8557 279.437 47.2557 274.473 43.9736L273.15 45.9756ZM289.265 51.2557C292.627 51.2557 295.422 50.4051 297.495 48.5582L295.899 46.766C294.389 48.1106 292.229 48.8557 289.265 48.8557V51.2557ZM297.488 48.5643C299.589 46.722 300.627 44.2828 300.627 41.3633H298.227C298.227 43.6508 297.444 45.4108 295.906 46.7599L297.488 48.5643ZM300.627 41.3633C300.627 39.7046 300.319 38.2065 299.655 36.9104L297.519 38.0056C297.974 38.8931 298.227 39.9985 298.227 41.3633H300.627ZM299.666 36.9324C299.039 35.6455 298.129 34.6246 296.937 33.9095L295.702 35.9675C296.47 36.4281 297.071 37.087 297.508 37.9836L299.666 36.9324ZM296.958 33.9225C295.859 33.2318 294.666 32.7458 293.385 32.4646L292.871 34.8088C293.885 35.0316 294.82 35.4133 295.681 35.9544L296.958 33.9225ZM293.412 32.4709C292.158 32.165 290.801 32.0168 289.349 32.0168V34.4168C290.64 34.4168 291.802 34.5486 292.844 34.8025L293.412 32.4709ZM289.349 32.0168C287.142 32.0168 284.849 32.311 282.471 32.8908L283.04 35.2225C285.254 34.6825 287.356 34.4168 289.349 34.4168V32.0168ZM283.902 33.7016L282.432 28.9565L280.14 29.6666L281.61 34.4117L283.902 33.7016ZM282.163 30.1304L295.727 15.6011L293.972 13.9634L280.409 28.4927L282.163 30.1304ZM294.85 13.5822H272.762V15.9822H294.85V13.5822ZM348.348 22.8027L349.289 23.5468L349.295 23.5395L348.348 22.8027ZM353.093 18.3096L352.413 17.3207L353.093 18.3096ZM372.409 16.252L371.94 17.3562L372.409 16.252ZM378.498 20.9131L377.554 21.6533L379.271 23.844L379.685 21.0916L378.498 20.9131ZM379.212 16.168V14.968H378.179L378.025 15.9894L379.212 16.168ZM389.08 16.168H390.28V14.968H389.08V16.168ZM389.08 52.1973L390.28 52.2076V52.1973H389.08ZM387.736 61.0156L386.597 60.6398L386.593 60.6508L387.736 61.0156ZM384.251 67.6504L383.327 66.885L383.32 66.8928L383.314 66.9008L384.251 67.6504ZM379.044 72.1855L378.429 71.1552L378.418 71.1616L379.044 72.1855ZM372.535 74.8311L372.267 73.6613L372.259 73.6632L372.251 73.6652L372.535 74.8311ZM349.188 71.9756H347.987V72.6652L348.583 73.0124L349.188 71.9756ZM349.188 61.5615L349.75 60.5016L347.987 59.5661V61.5615H349.188ZM377.574 54.5488H378.774V51.7444L376.746 53.6808L377.574 54.5488ZM355.192 58.0762L354.685 59.1636L354.69 59.1657L355.192 58.0762ZM348.936 53.2891L347.996 54.0356L348.002 54.0426L348.007 54.0497L348.936 53.2891ZM345.156 46.1504L344.013 46.5157L344.017 46.5263L345.156 46.1504ZM358.468 46.8223L357.497 47.5281L357.501 47.5333L358.468 46.8223ZM377.574 44.3027L378.601 44.9242L378.774 44.6377V44.3027H377.574ZM377.574 28.9756H378.774V28.4507L378.389 28.0944L377.574 28.9756ZM358.51 27.9258L357.562 27.1898L357.561 27.1914L358.51 27.9258ZM345.055 37.416C345.055 34.5586 345.445 31.9408 346.214 29.5536L343.93 28.8175C343.076 31.4694 342.654 34.3386 342.654 37.416H345.055ZM346.214 29.5536C346.991 27.1443 348.022 25.1504 349.289 23.5468L347.406 22.0587C345.93 23.9264 344.777 26.1878 343.93 28.8175L346.214 29.5536ZM349.295 23.5395C350.593 21.8703 352.085 20.4585 353.773 19.2984L352.413 17.3207C350.517 18.6242 348.846 20.2078 347.4 22.066L349.295 23.5395ZM353.773 19.2984C355.468 18.1328 357.232 17.2794 359.065 16.7295L358.375 14.4307C356.289 15.0566 354.301 16.0228 352.413 17.3207L353.773 19.2984ZM359.065 16.7295C360.916 16.1741 362.773 15.8982 364.641 15.8982V13.4982C362.533 13.4982 360.443 13.8102 358.375 14.4307L359.065 16.7295ZM364.641 15.8982C367.229 15.8982 369.658 16.3859 371.94 17.3562L372.879 15.1477C370.289 14.0464 367.539 13.4982 364.641 13.4982V15.8982ZM371.94 17.3562C374.19 18.3132 376.056 19.7421 377.554 21.6533L379.443 20.1728C377.693 17.9408 375.5 16.2623 372.879 15.1477L371.94 17.3562ZM379.685 21.0916L380.399 16.3465L378.025 15.9894L377.311 20.7346L379.685 21.0916ZM379.212 17.368H389.08V14.968H379.212V17.368ZM387.88 16.168V52.1973H390.28V16.168H387.88ZM387.88 52.1869C387.853 55.3309 387.42 58.1445 386.597 60.6398L388.876 61.3915C389.789 58.6237 390.251 55.5584 390.28 52.2076L387.88 52.1869ZM386.593 60.6508C385.791 63.1629 384.696 65.2316 383.327 66.885L385.175 68.4158C386.773 66.4859 388.002 64.1314 388.88 61.3805L386.593 60.6508ZM383.314 66.9008C381.948 68.6075 380.322 70.0245 378.429 71.1553L379.659 73.2158C381.797 71.939 383.642 70.3326 385.188 68.4L383.314 66.9008ZM378.418 71.1616C376.514 72.3251 374.466 73.1581 372.267 73.6613L372.803 76.0008C375.252 75.4402 377.542 74.5095 379.67 73.2095L378.418 71.1616ZM372.251 73.6652C370.057 74.2003 367.704 74.4709 365.187 74.4709V76.8709C367.876 76.8709 370.422 76.5816 372.82 75.9969L372.251 73.6652ZM365.187 74.4709C358.895 74.4709 353.786 73.2668 349.792 70.9388L348.583 73.0124C353.043 75.6115 358.601 76.8709 365.187 76.8709V74.4709ZM350.388 71.9756V61.5615H347.987V71.9756H350.388ZM348.625 62.6215C353.78 65.3572 358.898 66.7508 363.969 66.7508V64.3508C359.353 64.3508 354.618 63.0849 349.75 60.5016L348.625 62.6215ZM363.969 66.7508C368.614 66.7508 372.315 65.9113 374.879 64.0432C377.515 62.1236 378.774 59.2502 378.774 55.6406H376.374C376.374 58.6378 375.366 60.7195 373.466 62.1033C371.496 63.5386 368.394 64.3508 363.969 64.3508V66.7508ZM378.774 55.6406V54.5488H376.374V55.6406H378.774ZM376.746 53.6808C373.294 56.976 368.98 58.6398 363.717 58.6398V61.0398C369.54 61.0398 374.464 59.1763 378.403 55.4169L376.746 53.6808ZM363.717 58.6398C360.734 58.6398 358.068 58.0815 355.695 56.9866L354.69 59.1657C357.412 60.4224 360.428 61.0398 363.717 61.0398V58.6398ZM355.7 56.9888C353.332 55.8838 351.394 54.3958 349.864 52.5285L348.007 54.0497C349.781 56.2136 352.014 57.917 354.685 59.1636L355.7 56.9888ZM349.875 52.5426C348.347 50.6198 347.152 48.3684 346.296 45.7744L344.017 46.5263C344.953 49.3633 346.276 51.8711 347.996 54.0356L349.875 52.5426ZM346.299 45.7851C345.472 43.1978 345.055 40.4106 345.055 37.416H342.654C342.654 40.6363 343.104 43.672 344.013 46.5157L346.299 45.7851ZM354.58 37.752C354.58 41.5428 355.531 44.825 357.497 47.5281L359.438 46.1165C357.821 43.8924 356.98 41.1278 356.98 37.752H354.58ZM357.501 47.5333C359.551 50.3194 362.538 51.6756 366.278 51.6756V49.2756C363.188 49.2756 360.968 48.1962 359.434 46.1112L357.501 47.5333ZM366.278 51.6756C371.713 51.6756 375.88 49.4189 378.601 44.9242L376.548 43.6812C374.286 47.4171 370.922 49.2756 366.278 49.2756V51.6756ZM378.774 44.3027V28.9756H376.374V44.3027H378.774ZM378.389 28.0944C374.871 24.8428 370.951 23.1564 366.656 23.1564V25.5564C370.256 25.5564 373.615 26.9495 376.76 29.8568L378.389 28.0944ZM366.656 23.1564C362.781 23.1564 359.681 24.4605 357.562 27.1898L359.458 28.6617C361.034 26.6319 363.365 25.5564 366.656 25.5564V23.1564ZM357.561 27.1914C355.523 29.8245 354.58 33.3939 354.58 37.752H356.98C356.98 33.7116 357.857 30.7302 359.459 28.6602L357.561 27.1914ZM400.124 28.6816L399.001 28.2591L400.124 28.6816ZM404.659 21.333L403.793 20.5022L403.787 20.5084L404.659 21.333ZM432.122 16.5879L431.661 17.6957L431.673 17.7006L432.122 16.5879ZM439.471 21.627L438.565 22.4138L438.57 22.4201L438.576 22.4264L439.471 21.627ZM443.754 28.8076L442.626 29.2187L442.628 29.2225L443.754 28.8076ZM442.452 49.1318L441.391 48.5715L441.389 48.5747L442.452 49.1318ZM434.348 57.4043L433.753 56.3619L433.75 56.3639L434.348 57.4043ZM421.834 60.4697L421.825 61.6697H421.834V60.4697ZM411.588 58.5801L411.123 59.6863L411.135 59.6914L411.588 58.5801ZM404.281 53.541L403.386 54.3405L404.281 53.541ZM399.998 46.4023L398.871 46.8134L398.872 46.8172L399.998 46.4023ZM411.378 42.2451L410.217 42.5505L410.219 42.5556L411.378 42.2451ZM413.31 46.5283L412.314 47.199L412.321 47.2091L413.31 46.5283ZM416.795 49.5518L416.242 50.6168L416.25 50.621L416.258 50.6251L416.795 49.5518ZM427.167 49.5518L427.688 50.633L427.696 50.6291L427.704 50.6251L427.167 49.5518ZM430.652 46.5283L429.647 45.8728L429.644 45.8783L430.652 46.5283ZM431.954 31.3691L430.829 31.787L430.832 31.794L430.834 31.801L431.954 31.3691ZM428.259 26.498L427.534 27.4544L427.544 27.4618L428.259 26.498ZM417.425 25.2803L416.996 24.1596L416.988 24.1628L417.425 25.2803ZM412.218 30.1514L411.144 29.6147L411.139 29.6256L411.134 29.6365L412.218 30.1514ZM399.728 37.8359C399.728 34.6927 400.238 31.7856 401.247 29.1042L399.001 28.2591C397.882 31.2326 397.328 34.4284 397.328 37.8359H399.728ZM401.247 29.1042C402.258 26.4171 403.687 24.1065 405.531 22.1576L403.787 20.5084C401.712 22.7027 400.117 25.2912 399.001 28.2591L401.247 29.1042ZM405.525 22.1638C407.383 20.2277 409.698 18.695 412.495 17.5761L411.604 15.3477C408.522 16.5804 405.911 18.2951 403.793 20.5022L405.525 22.1638ZM412.495 17.5761C415.276 16.464 418.383 15.8982 421.834 15.8982V13.4982C418.118 13.4982 414.703 14.1083 411.604 15.3477L412.495 17.5761ZM421.834 15.8982C425.538 15.8982 428.806 16.5062 431.661 17.6956L432.584 15.4802C429.391 14.15 425.801 13.4982 421.834 13.4982V15.8982ZM431.673 17.7006C434.578 18.8733 436.861 20.4516 438.565 22.4138L440.377 20.8401C438.385 18.5471 435.769 16.766 432.571 15.4751L431.673 17.7006ZM438.576 22.4264C440.348 24.4106 441.698 26.6719 442.627 29.2187L444.881 28.3966C443.85 25.5684 442.344 23.0425 440.366 20.8275L438.576 22.4264ZM442.628 29.2225C443.556 31.7405 444.024 34.4406 444.024 37.332H446.424C446.424 34.1765 445.912 31.1938 444.88 28.3928L442.628 29.2225ZM444.024 37.332C444.024 41.5246 443.138 45.2622 441.391 48.5715L443.513 49.6921C445.461 46.0027 446.424 41.8739 446.424 37.332H444.024ZM441.389 48.5747C439.682 51.8319 437.148 54.4257 433.753 56.3619L434.942 58.4467C438.714 56.2957 441.583 53.3744 443.515 49.689L441.389 48.5747ZM433.75 56.3639C430.405 58.2866 426.447 59.2697 421.834 59.2697V61.6697C426.796 61.6697 431.18 60.6092 434.946 58.4447L433.75 56.3639ZM421.843 59.2698C418.163 59.2427 414.902 58.6344 412.041 57.4688L411.135 59.6914C414.321 60.9893 417.891 61.6408 421.825 61.6697L421.843 59.2698ZM412.053 57.4739C409.197 56.2726 406.916 54.6893 405.176 52.7416L403.386 54.3405C405.398 56.592 407.988 58.368 411.123 59.6862L412.053 57.4739ZM405.176 52.7416C403.402 50.7553 402.052 48.5064 401.124 45.9875L398.872 46.8172C399.904 49.6173 401.409 52.1276 403.386 54.3405L405.176 52.7416ZM401.125 45.9913C400.196 43.4429 399.728 40.7272 399.728 37.8359H397.328C397.328 40.9915 397.84 43.9868 398.871 46.8134L401.125 45.9913ZM409.548 37.1641C409.548 39.05 409.769 40.847 410.217 42.5505L412.538 41.9397C412.147 40.4518 411.948 38.8614 411.948 37.1641H409.548ZM410.219 42.5556C410.672 44.2458 411.369 45.7961 412.314 47.1989L414.305 45.8577C413.514 44.685 412.924 43.3799 412.537 41.9346L410.219 42.5556ZM412.321 47.2091C413.309 48.6422 414.625 49.7771 416.242 50.6168L417.348 48.4868C416.054 47.8147 415.046 46.934 414.298 45.8476L412.321 47.2091ZM416.258 50.6251C417.907 51.4493 419.776 51.8436 421.834 51.8436V49.4436C420.085 49.4436 418.595 49.11 417.332 48.4784L416.258 50.6251ZM421.834 51.8436C424.019 51.8436 425.982 51.4542 427.688 50.633L426.646 48.4706C425.329 49.105 423.736 49.4436 421.834 49.4436V51.8436ZM427.704 50.6251C429.383 49.7856 430.718 48.6412 431.661 47.1784L429.644 45.8783C428.963 46.9349 427.975 47.8062 426.63 48.4784L427.704 50.6251ZM431.657 47.1838C432.563 45.796 433.231 44.3248 433.657 42.7727L431.343 42.1374C430.985 43.4408 430.422 44.6851 429.647 45.8728L431.657 47.1838ZM433.657 42.7727C434.08 41.2338 434.288 39.6147 434.288 37.9199H431.888C431.888 39.4166 431.704 40.8209 431.343 42.1374L433.657 42.7727ZM434.288 37.9199C434.288 35.3861 433.89 33.0533 433.074 30.9373L430.834 31.801C431.53 33.6042 431.888 35.6387 431.888 37.9199H434.288ZM433.079 30.9513C432.267 28.7662 430.889 26.9556 428.974 25.5343L427.544 27.4618C429.1 28.616 430.185 30.0528 430.829 31.787L433.079 30.9513ZM428.984 25.5418C427.005 24.0421 424.597 23.3244 421.834 23.3244V25.7244C424.166 25.7244 426.041 26.3225 427.534 27.4543L428.984 25.5418ZM421.834 23.3244C420.086 23.3244 418.468 23.5959 416.996 24.1596L417.854 26.4009C419.014 25.9568 420.335 25.7244 421.834 25.7244V23.3244ZM416.988 24.1628C415.576 24.7149 414.377 25.4551 413.427 26.4054L415.124 28.1024C415.797 27.429 416.698 26.8534 417.862 26.3978L416.988 24.1628ZM413.427 26.4054C412.516 27.3163 411.757 28.39 411.144 29.6147L413.291 30.688C413.799 29.6732 414.411 28.8152 415.124 28.1024L413.427 26.4054ZM411.134 29.6365C410.561 30.8416 410.151 32.0708 409.906 33.3229L412.262 33.7825C412.465 32.7391 412.81 31.7007 413.302 30.6662L411.134 29.6365ZM409.906 33.3229C409.666 34.552 409.548 35.833 409.548 37.1641H411.948C411.948 35.9756 412.054 34.8491 412.262 33.7825L409.906 33.3229ZM457.317 34.1406L457.979 35.1416L457.99 35.1341L457.317 34.1406ZM463.112 31.5371L462.811 30.3756L462.807 30.3766L463.112 31.5371ZM480.581 32.335L480.125 33.4451L481.781 34.1248V32.335H480.581ZM456.394 27.5059H455.194V29.4475L456.93 28.5792L456.394 27.5059ZM456.394 17.2178L456.025 16.0757L455.194 16.344V17.2178H456.394ZM491.919 59V60.2H493.119V59H491.919ZM483.395 59L482.214 59.2176L482.396 60.2H483.395V59ZM482.303 53.0791L483.483 52.8615L483 50.2414L481.358 52.3395L482.303 53.0791ZM475.5 58.4541L475.054 57.3399L475.05 57.3417L475.5 58.4541ZM455.554 55.8086L454.662 56.6114L454.67 56.6207L455.554 55.8086ZM465.38 49.6357L464.563 50.5152L464.574 50.5246L465.38 49.6357ZM480.581 45.3945L481.614 46.005L481.781 45.7226V45.3945H480.581ZM480.581 40.5234H481.781V39.864L481.224 39.5105L480.581 40.5234ZM465.842 40.2715L466.565 41.2293L466.567 41.2272L465.842 40.2715ZM452.974 45.7725C452.974 43.2907 453.436 41.1688 454.32 39.3743L452.168 38.3132C451.093 40.494 450.574 42.9912 450.574 45.7725H452.974ZM454.32 39.3743C455.213 37.5646 456.433 36.1644 457.979 35.1416L456.655 33.1397C454.731 34.4124 453.235 36.1477 452.168 38.3132L454.32 39.3743ZM457.99 35.1341C459.608 34.0381 461.415 33.2247 463.418 32.6976L462.807 30.3766C460.555 30.9693 458.498 31.8916 456.644 33.1471L457.99 35.1341ZM463.414 32.6986C465.458 32.1676 467.707 31.8973 470.167 31.8973V29.4973C467.532 29.4973 465.078 29.7868 462.811 30.3756L463.414 32.6986ZM470.167 31.8973C474.363 31.8973 477.663 32.4343 480.125 33.4451L481.037 31.2249C478.18 30.052 474.537 29.4973 470.167 29.4973V31.8973ZM481.781 32.335V30.7812H479.381V32.335H481.781ZM481.781 30.7812C481.781 28.3181 480.94 26.2968 479.127 24.9391C477.379 23.6303 474.901 23.0725 471.889 23.0725V25.4725C474.671 25.4725 476.539 25.9994 477.689 26.8602C478.773 27.6721 479.381 28.9052 479.381 30.7812H481.781ZM471.889 23.0725C465.729 23.0725 460.371 24.1755 455.857 26.4325L456.93 28.5792C461.039 26.525 466.011 25.4725 471.889 25.4725V23.0725ZM457.594 27.5059V17.2178H455.194V27.5059H457.594ZM456.762 18.3598C461.835 16.7234 467.42 15.8982 473.526 15.8982V13.4982C467.203 13.4982 461.366 14.3528 456.025 16.0757L456.762 18.3598ZM473.526 15.8982C479.486 15.8982 483.733 17.321 486.492 19.9545C489.241 22.5781 490.719 26.5997 490.719 32.251H493.119C493.119 26.2004 491.531 21.4457 488.149 18.2183C484.778 15.0009 479.829 13.4982 473.526 13.4982V15.8982ZM490.719 32.251V59H493.119V32.251H490.719ZM491.919 57.8H483.395V60.2H491.919V57.8ZM484.575 58.7824L483.483 52.8615L481.123 53.2967L482.214 59.2176L484.575 58.7824ZM481.358 52.3395C479.446 54.7825 477.341 56.4255 475.054 57.3399L475.946 59.5683C478.699 58.4671 481.128 56.5267 483.248 53.8187L481.358 52.3395ZM475.05 57.3417C472.751 58.2716 469.713 58.7658 465.884 58.7658V61.1658C469.893 61.1658 473.266 60.6523 475.95 59.5665L475.05 57.3417ZM465.884 58.7658C461.824 58.7658 458.722 57.4821 456.437 54.9965L454.67 56.6207C457.481 59.678 461.265 61.1658 465.884 61.1658V58.7658ZM456.446 55.0058C454.132 52.4346 452.974 49.3781 452.974 45.7725H450.574C450.574 49.9494 451.937 53.5836 454.662 56.6114L456.446 55.0058ZM462.416 45.4785C462.416 47.4743 463.13 49.1845 464.563 50.5151L466.196 48.7564C465.278 47.9034 464.816 46.8421 464.816 45.4785H462.416ZM464.574 50.5246C466.051 51.8644 467.989 52.4734 470.251 52.4734V50.0734C468.426 50.0734 467.116 49.5907 466.186 48.7469L464.574 50.5246ZM470.251 52.4734C472.457 52.4734 474.598 51.8965 476.661 50.7738L475.514 48.6657C473.77 49.6146 472.021 50.0734 470.251 50.0734V52.4734ZM476.661 50.7738C478.754 49.6354 480.411 48.0413 481.614 46.005L479.548 44.7841C478.568 46.4431 477.229 47.7324 475.514 48.6657L476.661 50.7738ZM481.781 45.3945V40.5234H479.381V45.3945H481.781ZM481.224 39.5105C478.914 38.0429 476.071 37.3498 472.771 37.3498V39.7498C475.741 39.7498 478.105 40.3725 479.938 41.5364L481.224 39.5105ZM472.771 37.3498C469.554 37.3498 466.932 37.9367 465.116 39.3158L466.567 41.2272C467.775 40.3107 469.772 39.7498 472.771 39.7498V37.3498ZM465.119 39.3137C463.257 40.7192 462.416 42.8606 462.416 45.4785H464.816C464.816 43.3933 465.46 42.0633 466.565 41.2293L465.119 39.3137ZM503.467 59H502.267V60.2H503.467V59ZM503.467 0.798828V-0.401172H502.267V0.798828H503.467ZM515.435 0.798828H516.635V-0.401172H515.435V0.798828ZM515.435 59V60.2H516.635V59H515.435ZM504.667 59V0.798828H502.267V59H504.667ZM503.467 1.99883H515.435V-0.401172H503.467V1.99883ZM514.235 0.798828V59H516.635V0.798828H514.235ZM515.435 57.8H503.467V60.2H515.435V57.8ZM529.46 18.3936L528.739 17.4345L528.735 17.4375L529.46 18.3936ZM558.477 18.0576H559.677V17.3223L559.021 16.9884L558.477 18.0576ZM558.477 27.5898L557.912 28.6487L559.677 29.5898V27.5898H558.477ZM551.674 25.6162L551.431 26.7914L551.442 26.7937L551.674 25.6162ZM538.446 25.1543L538.826 26.2927L538.839 26.2882L538.853 26.2834L538.446 25.1543ZM536.935 26.2881L535.92 25.6473L535.908 25.6668L535.896 25.6868L536.935 26.2881ZM539.412 32.041L538.951 33.1487L538.964 33.1542L538.977 33.1594L539.412 32.041ZM542.394 33.0068L542.095 34.169L542.394 33.0068ZM546.173 33.8467L545.938 35.0234L545.948 35.0254L545.958 35.0273L546.173 33.8467ZM546.845 33.9727L547.08 32.796L546.845 33.9727ZM553.354 35.6523L552.966 36.788L552.978 36.7922L552.991 36.7962L553.354 35.6523ZM556.125 36.8281L555.508 37.8571L555.531 37.8715L555.556 37.8847L556.125 36.8281ZM558.351 38.3818L557.572 39.2953L557.582 39.3038L557.593 39.3121L558.351 38.3818ZM560.114 40.4814L559.056 41.0481L559.069 41.0709L559.082 41.0932L560.114 40.4814ZM561.164 43.2109L559.996 43.4875L560.001 43.5058L560.006 43.524L561.164 43.2109ZM525.261 56.3545H524.061V57.0656L524.684 57.4071L525.261 56.3545ZM525.261 46.6123L525.775 45.5281L524.061 44.7149V46.6123H525.261ZM533.785 49.5098L533.488 50.6723L533.496 50.6745L533.785 49.5098ZM548.524 44.7227L547.775 45.6597L547.795 45.6761L547.816 45.6915L548.524 44.7227ZM545.711 43.5049L545.433 44.6722L545.446 44.6754L545.459 44.6782L545.711 43.5049ZM541.68 42.665L541.436 43.84L541.448 43.8426L541.461 43.845L541.68 42.665ZM532.483 40.3975L532.006 41.4983L532.013 41.5015L532.483 40.3975ZM528.494 38.1299L527.767 39.0844L527.774 39.0899L527.781 39.0954L528.494 38.1299ZM525.639 34.4346L524.54 34.9166L524.545 34.9283L524.55 34.9399L525.639 34.4346ZM525.789 28.8916C525.789 24.6833 527.274 21.5584 530.185 19.3496L528.735 17.4375C525.152 20.1558 523.389 24.0296 523.389 28.8916H525.789ZM530.181 19.3526C533.171 17.1041 537.538 15.8982 543.443 15.8982V13.4982C537.255 13.4982 532.3 14.7559 528.739 17.4345L530.181 19.3526ZM543.443 15.8982C548.908 15.8982 553.728 16.9846 557.932 19.1268L559.021 16.9884C554.435 14.6515 549.233 13.4982 543.443 13.4982V15.8982ZM557.277 18.0576V27.5898H559.677V18.0576H557.277ZM559.041 26.531C557.609 25.7671 555.183 25.0832 551.905 24.4387L551.442 26.7937C554.715 27.437 556.825 28.0689 557.912 28.6487L559.041 26.531ZM551.917 24.4411C548.61 23.7569 545.601 23.4084 542.897 23.4084V25.8084C545.401 25.8084 548.243 26.1317 551.431 26.7913L551.917 24.4411ZM542.897 23.4084C541.846 23.4084 540.979 23.4366 540.311 23.4973L540.529 25.8875C541.092 25.8362 541.877 25.8084 542.897 25.8084V23.4084ZM540.311 23.4973C539.576 23.5642 538.817 23.7454 538.04 24.0252L538.853 26.2834C539.475 26.0592 540.032 25.9326 540.529 25.8875L540.311 23.4973ZM538.067 24.0159C537.167 24.3158 536.422 24.8518 535.92 25.6473L537.949 26.9289C538.119 26.6606 538.382 26.4408 538.826 26.2927L538.067 24.0159ZM535.896 25.6868C535.448 26.4616 535.273 27.3911 535.273 28.3877H537.673C537.673 27.6486 537.806 27.1784 537.973 26.8893L535.896 25.6868ZM535.273 28.3877C535.273 29.4702 535.586 30.459 536.254 31.2843L538.119 29.7743C537.836 29.4238 537.673 28.9849 537.673 28.3877H535.273ZM536.254 31.2843C536.898 32.0806 537.835 32.6839 538.951 33.1487L539.874 30.9333C538.974 30.5583 538.427 30.1538 538.119 29.7743L536.254 31.2843ZM538.977 33.1594C540.026 33.5675 541.066 33.9044 542.095 34.169L542.692 31.8446C541.762 31.6053 540.813 31.2984 539.847 30.9226L538.977 33.1594ZM542.095 34.169C543.104 34.4285 544.387 34.7132 545.938 35.0234L546.408 32.67C544.88 32.3643 543.643 32.0891 542.692 31.8446L542.095 34.169ZM545.958 35.0273C546.265 35.0832 546.48 35.1236 546.609 35.1494L547.08 32.796C546.929 32.7658 546.696 32.7222 546.388 32.666L545.958 35.0273ZM546.609 35.1494C547.999 35.4273 549.127 35.6751 549.997 35.8927L550.579 33.5643C549.658 33.334 548.49 33.0779 547.08 32.796L546.609 35.1494ZM549.997 35.8927C550.852 36.1064 551.841 36.4038 552.966 36.788L553.741 34.5167C552.571 34.1171 551.516 33.7985 550.579 33.5643L549.997 35.8927ZM552.991 36.7962C554.087 37.1439 554.916 37.5021 555.508 37.8571L556.742 35.7991C555.934 35.3143 554.915 34.8886 553.716 34.5085L552.991 36.7962ZM555.556 37.8847C556.196 38.2294 556.869 38.6958 557.572 39.2953L559.129 37.4683C558.321 36.7801 557.51 36.2107 556.694 35.7716L555.556 37.8847ZM557.593 39.3121C558.237 39.8375 558.718 40.417 559.056 41.0481L561.172 39.9148C560.67 38.9782 559.976 38.1579 559.109 37.4516L557.593 39.3121ZM559.082 41.0932C559.455 41.723 559.766 42.5141 559.996 43.4875L562.332 42.9344C562.058 41.7802 561.669 40.7516 561.147 39.8697L559.082 41.0932ZM560.006 43.524C560.253 44.4398 560.384 45.4939 560.384 46.6963H562.784C562.784 45.3232 562.635 44.0537 562.323 42.8978L560.006 43.524ZM560.384 46.6963C560.384 50.4272 558.814 53.4031 555.557 55.7113L556.945 57.6695C560.798 54.9387 562.784 51.2518 562.784 46.6963H560.384ZM555.557 55.7113C552.26 58.0478 547.878 59.2697 542.31 59.2697V61.6697C548.219 61.6697 553.131 60.3721 556.945 57.6695L555.557 55.7113ZM542.31 59.2697C536.133 59.2697 530.652 57.9382 525.837 55.3019L524.684 57.4071C529.891 60.2578 535.776 61.6697 542.31 61.6697V59.2697ZM526.461 56.3545V46.6123H524.061V56.3545H526.461ZM524.746 47.6965C527.025 48.7772 529.946 49.7657 533.488 50.6723L534.083 48.3473C530.625 47.4621 527.864 46.5191 525.775 45.5281L524.746 47.6965ZM533.496 50.6745C537.062 51.5589 540.284 52.0115 543.149 52.0115V49.6115C540.528 49.6115 537.507 49.1963 534.074 48.345L533.496 50.6745ZM543.149 52.0115C545.19 52.0115 546.972 51.6376 548.414 50.7991L547.207 48.7243C546.242 49.2856 544.916 49.6115 543.149 49.6115V52.0115ZM548.414 50.7991C549.95 49.9057 550.816 48.5361 550.816 46.7803H548.416C548.416 47.6 548.078 48.218 547.207 48.7243L548.414 50.7991ZM550.816 46.7803C550.816 45.5258 550.243 44.4923 549.232 43.7538L547.816 45.6915C548.262 46.0168 548.416 46.3551 548.416 46.7803H550.816ZM549.274 43.7856C548.388 43.0766 547.261 42.6098 545.962 42.3315L545.459 44.6782C546.513 44.9039 547.261 45.249 547.775 45.6597L549.274 43.7856ZM545.989 42.3375C544.789 42.0518 543.425 41.7678 541.898 41.4851L541.461 43.845C542.958 44.1222 544.281 44.398 545.433 44.6722L545.989 42.3375ZM541.924 41.4901C540.428 41.1798 538.892 40.8837 537.313 40.6019L536.892 42.9645C538.449 43.2426 539.964 43.5344 541.436 43.84L541.924 41.4901ZM537.313 40.6019C535.838 40.3383 534.385 39.903 532.954 39.2934L532.013 41.5015C533.605 42.1797 535.232 42.6682 536.892 42.9645L537.313 40.6019ZM532.961 39.2966C531.552 38.6851 530.302 37.973 529.207 37.1644L527.781 39.0954C529.038 40.0224 530.448 40.8221 532.006 41.4983L532.961 39.2966ZM529.221 37.1754C528.225 36.4162 527.387 35.3501 526.727 33.9292L524.55 34.9399C525.346 36.6545 526.412 38.0519 527.767 39.0844L529.221 37.1754ZM526.738 33.9526C526.117 32.5366 525.789 30.8586 525.789 28.8916H523.389C523.389 31.1238 523.761 33.1411 524.54 34.9166L526.738 33.9526Z" fill="url(#paint0_linear_0_461)"/>
<defs>
<linearGradient id="paint0_linear_0_461" x1="-63.5" y1="14" x2="630.536" y2="104.659" gradientUnits="userSpaceOnUse">
<stop offset="0.0246473" stop-color="#5EC7EC"/>
<stop offset="0.994004" stop-color="white"/>
</linearGradient>
</defs>
</svg>
