<svg width="50" height="38" viewBox="0 0 50 38" fill="none" xmlns="http://www.w3.org/2000/svg">
<path d="M45.2029 14.8782C44.4894 14.8685 43.7813 15.0049 43.1203 15.2791C42.4593 15.5534 41.8588 15.9601 41.3543 16.4751C40.8497 16.9901 40.4514 17.6031 40.1827 18.2778C39.914 18.9526 39.7804 19.6755 39.7899 20.4038L24.6757 28.3692C23.6796 27.4985 22.4014 27.0379 21.0905 27.0775C20.3822 27.082 19.6818 27.2302 19.0301 27.5136C18.3784 27.7969 17.7884 28.2098 17.2944 28.728L5.55454 22.4131C4.93223 22.0548 4.41507 21.5333 4.05663 20.9024C3.69818 20.2715 3.51149 19.5543 3.51588 18.825V16.6004L19.8954 25.4988C20.1481 25.5726 20.416 25.5726 20.6687 25.4988C20.9463 25.5634 21.2347 25.5634 21.5123 25.4988L47.4524 11.7207C47.7298 11.5658 47.9611 11.3374 48.1219 11.0595C48.2827 10.7817 48.3672 10.4647 48.3663 10.142C48.3736 9.79967 48.2849 9.46237 48.1105 9.16991C47.9361 8.87745 47.6834 8.64203 47.3821 8.49147L32.6194 1.31539C30.9283 0.450396 29.0629 0 27.1713 0C25.2798 0 23.4143 0.450396 21.7232 1.31539L0.633645 12.2948C0.430684 12.4388 0.266397 12.6325 0.155854 12.8582C0.045311 13.0839 -0.00794904 13.3343 0.000959158 13.5865V18.825C-0.0136611 20.2101 0.346045 21.5726 1.04055 22.7626C1.73506 23.9526 2.73748 24.9242 3.93767 25.5705L15.8181 32.029C15.8181 32.029 15.8181 32.029 15.8181 32.6031C15.9693 33.9509 16.601 35.1948 17.5927 36.0979C18.5844 37.0009 19.867 37.5 21.1959 37.5C22.5249 37.5 23.8074 37.0009 24.7992 36.0979C25.7909 35.1948 26.4226 33.9509 26.5738 32.6031C26.6063 32.293 26.6063 31.9803 26.5738 31.6702L41.2662 24.0636C41.767 24.6219 42.3748 25.0693 43.052 25.3779C43.7292 25.6865 44.4613 25.8498 45.2029 25.8576C46.5232 25.7032 47.7418 25.0584 48.6264 24.0461C49.5111 23.0337 50 21.7245 50 20.3679C50 19.0113 49.5111 17.7021 48.6264 16.6897C47.7418 15.6773 46.5232 15.0325 45.2029 14.8782ZM21.0905 34.4689C20.6057 34.4689 20.1409 34.2723 19.7981 33.9224C19.4553 33.5725 19.2627 33.0979 19.2627 32.6031C19.2091 32.3225 19.2169 32.0332 19.2857 31.7561C19.3545 31.4789 19.4825 31.2208 19.6606 31.0001C19.8387 30.7794 20.0624 30.6017 20.3157 30.4797C20.569 30.3577 20.8456 30.2944 21.1257 30.2944C21.4057 30.2944 21.6823 30.3577 21.9356 30.4797C22.1889 30.6017 22.4126 30.7794 22.5907 31.0001C22.7688 31.2208 22.8968 31.4789 22.9656 31.7561C23.0344 32.0332 23.0422 32.3225 22.9886 32.6031C22.9887 32.8543 22.9392 33.1029 22.843 33.3341C22.7468 33.5652 22.6059 33.7742 22.4286 33.9484C22.2514 34.1227 22.0415 34.2586 21.8116 34.348C21.5816 34.4374 21.3364 34.4785 21.0905 34.4689ZM45.2029 22.2695C44.928 22.3243 44.6446 22.3163 44.3731 22.2461C44.1016 22.1759 43.8487 22.0452 43.6325 21.8634C43.4164 21.6816 43.2423 21.4533 43.1227 21.1947C43.0032 20.9361 42.9412 20.6538 42.9412 20.3679C42.9412 20.082 43.0032 19.7996 43.1227 19.541C43.2423 19.2825 43.4164 19.0541 43.6325 18.8724C43.8487 18.6906 44.1016 18.5599 44.3731 18.4897C44.6446 18.4195 44.928 18.4115 45.2029 18.4662C45.635 18.5523 46.0244 18.7891 46.3043 19.136C46.5843 19.4829 46.7374 19.9184 46.7374 20.3679C46.7374 20.8173 46.5843 21.2528 46.3043 21.5997C46.0244 21.9467 45.635 22.1834 45.2029 22.2695Z" fill="#5EC7EC"/>
</svg>
