<svg width="1109" height="886" viewBox="0 0 1109 886" fill="none" xmlns="http://www.w3.org/2000/svg">
<g filter="url(#filter0_f_0_9)">
<path d="M645.699 -63.9963C613.303 -63.9463 581.053 -59.6622 549.768 -51.2529C555.501 -62.2122 561.234 -71.3874 566.202 -79.4157C577.414 -97.6387 586.204 -112.039 586.204 -129.625V-266.234C586.204 -318.227 480.846 -326 418.038 -326C355.231 -326 250 -318.227 250 -266.234V-129.879L283.378 277.144C284.015 283.516 284.142 289.887 284.397 296.896V298.043C286.038 343.284 296.609 387.753 315.5 428.891C334.39 470.029 361.229 507.024 394.47 537.746C462.636 601.242 552.426 636.376 645.571 635.997C844.822 635.997 1007 478.999 1007 285.937C1007 92.8745 844.95 -63.9963 645.699 -63.9963Z" fill="#1F0242"/>
<path d="M583.019 544.882C699.958 544.882 794.755 450.058 794.755 333.087C794.755 216.116 699.958 121.292 583.019 121.292C466.081 121.292 371.283 216.116 371.283 333.087C371.283 450.058 466.081 544.882 583.019 544.882Z" fill="url(#paint0_linear_0_9)"/>
<path d="M583.019 121.292C575.742 121.285 568.47 121.668 561.234 122.439C534.727 133.656 511.254 150.995 492.739 173.036C474.223 195.076 461.192 221.192 454.712 249.242C448.232 277.292 448.489 306.478 455.46 334.41C462.432 362.342 475.92 388.224 494.82 409.936C513.72 431.648 537.493 448.571 564.193 459.32C590.893 470.07 619.759 474.338 648.426 471.776C677.093 469.214 704.745 459.895 729.116 444.582C753.488 429.269 773.886 408.397 788.639 383.678C796.219 352.523 796.629 320.052 789.836 288.716C783.043 257.379 769.225 227.994 749.425 202.777C729.625 177.56 704.36 157.17 675.534 143.143C646.709 129.116 615.075 121.819 583.019 121.802L583.019 121.292Z" fill="#1F0242"/>
<path d="M611.938 420.762C679.132 420.762 733.603 366.275 733.603 299.062C733.603 231.85 679.132 177.363 611.938 177.363C544.744 177.363 490.273 231.85 490.273 299.062C490.273 366.275 544.744 420.762 611.938 420.762Z" fill="#FF5855"/>
<path d="M609.136 565.017C668.75 562.8 725.235 537.759 766.918 495.069C808.6 452.379 832.294 395.303 833.102 335.636C833.102 208.202 726.47 105.618 594.995 105.618C563.201 105.598 531.704 111.744 502.248 123.714L506.962 84.2093C541.996 68.2423 580.064 60.0268 618.563 60.1241C763.033 60.1241 880.239 173.286 880.239 312.953C880.239 452.62 763.033 565.654 618.563 565.654" fill="url(#paint1_linear_0_9)"/>
<path d="M360.709 398.588C381.488 451.785 417.951 497.4 465.258 529.379C512.564 561.358 568.476 578.188 625.57 577.633C781.251 577.633 907.375 455.806 907.375 305.434C907.375 155.062 781.251 33.2357 625.57 33.2357C583.717 33.2052 542.349 42.2027 504.287 59.6145L515.88 -11.3661C557.127 -28.2314 601.267 -36.8886 645.827 -36.8529C830.299 -36.8529 979.865 107.529 979.865 285.554C979.865 463.579 830.299 608.089 645.827 608.089C465.176 608.089 318.031 469.696 312.043 296.641C312.043 289.378 312.043 281.986 310.897 274.595L277.518 -130.262C277.518 -148.102 341.218 -162.502 417.656 -162.502C494.095 -162.502 558.432 -148.102 558.432 -130.262C558.432 -98.0209 485.56 -53.8017 485.56 116.705L486.197 124.224C435.11 146.406 394.017 186.684 370.809 237.324C347.6 287.964 343.913 345.395 360.454 398.588H360.709Z" fill="url(#paint2_linear_0_9)"/>
<path d="M558.813 -266.233C558.813 -284.074 495.751 -298.474 418.038 -298.474C340.325 -298.474 277.9 -284.074 277.9 -266.233V-129.879C321.774 -151.102 369.877 -162.125 418.611 -162.125C467.346 -162.125 515.449 -151.102 559.322 -129.879" fill="url(#paint3_linear_0_9)"/>
<path d="M705.83 6.85681C705.83 6.85681 858.708 55.2816 930.561 198.772C930.561 198.772 896.673 34.2551 705.83 6.85681Z" fill="white"/>
<path d="M418.038 -154.857C407.846 -154.857 397.781 -154.22 388.099 -153.327C396.38 -141.731 419.312 -101.079 419.312 -8.05273V157.611L442.116 137.476C442.116 137.476 442.116 63.8196 442.116 -15.4441C442.116 -99.1681 486.068 -132.683 503.14 -142.878C475.413 -150.55 446.805 -154.577 418.038 -154.857Z" fill="white"/>
<path d="M600.727 527.806C560.337 527.772 520.793 516.224 486.729 494.516C452.664 472.807 425.49 441.837 408.391 405.235C391.291 368.633 384.974 327.913 390.18 287.849C395.386 247.784 411.9 210.034 437.785 179.02C417.189 198.449 400.699 221.814 389.293 247.733C377.886 273.651 371.796 301.596 371.381 329.911C370.966 358.227 376.235 386.338 386.877 412.58C397.52 438.821 413.318 462.66 433.337 482.684C453.355 502.708 477.187 518.511 503.422 529.156C529.656 539.801 557.759 545.073 586.067 544.658C614.375 544.243 642.311 538.15 668.223 526.74C694.134 515.331 717.493 498.837 736.916 478.234C698.802 510.336 650.553 527.897 600.727 527.806Z" fill="white"/>
<path d="M669.65 584.004C743.703 576.401 812.496 542.222 863.295 487.792C863.295 487.792 815.776 584.641 669.65 584.004Z" fill="white"/>
<path d="M616.015 268.096C620.693 269.901 625.009 272.534 628.755 275.869L673.854 203.869C655.368 191.763 633.779 185.258 611.684 185.136C618.818 194.567 634.997 224.003 616.015 268.096Z" fill="#1F0242"/>
<path d="M637.291 285.554C640.339 290.733 642.21 296.52 642.769 302.503L725.705 295.876C725.46 289.852 724.822 283.85 723.794 277.909C719.177 263.141 712.893 248.947 705.066 235.6C705.066 235.6 710.8 275.487 637.291 285.554Z" fill="#1F0242"/>
<path d="M611.174 346.85C608.376 347.51 605.513 347.852 602.638 347.87C600.982 347.87 599.453 347.87 597.797 347.87L595.759 412.351C601.072 413.165 606.437 413.591 611.811 413.625C631.265 413.624 650.392 408.621 667.357 399.098C650.031 399.608 615.505 395.402 611.174 346.85Z" fill="#1F0242"/>
<path d="M602.766 335.636C618.526 335.636 631.303 322.685 631.303 306.708C631.303 290.732 618.526 277.781 602.766 277.781C587.005 277.781 574.229 290.732 574.229 306.708C574.229 322.685 587.005 335.636 602.766 335.636Z" fill="#1F0242"/>
<path d="M643.278 313.08C642.08 320.618 638.817 327.676 633.851 333.47L687.358 384.443C706.342 367.845 719.327 345.451 724.303 320.727C723.157 322.128 702.136 360.103 643.278 313.08Z" fill="#1F0242"/>
<path d="M570.407 329.01C567.804 326.983 565.855 324.235 564.801 321.109L512.568 354.879C515.464 360.074 518.788 365.018 522.505 369.66C526.468 374.183 530.724 378.44 535.245 382.404C548.342 394.354 564.046 403.081 581.108 407.891C572.572 402.284 535.627 368.769 570.407 329.01Z" fill="#1F0242"/>
<path d="M564.801 292.436C566.643 287.364 569.505 282.723 573.209 278.8L506.962 254.46C500.965 268.564 497.888 283.736 497.917 299.062C497.967 305.859 498.606 312.639 499.828 319.325C506.102 308.231 515.908 299.557 527.683 294.684C539.458 289.811 552.525 289.019 564.801 292.436Z" fill="#1F0242"/>
<path d="M590.79 267.714C594.603 266.398 598.605 265.71 602.638 265.675H605.186L579.707 189.214C560.517 195.016 543.201 205.787 529.512 220.436C542.56 223.357 554.808 229.105 565.395 237.273C575.983 245.442 584.651 255.832 590.79 267.714Z" fill="#1F0242"/>
</g>
<defs>
<filter id="filter0_f_0_9" x="0" y="-576" width="1257" height="1462" filterUnits="userSpaceOnUse" color-interpolation-filters="sRGB">
<feFlood flood-opacity="0" result="BackgroundImageFix"/>
<feBlend mode="normal" in="SourceGraphic" in2="BackgroundImageFix" result="shape"/>
<feGaussianBlur stdDeviation="125" result="effect1_foregroundBlur_0_9"/>
</filter>
<linearGradient id="paint0_linear_0_9" x1="412.832" y1="-160.457" x2="985.497" y2="358.146" gradientUnits="userSpaceOnUse">
<stop stop-color="#FF5855"/>
<stop offset="1" stop-color="#207DFF"/>
</linearGradient>
<linearGradient id="paint1_linear_0_9" x1="428.343" y1="-282.106" x2="787.219" y2="524.635" gradientUnits="userSpaceOnUse">
<stop stop-color="#FF5855"/>
<stop offset="1" stop-color="#207DFF"/>
</linearGradient>
<linearGradient id="paint2_linear_0_9" x1="196.036" y1="-233.57" x2="732.056" y2="180.423" gradientUnits="userSpaceOnUse">
<stop stop-color="#5A0FAE"/>
<stop offset="1" stop-color="#207DFF"/>
</linearGradient>
<linearGradient id="paint3_linear_0_9" x1="247.258" y1="153.909" x2="951.484" y2="153.909" gradientUnits="userSpaceOnUse">
<stop stop-color="#5A0FAE"/>
<stop offset="1" stop-color="#207DFF"/>
</linearGradient>
</defs>
</svg>
