<svg width="13" height="15" viewBox="0 0 13 15" fill="none" xmlns="http://www.w3.org/2000/svg">
<path d="M8.35714 0.9375C7.84353 0.9375 7.42857 1.35645 7.42857 1.875C7.42857 2.39355 7.84353 2.8125 8.35714 2.8125H9.82835L4.91562 7.77539C4.5529 8.1416 4.5529 8.73633 4.91562 9.10254C5.27835 9.46875 5.86741 9.46875 6.23013 9.10254L11.1429 4.13965V5.625C11.1429 6.14355 11.5578 6.5625 12.0714 6.5625C12.585 6.5625 13 6.14355 13 5.625V1.875C13 1.35645 12.585 0.9375 12.0714 0.9375H8.35714ZM2.32143 1.875C1.03884 1.875 0 2.92383 0 4.21875V11.7188C0 13.0137 1.03884 14.0625 2.32143 14.0625H9.75C11.0326 14.0625 12.0714 13.0137 12.0714 11.7188V9.375C12.0714 8.85645 11.6565 8.4375 11.1429 8.4375C10.6292 8.4375 10.2143 8.85645 10.2143 9.375V11.7188C10.2143 11.9766 10.0054 12.1875 9.75 12.1875H2.32143C2.06607 12.1875 1.85714 11.9766 1.85714 11.7188V4.21875C1.85714 3.96094 2.06607 3.75 2.32143 3.75H4.64286C5.15647 3.75 5.57143 3.33105 5.57143 2.8125C5.57143 2.29395 5.15647 1.875 4.64286 1.875H2.32143Z" fill="white"/>
</svg>
