<svg width="651" height="73" viewBox="0 0 651 73" fill="none" xmlns="http://www.w3.org/2000/svg">
<path d="M0.09375 57H-1.10625V58.2H0.09375V57ZM0.09375 6.45312V5.25313H-1.10625V6.45312H0.09375ZM10.875 6.45312H12.075V5.25313H10.875V6.45312ZM10.875 47.4688H9.675V48.6688H10.875V47.4688ZM35.5234 47.4688H36.7234V46.2687H35.5234V47.4688ZM35.5234 57V58.2H36.7234V57H35.5234ZM1.29375 57V6.45312H-1.10625V57H1.29375ZM0.09375 7.65313H10.875V5.25313H0.09375V7.65313ZM9.675 6.45312V47.4688H12.075V6.45312H9.675ZM10.875 48.6688H35.5234V46.2687H10.875V48.6688ZM34.3234 47.4688V57H36.7234V47.4688H34.3234ZM35.5234 55.8H0.09375V58.2H35.5234V55.8ZM44.3516 2.70312L45.1912 3.56059L45.2001 3.55165L44.3516 2.70312ZM53.4141 2.66406L52.5655 3.51264L52.5745 3.52147L53.4141 2.66406ZM53.4141 11.6875L52.5655 10.8389L52.5566 10.8479L53.4141 11.6875ZM44.3516 11.7266L43.503 12.5751L43.512 12.584L44.3516 11.7266ZM43.375 57H42.175V58.2H43.375V57ZM43.375 17.1562V15.9562H42.175V17.1562H43.375ZM54.4688 17.1562H55.6688V15.9562H54.4688V17.1562ZM54.4688 57V58.2H55.6688V57H54.4688ZM43.6766 7.15625C43.6766 5.73507 44.1709 4.55945 45.1911 3.56054L43.512 1.84571C42.0322 3.29472 41.2766 5.08785 41.2766 7.15625H43.6766ZM45.2001 3.55165C46.2246 2.52714 47.4296 2.02812 48.8828 2.02812V-0.371875C46.7943 -0.371875 44.9785 0.379114 43.503 1.8546L45.2001 3.55165ZM48.8828 2.02812C50.375 2.02812 51.576 2.52307 52.5655 3.51259L54.2626 1.81553C52.8042 0.357141 50.9844 -0.371875 48.8828 -0.371875V2.02812ZM52.5745 3.52147C53.5908 4.51662 54.0891 5.70361 54.0891 7.15625H56.4891C56.4891 5.06722 55.7373 3.25943 54.2536 1.80665L52.5745 3.52147ZM54.0891 7.15625C54.0891 8.60945 53.59 9.81446 52.5655 10.839L54.2626 12.536C55.7381 11.0605 56.4891 9.24472 56.4891 7.15625H54.0891ZM52.5566 10.8479C51.5652 11.8605 50.3669 12.3625 48.8828 12.3625V14.7625C50.9925 14.7625 52.815 14.0145 54.2715 12.5271L52.5566 10.8479ZM48.8828 12.3625C47.4216 12.3625 46.2138 11.8705 45.1911 10.8692L43.512 12.584C44.9893 14.0305 46.8024 14.7625 48.8828 14.7625V12.3625ZM45.2001 10.878C44.1793 9.8572 43.6766 8.64075 43.6766 7.15625H41.2766C41.2766 9.2655 42.0239 11.0959 43.503 12.5751L45.2001 10.878ZM44.575 57V17.1562H42.175V57H44.575ZM43.375 18.3563H54.4688V15.9562H43.375V18.3563ZM53.2687 17.1562V57H55.6688V17.1562H53.2687ZM54.4688 55.8H43.375V58.2H54.4688V55.8ZM67.4766 23.3281L68.4181 24.0722L68.4238 24.0649L67.4766 23.3281ZM71.8906 19.1484L71.2108 18.1596L71.8906 19.1484ZM89.5469 17.1172L89.092 18.2277L89.1035 18.2323L89.5469 17.1172ZM95.0547 21.0625L94.1417 21.8412L95.6714 23.6347L96.2215 21.3425L95.0547 21.0625ZM95.9922 17.1562V15.9562H95.0461L94.8253 16.8762L95.9922 17.1562ZM105.523 17.1562H106.723V15.9562H105.523V17.1562ZM105.523 72.1953V73.3953H106.723V72.1953H105.523ZM94.5078 72.1953H93.3078V73.3953H94.5078V72.1953ZM94.5078 52.9375H95.7078V50.1345L93.6796 52.0692L94.5078 52.9375ZM73.8438 56.1406L73.3363 57.2281L73.3409 57.2302L73.8438 56.1406ZM68.0234 51.6875L67.0839 52.434L67.0895 52.4411L67.0953 52.4481L68.0234 51.6875ZM64.5078 45.0469L63.3647 45.4122L63.3682 45.4228L64.5078 45.0469ZM76.8906 45.6719L75.9201 46.3777L75.924 46.383L76.8906 45.6719ZM94.5078 43.4062L95.5274 44.0391L95.7078 43.7484V43.4062H94.5078ZM94.5078 28.9922H95.7078V28.4578L95.3106 28.1002L94.5078 28.9922ZM76.9297 28.0938L75.9819 27.3578L75.9806 27.3594L76.9297 28.0938ZM64.4969 36.9219C64.4969 34.2715 64.8593 31.8451 65.5719 29.6337L63.2875 28.8976C62.4897 31.3737 62.0969 34.0515 62.0969 36.9219H64.4969ZM65.5719 29.6337C66.2915 27.4001 67.2463 25.5547 68.418 24.0722L66.5351 22.5841C65.1547 24.3307 64.0782 26.4436 63.2875 28.8976L65.5719 29.6337ZM68.4238 24.0649C69.6263 22.5188 71.0081 21.2114 72.5705 20.1373L71.2108 18.1596C69.4398 19.3772 67.8789 20.8562 66.5293 22.5914L68.4238 24.0649ZM72.5705 20.1373C74.1409 19.0576 75.7735 18.2677 77.4698 17.7588L76.7802 15.46C74.8307 16.0448 72.9737 16.9476 71.2108 18.1596L72.5705 20.1373ZM77.4698 17.7588C79.1842 17.2445 80.904 16.9891 82.6328 16.9891V14.5891C80.6637 14.5891 78.7117 14.8805 76.7802 15.46L77.4698 17.7588ZM82.6328 16.9891C84.9323 16.9891 87.0818 17.4042 89.092 18.2276L90.0018 16.0067C87.689 15.0594 85.2291 14.5891 82.6328 14.5891V16.9891ZM89.1035 18.2323C91.0833 19.0194 92.758 20.219 94.1417 21.8412L95.9677 20.2838C94.3305 18.3643 92.3334 16.9337 89.9902 16.0021L89.1035 18.2323ZM96.2215 21.3425L97.159 17.4363L94.8253 16.8762L93.8878 20.7825L96.2215 21.3425ZM95.9922 18.3563H105.523V15.9562H95.9922V18.3563ZM104.323 17.1562V72.1953H106.723V17.1562H104.323ZM105.523 70.9953H94.5078V73.3953H105.523V70.9953ZM95.7078 72.1953V52.9375H93.3078V72.1953H95.7078ZM93.6796 52.0692C90.5386 55.0652 86.5998 56.5813 81.7734 56.5813V58.9812C87.1554 58.9812 91.7062 57.2682 95.3361 53.8058L93.6796 52.0692ZM81.7734 56.5813C79.0099 56.5813 76.5411 56.0639 74.3466 55.0511L73.3409 57.2302C75.8859 58.4048 78.7036 58.9812 81.7734 58.9812V56.5813ZM74.3512 55.0532C72.1593 54.0303 70.3665 52.6536 68.9516 50.9269L67.0953 52.4481C68.7532 54.4714 70.8407 56.0634 73.3363 57.228L74.3512 55.0532ZM68.963 50.941C67.5486 49.1608 66.4407 47.0755 65.6474 44.6709L63.3682 45.4228C64.2416 48.0704 65.4774 50.4121 67.0839 52.434L68.963 50.941ZM65.6509 44.6816C64.8845 42.2838 64.4969 39.6996 64.4969 36.9219H62.0969C62.0969 39.9254 62.5165 42.7579 63.3648 45.4122L65.6509 44.6816ZM73.1906 37.2344C73.1906 40.7752 74.0793 43.8465 75.9201 46.3777L77.8611 44.9661C76.3686 42.9139 75.5906 40.3602 75.5906 37.2344H73.1906ZM75.924 46.383C77.8485 48.9991 80.6544 50.2703 84.1562 50.2703V47.8703C81.304 47.8703 79.2661 46.8759 77.8573 44.9608L75.924 46.383ZM84.1562 50.2703C89.1157 50.2703 92.958 48.1786 95.5274 44.0391L93.4882 42.7734C91.3701 46.186 88.3113 47.8703 84.1562 47.8703V50.2703ZM95.7078 43.4062V28.9922H93.3078V43.4062H95.7078ZM95.3106 28.1002C92.0088 25.1286 88.3997 23.5734 84.5078 23.5734V25.9734C87.6992 25.9734 90.7568 27.2307 93.7051 29.8841L95.3106 28.1002ZM84.5078 23.5734C80.8825 23.5734 77.9722 24.7945 75.9819 27.3578L77.8775 28.8297C79.3247 26.9659 81.4665 25.9734 84.5078 25.9734V23.5734ZM75.9806 27.3594C74.0701 29.8284 73.1906 33.1693 73.1906 37.2344H75.5906C75.5906 33.487 76.4039 30.7341 77.8787 28.8281L75.9806 27.3594ZM115.68 17.1562V15.9562H114.48V17.1562H115.68ZM126.734 17.1562H127.934V15.9562H126.734V17.1562ZM128.609 47.6641L127.798 48.5487L127.808 48.5569L128.609 47.6641ZM133.922 49.3828V50.5828H133.947L133.973 50.5817L133.922 49.3828ZM138.844 47.8203L139.514 48.816L139.52 48.8118L139.526 48.8076L138.844 47.8203ZM142.32 43.7188L143.39 44.2618L143.52 44.0058V43.7188H142.32ZM142.32 17.1562V15.9562H141.12V17.1562H142.32ZM153.336 17.1562H154.536V15.9562H153.336V17.1562ZM153.336 57V58.2H154.536V57H153.336ZM143.609 57H142.409V58.2H143.609V57ZM143.609 50.5156H144.809L142.535 49.9811L143.609 50.5156ZM119.469 54.5391L118.616 55.3832L119.469 54.5391ZM116.88 43.5625V17.1562H114.48V43.5625H116.88ZM115.68 18.3563H126.734V15.9562H115.68V18.3563ZM125.534 17.1562V41.5703H127.934V17.1562H125.534ZM125.534 41.5703C125.534 44.5945 126.171 47.0569 127.799 48.5486L129.42 46.7795C128.548 45.9795 127.934 44.3795 127.934 41.5703H125.534ZM127.808 48.5569C129.367 49.9569 131.457 50.5828 133.922 50.5828V48.1828C131.855 48.1828 130.404 47.6629 129.411 46.7712L127.808 48.5569ZM133.973 50.5817C136.026 50.495 137.884 49.912 139.514 48.816L138.174 46.8246C136.939 47.6557 135.516 48.1144 133.871 48.1839L133.973 50.5817ZM139.526 48.8076C141.142 47.691 142.426 46.1622 143.39 44.2618L141.25 43.1757C140.444 44.7649 139.41 45.9704 138.162 46.833L139.526 48.8076ZM143.52 43.7188V17.1562H141.12V43.7188H143.52ZM142.32 18.3563H153.336V15.9562H142.32V18.3563ZM152.136 17.1562V57H154.536V17.1562H152.136ZM153.336 55.8H143.609V58.2H153.336V55.8ZM144.809 57V50.5156H142.409V57H144.809ZM142.535 49.9811C141.328 52.4065 139.68 54.1812 137.598 55.3601C135.507 56.544 132.906 57.1672 129.742 57.1672V59.5672C133.219 59.5672 136.249 58.8818 138.781 57.4485C141.321 56.0102 143.286 53.8591 144.684 51.0501L142.535 49.9811ZM129.742 57.1672C125.67 57.1672 122.577 55.9739 120.322 53.6949L118.616 55.3832C121.412 58.2083 125.169 59.5672 129.742 59.5672V57.1672ZM120.322 53.6949C118.083 51.4335 116.88 48.1189 116.88 43.5625H114.48C114.48 48.5374 115.802 52.5405 118.616 55.3832L120.322 53.6949ZM165.445 2.70312L166.285 3.56059L166.294 3.55165L165.445 2.70312ZM174.508 2.66406L173.659 3.51264L173.668 3.52147L174.508 2.66406ZM174.508 11.6875L173.659 10.8389L173.65 10.8479L174.508 11.6875ZM165.445 11.7266L164.597 12.5751L164.606 12.584L165.445 11.7266ZM164.469 57H163.269V58.2H164.469V57ZM164.469 17.1562V15.9562H163.269V17.1562H164.469ZM175.562 17.1562H176.762V15.9562H175.562V17.1562ZM175.562 57V58.2H176.762V57H175.562ZM164.77 7.15625C164.77 5.73507 165.265 4.55945 166.285 3.56054L164.606 1.84571C163.126 3.29472 162.37 5.08785 162.37 7.15625H164.77ZM166.294 3.55165C167.318 2.52714 168.523 2.02812 169.977 2.02812V-0.371875C167.888 -0.371875 166.072 0.379114 164.597 1.8546L166.294 3.55165ZM169.977 2.02812C171.469 2.02812 172.67 2.52307 173.659 3.51259L175.356 1.81553C173.898 0.357141 172.078 -0.371875 169.977 -0.371875V2.02812ZM173.668 3.52147C174.685 4.51662 175.183 5.70361 175.183 7.15625H177.583C177.583 5.06722 176.831 3.25943 175.347 1.80665L173.668 3.52147ZM175.183 7.15625C175.183 8.60945 174.684 9.81446 173.659 10.839L175.356 12.536C176.832 11.0605 177.583 9.24472 177.583 7.15625H175.183ZM173.65 10.8479C172.659 11.8605 171.461 12.3625 169.977 12.3625V14.7625C172.086 14.7625 173.909 14.0145 175.365 12.5271L173.65 10.8479ZM169.977 12.3625C168.515 12.3625 167.308 11.8705 166.285 10.8692L164.606 12.584C166.083 14.0305 167.896 14.7625 169.977 14.7625V12.3625ZM166.294 10.878C165.273 9.8572 164.77 8.64075 164.77 7.15625H162.37C162.37 9.2655 163.118 11.0959 164.597 12.5751L166.294 10.878ZM165.669 57V17.1562H163.269V57H165.669ZM164.469 18.3563H175.562V15.9562H164.469V18.3563ZM174.363 17.1562V57H176.762V17.1562H174.363ZM175.562 55.8H164.469V58.2H175.562V55.8ZM189.859 21.5703L188.991 20.7426L188.99 20.7427L189.859 21.5703ZM215.328 19.3047L214.576 20.2401L216.528 21.8084V19.3047H215.328ZM215.328 2.85938V1.65938H214.128V2.85938H215.328ZM226.148 2.85938H227.348V1.65938H226.148V2.85938ZM226.148 57V58.2H227.348V57H226.148ZM217.008 57L215.813 57.1111L215.914 58.2H217.008V57ZM216.539 51.9609L217.734 51.8498L217.485 49.1737L215.659 51.1455L216.539 51.9609ZM194.898 56.1797L194.396 57.2693L194.406 57.2738L194.898 56.1797ZM189.078 51.7266L188.139 52.4731L188.144 52.4794L189.078 51.7266ZM185.602 45.1641L184.46 45.5328L184.461 45.5363L185.602 45.1641ZM198.336 28.0547L197.392 27.3142L197.39 27.3157L198.336 28.0547ZM198.18 45.5938L197.202 46.2892L197.205 46.2943L198.18 45.5938ZM215.602 43.1719L216.629 43.7913L216.802 43.5055V43.1719H215.602ZM215.602 27.7812H216.802V27.1714L216.309 26.8119L215.602 27.7812ZM185.591 37.0781C185.591 30.8007 187.342 25.9538 190.728 22.3979L188.99 20.7427C185.085 24.843 183.191 30.3347 183.191 37.0781H185.591ZM190.728 22.398C194.143 18.8136 198.656 16.9891 204.391 16.9891V14.5891C198.094 14.5891 192.919 16.6187 188.991 20.7426L190.728 22.398ZM204.391 16.9891C208.541 16.9891 211.908 18.0956 214.576 20.2401L216.08 18.3693C212.915 15.8263 208.991 14.5891 204.391 14.5891V16.9891ZM216.528 19.3047V2.85938H214.128V19.3047H216.528ZM215.328 4.05937H226.148V1.65938H215.328V4.05937ZM224.948 2.85938V57H227.348V2.85938H224.948ZM226.148 55.8H217.008V58.2H226.148V55.8ZM218.203 56.8889L217.734 51.8498L215.344 52.0721L215.813 57.1111L218.203 56.8889ZM215.659 51.1455C212.303 54.7686 208.07 56.5813 202.867 56.5813V58.9812C208.706 58.9812 213.588 56.9136 217.419 52.7763L215.659 51.1455ZM202.867 56.5813C200.072 56.5813 197.587 56.0748 195.391 55.0856L194.406 57.2738C196.95 58.42 199.777 58.9812 202.867 58.9812V56.5813ZM195.401 55.0901C193.185 54.0672 191.397 52.6929 190.013 50.9738L188.144 52.4794C189.78 54.5102 191.872 56.1046 194.396 57.2692L195.401 55.0901ZM190.018 50.9801C188.602 49.1986 187.509 47.1398 186.742 44.7918L184.461 45.5363C185.309 48.1362 186.533 50.4524 188.139 52.4731L190.018 50.9801ZM186.743 44.7953C185.978 42.4258 185.591 39.856 185.591 37.0781H183.191C183.191 40.0815 183.61 42.9024 184.46 45.5328L186.743 44.7953ZM197.39 27.3157C195.419 29.8375 194.48 33.0197 194.48 36.7656H196.88C196.88 33.4282 197.711 30.8031 199.281 28.7937L197.39 27.3157ZM194.48 36.7656C194.48 40.4981 195.36 43.6993 197.202 46.2892L199.158 44.8983C197.666 42.8007 196.88 40.1165 196.88 36.7656H194.48ZM197.205 46.2943C199.115 48.9496 201.847 50.2703 205.25 50.2703V47.8703C202.559 47.8703 200.578 46.8734 199.154 44.8932L197.205 46.2943ZM205.25 50.2703C210.209 50.2703 214.046 48.078 216.629 43.7913L214.574 42.5525C212.418 46.1303 209.354 47.8703 205.25 47.8703V50.2703ZM216.802 43.1719V27.7812H214.402V43.1719H216.802ZM216.309 26.8119C213.22 24.558 209.797 23.4172 206.07 23.4172V25.8172C209.271 25.8172 212.202 26.7858 214.894 28.7506L216.309 26.8119ZM206.07 23.4172C202.406 23.4172 199.453 24.6856 197.392 27.3143L199.28 28.7951C200.813 26.8404 203.016 25.8172 206.07 25.8172V23.4172ZM237.789 2.70312L238.629 3.56059L238.638 3.55165L237.789 2.70312ZM246.852 2.66406L246.003 3.51264L246.012 3.52147L246.852 2.66406ZM246.852 11.6875L246.003 10.8389L245.994 10.8479L246.852 11.6875ZM237.789 11.7266L236.94 12.5751L236.95 12.584L237.789 11.7266ZM236.812 57H235.613V58.2H236.812V57ZM236.812 17.1562V15.9562H235.613V17.1562H236.812ZM247.906 17.1562H249.106V15.9562H247.906V17.1562ZM247.906 57V58.2H249.106V57H247.906ZM237.114 7.15625C237.114 5.73507 237.608 4.55945 238.629 3.56054L236.95 1.84571C235.47 3.29472 234.714 5.08785 234.714 7.15625H237.114ZM238.638 3.55165C239.662 2.52714 240.867 2.02812 242.32 2.02812V-0.371875C240.232 -0.371875 238.416 0.379114 236.941 1.8546L238.638 3.55165ZM242.32 2.02812C243.812 2.02812 245.014 2.52307 246.003 3.51259L247.7 1.81553C246.242 0.357141 244.422 -0.371875 242.32 -0.371875V2.02812ZM246.012 3.52147C247.028 4.51662 247.527 5.70361 247.527 7.15625H249.927C249.927 5.06722 249.175 3.25943 247.691 1.80665L246.012 3.52147ZM247.527 7.15625C247.527 8.60945 247.028 9.81446 246.003 10.839L247.7 12.536C249.176 11.0605 249.927 9.24472 249.927 7.15625H247.527ZM245.994 10.8479C245.003 11.8605 243.804 12.3625 242.32 12.3625V14.7625C244.43 14.7625 246.253 14.0145 247.709 12.5271L245.994 10.8479ZM242.32 12.3625C240.859 12.3625 239.651 11.8705 238.629 10.8692L236.95 12.584C238.427 14.0305 240.24 14.7625 242.32 14.7625V12.3625ZM238.638 10.878C237.617 9.8572 237.114 8.64075 237.114 7.15625H234.714C234.714 9.2655 235.461 11.0959 236.941 12.5751L238.638 10.878ZM238.012 57V17.1562H235.613V57H238.012ZM236.812 18.3563H247.906V15.9562H236.812V18.3563ZM246.706 17.1562V57H249.106V17.1562H246.706ZM247.906 55.8H236.812V58.2H247.906V55.8ZM258.648 9.57812L258.271 8.4389L257.448 8.71126V9.57812H258.648ZM269.625 5.94531H270.825V4.28415L269.248 4.80608L269.625 5.94531ZM269.625 17.1562H268.425V18.3563H269.625V17.1562ZM281.852 17.1562H283.052V15.9562H281.852V17.1562ZM281.852 25.6328V26.8328H283.052V25.6328H281.852ZM269.625 25.6328V24.4328H268.425V25.6328H269.625ZM269.625 43.4062H268.425V43.4156L268.425 43.425L269.625 43.4062ZM270.992 47L270.229 47.9263L270.244 47.9385L270.259 47.9501L270.992 47ZM280.875 46.7656H282.075V44.6462L280.258 45.7366L280.875 46.7656ZM280.875 55.9453L281.487 56.9773L282.075 56.6286V55.9453H280.875ZM259.848 45.3203V9.57812H257.448V45.3203H259.848ZM259.025 10.7174L270.002 7.08454L269.248 4.80608L258.271 8.4389L259.025 10.7174ZM268.425 5.94531V17.1562H270.825V5.94531H268.425ZM269.625 18.3563H281.852V15.9562H269.625V18.3563ZM280.652 17.1562V25.6328H283.052V17.1562H280.652ZM281.852 24.4328H269.625V26.8328H281.852V24.4328ZM268.425 25.6328V43.4062H270.825V25.6328H268.425ZM268.425 43.425C268.454 45.2798 268.967 46.8868 270.229 47.9263L271.755 46.0737C271.246 45.6549 270.848 44.8661 270.825 43.3875L268.425 43.425ZM270.259 47.9501C271.479 48.8909 273.203 49.2547 275.211 49.2547V46.8547C273.417 46.8547 272.329 46.5154 271.725 46.0499L270.259 47.9501ZM275.211 49.2547C277.689 49.2547 279.813 48.8022 281.492 47.7946L280.258 45.7366C279.072 46.4478 277.421 46.8547 275.211 46.8547V49.2547ZM279.675 46.7656V55.9453H282.075V46.7656H279.675ZM280.263 54.9133C278.14 56.173 275.237 56.8547 271.461 56.8547V59.2547C275.497 59.2547 278.871 58.5301 281.487 56.9773L280.263 54.9133ZM271.461 56.8547C267.373 56.8547 264.528 55.8396 262.697 54.02C260.868 52.2017 259.848 49.3783 259.848 45.3203H257.448C257.448 49.7519 258.564 53.2957 261.006 55.7222C263.446 58.1474 267.007 59.2547 271.461 59.2547V56.8547ZM286.712 17.1562V15.9562H284.831L285.624 17.6623L286.712 17.1562ZM298.861 17.1562L299.98 16.7237L299.684 15.9562H298.861V17.1562ZM308.236 41.4141L307.117 41.8466L308.262 44.811L309.362 41.8292L308.236 41.4141ZM317.181 17.1562V15.9562H316.345L316.055 16.7411L317.181 17.1562ZM328.783 17.1562L329.878 17.6467L330.635 15.9562H328.783V17.1562ZM304.134 72.1953V73.3953H304.912L305.23 72.6858L304.134 72.1953ZM292.962 72.1953L291.906 71.6255L290.952 73.3953H292.962V72.1953ZM303.353 52.9375L304.409 53.5073L304.695 52.9774L304.441 52.4315L303.353 52.9375ZM286.712 18.3563H298.861V15.9562H286.712V18.3563ZM297.742 17.5888L307.117 41.8466L309.355 40.9815L299.98 16.7237L297.742 17.5888ZM309.362 41.8292L318.307 17.5714L316.055 16.7411L307.11 40.9989L309.362 41.8292ZM317.181 18.3563H328.783V15.9562H317.181V18.3563ZM327.688 16.6658L303.039 71.7048L305.23 72.6858L329.878 17.6467L327.688 16.6658ZM304.134 70.9953H292.962V73.3953H304.134V70.9953ZM294.019 72.7651L304.409 53.5073L302.297 52.3677L291.906 71.6255L294.019 72.7651ZM304.441 52.4315L287.801 16.6502L285.624 17.6623L302.265 53.4435L304.441 52.4315ZM358.9 54.2656H357.7V55.0135L358.371 55.3429L358.9 54.2656ZM358.9 2.85938V1.65938H357.7V2.85938H358.9ZM369.759 2.85938H370.959V1.65938H369.759V2.85938ZM369.759 21.2578H368.559V24.4869L370.668 22.0415L369.759 21.2578ZM395.658 21.4531L394.748 22.2357L394.754 22.2424L395.658 21.4531ZM399.252 44.6562L400.386 45.0467L400.388 45.043L399.252 44.6562ZM395.814 50.8281L394.905 50.0449L394.904 50.046L395.814 50.8281ZM390.658 55.0469L390.062 54.005L390.658 55.0469ZM384.134 57.5469L383.874 56.3755L383.866 56.3772L383.859 56.3789L384.134 57.5469ZM369.759 47.625H368.559V48.4077L369.276 48.7232L369.759 47.625ZM385.814 45.9453L385.002 45.062L385.814 45.9453ZM388.392 31.4141L387.26 31.8114L387.263 31.8202L387.266 31.8289L388.392 31.4141ZM383.158 26.1016L382.722 27.2195L382.738 27.2258L382.754 27.2317L383.158 26.1016ZM369.759 28.9141L368.971 28.0093L368.559 28.368V28.9141H369.759ZM360.1 54.2656V2.85938H357.7V54.2656H360.1ZM358.9 4.05937H369.759V1.65938H358.9V4.05937ZM368.559 2.85938V21.2578H370.959V2.85938H368.559ZM370.668 22.0415C373.502 18.7551 377.443 17.0672 382.65 17.0672V14.6672C376.867 14.6672 372.215 16.573 368.851 20.4742L370.668 22.0415ZM382.65 17.0672C387.814 17.0672 391.8 18.8087 394.748 22.2356L396.568 20.6706C393.109 16.6497 388.424 14.6672 382.65 14.6672V17.0672ZM394.754 22.2424C397.742 25.6638 399.302 30.3799 399.302 36.5312H401.702C401.702 29.9742 400.032 24.6383 396.562 20.6638L394.754 22.2424ZM399.302 36.5312C399.302 39.3876 398.901 41.9631 398.116 44.2695L400.388 45.043C401.269 42.4536 401.702 39.6124 401.702 36.5312H399.302ZM398.117 44.2658C397.326 46.5645 396.25 48.4832 394.905 50.0449L396.723 51.6114C398.294 49.7876 399.511 47.5918 400.386 45.0467L398.117 44.2658ZM394.904 50.046C393.565 51.6035 391.955 52.9236 390.062 54.005L391.253 56.0888C393.371 54.8784 395.198 53.3861 396.724 51.6102L394.904 50.046ZM390.062 54.005C388.166 55.0887 386.105 55.8797 383.874 56.3755L384.395 58.7183C386.851 58.1724 389.139 57.2967 391.253 56.0888L390.062 54.005ZM383.859 56.3789C381.64 56.9024 379.259 57.1672 376.712 57.1672V59.5672C379.426 59.5672 381.993 59.2851 384.41 58.7148L383.859 56.3789ZM376.712 57.1672C370.591 57.1672 364.834 55.8407 359.429 53.1883L358.371 55.3429C364.111 58.1593 370.23 59.5672 376.712 59.5672V57.1672ZM369.276 48.7232C371.639 49.7641 374.295 50.2703 377.22 50.2703V47.8703C374.573 47.8703 372.255 47.413 370.243 46.5268L369.276 48.7232ZM377.22 50.2703C380.944 50.2703 384.111 49.1415 386.626 46.8286L385.002 45.062C382.986 46.9157 380.424 47.8703 377.22 47.8703V50.2703ZM386.626 46.8286C389.216 44.4474 390.413 40.9647 390.413 36.6094H388.012C388.012 40.5353 386.943 43.2766 385.002 45.062L386.626 46.8286ZM390.413 36.6094C390.413 34.5228 390.125 32.6451 389.518 30.9992L387.266 31.8289C387.754 33.1518 388.012 34.7376 388.012 36.6094H390.413ZM389.525 31.0168C388.953 29.3882 388.126 28.0396 387.002 27.0406L385.407 28.8344C386.159 29.5021 386.79 30.4712 387.26 31.8114L389.525 31.0168ZM387.002 27.0406C385.959 26.1133 384.811 25.4179 383.561 24.9715L382.754 27.2317C383.692 27.5665 384.576 28.0951 385.407 28.8344L387.002 27.0406ZM383.594 24.9837C382.375 24.508 381.067 24.2766 379.681 24.2766V26.6766C380.796 26.6766 381.805 26.8618 382.722 27.2195L383.594 24.9837ZM379.681 24.2766C375.451 24.2766 371.851 25.5003 368.971 28.0093L370.548 29.8188C372.928 27.7445 375.943 26.6766 379.681 26.6766V24.2766ZM368.559 28.9141V47.625H370.959V28.9141H368.559ZM408.041 28.7969L406.917 28.3743L408.041 28.7969ZM412.259 21.9609L411.393 21.1301L411.388 21.1363L412.259 21.9609ZM437.806 17.5469L437.345 18.6546L437.357 18.6596L437.806 17.5469ZM444.642 22.2344L443.736 23.0212L443.742 23.0276L443.747 23.0338L444.642 22.2344ZM448.627 28.9141L447.499 29.3251L447.501 29.3289L448.627 28.9141ZM447.416 47.8203L446.354 47.26L446.353 47.2632L447.416 47.8203ZM439.877 55.5156L439.282 54.4732L439.279 54.4753L439.877 55.5156ZM428.236 58.3672L428.227 59.5672H428.236V58.3672ZM418.705 56.6094L418.239 57.7156L418.252 57.7207L418.705 56.6094ZM411.908 51.9219L411.013 52.7213L411.908 51.9219ZM407.923 45.2812L406.796 45.6923L406.797 45.6961L407.923 45.2812ZM418.509 41.4141L417.349 41.7195L417.35 41.7245L418.509 41.4141ZM420.306 45.3984L419.311 46.0691L419.318 46.0792L420.306 45.3984ZM423.548 48.2109L422.995 49.2759L423.004 49.2802L423.012 49.2842L423.548 48.2109ZM433.197 48.2109L433.717 49.2921L433.726 49.2883L433.734 49.2842L433.197 48.2109ZM436.439 45.3984L435.434 44.7429L435.43 44.7484L436.439 45.3984ZM437.65 31.2969L436.525 31.7147L436.528 31.7217L436.53 31.7287L437.65 31.2969ZM434.212 26.7656L433.488 27.722L433.497 27.7293L434.212 26.7656ZM424.134 25.6328L423.705 24.5122L423.697 24.5153L424.134 25.6328ZM419.291 30.1641L418.217 29.6274L418.212 29.6382L418.207 29.6492L419.291 30.1641ZM407.756 37.3125C407.756 34.3978 408.229 31.7036 409.164 29.2194L406.917 28.3743C405.873 31.1506 405.356 34.1335 405.356 37.3125H407.756ZM409.164 29.2194C410.101 26.7296 411.424 24.5899 413.131 22.7856L411.388 21.1363C409.449 23.1861 407.96 25.6037 406.917 28.3743L409.164 29.2194ZM413.125 22.7917C414.844 21.0001 416.988 19.5807 419.58 18.5439L418.689 16.3155C415.812 17.4662 413.372 19.0676 411.393 21.1301L413.125 22.7917ZM419.58 18.5439C422.155 17.5138 425.035 16.9891 428.236 16.9891V14.5891C424.77 14.5891 421.582 15.1581 418.689 16.3155L419.58 18.5439ZM428.236 16.9891C431.672 16.9891 434.701 17.5531 437.345 18.6546L438.268 16.4392C435.286 15.1969 431.935 14.5891 428.236 14.5891V16.9891ZM437.357 18.6596C440.049 19.7464 442.161 21.2075 443.736 23.0212L445.548 21.4476C443.686 19.3029 441.24 17.639 438.255 16.4341L437.357 18.6596ZM443.747 23.0338C445.389 24.8716 446.639 26.9658 447.499 29.3251L449.754 28.503C448.791 25.8623 447.385 23.5034 445.537 21.4349L443.747 23.0338ZM447.501 29.3289C448.36 31.6614 448.794 34.1633 448.794 36.8438H451.194C451.194 33.8992 450.716 31.1147 449.753 28.4992L447.501 29.3289ZM448.794 36.8438C448.794 40.7316 447.973 44.1948 446.354 47.26L448.477 48.3806C450.296 44.9354 451.194 41.0809 451.194 36.8438H448.794ZM446.353 47.2632C444.772 50.2782 442.427 52.6796 439.282 54.4732L440.471 56.558C443.993 54.5496 446.673 51.8207 448.478 48.3774L446.353 47.2632ZM439.279 54.4753C436.182 56.2554 432.515 57.1672 428.236 57.1672V59.5672C432.863 59.5672 436.957 58.578 440.475 56.556L439.279 54.4753ZM428.245 57.1672C424.83 57.1421 421.808 56.5777 419.157 55.4981L418.252 57.7207C421.227 58.9327 424.558 59.5402 428.227 59.5672L428.245 57.1672ZM419.17 55.5032C416.522 54.3898 414.412 52.9236 412.803 51.1224L411.013 52.7213C412.893 54.8264 415.314 56.4852 418.239 57.7155L419.17 55.5032ZM412.803 51.1224C411.159 49.2826 409.909 47.1997 409.049 44.8664L406.797 45.6961C407.761 48.3107 409.167 50.6549 411.013 52.7213L412.803 51.1224ZM409.051 44.8702C408.19 42.5093 407.756 39.9929 407.756 37.3125H405.356C405.356 40.2571 405.834 43.0532 406.796 45.6923L409.051 44.8702ZM416.723 36.6875C416.723 38.4485 416.93 40.1273 417.349 41.7195L419.67 41.1087C419.308 39.7321 419.123 38.2599 419.123 36.6875H416.723ZM417.35 41.7245C417.774 43.3053 418.426 44.7561 419.311 46.0691L421.301 44.7278C420.572 43.6449 420.026 42.4395 419.669 41.1036L417.35 41.7245ZM419.318 46.0792C420.245 47.4244 421.48 48.489 422.995 49.2759L424.101 47.1459C422.909 46.5266 421.982 45.7162 421.294 44.7177L419.318 46.0792ZM423.012 49.2842C424.559 50.0577 426.31 50.4266 428.236 50.4266V48.0266C426.62 48.0266 425.247 47.7184 424.085 47.1376L423.012 49.2842ZM428.236 50.4266C430.279 50.4266 432.117 50.0626 433.717 49.2921L432.676 47.1297C431.464 47.7134 429.995 48.0266 428.236 48.0266V50.4266ZM433.734 49.2842C435.307 48.4975 436.562 47.4235 437.448 46.0485L435.43 44.7484C434.806 45.7172 433.899 46.5182 432.66 47.1376L433.734 49.2842ZM437.444 46.054C438.291 44.756 438.916 43.3795 439.315 41.927L437.001 41.2917C436.67 42.4955 436.15 43.645 435.434 44.7429L437.444 46.054ZM439.315 41.927C439.71 40.4877 439.905 38.974 439.905 37.3906H437.505C437.505 38.776 437.335 40.0748 437.001 41.2917L439.315 41.927ZM439.905 37.3906C439.905 35.0247 439.533 32.8443 438.77 30.865L436.53 31.7287C437.173 33.3953 437.505 35.2774 437.505 37.3906H439.905ZM438.775 30.8791C438.014 28.8307 436.722 27.1333 434.928 25.8019L433.497 27.7293C434.932 28.7938 435.932 30.1173 436.525 31.7147L438.775 30.8791ZM434.937 25.8093C433.08 24.4015 430.821 23.7297 428.236 23.7297V26.1297C430.39 26.1297 432.116 26.6818 433.488 27.7219L434.937 25.8093ZM428.236 23.7297C426.601 23.7297 425.085 23.9836 423.705 24.5122L424.564 26.7534C425.631 26.3445 426.85 26.1297 428.236 26.1297V23.7297ZM423.697 24.5153C422.376 25.0323 421.25 25.7266 420.356 26.6202L422.053 28.3173C422.67 27.7005 423.497 27.1708 424.572 26.7503L423.697 24.5153ZM420.356 26.6202C419.502 27.4745 418.791 28.4808 418.217 29.6274L420.364 30.7007C420.832 29.764 421.397 28.9734 422.053 28.3173L420.356 26.6202ZM418.207 29.6492C417.671 30.7761 417.287 31.9263 417.058 33.0983L419.414 33.5579C419.602 32.5945 419.92 31.6353 420.375 30.6789L418.207 29.6492ZM417.058 33.0983C416.834 34.2473 416.723 35.4444 416.723 36.6875H419.123C419.123 35.5869 419.221 34.5444 419.414 33.5579L417.058 33.0983ZM457.572 28.7969L456.449 28.3743L457.572 28.7969ZM461.791 21.9609L460.925 21.1301L460.919 21.1363L461.791 21.9609ZM487.337 17.5469L486.876 18.6546L486.888 18.6596L487.337 17.5469ZM494.173 22.2344L493.267 23.0212L493.273 23.0276L493.279 23.0338L494.173 22.2344ZM498.158 28.9141L497.03 29.3251L497.032 29.3289L498.158 28.9141ZM496.947 47.8203L495.886 47.26L495.884 47.2632L496.947 47.8203ZM489.408 55.5156L488.813 54.4732L488.81 54.4753L489.408 55.5156ZM477.767 58.3672L477.758 59.5672H477.767V58.3672ZM468.236 56.6094L467.771 57.7156L467.783 57.7207L468.236 56.6094ZM461.439 51.9219L460.544 52.7213L461.439 51.9219ZM457.455 45.2812L456.327 45.6923L456.329 45.6961L457.455 45.2812ZM468.041 41.4141L466.88 41.7195L466.881 41.7245L468.041 41.4141ZM469.837 45.3984L468.842 46.0691L468.849 46.0792L469.837 45.3984ZM473.08 48.2109L472.527 49.2759L472.535 49.2802L472.543 49.2842L473.08 48.2109ZM482.728 48.2109L483.249 49.2921L483.257 49.2883L483.265 49.2842L482.728 48.2109ZM485.97 45.3984L484.965 44.7429L484.962 44.7484L485.97 45.3984ZM487.181 31.2969L486.056 31.7147L486.059 31.7217L486.062 31.7287L487.181 31.2969ZM483.744 26.7656L483.019 27.722L483.029 27.7293L483.744 26.7656ZM473.666 25.6328L473.236 24.5122L473.228 24.5153L473.666 25.6328ZM468.822 30.1641L467.749 29.6274L467.743 29.6382L467.738 29.6492L468.822 30.1641ZM457.288 37.3125C457.288 34.3978 457.76 31.7036 458.695 29.2194L456.449 28.3743C455.404 31.1506 454.887 34.1335 454.887 37.3125H457.288ZM458.695 29.2194C459.632 26.7296 460.956 24.5899 462.662 22.7856L460.919 21.1363C458.98 23.1861 457.491 25.6037 456.449 28.3743L458.695 29.2194ZM462.657 22.7917C464.375 21.0001 466.519 19.5807 469.111 18.5439L468.22 16.3155C465.343 17.4662 462.904 19.0676 460.925 21.1301L462.657 22.7917ZM469.111 18.5439C471.686 17.5138 474.566 16.9891 477.767 16.9891V14.5891C474.301 14.5891 471.114 15.1581 468.22 16.3155L469.111 18.5439ZM477.767 16.9891C481.203 16.9891 484.232 17.5531 486.876 18.6546L487.799 16.4392C484.818 15.1969 481.467 14.5891 477.767 14.5891V16.9891ZM486.888 18.6596C489.58 19.7464 491.692 21.2075 493.267 23.0212L495.079 21.4476C493.217 19.3029 490.772 17.639 487.787 16.4341L486.888 18.6596ZM493.279 23.0338C494.92 24.8716 496.17 26.9658 497.03 29.3251L499.285 28.503C498.322 25.8623 496.916 23.5034 495.068 21.4349L493.279 23.0338ZM497.032 29.3289C497.891 31.6614 498.325 34.1633 498.325 36.8438H500.725C500.725 33.8992 500.247 31.1147 499.284 28.4992L497.032 29.3289ZM498.325 36.8438C498.325 40.7316 497.504 44.1948 495.886 47.26L498.008 48.3806C499.827 44.9354 500.725 41.0809 500.725 36.8438H498.325ZM495.884 47.2632C494.304 50.2782 491.958 52.6796 488.813 54.4732L490.002 56.558C493.524 54.5496 496.205 51.8207 498.01 48.3774L495.884 47.2632ZM488.81 54.4753C485.713 56.2554 482.046 57.1672 477.767 57.1672V59.5672C482.395 59.5672 486.488 58.578 490.006 56.556L488.81 54.4753ZM477.776 57.1672C474.362 57.1421 471.339 56.5777 468.689 55.4981L467.783 57.7207C470.758 58.9327 474.089 59.5402 477.758 59.5672L477.776 57.1672ZM468.701 55.5032C466.054 54.3898 463.943 52.9236 462.334 51.1224L460.544 52.7213C462.425 54.8264 464.845 56.4852 467.771 57.7155L468.701 55.5032ZM462.334 51.1224C460.69 49.2826 459.44 47.1997 458.581 44.8664L456.329 45.6961C457.292 48.3107 458.698 50.6549 460.544 52.7213L462.334 51.1224ZM458.582 44.8702C457.721 42.5093 457.288 39.9929 457.288 37.3125H454.887C454.887 40.2571 455.365 43.0532 456.327 45.6923L458.582 44.8702ZM466.255 36.6875C466.255 38.4485 466.461 40.1273 466.88 41.7195L469.201 41.1087C468.839 39.7321 468.655 38.2599 468.655 36.6875H466.255ZM466.881 41.7245C467.305 43.3053 467.958 44.7561 468.842 46.0691L470.833 44.7278C470.103 43.6449 469.558 42.4395 469.2 41.1036L466.881 41.7245ZM468.849 46.0792C469.776 47.4244 471.011 48.489 472.527 49.2759L473.633 47.1459C472.44 46.5266 471.514 45.7162 470.826 44.7177L468.849 46.0792ZM472.543 49.2842C474.09 50.0577 475.842 50.4266 477.767 50.4266V48.0266C476.151 48.0266 474.778 47.7184 473.616 47.1376L472.543 49.2842ZM477.767 50.4266C479.81 50.4266 481.649 50.0626 483.249 49.2921L482.208 47.1297C480.995 47.7134 479.527 48.0266 477.767 48.0266V50.4266ZM483.265 49.2842C484.838 48.4975 486.093 47.4235 486.979 46.0485L484.962 44.7484C484.337 45.7172 483.43 46.5182 482.191 47.1376L483.265 49.2842ZM486.975 46.054C487.822 44.756 488.448 43.3795 488.846 41.927L486.532 41.2917C486.201 42.4955 485.681 43.645 484.965 44.7429L486.975 46.054ZM488.846 41.927C489.241 40.4877 489.436 38.974 489.436 37.3906H487.036C487.036 38.776 486.866 40.0748 486.532 41.2917L488.846 41.927ZM489.436 37.3906C489.436 35.0247 489.064 32.8443 488.301 30.865L486.062 31.7287C486.704 33.3953 487.036 35.2774 487.036 37.3906H489.436ZM488.306 30.8791C487.545 28.8307 486.253 27.1333 484.459 25.8019L483.029 27.7293C484.463 28.7938 485.463 30.1173 486.056 31.7147L488.306 30.8791ZM484.469 25.8093C482.612 24.4015 480.353 23.7297 477.767 23.7297V26.1297C479.921 26.1297 481.647 26.6818 483.019 27.7219L484.469 25.8093ZM477.767 23.7297C476.132 23.7297 474.617 23.9836 473.236 24.5122L474.095 26.7534C475.163 26.3445 476.381 26.1297 477.767 26.1297V23.7297ZM473.228 24.5153C471.907 25.0323 470.781 25.7266 469.887 26.6202L471.584 28.3173C472.201 27.7005 473.028 27.1708 474.103 26.7503L473.228 24.5153ZM469.887 26.6202C469.033 27.4745 468.322 28.4808 467.749 29.6274L469.895 30.7007C470.364 29.764 470.928 28.9734 471.584 28.3173L469.887 26.6202ZM467.738 29.6492C467.203 30.7761 466.818 31.9263 466.589 33.0983L468.945 33.5579C469.133 32.5945 469.452 31.6353 469.906 30.6789L467.738 29.6492ZM466.589 33.0983C466.365 34.2473 466.255 35.4444 466.255 36.6875H468.655C468.655 35.5869 468.753 34.5444 468.945 33.5579L466.589 33.0983ZM510.541 19.2266L509.819 18.2675L509.815 18.2705L510.541 19.2266ZM537.533 18.9141H538.733V18.1787L538.078 17.8449L537.533 18.9141ZM537.533 27.7812L536.968 28.8401L538.733 29.7812V27.7812H537.533ZM531.205 25.9453L530.962 27.1205L530.973 27.1228L531.205 25.9453ZM518.9 25.5156L519.279 26.654L519.293 26.6495L519.306 26.6447L518.9 25.5156ZM517.494 26.5703L516.479 25.9295L516.467 25.9491L516.455 25.9691L517.494 26.5703ZM519.798 31.9219L519.337 33.0296L519.35 33.0351L519.364 33.0403L519.798 31.9219ZM522.572 32.8203L522.273 33.9825L522.572 32.8203ZM526.088 33.6016L525.852 34.7783L525.862 34.7803L525.873 34.7822L526.088 33.6016ZM526.713 33.7188L526.948 32.5421L526.713 33.7188ZM532.767 35.2812L532.379 36.4169L532.392 36.4211L532.404 36.4251L532.767 35.2812ZM535.345 36.375L534.728 37.404L534.752 37.4183L534.776 37.4316L535.345 36.375ZM537.416 37.8203L536.637 38.7338L536.647 38.7423L536.658 38.7506L537.416 37.8203ZM539.056 39.7734L537.998 40.3401L538.011 40.3629L538.024 40.3852L539.056 39.7734ZM540.033 42.3125L538.865 42.5891L538.869 42.6074L538.874 42.6256L540.033 42.3125ZM506.634 54.5391H505.434V55.2502L506.058 55.5916L506.634 54.5391ZM506.634 45.4766L507.149 44.3924L505.434 43.5792V45.4766H506.634ZM514.564 48.1719L514.266 49.3344L514.275 49.3366L514.564 48.1719ZM528.275 43.7188L527.525 44.6558L527.546 44.6722L527.567 44.6876L528.275 43.7188ZM525.658 42.5859L525.38 43.7533L525.393 43.7565L525.406 43.7593L525.658 42.5859ZM521.908 41.8047L521.664 42.9796L521.677 42.9823L521.689 42.9846L521.908 41.8047ZM513.353 39.6953L512.875 40.7962L512.883 40.7993L513.353 39.6953ZM509.642 37.5859L508.915 38.5405L508.922 38.546L508.93 38.5514L509.642 37.5859ZM506.986 34.1484L505.887 34.6304L505.892 34.6422L505.898 34.6538L506.986 34.1484ZM507.209 28.9922C507.209 25.1003 508.581 22.2196 511.266 20.1826L509.815 18.2705C506.459 20.8169 504.809 24.4466 504.809 28.9922H507.209ZM511.262 20.1856C514.023 18.109 518.065 16.9891 523.548 16.9891V14.5891C517.782 14.5891 513.152 15.7608 509.819 18.2675L511.262 20.1856ZM523.548 16.9891C528.62 16.9891 533.091 17.9973 536.988 19.9833L538.078 17.8449C533.798 15.6642 528.945 14.5891 523.548 14.5891V16.9891ZM536.333 18.9141V27.7812H538.733V18.9141H536.333ZM538.098 26.7224C536.753 26.0053 534.486 25.3673 531.436 24.7678L530.973 27.1228C534.017 27.7212 535.969 28.3072 536.968 28.8401L538.098 26.7224ZM531.448 24.7702C528.368 24.1329 525.563 23.8078 523.041 23.8078V26.2078C525.362 26.2078 528 26.5077 530.962 27.1204L531.448 24.7702ZM523.041 23.8078C522.061 23.8078 521.252 23.834 520.627 23.8909L520.845 26.281C521.365 26.2337 522.093 26.2078 523.041 26.2078V23.8078ZM520.627 23.8909C519.935 23.9538 519.222 24.1243 518.494 24.3866L519.306 26.6447C519.88 26.4382 520.391 26.3222 520.845 26.281L520.627 23.8909ZM518.521 24.3772C517.668 24.6615 516.958 25.1711 516.479 25.9295L518.508 27.2111C518.654 26.9799 518.882 26.7865 519.279 26.654L518.521 24.3772ZM516.455 25.9691C516.028 26.7067 515.864 27.5874 515.864 28.5234H518.264C518.264 27.8449 518.386 27.4235 518.532 27.1716L516.455 25.9691ZM515.864 28.5234C515.864 29.5473 516.161 30.4864 516.795 31.2707L518.661 29.7606C518.41 29.4511 518.264 29.0621 518.264 28.5234H515.864ZM516.795 31.2707C517.407 32.0259 518.292 32.5941 519.337 33.0296L520.26 30.8142C519.43 30.4684 518.935 30.0991 518.661 29.7606L516.795 31.2707ZM519.364 33.0403C520.342 33.421 521.312 33.7355 522.273 33.9825L522.871 31.6581C522.008 31.4364 521.129 31.1519 520.233 30.8035L519.364 33.0403ZM522.273 33.9825C523.214 34.2244 524.409 34.4896 525.852 34.7783L526.323 32.4249C524.902 32.1406 523.753 31.885 522.871 31.6581L522.273 33.9825ZM525.873 34.7822C526.159 34.8341 526.358 34.8716 526.477 34.8954L526.948 32.5421C526.807 32.5138 526.589 32.4731 526.302 32.4209L525.873 34.7822ZM526.477 34.8954C527.769 35.1539 528.817 35.3841 529.625 35.586L530.207 33.2577C529.348 33.043 528.26 32.8044 526.948 32.5421L526.477 34.8954ZM529.625 35.586C530.417 35.7842 531.334 36.06 532.379 36.4169L533.155 34.1456C532.065 33.7733 531.081 33.4763 530.207 33.2577L529.625 35.586ZM532.404 36.4251C533.421 36.7474 534.185 37.0783 534.728 37.404L535.963 35.346C535.203 34.8904 534.249 34.4922 533.13 34.1374L532.404 36.4251ZM534.776 37.4316C535.366 37.7489 535.986 38.1792 536.637 38.7338L538.194 36.9068C537.439 36.2635 536.679 35.7303 535.914 35.3184L534.776 37.4316ZM536.658 38.7506C537.25 39.233 537.69 39.7637 537.998 40.3401L540.114 39.2068C539.642 38.3248 538.988 37.5534 538.174 36.89L536.658 38.7506ZM538.024 40.3852C538.366 40.9622 538.652 41.6899 538.865 42.5891L541.201 42.0359C540.945 40.956 540.58 39.9909 540.089 39.1617L538.024 40.3852ZM538.874 42.6256C539.102 43.4691 539.223 44.4421 539.223 45.5547H541.623C541.623 44.2714 541.484 43.083 541.191 41.9994L538.874 42.6256ZM539.223 45.5547C539.223 48.9966 537.778 51.74 534.769 53.8725L536.156 55.8306C539.762 53.2756 541.623 49.8212 541.623 45.5547H539.223ZM534.769 53.8725C531.72 56.0331 527.662 57.1672 522.494 57.1672V59.5672C528.003 59.5672 532.591 58.3575 536.156 55.8306L534.769 53.8725ZM522.494 57.1672C516.761 57.1672 511.676 55.9313 507.211 53.4865L506.058 55.5916C510.915 58.251 516.404 59.5672 522.494 59.5672V57.1672ZM507.834 54.5391V45.4766H505.434V54.5391H507.834ZM506.12 46.5608C508.246 47.5692 510.969 48.4903 514.266 49.3344L514.862 47.0094C511.648 46.1867 509.085 45.311 507.149 44.3924L506.12 46.5608ZM514.275 49.3366C517.597 50.1604 520.601 50.5828 523.275 50.5828V48.1828C520.845 48.1828 518.041 47.7979 514.853 47.0072L514.275 49.3366ZM523.275 50.5828C525.183 50.5828 526.856 50.2333 528.214 49.4437L527.008 47.3688C526.126 47.8813 524.909 48.1828 523.275 48.1828V50.5828ZM528.214 49.4437C529.667 48.599 530.491 47.2988 530.491 45.6328H528.091C528.091 46.3626 527.795 46.9114 527.008 47.3688L528.214 49.4437ZM530.491 45.6328C530.491 44.4369 529.943 43.4513 528.983 42.7499L527.567 44.6876C527.961 44.9758 528.091 45.2662 528.091 45.6328H530.491ZM529.025 42.7817C528.187 42.1117 527.126 41.6733 525.909 41.4126L525.406 43.7593C526.377 43.9674 527.061 44.2841 527.525 44.6558L529.025 42.7817ZM525.936 41.4186C524.818 41.1524 523.547 40.8879 522.126 40.6247L521.689 42.9846C523.081 43.2423 524.31 43.4986 525.38 43.7533L525.936 41.4186ZM522.152 40.6297C520.76 40.3409 519.33 40.0653 517.861 39.8031L517.439 42.1657C518.887 42.4242 520.295 42.6956 521.664 42.9796L522.152 40.6297ZM517.861 39.8031C516.494 39.559 515.149 39.1559 513.823 38.5913L512.883 40.7993C514.37 41.4326 515.889 41.8889 517.439 42.1657L517.861 39.8031ZM513.831 38.5945C512.525 38.0278 511.368 37.3685 510.355 36.6204L508.93 38.5514C510.104 39.4179 511.421 40.1649 512.875 40.7961L513.831 38.5945ZM510.369 36.6314C509.455 35.9348 508.683 34.9546 508.074 33.6431L505.898 34.6538C506.643 36.259 507.642 37.5704 508.915 38.5405L510.369 36.6314ZM508.085 33.6664C507.513 32.3618 507.209 30.8127 507.209 28.9922H504.809C504.809 31.0779 505.157 32.9663 505.887 34.6304L508.085 33.6664ZM547.767 9.57812L547.39 8.4389L546.567 8.71126V9.57812H547.767ZM558.744 5.94531H559.944V4.28415L558.367 4.80608L558.744 5.94531ZM558.744 17.1562H557.544V18.3563H558.744V17.1562ZM570.97 17.1562H572.17V15.9562H570.97V17.1562ZM570.97 25.6328V26.8328H572.17V25.6328H570.97ZM558.744 25.6328V24.4328H557.544V25.6328H558.744ZM558.744 43.4062H557.544V43.4156L557.544 43.425L558.744 43.4062ZM560.111 47L559.348 47.9263L559.363 47.9385L559.378 47.9501L560.111 47ZM569.994 46.7656H571.194V44.6462L569.376 45.7366L569.994 46.7656ZM569.994 55.9453L570.606 56.9773L571.194 56.6286V55.9453H569.994ZM548.967 45.3203V9.57812H546.567V45.3203H548.967ZM548.144 10.7174L559.121 7.08454L558.367 4.80608L547.39 8.4389L548.144 10.7174ZM557.544 5.94531V17.1562H559.944V5.94531H557.544ZM558.744 18.3563H570.97V15.9562H558.744V18.3563ZM569.77 17.1562V25.6328H572.17V17.1562H569.77ZM570.97 24.4328H558.744V26.8328H570.97V24.4328ZM557.544 25.6328V43.4062H559.944V25.6328H557.544ZM557.544 43.425C557.573 45.2798 558.086 46.8868 559.348 47.9263L560.874 46.0737C560.365 45.6549 559.967 44.8661 559.944 43.3875L557.544 43.425ZM559.378 47.9501C560.597 48.8909 562.322 49.2547 564.33 49.2547V46.8547C562.536 46.8547 561.447 46.5154 560.844 46.0499L559.378 47.9501ZM564.33 49.2547C566.807 49.2547 568.932 48.8022 570.611 47.7946L569.376 45.7366C568.191 46.4478 566.539 46.8547 564.33 46.8547V49.2547ZM568.794 46.7656V55.9453H571.194V46.7656H568.794ZM569.381 54.9133C567.259 56.173 564.356 56.8547 560.58 56.8547V59.2547C564.616 59.2547 567.989 58.5301 570.606 56.9773L569.381 54.9133ZM560.58 56.8547C556.492 56.8547 553.647 55.8396 551.816 54.02C549.987 52.2017 548.967 49.3783 548.967 45.3203H546.567C546.567 49.7519 547.683 53.2957 550.124 55.7222C552.565 58.1474 556.126 59.2547 560.58 59.2547V56.8547ZM576.127 29.2656L574.988 28.8861L574.986 28.8939L576.127 29.2656ZM579.291 23.3281L580.217 24.0905L580.223 24.0832L579.291 23.3281ZM583.939 19.1875L584.58 20.2017L584.584 20.1993L583.939 19.1875ZM589.681 16.6875L589.979 17.8499L589.99 17.8472L589.681 16.6875ZM604.916 17.5078L604.439 18.609L604.446 18.612L604.453 18.6148L604.916 17.5078ZM610.931 21.9609L611.883 21.2305L610.931 21.9609ZM614.173 28.2891L613.025 28.6374L613.026 28.641L614.173 28.2891ZM614.759 41.6484V42.8484H615.797L615.947 41.8222L614.759 41.6484ZM585.931 41.6484V40.4484H584.528L584.746 41.8344L585.931 41.6484ZM590.072 47.5078L589.507 48.5666L589.512 48.5692L590.072 47.5078ZM611.869 46.9219H613.069V45.2857L611.508 45.7773L611.869 46.9219ZM611.869 55.5547L612.461 56.5986L613.069 56.2538V55.5547H611.869ZM587.455 56.7266L587.028 57.8482L587.04 57.8526L587.455 56.7266ZM580.345 52.1172L579.451 52.9173L579.457 52.9235L579.462 52.9297L580.345 52.1172ZM576.322 45.3203L575.188 45.7137L575.192 45.7239L576.322 45.3203ZM585.541 34.3438L584.344 34.2493L584.242 35.5438H585.541V34.3438ZM604.759 34.3438V35.5438H605.959V34.3438H604.759ZM588.705 27.4297L589.495 28.3328L589.502 28.3266L588.705 27.4297ZM576.194 36.9219C576.194 34.2439 576.557 31.8193 577.268 29.6374L574.986 28.8939C574.186 31.3474 573.794 34.0269 573.794 36.9219H576.194ZM577.265 29.6451C578.008 27.416 578.998 25.5729 580.217 24.0905L578.364 22.5658C576.927 24.3125 575.808 26.4277 574.988 28.8862L577.265 29.6451ZM580.223 24.0832C581.47 22.5435 582.921 21.2511 584.58 20.2017L583.298 18.1733C581.415 19.3635 579.768 20.8315 578.358 22.5731L580.223 24.0832ZM584.584 20.1993C586.276 19.1206 588.073 18.3387 589.979 17.8499L589.383 15.5251C587.227 16.078 585.196 16.9628 583.294 18.1757L584.584 20.1993ZM589.99 17.8472C591.942 17.3281 593.974 17.0672 596.088 17.0672V14.6672C593.774 14.6672 591.535 14.9531 589.373 15.5278L589.99 17.8472ZM596.088 17.0672C599.318 17.0672 602.093 17.5931 604.439 18.609L605.392 16.4066C602.687 15.235 599.576 14.6672 596.088 14.6672V17.0672ZM604.453 18.6148C606.842 19.6144 608.667 20.9805 609.979 22.6913L611.883 21.2305C610.279 19.1393 608.094 17.5366 605.379 16.4008L604.453 18.6148ZM609.979 22.6913C611.349 24.4766 612.363 26.4563 613.025 28.6374L615.322 27.9407C614.577 25.4864 613.431 23.2474 611.883 21.2305L609.979 22.6913ZM613.026 28.641C613.69 30.805 614.028 33.1848 614.028 35.7891H616.428C616.428 32.9767 616.063 30.3565 615.321 27.9371L613.026 28.641ZM614.028 35.7891C614.028 37.4908 613.878 39.3848 613.572 41.4747L615.947 41.8222C616.266 39.6412 616.428 37.629 616.428 35.7891H614.028ZM614.759 40.4484H585.931V42.8484H614.759V40.4484ZM584.746 41.8344C585.22 44.8576 586.826 47.1368 589.507 48.5666L590.637 46.449C588.63 45.3789 587.476 43.7518 587.117 41.4625L584.746 41.8344ZM589.512 48.5692C592.104 49.9365 595.307 50.5828 599.056 50.5828V48.1828C595.566 48.1828 592.779 47.5791 590.632 46.4464L589.512 48.5692ZM599.056 50.5828C602.565 50.5828 606.969 49.7235 612.229 48.0664L611.508 45.7773C606.352 47.4015 602.214 48.1828 599.056 48.1828V50.5828ZM610.669 46.9219V55.5547H613.069V46.9219H610.669ZM611.277 54.5108C608.229 56.2388 603.742 57.1672 597.689 57.1672V59.5672C603.928 59.5672 608.894 58.6206 612.461 56.5986L611.277 54.5108ZM597.689 57.1672C593.947 57.1672 590.68 56.636 587.87 55.6005L587.04 57.8526C590.167 59.0046 593.723 59.5672 597.689 59.5672V57.1672ZM587.881 55.605C585.081 54.5392 582.878 53.0975 581.228 51.3047L579.462 52.9297C581.407 55.0431 583.943 56.6743 587.028 57.8481L587.881 55.605ZM581.24 51.317C579.574 49.4559 578.312 47.3257 577.452 44.9167L575.192 45.7239C576.154 48.4191 577.575 50.8201 579.451 52.9173L581.24 51.317ZM577.456 44.927C576.619 42.5165 576.194 39.8518 576.194 36.9219H573.794C573.794 40.0857 574.254 43.02 575.188 45.7136L577.456 44.927ZM585.541 35.5438H604.759V33.1437H585.541V35.5438ZM605.959 34.3438C605.959 31.0548 605.129 28.3596 603.271 26.471L601.56 28.154C602.828 29.4425 603.559 31.4348 603.559 34.3438H605.959ZM603.271 26.471C601.44 24.6097 598.999 23.7297 596.088 23.7297V26.1297C598.489 26.1297 600.266 26.8382 601.56 28.154L603.271 26.471ZM596.088 23.7297C592.813 23.7297 590.047 24.631 587.907 26.5328L589.502 28.3266C591.112 26.895 593.268 26.1297 596.088 26.1297V23.7297ZM587.914 26.5266C585.759 28.4128 584.598 31.0334 584.344 34.2493L586.737 34.4382C586.952 31.7166 587.901 29.7278 589.495 28.3328L587.914 26.5266ZM624.33 57H623.13V58.2H624.33V57ZM624.33 17.1562V15.9562H623.13V17.1562H624.33ZM634.017 17.1562L635.211 17.0342L635.101 15.9562H634.017V17.1562ZM634.72 24.0312L633.527 24.1533L633.931 28.1047L635.782 24.5906L634.72 24.0312ZM650.736 16.1016H651.936V15.1646L651.027 14.9374L650.736 16.1016ZM650.736 27.1562L650.484 28.3296L651.936 28.6406V27.1562H650.736ZM639.525 28.1719L640.062 29.2452L640.067 29.2423L639.525 28.1719ZM635.384 32.7422L634.27 32.2965L634.184 32.5111V32.7422H635.384ZM635.384 57V58.2H636.584V57H635.384ZM625.53 57V17.1562H623.13V57H625.53ZM624.33 18.3563H634.017V15.9562H624.33V18.3563ZM632.823 17.2783L633.527 24.1533L635.914 23.9092L635.211 17.0342L632.823 17.2783ZM635.782 24.5906C637.087 22.1133 638.855 20.292 641.085 19.0796C643.324 17.8619 646.095 17.2234 649.447 17.2234V14.8234C645.794 14.8234 642.608 15.5196 639.938 16.9712C637.259 18.4281 635.166 20.6106 633.659 23.4719L635.782 24.5906ZM649.447 17.2234C649.759 17.2234 650.003 17.2298 650.185 17.2408C650.384 17.2528 650.453 17.2676 650.445 17.2657L651.027 14.9374C650.651 14.8434 650.071 14.8234 649.447 14.8234V17.2234ZM649.536 16.1016V27.1562H651.936V16.1016H649.536ZM650.987 25.9829C649.441 25.6516 647.833 25.4875 646.166 25.4875V27.8875C647.675 27.8875 649.114 28.0359 650.484 28.3296L650.987 25.9829ZM646.166 25.4875C643.528 25.4875 641.125 26.0162 638.983 27.1014L640.067 29.2423C641.832 28.3484 643.855 27.8875 646.166 27.8875V25.4875ZM638.988 27.0986C636.787 28.1994 635.208 29.9527 634.27 32.2965L636.499 33.1879C637.228 31.365 638.409 30.0714 640.062 29.2452L638.988 27.0986ZM634.184 32.7422V57H636.584V32.7422H634.184ZM635.384 55.8H624.33V58.2H635.384V55.8Z" fill="url(#paint0_linear_0_324)"/>
<defs>
<linearGradient id="paint0_linear_0_324" x1="1.77236" y1="8.59568" x2="680.945" y2="62.6082" gradientUnits="userSpaceOnUse">
<stop stop-color="#5EC7EC"/>
<stop offset="1" stop-color="white"/>
</linearGradient>
</defs>
</svg>
