<svg width="113" height="44" viewBox="0 0 113 44" fill="none" xmlns="http://www.w3.org/2000/svg">
<path d="M16.9686 11.2486C15.5796 11.2534 14.1969 11.437 12.8548 11.7949C13.1006 11.3306 13.3465 10.9373 13.5596 10.5931C14.0403 9.81185 14.4173 9.19451 14.4173 8.44059V2.56222C14.4173 0.333254 9.89925 0 7.20591 0C4.51257 0 0 0.333254 0 2.56222V8.42419L1.43135 25.8735C1.45866 26.1467 1.46412 26.4198 1.47504 26.7203V26.7695C1.54542 28.709 1.99871 30.6154 2.80879 32.379C3.61887 34.1427 4.76976 35.7286 6.19522 37.0457C9.11835 39.7678 12.9688 41.274 16.9631 41.2578C25.5075 41.2578 32.4621 34.5272 32.4621 26.2505C32.4621 17.9738 25.513 11.2486 16.9686 11.2486Z" fill="#1F0242"/>
<path d="M14.2808 37.3517C19.2954 37.3517 23.3605 33.2865 23.3605 28.2719C23.3605 23.2573 19.2954 19.1921 14.2808 19.1921C9.26614 19.1921 5.20099 23.2573 5.20099 28.2719C5.20099 33.2865 9.26614 37.3517 14.2808 37.3517Z" fill="url(#paint0_linear_0_404)"/>
<path d="M14.2807 19.1865C13.9686 19.1862 13.6568 19.2027 13.3465 19.2357C12.2066 19.7147 11.1967 20.4574 10.3998 21.4028C9.60288 22.3481 9.04174 23.4691 8.7625 24.6736C8.48327 25.8781 8.49392 27.1317 8.79356 28.3313C9.09321 29.5308 9.6733 30.6421 10.4861 31.5738C11.299 32.5055 12.3213 33.231 13.4692 33.6906C14.617 34.1502 15.8576 34.3307 17.0888 34.2174C18.3201 34.1041 19.5068 33.7002 20.5515 33.0389C21.5962 32.3776 22.469 31.4777 23.0982 30.4133C23.4233 29.0777 23.4408 27.6856 23.1495 26.3422C22.8582 24.9988 22.2657 23.7391 21.4166 22.658C20.5675 21.5769 19.4841 20.7028 18.248 20.1014C17.0119 19.5001 15.6553 19.1872 14.2807 19.1865Z" fill="#1F0242"/>
<path d="M15.5208 32.0306C18.4022 32.0306 20.7381 29.6947 20.7381 26.8133C20.7381 23.9318 18.4022 21.5959 15.5208 21.5959C12.6393 21.5959 10.3035 23.9318 10.3035 26.8133C10.3035 29.6947 12.6393 32.0306 15.5208 32.0306Z" fill="#FF5855"/>
<path d="M15.4006 38.2149C15.4006 38.2149 15.4006 38.2149 15.4006 38.1876C17.9575 38.0939 20.3805 37.0208 22.1682 35.1903C23.9559 33.3599 24.9715 30.9123 25.0049 28.3539C25.0049 22.8907 20.4322 18.5202 14.7942 18.5202C13.4306 18.5167 12.0794 18.7803 10.817 19.296L11.0192 17.6024C12.5215 16.9179 14.1539 16.5657 15.8049 16.5699C22.0001 16.5699 27.0262 21.4211 27.0262 27.4033C27.0262 33.3854 22.0001 38.2422 15.8049 38.2422" fill="url(#paint1_linear_0_404)"/>
<path d="M4.74753 31.0799C5.63857 33.3604 7.2022 35.316 9.23083 36.6869C11.2595 38.0579 13.6571 38.7794 16.1054 38.7556C22.7814 38.7556 28.1899 33.5274 28.1899 27.0863C28.1899 20.6452 22.7814 15.4169 16.1054 15.4169C14.3104 15.4129 12.5358 15.7987 10.9045 16.5478L11.3962 13.5103C13.165 12.7873 15.0578 12.4161 16.9686 12.4177C24.8793 12.4177 31.293 18.6074 31.293 26.2395C31.293 33.8715 24.8793 40.0667 16.9686 40.0667C9.22186 40.0667 2.9119 34.1338 2.65513 26.7148C2.65513 26.3979 2.65514 26.081 2.60597 25.7696L1.17462 8.4132C1.17462 7.64836 3.9062 7.03101 7.1841 7.03101C10.462 7.03101 13.2209 7.64836 13.2209 8.4132C13.2209 9.79538 10.096 11.6911 10.096 19.0008L10.1233 19.3231C7.93256 20.2741 6.17038 22.0008 5.17514 24.1718C4.17991 26.3428 4.02179 28.8049 4.73114 31.0853L4.74753 31.0799Z" fill="url(#paint2_linear_0_404)"/>
<path d="M13.2427 2.56213C13.2427 1.79728 10.5385 1.17993 7.20595 1.17993C3.87342 1.17993 1.19647 1.79728 1.19647 2.56213V8.42409C3.07788 7.51426 5.14067 7.04166 7.23052 7.04166C9.32038 7.04166 11.3832 7.51426 13.2646 8.42409" fill="url(#paint3_linear_0_404)"/>
<path d="M19.5472 14.2698C19.5472 14.2698 26.103 16.3458 29.1842 22.4973C29.1842 22.5137 27.731 15.4607 19.5472 14.2698Z" fill="white"/>
<path d="M7.2059 7.35352C6.76885 7.35352 6.33726 7.35351 5.92206 7.41907C6.27716 7.91622 7.26054 9.65895 7.26054 13.6471V20.7492L8.23843 19.886C8.23843 19.886 8.23843 16.7283 8.23843 13.3302C8.23843 9.74092 10.1232 8.30411 10.8553 7.86705C9.66682 7.53559 8.4397 7.36291 7.2059 7.35352V7.35352Z" fill="white"/>
<path d="M15.04 36.6194C13.308 36.6179 11.6123 36.1229 10.1515 35.1922C8.69072 34.2616 7.52543 32.9339 6.79215 31.3647C6.05888 29.7956 5.78799 28.0499 6.01124 26.3323C6.23449 24.6147 6.94263 22.9963 8.05268 21.6667C7.15305 22.4956 6.43028 23.4978 5.92781 24.6131C5.42535 25.7283 5.15359 26.9337 5.12881 28.1567C5.10404 29.3797 5.32678 30.595 5.78367 31.7297C6.24055 32.8645 6.92216 33.8951 7.78749 34.7597C8.65282 35.6243 9.68402 36.305 10.8191 36.7609C11.9542 37.2168 13.1698 37.4386 14.3928 37.4128C15.6157 37.3869 16.8208 37.1141 17.9357 36.6107C19.0505 36.1073 20.0521 35.3837 20.8802 34.4833C19.2473 35.8635 17.1781 36.6203 15.04 36.6194Z" fill="white"/>
<path d="M17.9957 39.0287C21.1713 38.7028 24.1213 37.2375 26.2997 34.9041C26.2997 34.9041 24.2619 39.056 17.9957 39.0287Z" fill="white"/>
<path d="M15.6957 25.4857C15.8963 25.5631 16.0814 25.676 16.242 25.819L18.176 22.7323C17.3857 22.2081 16.4583 21.9287 15.5099 21.9292C15.8159 22.3335 16.5097 23.5955 15.6957 25.4857Z" fill="#1F0242"/>
<path d="M16.608 26.2341C16.7388 26.4561 16.819 26.7042 16.8429 26.9607L20.3994 26.6766C20.3889 26.4183 20.3616 26.161 20.3175 25.9063C20.1205 25.2728 19.851 24.6642 19.5144 24.0925C19.5144 24.0925 19.7603 25.8025 16.608 26.2341Z" fill="#1F0242"/>
<path d="M15.488 28.8618C15.3681 28.8901 15.2453 28.9047 15.122 28.9055C15.051 28.9055 14.9854 28.9055 14.9144 28.9055L14.827 31.6699C15.0548 31.7048 15.2849 31.723 15.5154 31.7245C16.3496 31.7244 17.1698 31.51 17.8973 31.1017C17.1543 31.1236 15.6738 30.9433 15.488 28.8618Z" fill="#1F0242"/>
<path d="M15.1276 28.3812C15.8034 28.3812 16.3513 27.8259 16.3513 27.141C16.3513 26.4561 15.8034 25.9009 15.1276 25.9009C14.4517 25.9009 13.9038 26.4561 13.9038 27.141C13.9038 27.8259 14.4517 28.3812 15.1276 28.3812Z" fill="#1F0242"/>
<path d="M16.8648 27.4141C16.8134 27.7372 16.6735 28.0398 16.4605 28.2882L18.755 30.4734C19.5691 29.7619 20.1259 28.8018 20.3393 27.7418C20.2902 27.8019 19.3888 29.43 16.8648 27.4141Z" fill="#1F0242"/>
<path d="M13.7399 28.097C13.6298 28.0086 13.5466 27.8914 13.4995 27.7583L11.2596 29.2061C11.3838 29.4288 11.5263 29.6407 11.6857 29.8398C11.8556 30.0336 12.0382 30.2161 12.232 30.3861C12.792 30.9007 13.466 31.2752 14.1988 31.4787C13.8327 31.2383 12.2484 29.8015 13.7399 28.097Z" fill="#1F0242"/>
<path d="M13.4995 26.5291C13.5785 26.3117 13.7012 26.1128 13.86 25.9446L11.0192 24.9011C10.762 25.5057 10.6301 26.1562 10.6313 26.8132C10.6337 27.1046 10.6611 27.3952 10.7132 27.6819C10.9823 27.2063 11.4028 26.8344 11.9078 26.6255C12.4127 26.4166 12.973 26.3827 13.4995 26.5291V26.5291Z" fill="#1F0242"/>
<path d="M14.6139 25.4638C14.7784 25.4118 14.9495 25.3842 15.122 25.3819H15.2313L14.1386 22.104C13.3157 22.3527 12.5732 22.8144 11.9861 23.4425C12.545 23.5675 13.0698 23.8132 13.5237 24.1623C13.9777 24.5115 14.3498 24.9557 14.6139 25.4638V25.4638Z" fill="#1F0242"/>
<path d="M42.8421 23.6008V10.6531H45.5737V15.2913C46.0034 14.8649 46.5134 14.5281 47.0742 14.3004C47.635 14.0726 48.2355 13.9585 48.8407 13.9646C49.446 13.9707 50.044 14.0969 50.6001 14.3359C51.1562 14.5749 51.6594 14.9219 52.0804 15.3568C52.9361 16.4227 53.368 17.7671 53.2932 19.1319C53.2997 19.8239 53.1927 20.5123 52.9763 21.1697C52.7922 21.7369 52.501 22.2636 52.1186 22.7212C51.749 23.1477 51.3093 23.508 50.8184 23.7865C50.3063 24.0774 49.754 24.291 49.1794 24.4202C48.5682 24.5586 47.9431 24.6265 47.3165 24.6224C45.7659 24.6344 44.2338 24.2846 42.8421 23.6008V23.6008ZM45.5737 21.9618C46.1653 22.2154 46.8041 22.3402 47.4476 22.3278C48.2521 22.3634 49.0379 22.0785 49.6328 21.5357C49.9339 21.2228 50.1655 20.8499 50.3124 20.4413C50.4593 20.0327 50.5181 19.5976 50.4851 19.1647C50.4936 18.7179 50.4271 18.2729 50.2884 17.848C50.1825 17.5139 49.9947 17.2116 49.7421 16.9685C49.5225 16.7633 49.2644 16.6036 48.9827 16.4987C48.7018 16.3922 48.4036 16.3385 48.1032 16.3402C47.1928 16.3105 46.3042 16.6223 45.612 17.2143L45.5737 21.9618Z" fill="white"/>
<path d="M54.2874 19.345C54.2817 18.6164 54.4075 17.8927 54.6589 17.2089C54.8931 16.5715 55.2536 15.988 55.7188 15.4934C56.2019 14.9953 56.7871 14.6076 57.4342 14.3571C58.1604 14.076 58.9337 13.9369 59.7123 13.9473C60.5347 13.9322 61.3518 14.0808 62.1161 14.3844C62.7719 14.6366 63.3594 15.0388 63.8315 15.559C64.2674 16.0471 64.605 16.6147 64.8258 17.2307C65.0579 17.8697 65.1745 18.5449 65.17 19.2248C65.1827 20.1738 64.9633 21.1115 64.5308 21.9564C64.1023 22.7712 63.4454 23.4433 62.6406 23.8903C61.7483 24.382 60.7418 24.6289 59.7233 24.606C58.9058 24.6151 58.0945 24.4628 57.3359 24.158C56.6959 23.9069 56.1207 23.5148 55.6532 23.0107C55.2154 22.5231 54.8759 21.9555 54.6534 21.339C54.4132 20.7016 54.2893 20.0262 54.2874 19.345V19.345ZM57.1228 19.1865C57.1203 19.5828 57.1699 19.9777 57.2703 20.3611C57.3597 20.7147 57.5114 21.0496 57.7183 21.35C57.9266 21.6491 58.2064 21.8913 58.5323 22.0547C58.9001 22.2315 59.3043 22.3194 59.7123 22.3114C60.1415 22.3203 60.5673 22.2326 60.958 22.0547C61.2906 21.8995 61.5741 21.6556 61.7774 21.35C61.9655 21.0617 62.1092 20.7468 62.2035 20.4157C62.297 20.0722 62.3429 19.7174 62.3401 19.3614C62.3462 18.8438 62.2592 18.3294 62.0834 17.8426C61.9091 17.3897 61.6074 16.9969 61.2147 16.7117C60.7778 16.3986 60.2495 16.2392 59.7123 16.2583C59.3622 16.2539 59.0142 16.3131 58.6853 16.4331C58.4075 16.5309 58.1541 16.6874 57.9423 16.892C57.7486 17.0888 57.5881 17.3158 57.467 17.564C57.3447 17.8138 57.2548 18.0781 57.1993 18.3507C57.1458 18.626 57.1201 18.906 57.1228 19.1865V19.1865Z" fill="white"/>
<path d="M66.1971 19.345C66.1914 18.6164 66.3172 17.8927 66.5686 17.2089C66.8007 16.5705 67.1614 15.9866 67.6284 15.4934C68.1115 14.9953 68.6968 14.6076 69.3439 14.3571C70.0683 14.0764 70.8397 13.9374 71.6165 13.9473C72.4406 13.9322 73.2596 14.0808 74.0258 14.3844C74.6808 14.638 75.268 15.04 75.7412 15.559C76.1752 16.0485 76.5125 16.6157 76.7355 17.2307C76.9676 17.8697 77.0842 18.5449 77.0797 19.2248C77.0924 20.1738 76.873 21.1115 76.4405 21.9564C76.0102 22.7699 75.3538 23.4415 74.5503 23.8903C73.6561 24.3822 72.6478 24.6291 71.6275 24.606C70.8117 24.6151 70.0022 24.4628 69.2455 24.158C68.5949 23.9049 68.0115 23.5048 67.541 22.9889C67.1032 22.5013 66.7637 21.9336 66.5413 21.3172C66.311 20.6852 66.1945 20.0175 66.1971 19.345V19.345ZM69.027 19.1865C69.0245 19.5828 69.0741 19.9777 69.1745 20.3611C69.2682 20.7142 69.4216 21.0486 69.628 21.35C69.8363 21.6491 70.1161 21.8913 70.442 22.0547C70.8081 22.2309 71.2103 22.3188 71.6165 22.3114C72.0475 22.3208 72.4751 22.233 72.8676 22.0547C73.1936 21.9015 73.4741 21.6662 73.6816 21.3718C73.8697 21.0835 74.0134 20.7686 74.1078 20.4376C74.1985 20.0935 74.2444 19.7391 74.2443 19.3832C74.2513 18.8651 74.1624 18.3502 73.9821 17.8645C73.8027 17.3853 73.4773 16.9745 73.0518 16.6903C72.6264 16.406 72.1225 16.2625 71.6111 16.2801C71.2628 16.2758 70.9166 16.335 70.5895 16.455C70.3117 16.5527 70.0583 16.7093 69.8465 16.9139C69.6494 17.1078 69.4884 17.3354 69.3712 17.5858C69.2464 17.8346 69.1563 18.0993 69.1035 18.3725C69.0514 18.6407 69.0258 18.9133 69.027 19.1865V19.1865Z" fill="white"/>
<path d="M78.2052 17.258C78.1804 16.7877 78.2715 16.3185 78.4706 15.8918C78.6697 15.465 78.9706 15.0937 79.3469 14.8105C80.3153 14.1709 81.4671 13.8676 82.6248 13.9473C83.8341 13.9262 85.0309 14.1941 86.1158 14.7286V16.9521C85.6134 16.7304 85.0846 16.5743 84.5424 16.4877C83.8687 16.3441 83.1825 16.2672 82.4937 16.2583C82.3027 16.248 82.1112 16.248 81.9201 16.2583C81.7634 16.2737 81.6092 16.3085 81.4612 16.3621C81.3154 16.4107 81.1915 16.5094 81.1115 16.6407C81.0284 16.7986 80.9888 16.9759 80.9968 17.1542C80.9916 17.3407 81.0493 17.5235 81.1607 17.6732C81.2976 17.836 81.4746 17.9603 81.6743 18.0338C81.8959 18.1305 82.1265 18.2055 82.3626 18.2578L83.2422 18.4599L83.3952 18.4927L84.1982 18.6784C84.4113 18.7276 84.6517 18.7932 84.9194 18.8806C85.1446 18.9474 85.3625 19.0371 85.5695 19.1483C85.7514 19.2483 85.9233 19.3654 86.083 19.4979C86.2486 19.6304 86.3892 19.7913 86.4982 19.9732C86.6044 20.1685 86.6869 20.3757 86.7441 20.5905C86.8076 20.8516 86.8388 21.1195 86.8369 21.3882C86.8444 21.8502 86.7345 22.3065 86.5176 22.7144C86.3008 23.1224 85.9839 23.4687 85.5968 23.7209C84.636 24.3468 83.5026 24.6546 82.3572 24.6005C80.9713 24.6229 79.6025 24.292 78.38 23.639V21.3718C79.0189 21.661 79.6851 21.8861 80.3686 22.0437C81.0815 22.2367 81.8154 22.3413 82.5538 22.3551C82.9334 22.3718 83.3106 22.2869 83.6464 22.1093C83.775 22.0452 83.8828 21.9461 83.9572 21.8233C84.0317 21.7005 84.0698 21.5591 84.0671 21.4155C84.0682 21.3206 84.0465 21.2269 84.0037 21.1423C83.9609 21.0576 83.8983 20.9846 83.8213 20.9292C83.6221 20.7899 83.3945 20.6966 83.1548 20.6561L82.2151 20.4703L81.1225 20.2573C80.747 20.1874 80.3805 20.0756 80.0298 19.924C79.6967 19.782 79.3828 19.5984 79.0956 19.3777C78.8033 19.154 78.5737 18.8586 78.4291 18.52C78.2694 18.119 78.1932 17.6895 78.2052 17.258Z" fill="white"/>
<path d="M88.1754 21.3719V12.4123L90.9452 11.5V14.2698H93.9937V16.395H90.9452V20.8802C90.9304 21.0472 90.9543 21.2154 91.0149 21.3717C91.0755 21.528 91.1713 21.6683 91.2949 21.7817C91.6034 21.9891 91.9733 22.0854 92.3438 22.0548C92.8382 22.0763 93.3292 21.963 93.7642 21.7271V23.9997C93.0401 24.3884 92.2254 24.577 91.4041 24.546C89.2516 24.546 88.1754 23.488 88.1754 21.3719Z" fill="white"/>
<path d="M94.5072 19.2468C94.5011 18.5927 94.5988 17.9418 94.7967 17.3183C94.969 16.7793 95.2374 16.2758 95.5889 15.8323C95.9235 15.4248 96.322 15.0742 96.7689 14.7943C97.2146 14.5122 97.7011 14.3003 98.2112 14.1661C98.7467 14.0294 99.2975 13.9615 99.8502 13.9639C100.599 13.9493 101.343 14.0887 102.035 14.3737C102.619 14.6021 103.133 14.9787 103.527 15.4663C103.887 15.9421 104.159 16.4787 104.33 17.0506C104.51 17.6625 104.599 18.2976 104.592 18.9354C104.588 19.4273 104.55 19.9184 104.477 20.405H97.2825C97.3216 20.7163 97.4368 21.0132 97.6178 21.2695C97.7988 21.5258 98.0401 21.7336 98.3205 21.8746C99.0198 22.2109 99.7904 22.3722 100.566 22.3444C101.643 22.3029 102.709 22.1041 103.729 21.7544V23.9397C102.633 24.4695 101.421 24.712 100.205 24.6444C99.3296 24.6614 98.458 24.5208 97.6321 24.2292C96.9527 23.9913 96.3401 23.5942 95.8457 23.071C95.3953 22.5794 95.0495 22.0014 94.8295 21.372C94.6014 20.6872 94.4924 19.9684 94.5072 19.2468V19.2468ZM97.1841 18.5967H101.992C102.038 17.951 101.828 17.3132 101.407 16.8212C101.199 16.6169 100.951 16.458 100.678 16.3546C100.405 16.2511 100.114 16.2054 99.8228 16.2202C99.1497 16.1867 98.4892 16.4114 97.9763 16.8485C97.7322 17.0713 97.5354 17.3409 97.3975 17.6412C97.2595 17.9415 97.1833 18.2664 97.1732 18.5967H97.1841Z" fill="white"/>
<path d="M106.379 24.2784V14.2699H108.963L109.061 15.9416C109.711 14.6359 110.919 13.9858 112.672 13.9858C112.781 13.9771 112.891 13.9771 113 13.9858V16.7174C112.623 16.6379 112.238 16.5976 111.853 16.5972C111.285 16.591 110.724 16.7183 110.214 16.9687C109.731 17.2099 109.358 17.626 109.17 18.1323V24.2675L106.379 24.2784Z" fill="white"/>
<path d="M42.6564 43.8857V30.113H45.2404L45.3005 31.681C45.6054 31.081 46.0767 30.5815 46.658 30.2424C47.2393 29.9033 47.9061 29.7389 48.5784 29.7689C49.2911 29.7565 49.9984 29.8942 50.6544 30.1731C51.2252 30.4108 51.7283 30.7862 52.1186 31.2658C52.5037 31.7533 52.7928 32.3094 52.9708 32.9047C53.3713 34.2471 53.3561 35.6794 52.9271 37.013C52.7208 37.6533 52.4007 38.2511 51.982 38.7776C51.5636 39.3016 51.0285 39.7207 50.4195 40.0013C49.7572 40.307 49.0347 40.4601 48.3053 40.4493C47.7615 40.4678 47.2204 40.3656 46.7207 40.1503C46.2211 39.9349 45.7753 39.6117 45.4153 39.2037V43.9185L42.6564 43.8857ZM45.388 37.2151C46.1072 37.7936 47.0114 38.0924 47.9338 38.0565C48.3235 38.0574 48.7084 37.9696 49.0592 37.7997C49.3746 37.6439 49.6439 37.4085 49.8404 37.1168C50.0445 36.8182 50.1926 36.485 50.2775 36.1335C50.377 35.7426 50.4248 35.3403 50.4195 34.937C50.4583 34.187 50.2385 33.4464 49.7967 32.8391C49.5702 32.5704 49.2833 32.3591 48.9596 32.2224C48.6358 32.0857 48.2843 32.0274 47.9338 32.0525C47.452 32.0546 46.9746 32.1434 46.5243 32.3147C46.1057 32.4556 45.7195 32.6785 45.388 32.9703V37.2151Z" fill="white"/>
<path d="M54.2874 35.1391C54.2821 34.4105 54.408 33.6869 54.6589 33.0029C54.8944 32.3663 55.2547 31.7831 55.7187 31.2875C56.2033 30.7911 56.7881 30.4037 57.4342 30.1512C58.1604 29.8701 58.9337 29.731 59.7123 29.7414C60.5344 29.729 61.351 29.8775 62.1161 30.1785C62.7718 30.4306 63.3593 30.8329 63.8315 31.3531C64.2686 31.8424 64.6063 32.412 64.8258 33.0303C65.058 33.6674 65.1745 34.3408 65.17 35.0188C65.1827 35.9679 64.9633 36.9056 64.5308 37.7504C64.1023 38.5653 63.4454 39.2374 62.6406 39.6844C61.7492 40.1786 60.7421 40.4257 59.7232 40.4001C58.9063 40.4082 58.0956 40.258 57.3358 39.9576C56.695 39.703 56.1198 39.3071 55.6532 38.7994C55.2194 38.3211 54.8802 37.765 54.6534 37.1604C54.4107 36.5142 54.2867 35.8294 54.2874 35.1391V35.1391ZM57.1228 34.9806C57.1203 35.3769 57.1699 35.7718 57.2703 36.1552C57.3597 36.5105 57.5114 36.8471 57.7183 37.1495C57.9273 37.4466 58.207 37.6869 58.5323 37.8488C58.9001 38.0256 59.3043 38.1135 59.7123 38.1055C60.1415 38.1144 60.5672 38.0267 60.9579 37.8488C61.2902 37.6955 61.5738 37.4535 61.7774 37.1495C61.9656 36.8593 62.1092 36.5425 62.2035 36.2098C62.2969 35.8662 62.3429 35.5115 62.3401 35.1554C62.3462 34.6397 62.2592 34.127 62.0833 33.6422C61.9105 33.1869 61.6086 32.792 61.2147 32.5058C60.7767 32.195 60.2491 32.0357 59.7123 32.0524C59.3622 32.0479 59.0142 32.1072 58.6852 32.2272C58.4092 32.3286 58.1565 32.4847 57.9422 32.6861C57.7486 32.8829 57.5881 33.1099 57.467 33.3581C57.3447 33.6079 57.2548 33.8722 57.1993 34.1448C57.1457 34.4201 57.1201 34.7001 57.1228 34.9806V34.9806Z" fill="white"/>
<path d="M66.1971 35.1391C66.1918 34.4105 66.3177 33.6869 66.5686 33.0029C66.802 32.3652 67.1625 31.7816 67.6284 31.2875C68.113 30.7911 68.6978 30.4037 69.3439 30.1512C70.0683 29.8706 70.8398 29.7315 71.6165 29.7414C72.4404 29.729 73.2588 29.8774 74.0258 30.1785C74.6808 30.4321 75.268 30.8341 75.7413 31.3531C76.1764 31.8438 76.5139 32.413 76.7356 33.0303C76.9677 33.6674 77.0842 34.3408 77.0797 35.0188C77.0924 35.9679 76.873 36.9056 76.4405 37.7504C76.0102 38.564 75.3538 39.2356 74.5503 39.6844C73.6571 40.1788 72.6481 40.4259 71.6275 40.4001C70.8123 40.4082 70.0034 40.2579 69.2456 39.9576C68.5945 39.7025 68.0112 39.3005 67.5411 38.783C67.1073 38.3047 66.7681 37.7486 66.5413 37.144C66.3079 36.5016 66.1913 35.8226 66.1971 35.1391V35.1391ZM69.027 34.9806C69.0245 35.3769 69.0741 35.7718 69.1745 36.1552C69.2682 36.5099 69.4215 36.8462 69.628 37.1495C69.837 37.4466 70.1167 37.6869 70.442 37.8488C70.8081 38.0249 71.2103 38.1129 71.6165 38.1055C72.0476 38.1149 72.4752 38.0271 72.8676 37.8488C73.1979 37.6923 73.4806 37.451 73.6871 37.1495C73.8753 36.8593 74.0189 36.5426 74.1132 36.2098C74.3297 35.3607 74.2859 34.4661 73.9876 33.6422C73.8188 33.1847 73.5161 32.7887 73.1189 32.5058C72.6813 32.1942 72.1535 32.0349 71.6165 32.0524C71.2682 32.048 70.922 32.1072 70.5949 32.2272C70.3189 32.3286 70.0662 32.4847 69.852 32.6861C69.6549 32.8801 69.4939 33.1076 69.3767 33.3581C69.2519 33.6068 69.1618 33.8715 69.109 34.1448C69.0536 34.4199 69.0261 34.6999 69.027 34.9806V34.9806Z" fill="white"/>
<path d="M78.6859 40.0724V27.7092H81.4557V40.0724H78.6859Z" fill="white"/>
<path d="M83.7776 12.4834H81.4175V15.0292H83.7776V12.4834Z" fill="white"/>
<path d="M83.7776 23.7156H81.4175V26.2614H83.7776V23.7156Z" fill="white"/>
<defs>
<linearGradient id="paint0_linear_0_404" x1="9.10715" y1="22.3171" x2="19.8641" y2="34.6966" gradientUnits="userSpaceOnUse">
<stop stop-color="#FF5855"/>
<stop offset="1" stop-color="#207DFF"/>
</linearGradient>
<linearGradient id="paint1_linear_0_404" x1="14.6358" y1="17.5587" x2="22.9944" y2="35.4178" gradientUnits="userSpaceOnUse">
<stop stop-color="#FF5855"/>
<stop offset="1" stop-color="#207DFF"/>
</linearGradient>
<linearGradient id="paint2_linear_0_404" x1="-0.966936" y1="10.1996" x2="17.9411" y2="27.119" gradientUnits="userSpaceOnUse">
<stop stop-color="#5A0FAE"/>
<stop offset="1" stop-color="#207DFF"/>
</linearGradient>
<linearGradient id="paint3_linear_0_404" x1="1.15277" y1="4.80201" x2="12.3795" y2="4.80201" gradientUnits="userSpaceOnUse">
<stop stop-color="#5A0FAE"/>
<stop offset="1" stop-color="#207DFF"/>
</linearGradient>
</defs>
</svg>
