<svg width="1239" height="1462" viewBox="0 0 1239 1462" fill="none" xmlns="http://www.w3.org/2000/svg">
<g filter="url(#filter0_f_0_10)">
<path d="M627.699 512.004C595.303 512.054 563.053 516.338 531.768 524.747C537.501 513.788 543.234 504.613 548.202 496.584C559.414 478.361 568.204 463.961 568.204 446.375V309.766C568.204 257.773 462.846 250 400.038 250C337.231 250 232 257.773 232 309.766V446.121L265.378 853.144C266.015 859.516 266.142 865.887 266.397 872.896V874.043C268.038 919.284 278.609 963.753 297.5 1004.89C316.39 1046.03 343.229 1083.02 376.47 1113.75C444.636 1177.24 534.426 1212.38 627.571 1212C826.822 1212 989 1055 989 861.937C989 668.874 826.95 512.004 627.699 512.004Z" fill="#1F0242"/>
<path d="M565.019 1120.88C681.958 1120.88 776.755 1026.06 776.755 909.087C776.755 792.116 681.958 697.292 565.019 697.292C448.081 697.292 353.283 792.116 353.283 909.087C353.283 1026.06 448.081 1120.88 565.019 1120.88Z" fill="url(#paint0_linear_0_10)"/>
<path d="M565.019 697.292C557.742 697.285 550.47 697.668 543.234 698.439C516.727 709.656 493.254 726.995 474.739 749.036C456.223 771.076 443.192 797.192 436.712 825.242C430.232 853.292 430.489 882.478 437.46 910.41C444.432 938.342 457.92 964.224 476.82 985.936C495.72 1007.65 519.493 1024.57 546.193 1035.32C572.893 1046.07 601.759 1050.34 630.426 1047.78C659.093 1045.21 686.745 1035.89 711.116 1020.58C735.488 1005.27 755.886 984.397 770.639 959.678C778.219 928.523 778.629 896.052 771.836 864.716C765.043 833.379 751.225 803.994 731.425 778.777C711.625 753.56 686.36 733.17 657.534 719.143C628.709 705.116 597.075 697.819 565.019 697.802L565.019 697.292Z" fill="#1F0242"/>
<path d="M593.938 996.762C661.132 996.762 715.603 942.275 715.603 875.062C715.603 807.85 661.132 753.363 593.938 753.363C526.744 753.363 472.273 807.85 472.273 875.062C472.273 942.275 526.744 996.762 593.938 996.762Z" fill="#FF5855"/>
<path d="M591.136 1141.02C650.75 1138.8 707.235 1113.76 748.918 1071.07C790.6 1028.38 814.294 971.303 815.102 911.636C815.102 784.202 708.47 681.618 576.995 681.618C545.201 681.598 513.704 687.744 484.248 699.714L488.962 660.209C523.996 644.242 562.064 636.027 600.563 636.124C745.033 636.124 862.239 749.286 862.239 888.953C862.239 1028.62 745.033 1141.65 600.563 1141.65" fill="url(#paint1_linear_0_10)"/>
<path d="M342.709 974.588C363.488 1027.78 399.951 1073.4 447.258 1105.38C494.564 1137.36 550.476 1154.19 607.57 1153.63C763.251 1153.63 889.375 1031.81 889.375 881.434C889.375 731.062 763.251 609.236 607.57 609.236C565.717 609.205 524.349 618.203 486.287 635.615L497.88 564.634C539.127 547.769 583.267 539.111 627.827 539.147C812.299 539.147 961.865 683.529 961.865 861.554C961.865 1039.58 812.299 1184.09 627.827 1184.09C447.176 1184.09 300.031 1045.7 294.043 872.641C294.043 865.378 294.043 857.986 292.897 850.595L259.518 445.738C259.518 427.898 323.218 413.498 399.656 413.498C476.095 413.498 540.432 427.898 540.432 445.738C540.432 477.979 467.56 522.198 467.56 692.705L468.197 700.224C417.11 722.406 376.017 762.684 352.809 813.324C329.6 863.964 325.913 921.395 342.454 974.588H342.709Z" fill="url(#paint2_linear_0_10)"/>
<path d="M540.813 309.767C540.813 291.926 477.751 277.526 400.038 277.526C322.325 277.526 259.9 291.926 259.9 309.767V446.121C303.774 424.898 351.877 413.875 400.611 413.875C449.346 413.875 497.449 424.898 541.322 446.121" fill="url(#paint3_linear_0_10)"/>
<path d="M687.83 582.857C687.83 582.857 840.708 631.282 912.561 774.772C912.561 774.772 878.673 610.255 687.83 582.857Z" fill="white"/>
<path d="M400.038 421.143C389.846 421.143 379.781 421.78 370.099 422.673C378.38 434.269 401.312 474.921 401.312 567.947V733.611L424.116 713.476C424.116 713.476 424.116 639.82 424.116 560.556C424.116 476.832 468.068 443.317 485.14 433.122C457.413 425.45 428.805 421.423 400.038 421.143Z" fill="white"/>
<path d="M582.727 1103.81C542.337 1103.77 502.793 1092.22 468.729 1070.52C434.664 1048.81 407.49 1017.84 390.391 981.235C373.291 944.633 366.974 903.913 372.18 863.849C377.386 823.784 393.9 786.034 419.785 755.02C399.189 774.449 382.699 797.814 371.293 823.733C359.886 849.651 353.796 877.596 353.381 905.911C352.966 934.227 358.235 962.338 368.877 988.58C379.52 1014.82 395.318 1038.66 415.337 1058.68C435.355 1078.71 459.187 1094.51 485.422 1105.16C511.656 1115.8 539.759 1121.07 568.067 1120.66C596.375 1120.24 624.311 1114.15 650.223 1102.74C676.134 1091.33 699.493 1074.84 718.916 1054.23C680.802 1086.34 632.553 1103.9 582.727 1103.81Z" fill="white"/>
<path d="M651.65 1160C725.703 1152.4 794.496 1118.22 845.295 1063.79C845.295 1063.79 797.776 1160.64 651.65 1160Z" fill="white"/>
<path d="M598.015 844.096C602.693 845.901 607.009 848.534 610.755 851.869L655.854 779.869C637.368 767.763 615.779 761.258 593.684 761.136C600.818 770.567 616.997 800.003 598.015 844.096Z" fill="#1F0242"/>
<path d="M619.291 861.554C622.339 866.733 624.21 872.52 624.769 878.503L707.705 871.876C707.46 865.852 706.822 859.85 705.794 853.909C701.177 839.141 694.893 824.947 687.066 811.6C687.066 811.6 692.8 851.487 619.291 861.554Z" fill="#1F0242"/>
<path d="M593.174 922.85C590.376 923.51 587.513 923.852 584.638 923.87C582.982 923.87 581.453 923.87 579.797 923.87L577.759 988.351C583.072 989.165 588.437 989.591 593.811 989.625C613.265 989.624 632.392 984.621 649.357 975.098C632.031 975.608 597.505 971.402 593.174 922.85Z" fill="#1F0242"/>
<path d="M584.766 911.636C600.526 911.636 613.303 898.685 613.303 882.708C613.303 866.732 600.526 853.781 584.766 853.781C569.005 853.781 556.229 866.732 556.229 882.708C556.229 898.685 569.005 911.636 584.766 911.636Z" fill="#1F0242"/>
<path d="M625.278 889.08C624.08 896.618 620.817 903.676 615.851 909.47L669.358 960.443C688.342 943.845 701.327 921.451 706.303 896.727C705.157 898.128 684.136 936.103 625.278 889.08Z" fill="#1F0242"/>
<path d="M552.407 905.01C549.804 902.983 547.855 900.235 546.801 897.109L494.568 930.879C497.464 936.074 500.788 941.018 504.505 945.66C508.468 950.183 512.724 954.44 517.245 958.404C530.342 970.354 546.046 979.081 563.108 983.891C554.572 978.284 517.627 944.769 552.407 905.01Z" fill="#1F0242"/>
<path d="M546.801 868.436C548.643 863.364 551.505 858.723 555.209 854.8L488.962 830.46C482.965 844.564 479.888 859.736 479.917 875.062C479.967 881.859 480.606 888.639 481.828 895.325C488.102 884.231 497.908 875.557 509.683 870.684C521.458 865.811 534.525 865.019 546.801 868.436Z" fill="#1F0242"/>
<path d="M572.79 843.714C576.603 842.398 580.605 841.71 584.638 841.675H587.186L561.707 765.214C542.517 771.016 525.201 781.787 511.512 796.436C524.56 799.357 536.808 805.105 547.395 813.273C557.983 821.442 566.651 831.832 572.79 843.714Z" fill="#1F0242"/>
</g>
<defs>
<filter id="filter0_f_0_10" x="-18" y="0" width="1257" height="1462" filterUnits="userSpaceOnUse" color-interpolation-filters="sRGB">
<feFlood flood-opacity="0" result="BackgroundImageFix"/>
<feBlend mode="normal" in="SourceGraphic" in2="BackgroundImageFix" result="shape"/>
<feGaussianBlur stdDeviation="125" result="effect1_foregroundBlur_0_10"/>
</filter>
<linearGradient id="paint0_linear_0_10" x1="394.832" y1="415.543" x2="967.497" y2="934.146" gradientUnits="userSpaceOnUse">
<stop stop-color="#FF5855"/>
<stop offset="1" stop-color="#207DFF"/>
</linearGradient>
<linearGradient id="paint1_linear_0_10" x1="410.343" y1="293.894" x2="769.219" y2="1100.63" gradientUnits="userSpaceOnUse">
<stop stop-color="#FF5855"/>
<stop offset="1" stop-color="#207DFF"/>
</linearGradient>
<linearGradient id="paint2_linear_0_10" x1="178.036" y1="342.43" x2="714.056" y2="756.423" gradientUnits="userSpaceOnUse">
<stop stop-color="#5A0FAE"/>
<stop offset="1" stop-color="#207DFF"/>
</linearGradient>
<linearGradient id="paint3_linear_0_10" x1="229.258" y1="729.909" x2="933.484" y2="729.909" gradientUnits="userSpaceOnUse">
<stop stop-color="#5A0FAE"/>
<stop offset="1" stop-color="#207DFF"/>
</linearGradient>
</defs>
</svg>
