<svg width="50" height="29" viewBox="0 0 50 29" fill="none" xmlns="http://www.w3.org/2000/svg">
<path d="M14.1667 28.3333C21.9907 28.3333 28.3333 21.9907 28.3333 14.1667C28.3333 6.34263 21.9907 0 14.1667 0C6.34263 0 0 6.34263 0 14.1667C0 21.9907 6.34263 28.3333 14.1667 28.3333Z" fill="#5EC7EC"/>
<path d="M36.6667 26.6667C40.3486 26.6667 43.3333 21.0702 43.3333 14.1667C43.3333 7.26311 40.3486 1.66667 36.6667 1.66667C32.9848 1.66667 30 7.26311 30 14.1667C30 21.0702 32.9848 26.6667 36.6667 26.6667Z" fill="#5EC7EC"/>
<path d="M47.5 25C48.8807 25 50 20.1497 50 14.1667C50 8.18358 48.8807 3.33333 47.5 3.33333C46.1193 3.33333 45 8.18358 45 14.1667C45 20.1497 46.1193 25 47.5 25Z" fill="#5EC7EC"/>
</svg>
