<svg width="14" height="18" viewBox="0 0 14 18" fill="none" xmlns="http://www.w3.org/2000/svg">
<path d="M7.07052 5.20436C6.61297 5.20527 6.15671 5.25438 5.70883 5.35095C5.60352 5.36864 5.50065 5.39139 5.40024 5.41414V0.639464C5.40024 0.285597 4.18794 0 2.70624 0C1.22454 0 0 0.285597 0 0.639464V3.35162L0.64166 11.3818C0.64166 11.4324 0.64166 11.483 0.64166 11.5335C0.644242 11.8186 0.665519 12.1032 0.705339 12.3853C0.705339 12.4435 0.722484 12.5016 0.729831 12.5597C0.749424 12.6886 0.771461 12.8125 0.80085 12.9363C0.830239 13.0602 0.852287 13.1613 0.884125 13.2725C0.903718 13.3433 0.920859 13.4115 0.942901 13.4798C0.991883 13.6365 1.04576 13.7882 1.10454 13.9373C1.10454 13.96 1.12413 13.9828 1.13148 14.0055C1.63391 15.1981 2.46507 16.2118 3.5215 16.9206C4.57793 17.6293 5.81299 18.0018 7.07297 17.9916C10.6193 17.9916 13.4945 15.1278 13.4945 11.5942C13.4945 8.06057 10.6168 5.20436 7.07052 5.20436ZM6.41906 14.276C5.79895 14.2753 5.20443 14.0208 4.76594 13.5682C4.32746 13.1157 4.08083 12.5021 4.08018 11.8621C4.08018 11.2217 4.32652 10.6074 4.76507 10.1544C5.20363 9.70126 5.79853 9.44638 6.41906 9.44571C7.04002 9.44571 7.63555 9.70029 8.07463 10.1535C8.51372 10.6066 8.76039 11.2212 8.76039 11.8621C8.75974 12.5025 8.51278 13.1165 8.07377 13.5691C7.63475 14.0218 7.0396 14.276 6.41906 14.276Z" fill="#207DFF"/>
<path d="M5.86559 8.33362C4.78606 8.33362 3.75073 8.77622 2.98739 9.56404C2.22404 10.3519 1.7952 11.4204 1.7952 12.5345C1.7952 13.6487 2.22404 14.7172 2.98739 15.505C3.75073 16.2928 4.78606 16.7354 5.86559 16.7354C6.9447 16.7348 7.97938 16.2919 8.7422 15.5041C9.50502 14.7164 9.93352 13.6482 9.93352 12.5345C9.93352 11.4208 9.50502 10.3527 8.7422 9.56494C7.97938 8.77719 6.9447 8.33429 5.86559 8.33362ZM6.41908 14.2761C5.79897 14.2754 5.20444 14.0209 4.76596 13.5683C4.32747 13.1158 4.08085 12.5022 4.0802 11.8622C4.0802 11.2217 4.32654 10.6075 4.76509 10.1544C5.20365 9.70133 5.79854 9.44645 6.41908 9.44578C7.04004 9.44578 7.63557 9.70036 8.07465 10.1535C8.51373 10.6067 8.76041 11.2213 8.76041 11.8622C8.75976 12.5026 8.5128 13.1166 8.07378 13.5692C7.63477 14.0218 7.03961 14.2761 6.41908 14.2761Z" fill="#553D90"/>
</svg>
