<svg width="70" height="70" viewBox="0 0 70 70" fill="none" xmlns="http://www.w3.org/2000/svg">
<g clip-path="url(#clip0_49_111)">
<path d="M35 70C54.33 70 70 54.33 70 35C70 15.67 54.33 0 35 0C15.67 0 0 15.67 0 35C0 54.33 15.67 70 35 70Z" fill="#FF0420"/>
<path d="M24.794 44.296C22.708 44.296 21 43.806 19.67 42.826C18.354 41.832 17.696 40.404 17.696 38.57C17.696 38.178 17.738 37.716 17.822 37.156C18.046 35.896 18.368 34.384 18.788 32.606C19.978 27.79 23.058 25.382 28.014 25.382C29.358 25.382 30.576 25.606 31.64 26.068C32.704 26.502 33.544 27.174 34.16 28.07C34.776 28.952 35.084 30.002 35.084 31.22C35.084 31.584 35.042 32.046 34.958 32.606C34.692 34.16 34.384 35.686 34.006 37.156C33.39 39.55 32.34 41.356 30.828 42.546C29.33 43.722 27.314 44.296 24.794 44.296ZM25.172 40.516C26.152 40.516 26.978 40.222 27.664 39.648C28.364 39.074 28.868 38.192 29.162 36.988C29.568 35.336 29.876 33.908 30.086 32.676C30.156 32.312 30.198 31.934 30.198 31.542C30.198 29.946 29.372 29.148 27.706 29.148C26.726 29.148 25.886 29.442 25.186 30.016C24.5 30.59 24.01 31.472 23.716 32.676C23.394 33.852 23.086 35.28 22.764 36.988C22.694 37.338 22.652 37.702 22.652 38.094C22.638 39.718 23.492 40.516 25.172 40.516Z" fill="white"/>
<path d="M36.302 44.044C36.106 44.044 35.966 43.9879 35.854 43.8619C35.77 43.7219 35.742 43.5679 35.77 43.3859L39.396 26.3059C39.424 26.1099 39.522 25.9559 39.69 25.8299C39.844 25.7039 40.012 25.6479 40.194 25.6479H47.18C49.126 25.6479 50.68 26.054 51.856 26.852C53.046 27.664 53.648 28.826 53.648 30.352C53.648 30.786 53.592 31.248 53.494 31.724C53.06 33.74 52.178 35.2239 50.834 36.1899C49.518 37.1559 47.712 37.6319 45.416 37.6319H41.874L40.67 43.3859C40.628 43.5819 40.544 43.7359 40.376 43.8619C40.222 43.9879 40.054 44.044 39.872 44.044H36.302ZM45.598 34.0059C46.34 34.0059 46.97 33.81 47.516 33.404C48.076 32.998 48.44 32.4239 48.622 31.6679C48.678 31.3739 48.706 31.108 48.706 30.884C48.706 30.38 48.552 29.988 48.258 29.722C47.964 29.442 47.446 29.3019 46.732 29.3019H43.582L42.588 34.0059H45.598Z" fill="white"/>
</g>
<defs>
<clipPath id="clip0_49_111">
<rect width="70" height="70" fill="white"/>
</clipPath>
</defs>
</svg>
