<svg width="216" height="21" viewBox="0 0 216 21" fill="none" xmlns="http://www.w3.org/2000/svg">
<path d="M20.7494 -0.00012207C20.4825 -0.00012207 20.2266 0.105899 20.0378 0.294617C19.8491 0.483336 19.7431 0.739293 19.7431 1.00618V19.0022C19.7431 19.2691 19.8491 19.5251 20.0378 19.7138C20.2266 19.9025 20.4825 20.0085 20.7494 20.0085C21.0163 20.0085 21.2722 19.9025 21.4609 19.7138C21.6496 19.5251 21.7557 19.2691 21.7557 19.0022V1.00618C21.7557 0.739293 21.6496 0.483336 21.4609 0.294617C21.2722 0.105899 21.0163 -0.00012207 20.7494 -0.00012207V-0.00012207Z" fill="#0048FF"/>
<path d="M10.8778 -0.00012207C10.611 -0.00012207 10.355 0.105899 10.1663 0.294617C9.97758 0.483336 9.87157 0.739293 9.87157 1.00618V19.0022C9.87157 19.2691 9.97758 19.5251 10.1663 19.7138C10.355 19.9025 10.611 20.0085 10.8778 20.0085C11.1447 20.0085 11.4007 19.9025 11.5894 19.7138C11.7781 19.5251 11.8841 19.2691 11.8841 19.0022V1.00618C11.8841 0.739293 11.7781 0.483336 11.5894 0.294617C11.4007 0.105899 11.1447 -0.00012207 10.8778 -0.00012207V-0.00012207Z" fill="#0048FF"/>
<path d="M1.00628 0C0.739395 0 0.483444 0.106021 0.294731 0.294739C0.106018 0.483458 0 0.739415 0 1.0063L0 19.0024C0 19.2692 0.106018 19.5252 0.294731 19.7139C0.483444 19.9026 0.739395 20.0087 1.00628 20.0087C1.27316 20.0087 1.52911 19.9026 1.71782 19.7139C1.90653 19.5252 2.01255 19.2692 2.01255 19.0024V1.0063C2.01255 0.739415 1.90653 0.483458 1.71782 0.294739C1.52911 0.106021 1.27316 0 1.00628 0V0Z" fill="#0048FF"/>
<path d="M52.8731 0.184326H39.711C39.4441 0.184326 39.1882 0.290347 38.9994 0.479066C38.8107 0.667784 38.7047 0.923741 38.7047 1.19063C38.7047 1.45752 38.8107 1.71347 38.9994 1.90219C39.1882 2.09091 39.4441 2.19693 39.711 2.19693H45.2824V18.8915C45.2824 19.1584 45.3884 19.4144 45.5771 19.6031C45.7658 19.7918 46.0218 19.8978 46.2887 19.8978C46.5556 19.8978 46.8115 19.7918 47.0002 19.6031C47.1889 19.4144 47.2949 19.1584 47.2949 18.8915V2.19693H52.8697C53.1366 2.19693 53.3925 2.09091 53.5813 1.90219C53.77 1.71347 53.876 1.45752 53.876 1.19063C53.876 0.923741 53.77 0.667784 53.5813 0.479066C53.3925 0.290347 53.1366 0.184326 52.8697 0.184326H52.8731Z" fill="white"/>
<path d="M124.691 0.184326H111.529C111.262 0.184326 111.006 0.290347 110.817 0.479066C110.629 0.667784 110.523 0.923741 110.523 1.19063C110.523 1.45752 110.629 1.71347 110.817 1.90219C111.006 2.09091 111.262 2.19693 111.529 2.19693H117.104V18.8915C117.104 19.1584 117.21 19.4144 117.398 19.6031C117.587 19.7918 117.843 19.8978 118.11 19.8978C118.377 19.8978 118.633 19.7918 118.821 19.6031C119.01 19.4144 119.116 19.1584 119.116 18.8915V2.19693H124.691C124.958 2.19693 125.214 2.09091 125.402 1.90219C125.591 1.71347 125.697 1.45752 125.697 1.19063C125.697 0.923741 125.591 0.667784 125.402 0.479066C125.214 0.290347 124.958 0.184326 124.691 0.184326Z" fill="white"/>
<path d="M177.329 17.8852H167.219V1.30464C167.219 1.03776 167.113 0.781798 166.925 0.593079C166.736 0.404361 166.48 0.29834 166.213 0.29834C165.946 0.29834 165.69 0.404361 165.502 0.593079C165.313 0.781798 165.207 1.03776 165.207 1.30464V18.8915C165.207 19.1584 165.313 19.4143 165.502 19.603C165.69 19.7918 165.946 19.8978 166.213 19.8978H177.329C177.596 19.8978 177.852 19.7918 178.041 19.603C178.229 19.4143 178.335 19.1584 178.335 18.8915C178.335 18.6246 178.229 18.3686 178.041 18.1799C177.852 17.9912 177.596 17.8852 177.329 17.8852Z" fill="white"/>
<path d="M68.051 11.2772C69.3359 10.872 70.4336 10.0208 71.1461 8.87736C71.8585 7.73388 72.1388 6.3734 71.9364 5.04141C71.734 3.70941 71.0622 2.49364 70.0422 1.61347C69.0222 0.73329 67.7212 0.246685 66.3739 0.241455L59.6185 0.26829C59.576 0.265157 59.5334 0.265157 59.491 0.26829H59.4206L59.3233 0.301833C59.2931 0.301833 59.2629 0.318605 59.2327 0.332022L59.1656 0.36892C59.1281 0.385713 59.0921 0.405924 59.0583 0.429298C59.0382 0.429298 59.0248 0.459487 59.008 0.472905L58.9208 0.550055C58.8973 0.573535 58.8805 0.60037 58.8604 0.62385C58.8384 0.649246 58.8182 0.676147 58.8 0.704355L58.7531 0.788213C58.7531 0.818402 58.7229 0.845237 58.7095 0.87878C58.696 0.912324 58.6927 0.939159 58.6826 0.969348C58.6726 0.999537 58.6625 1.03308 58.6558 1.06327C58.6491 1.09346 58.6558 1.13706 58.6558 1.17396C58.6558 1.21086 58.6558 1.22092 58.6558 1.2444V18.8916C58.6558 19.1585 58.7618 19.4145 58.9505 19.6032C59.1392 19.7919 59.3952 19.8979 59.6621 19.8979C59.9289 19.8979 60.1849 19.7919 60.3736 19.6032C60.5623 19.4145 60.6683 19.1585 60.6683 18.8916V11.5355H65.8003L71.5026 19.5155C71.5958 19.6454 71.7188 19.7512 71.8611 19.8241C72.0034 19.897 72.1611 19.935 72.321 19.9348C72.5048 19.932 72.6843 19.8788 72.84 19.7812C72.9957 19.6836 73.1217 19.5451 73.2043 19.3809C73.2869 19.2167 73.323 19.0331 73.3086 18.8498C73.2942 18.6666 73.2299 18.4908 73.1227 18.3415L68.051 11.2772ZM66.3739 2.25406C67.3071 2.24583 68.2077 2.59706 68.8889 3.23494C69.5701 3.87281 69.9797 4.7484 70.0327 5.68014C70.0858 6.61189 69.7782 7.52831 69.1739 8.2394C68.5695 8.95049 67.7146 9.40169 66.7865 9.49945L61.5773 2.27419L66.3739 2.25406ZM60.6281 9.52293V4.40084L64.3178 9.52293H60.6281Z" fill="white"/>
<path d="M78.6941 0.241455C78.4272 0.241455 78.1713 0.347476 77.9825 0.536194C77.7938 0.724913 77.6878 0.98087 77.6878 1.24776V18.9285C77.6878 19.1954 77.7938 19.4514 77.9825 19.6401C78.1713 19.8288 78.4272 19.9348 78.6941 19.9348C78.961 19.9348 79.2169 19.8288 79.4056 19.6401C79.5943 19.4514 79.7004 19.1954 79.7004 18.9285V1.24776C79.7004 0.98087 79.5943 0.724913 79.4056 0.536194C79.2169 0.347476 78.961 0.241455 78.6941 0.241455Z" fill="white"/>
<path d="M105.287 0.241455C105.02 0.241455 104.764 0.347476 104.575 0.536194C104.386 0.724913 104.28 0.98087 104.28 1.24776V18.9285C104.28 19.1954 104.386 19.4514 104.575 19.6401C104.764 19.8288 105.02 19.9348 105.287 19.9348C105.553 19.9348 105.809 19.8288 105.998 19.6401C106.187 19.4514 106.293 19.1954 106.293 18.9285V1.24776C106.293 0.98087 106.187 0.724913 105.998 0.536194C105.809 0.347476 105.553 0.241455 105.287 0.241455Z" fill="white"/>
<path d="M97.7127 0.187866C97.4458 0.187866 97.1899 0.293887 97.0011 0.482606C96.8124 0.671324 96.7064 0.927281 96.7064 1.19417V15.5608L87.0361 1.02645C86.9155 0.849242 86.7415 0.715173 86.5394 0.643779C86.3372 0.572385 86.1176 0.567397 85.9125 0.629541C85.7073 0.691685 85.5274 0.817714 85.3989 0.989265C85.2704 1.16082 85.2 1.36893 85.198 1.58327V18.8917C85.198 19.1586 85.304 19.4145 85.4927 19.6033C85.6814 19.792 85.9374 19.898 86.2043 19.898C86.4711 19.898 86.7271 19.792 86.9158 19.6033C87.1045 19.4145 87.2105 19.1586 87.2105 18.8917V4.91078L96.8775 19.4552C96.969 19.593 97.0931 19.7061 97.2388 19.7845C97.3845 19.8629 97.5472 19.9042 97.7127 19.9047C97.8116 19.905 97.91 19.8903 98.0045 19.8611C98.2111 19.7985 98.3921 19.6711 98.5207 19.4978C98.6494 19.3244 98.7189 19.1143 98.719 18.8984V1.19417C98.719 0.927281 98.6129 0.671324 98.4242 0.482606C98.2355 0.293887 97.9796 0.187866 97.7127 0.187866Z" fill="white"/>
<path d="M190.793 1.03984C190.718 0.852158 190.587 0.691598 190.419 0.579105C190.251 0.466612 190.053 0.407409 189.851 0.40922C189.65 0.409427 189.454 0.469572 189.288 0.581937C189.122 0.694301 188.993 0.853757 188.918 1.03984L181.824 18.6267C181.724 18.8744 181.727 19.1516 181.832 19.3973C181.937 19.6429 182.135 19.8369 182.382 19.9365C182.63 20.0362 182.907 20.0333 183.153 19.9286C183.399 19.8238 183.593 19.6258 183.692 19.378L185.389 15.175H191.427C191.694 15.175 191.95 15.069 192.139 14.8803C192.327 14.6916 192.433 14.4356 192.433 14.1687C192.433 13.9019 192.327 13.6459 192.139 13.4572C191.95 13.2685 191.694 13.1624 191.427 13.1624H186.201L189.857 4.10571L195.989 19.378C196.089 19.6258 196.283 19.8238 196.528 19.9286C196.774 20.0333 197.051 20.0362 197.299 19.9365C197.547 19.8369 197.745 19.6429 197.849 19.3973C197.954 19.1516 197.957 18.8744 197.857 18.6267L190.793 1.03984Z" fill="white"/>
<path d="M145.115 0.48293C144.905 0.318834 144.638 0.245025 144.373 0.277735C144.108 0.310444 143.867 0.446994 143.703 0.657356L137.451 8.70778L131.326 0.670774C131.164 0.458598 130.924 0.319431 130.66 0.283889C130.395 0.248347 130.127 0.319341 129.915 0.481253C129.703 0.643166 129.564 0.882733 129.528 1.14725C129.493 1.41177 129.564 1.67958 129.726 1.89175L136.434 10.6868V19.0023C136.434 19.2692 136.54 19.5251 136.729 19.7138C136.918 19.9025 137.174 20.0086 137.44 20.0086C137.707 20.0086 137.963 19.9025 138.152 19.7138C138.341 19.5251 138.447 19.2692 138.447 19.0023V10.6835L145.289 1.89511C145.453 1.6847 145.527 1.41773 145.495 1.1529C145.462 0.88808 145.325 0.647091 145.115 0.48293Z" fill="white"/>
<path d="M213.414 9.60675C214.555 8.66754 215.279 6.92328 215.279 5.3199C215.278 3.96202 214.738 2.66006 213.778 1.70021C212.817 0.740358 211.515 0.201172 210.157 0.201172L203.519 0.224652C203.252 0.224652 202.996 0.330673 202.808 0.519392C202.619 0.70811 202.513 0.964067 202.513 1.23096V15.0945C202.513 15.3614 202.619 15.6173 202.808 15.806C202.996 15.9947 203.252 16.1008 203.519 16.1008C203.786 16.1008 204.042 15.9947 204.231 15.806C204.419 15.6173 204.525 15.3614 204.525 15.0945V10.7774H210.157C210.234 10.7774 210.305 10.7774 210.382 10.7774C210.459 10.7774 210.462 10.7774 210.506 10.7774C210.972 10.763 211.436 10.8422 211.87 11.0104C212.304 11.1786 212.701 11.4324 213.035 11.7567C213.37 12.0809 213.636 12.4691 213.817 12.8981C213.999 13.3272 214.092 13.7883 214.092 14.2542C214.092 14.7201 213.999 15.1812 213.817 15.6103C213.636 16.0393 213.37 16.4275 213.035 16.7517C212.701 17.076 212.304 17.3298 211.87 17.498C211.436 17.6662 210.972 17.7454 210.506 17.731H203.58C203.313 17.731 203.057 17.837 202.868 18.0257C202.679 18.2144 202.573 18.4704 202.573 18.7373C202.573 19.0042 202.679 19.2601 202.868 19.4488C203.057 19.6376 203.313 19.7436 203.58 19.7436H210.509C211.702 19.745 212.862 19.3578 213.814 18.6407C214.767 17.9236 215.46 16.9157 215.788 15.7696C216.116 14.6235 216.062 13.4015 215.634 12.2889C215.206 11.1763 214.426 10.2335 213.414 9.6034V9.60675ZM204.529 2.2272L210.161 2.20707C210.984 2.20796 211.774 2.53549 212.356 3.11781C212.938 3.70013 213.266 4.48967 213.267 5.31319C213.267 7.02726 211.875 8.7581 210.161 8.7581H204.529V2.2272Z" fill="white"/>
</svg>
