<svg width="342" height="57" viewBox="0 0 342 57" fill="none" xmlns="http://www.w3.org/2000/svg">
<path d="M0.317383 55H-0.882629V56.2H0.317383V55ZM0.317383 0.662109V-0.537891H-0.882629V0.662109H0.317383ZM31.8535 2.17383L31.4576 3.30663L31.461 3.30781L31.8535 2.17383ZM42.4355 12.4619L41.3014 12.854L41.3043 12.8624L41.3074 12.8709L42.4355 12.4619ZM42.3936 27.4111L41.2699 26.9898L41.2671 26.9976L42.3936 27.4111ZM39.0342 32.9541L38.1695 32.122L38.1613 32.1306L39.0342 32.9541ZM34.0371 36.6494L33.4943 35.5792L33.4879 35.5825L34.0371 36.6494ZM27.9902 38.791L28.2256 39.9678L28.2375 39.9653L27.9902 38.791ZM11.9072 38.665L12.1675 37.4936L10.7072 37.1691V38.665H11.9072ZM11.9072 55V56.2H13.1072V55H11.9072ZM11.9072 29.1328H10.7072V30.1133L11.6681 30.3087L11.9072 29.1328ZM29.166 13.1758L28.3025 14.009L28.3099 14.0167L28.3175 14.0243L29.166 13.1758ZM11.9072 10.7822V9.58223H10.7072V10.7822H11.9072ZM1.5174 55V0.662109H-0.882629V55H1.5174ZM0.317383 1.86211H21.7334V-0.537891H0.317383V1.86211ZM21.7334 1.86211C25.4959 1.86211 28.73 2.3533 31.4576 3.30663L32.2495 1.04103C29.2101 -0.0212688 25.6974 -0.537891 21.7334 -0.537891V1.86211ZM31.461 3.30781C34.2343 4.26781 36.3479 5.57579 37.8648 7.19378L39.6157 5.55232C37.7732 3.58697 35.2956 2.09547 32.2461 1.03984L31.461 3.30781ZM37.8648 7.19378C39.4319 8.86532 40.574 10.7497 41.3014 12.854L43.5697 12.0699C42.7294 9.63896 41.408 7.46411 39.6157 5.55232L37.8648 7.19378ZM41.3074 12.8709C42.0656 14.9624 42.4533 17.2992 42.4533 19.8945H44.8533C44.8533 17.0588 44.4292 14.4406 43.5637 12.053L41.3074 12.8709ZM42.4533 19.8945C42.4533 22.5446 42.0519 24.9045 41.27 26.9898L43.5172 27.8325C44.4149 25.4386 44.8533 22.7874 44.8533 19.8945H42.4533ZM41.2671 26.9976C40.5043 29.0755 39.4664 30.7743 38.1695 32.122L39.8989 33.7862C41.4574 32.1665 42.6591 30.17 43.5201 27.8247L41.2671 26.9976ZM38.1613 32.1306C36.8623 33.5076 35.3102 34.6581 33.4943 35.5792L34.58 37.7196C36.6273 36.6811 38.4066 35.368 39.907 33.7776L38.1613 32.1306ZM33.4879 35.5825C31.6812 36.5124 29.7673 37.1906 27.743 37.6168L28.2375 39.9653C30.4684 39.4956 32.5858 38.7461 34.5863 37.7164L33.4879 35.5825ZM27.7549 37.6143C25.739 38.0175 23.6067 38.2209 21.3555 38.2209V40.6209C23.7514 40.6209 26.0422 40.4044 28.2256 39.9677L27.7549 37.6143ZM21.3555 38.2209C17.3579 38.2209 14.3095 37.9696 12.1675 37.4936L11.6469 39.8365C14.0401 40.3683 17.2905 40.6209 21.3555 40.6209V38.2209ZM10.7072 38.665V55H13.1072V38.665H10.7072ZM11.9072 53.8H0.317383V56.2H11.9072V53.8ZM11.6681 30.3087C13.4449 30.6701 16.1501 30.8367 19.7178 30.8367V28.4367C16.1747 28.4367 13.6729 28.2674 12.1464 27.9569L11.6681 30.3087ZM19.7178 30.8367C23.4971 30.8367 26.6479 30.0019 29.0462 28.2032L27.6062 26.2832C25.7493 27.6758 23.1611 28.4367 19.7178 28.4367V30.8367ZM29.0462 28.2032C31.5642 26.3146 32.7176 23.3656 32.7176 19.6426H30.3176C30.3176 22.8622 29.3433 24.9803 27.6062 26.2832L29.0462 28.2032ZM32.7176 19.6426C32.7176 16.6609 31.8582 14.1709 30.0146 12.3273L28.3175 14.0243C29.6092 15.3161 30.3176 17.1373 30.3176 19.6426H32.7176ZM30.0296 12.3425C28.1432 10.3876 25.0081 9.58223 21.0195 9.58223V11.9822C24.8135 11.9822 27.1094 12.7726 28.3025 14.009L30.0296 12.3425ZM21.0195 9.58223H11.9072V11.9822H21.0195V9.58223ZM10.7072 10.7822V29.1328H13.1072V10.7822H10.7072ZM54.2354 30.1406L54.8973 31.1416L54.9084 31.1341L54.2354 30.1406ZM60.0303 27.5371L59.7286 26.3756L59.7249 26.3766L60.0303 27.5371ZM77.499 28.335L77.0433 29.4451L78.699 30.1248V28.335H77.499ZM53.3115 23.5059H52.1115V25.4475L53.8482 24.5792L53.3115 23.5059ZM53.3115 13.2178L52.9431 12.0757L52.1115 12.344V13.2178H53.3115ZM88.8369 55V56.2H90.0369V55H88.8369ZM80.3125 55L79.1324 55.2176L79.3135 56.2H80.3125V55ZM79.2207 49.0791L80.4008 48.8615L79.9177 46.2414L78.2757 48.3395L79.2207 49.0791ZM72.418 54.4541L71.9723 53.3399L71.968 53.3417L72.418 54.4541ZM52.4717 51.8086L51.5797 52.6114L51.5882 52.6207L52.4717 51.8086ZM62.2979 45.6357L61.4813 46.5152L61.4917 46.5246L62.2979 45.6357ZM77.499 41.3945L78.5321 42.005L78.699 41.7226V41.3945H77.499ZM77.499 36.5234H78.699V35.864L78.1424 35.5105L77.499 36.5234ZM62.7598 36.2715L63.4827 37.2293L63.4854 37.2272L62.7598 36.2715ZM49.8924 41.7725C49.8924 39.2907 50.3539 37.1688 51.2384 35.3743L49.0858 34.3132C48.0107 36.494 47.4924 38.9912 47.4924 41.7725H49.8924ZM51.2384 35.3743C52.1306 33.5646 53.3506 32.1644 54.8972 31.1416L53.5735 29.1397C51.6488 30.4124 50.1533 32.1477 49.0858 34.3132L51.2384 35.3743ZM54.9084 31.1341C56.5263 30.0381 58.3326 29.2247 60.3357 28.6976L59.7249 26.3766C57.4727 26.9693 55.4157 27.8916 53.5623 29.1471L54.9084 31.1341ZM60.3319 28.6986C62.3761 28.1676 64.6249 27.8973 67.085 27.8973V25.4973C64.45 25.4973 61.9956 25.7868 59.7286 26.3756L60.3319 28.6986ZM67.085 27.8973C71.2813 27.8973 74.5811 28.4343 77.0433 29.4451L77.9547 27.2249C75.0979 26.052 71.455 25.4973 67.085 25.4973V27.8973ZM78.699 28.335V26.7812H76.299V28.335H78.699ZM78.699 26.7812C78.699 24.3181 77.8583 22.2968 76.0452 20.9391C74.2973 19.6303 71.8192 19.0725 68.8066 19.0725V21.4725C71.589 21.4725 73.4571 21.9994 74.6067 22.8602C75.691 23.6721 76.299 24.9052 76.299 26.7812H78.699ZM68.8066 19.0725C62.6468 19.0725 57.2889 20.1755 52.7749 22.4325L53.8482 24.5792C57.9565 22.525 62.9288 21.4725 68.8066 21.4725V19.0725ZM54.5115 23.5059V13.2178H52.1115V23.5059H54.5115ZM53.6799 14.3598C58.753 12.7234 64.3378 11.8982 70.4443 11.8982V9.49824C64.1212 9.49824 58.2841 10.3528 52.9431 12.0757L53.6799 14.3598ZM70.4443 11.8982C76.4039 11.8982 80.6508 13.321 83.4103 15.9545C86.1593 18.5781 87.6369 22.5997 87.6369 28.251H90.0369C90.0369 22.2004 88.4491 17.4457 85.0673 14.2183C81.6959 11.0009 76.7465 9.49824 70.4443 9.49824V11.8982ZM87.6369 28.251V55H90.0369V28.251H87.6369ZM88.8369 53.8H80.3125V56.2H88.8369V53.8ZM81.4926 54.7824L80.4008 48.8615L78.0406 49.2967L79.1324 55.2176L81.4926 54.7824ZM78.2757 48.3395C76.3638 50.7825 74.2585 52.4255 71.9723 53.3399L72.8636 55.5683C75.6165 54.4671 78.0464 52.5267 80.1657 49.8187L78.2757 48.3395ZM71.968 53.3417C69.6691 54.2716 66.6314 54.7658 62.8018 54.7658V57.1658C66.8107 57.1658 70.1838 56.6523 72.868 55.5665L71.968 53.3417ZM62.8018 54.7658C58.742 54.7658 55.6399 53.4821 53.3552 50.9965L51.5882 52.6207C54.3985 55.678 58.1831 57.1658 62.8018 57.1658V54.7658ZM53.3636 51.0058C51.0495 48.4346 49.8924 45.3781 49.8924 41.7725H47.4924C47.4924 45.9494 48.8548 49.5836 51.5797 52.6114L53.3636 51.0058ZM59.3342 41.4785C59.3342 43.4743 60.0484 45.1845 61.4813 46.5151L63.1144 44.7564C62.1957 43.9034 61.7342 42.8421 61.7342 41.4785H59.3342ZM61.4917 46.5246C62.9689 47.8644 64.907 48.4734 67.1689 48.4734V46.0734C65.3436 46.0734 64.0344 45.5907 63.104 44.7469L61.4917 46.5246ZM67.1689 48.4734C69.3747 48.4734 71.5161 47.8965 73.5794 46.7738L72.4323 44.6657C70.6884 45.6146 68.9384 46.0734 67.1689 46.0734V48.4734ZM73.5794 46.7738C75.6715 45.6354 77.3289 44.0413 78.5321 42.005L76.4659 40.7841C75.4856 42.4431 74.1475 43.7324 72.4323 44.6657L73.5794 46.7738ZM78.699 41.3945V36.5234H76.299V41.3945H78.699ZM78.1424 35.5105C75.8317 34.0429 72.9892 33.3498 69.6885 33.3498V35.7498C72.6586 35.7498 75.0232 36.3725 76.8557 37.5364L78.1424 35.5105ZM69.6885 33.3498C66.4724 33.3498 63.8504 33.9367 62.0341 35.3158L63.4854 37.2272C64.6926 36.3107 66.6898 35.7498 69.6885 35.7498V33.3498ZM62.0369 35.3137C60.1745 36.7192 59.3342 38.8606 59.3342 41.4785H61.7342C61.7342 39.3933 62.3776 38.0633 63.4827 37.2293L62.0369 35.3137ZM100.385 55H99.1848V56.2H100.385V55ZM100.385 12.168V10.968H99.1848V12.168H100.385ZM110.799 12.168L111.993 12.0459L111.882 10.968H110.799V12.168ZM111.555 19.5586L110.361 19.6807L110.765 23.632L112.616 20.1179L111.555 19.5586ZM128.771 11.0342H129.971V10.0972L129.063 9.87001L128.771 11.0342ZM128.771 22.918L128.52 24.0913L129.971 24.4024V22.918H128.771ZM116.72 24.0098L117.256 25.0831L117.262 25.0802L116.72 24.0098ZM112.269 28.9229L111.154 28.4772L111.069 28.6918V28.9229H112.269ZM112.269 55V56.2H113.469V55H112.269ZM101.585 55V12.168H99.1848V55H101.585ZM100.385 13.368H110.799V10.968H100.385V13.368ZM109.605 12.2901L110.361 19.6807L112.748 19.4365L111.993 12.0459L109.605 12.2901ZM112.616 20.1179C114.027 17.4405 115.94 15.469 118.353 14.1565C120.777 12.8387 123.771 12.1502 127.386 12.1502V9.75019C123.47 9.75019 120.06 10.4964 117.207 12.0481C114.343 13.6051 112.106 15.9378 110.493 18.9993L112.616 20.1179ZM127.386 12.1502C127.722 12.1502 127.987 12.157 128.184 12.169C128.283 12.175 128.358 12.1818 128.413 12.1885C128.471 12.1957 128.489 12.2006 128.48 12.1984L129.063 9.87001C128.671 9.77211 128.059 9.75019 127.386 9.75019V12.1502ZM127.571 11.0342V22.918H129.971V11.0342H127.571ZM129.023 21.7446C127.367 21.3899 125.645 21.2141 123.858 21.2141V23.6141C125.487 23.6141 127.04 23.7742 128.52 24.0913L129.023 21.7446ZM123.858 21.2141C121.035 21.2141 118.466 21.7798 116.177 22.9393L117.262 25.0802C119.173 24.1121 121.363 23.6141 123.858 23.6141V21.2141ZM116.183 22.9365C113.837 24.1095 112.154 25.9771 111.154 28.4772L113.383 29.3685C114.174 27.3894 115.459 25.9816 117.256 25.0831L116.183 22.9365ZM111.069 28.9229V55H113.469V28.9229H111.069ZM112.269 53.8H100.385V56.2H112.269V53.8ZM135.406 4.02148L135.029 2.88226L134.206 3.15462V4.02148H135.406ZM147.206 0.116211H148.406V-1.54496L146.829 -1.02302L147.206 0.116211ZM147.206 12.168H146.006V13.368H147.206V12.168ZM160.35 12.168H161.55V10.968H160.35V12.168ZM160.35 21.2803V22.4803H161.55V21.2803H160.35ZM147.206 21.2803V20.0803H146.006V21.2803H147.206ZM147.206 40.3867H146.006V40.3961L146.006 40.4055L147.206 40.3867ZM148.676 44.25L147.913 45.1763L147.928 45.1885L147.943 45.2001L148.676 44.25ZM159.3 43.998H160.5V41.8786L158.682 42.9691L159.3 43.998ZM159.3 53.8662L159.912 54.8982L160.5 54.5495V53.8662H159.3ZM136.606 42.4443V4.02148H134.206V42.4443H136.606ZM135.783 5.16071L147.583 1.25544L146.829 -1.02302L135.029 2.88226L135.783 5.16071ZM146.006 0.116211V12.168H148.406V0.116211H146.006ZM147.206 13.368H160.35V10.968H147.206V13.368ZM159.15 12.168V21.2803H161.55V12.168H159.15ZM160.35 20.0803H147.206V22.4803H160.35V20.0803ZM146.006 21.2803V40.3867H148.406V21.2803H146.006ZM146.006 40.4055C146.037 42.3853 146.584 44.0821 147.913 45.1763L149.439 43.3237C148.864 42.8502 148.431 41.9715 148.406 40.368L146.006 40.4055ZM147.943 45.2001C149.231 46.1936 151.06 46.5838 153.211 46.5838V44.1838C151.274 44.1838 150.081 43.8181 149.409 43.2999L147.943 45.2001ZM153.211 46.5838C155.864 46.5838 158.13 46.0991 159.917 45.027L158.682 42.9691C157.39 43.7447 155.596 44.1838 153.211 44.1838V46.5838ZM158.1 43.998V53.8662H160.5V43.998H158.1ZM158.687 52.8342C156.387 54.1993 153.249 54.9338 149.18 54.9338V57.3338C153.509 57.3338 157.118 56.5565 159.912 54.8982L158.687 52.8342ZM149.18 54.9338C144.772 54.9338 141.686 53.8391 139.696 51.8603C137.706 49.8829 136.606 46.8207 136.606 42.4443H134.206C134.206 47.1943 135.402 50.9768 138.004 53.5625C140.604 56.1469 144.405 57.3338 149.18 57.3338V54.9338ZM169 55H167.8V56.2H169V55ZM169 12.168V10.968H167.8V12.168H169ZM179.498 12.168H180.698V10.968H179.498V12.168ZM179.498 19.2227H178.298L180.587 19.7269L179.498 19.2227ZM205.659 14.8135L204.811 15.662L204.815 15.6663L205.659 14.8135ZM209.774 55V56.2H210.974V55H209.774ZM197.891 55H196.691V56.2H197.891V55ZM195.875 22.1621L195.045 23.0289L195.055 23.0379L195.064 23.0467L195.875 22.1621ZM190.248 20.2725V19.0725H190.211L190.174 19.0748L190.248 20.2725ZM180.884 26.3613L179.843 25.7643L179.684 26.0416V26.3613H180.884ZM180.884 55V56.2H182.084V55H180.884ZM170.2 55V12.168H167.8V55H170.2ZM169 13.368H179.498V10.968H169V13.368ZM178.298 12.168V19.2227H180.698V12.168H178.298ZM180.587 19.7269C181.806 17.0947 183.561 15.1625 185.85 13.8753C188.152 12.5807 191.068 11.8982 194.657 11.8982V9.49824C190.772 9.49824 187.424 10.2365 184.673 11.7834C181.909 13.3377 179.822 15.6677 178.409 18.7184L180.587 19.7269ZM194.657 11.8982C198.993 11.8982 202.333 13.1843 204.811 15.662L206.508 13.9649C203.498 10.9556 199.504 9.49824 194.657 9.49824V11.8982ZM204.815 15.6663C207.265 18.0912 208.574 21.6482 208.574 26.5293H210.974C210.974 21.2203 209.54 16.9667 206.503 13.9606L204.815 15.6663ZM208.574 26.5293V55H210.974V26.5293H208.574ZM209.774 53.8H197.891V56.2H209.774V53.8ZM199.091 55V28.7549H196.691V55H199.091ZM199.091 28.7549C199.091 25.4879 198.409 22.8567 196.686 21.2775L195.064 23.0467C196.029 23.931 196.691 25.695 196.691 28.7549H199.091ZM196.705 21.2953C195.099 19.7578 192.886 19.0725 190.248 19.0725V21.4725C192.481 21.4725 194.02 22.0469 195.045 23.0289L196.705 21.2953ZM190.174 19.0748C185.675 19.354 182.208 21.64 179.843 25.7643L181.925 26.9583C183.927 23.4681 186.702 21.6949 190.322 21.4702L190.174 19.0748ZM179.684 26.3613V55H182.084V26.3613H179.684ZM180.884 53.8H169V56.2H180.884V53.8ZM219.811 25.1855L218.672 24.8061L218.67 24.8138L219.811 25.1855ZM223.212 18.8027L224.139 19.5651L224.145 19.5578L223.212 18.8027ZM228.209 14.3516L228.85 15.3658L228.854 15.3634L228.209 14.3516ZM234.382 11.6641L234.68 12.8265L234.69 12.8238L234.382 11.6641ZM250.759 12.5459L250.282 13.6471L250.289 13.6501L250.296 13.6529L250.759 12.5459ZM257.226 17.333L258.178 16.6026L257.226 17.333ZM260.711 24.1357L259.563 24.4841L259.564 24.4877L260.711 24.1357ZM261.341 38.4971V39.6971H262.378L262.528 38.6708L261.341 38.4971ZM230.351 38.4971V37.2971H228.948L229.165 38.683L230.351 38.4971ZM234.802 44.7959L234.237 45.8547L234.242 45.8573L234.802 44.7959ZM258.233 44.166H259.433V42.5299L257.873 43.0215L258.233 44.166ZM258.233 53.4463L258.825 54.4902L259.433 54.1454V53.4463H258.233ZM231.988 54.7061L231.561 55.8277L231.573 55.8321L231.988 54.7061ZM224.346 49.751L223.451 50.5511L223.457 50.5573L223.463 50.5634L224.346 49.751ZM220.021 42.4443L218.887 42.8377L218.89 42.8479L220.021 42.4443ZM229.931 30.6445L228.734 30.5501L228.632 31.8445H229.931V30.6445ZM250.591 30.6445V31.8445H251.791V30.6445H250.591ZM233.332 23.2119L234.122 24.115L234.129 24.1088L233.332 23.2119ZM219.793 33.416C219.793 30.5291 220.184 27.913 220.951 25.5573L218.67 24.8138C217.813 27.4411 217.393 30.3121 217.393 33.416H219.793ZM220.949 25.565C221.751 23.1602 222.82 21.1686 224.139 19.5651L222.285 18.0404C220.749 19.9082 219.55 22.1719 218.672 24.8061L220.949 25.565ZM224.145 19.5578C225.491 17.895 227.058 16.4991 228.85 15.3658L227.568 13.3373C225.553 14.6116 223.789 16.1831 222.279 18.0477L224.145 19.5578ZM228.854 15.3634C230.681 14.1987 232.621 13.3543 234.68 12.8265L234.084 10.5017C231.775 11.0936 229.601 12.0409 227.564 13.3398L228.854 15.3634ZM234.69 12.8238C236.797 12.2637 238.989 11.9822 241.269 11.9822V9.58223C238.789 9.58223 236.39 9.88866 234.074 10.5043L234.69 12.8238ZM241.269 11.9822C244.751 11.9822 247.746 12.5492 250.282 13.6471L251.236 11.4447C248.34 10.1911 245.009 9.58223 241.269 9.58223V11.9822ZM250.296 13.6529C252.876 14.7326 254.852 16.21 256.273 18.0634L258.178 16.6026C256.464 14.3688 254.128 12.6548 251.222 11.4389L250.296 13.6529ZM256.273 18.0634C257.752 19.9912 258.848 22.1291 259.563 24.4841L261.859 23.7874C261.062 21.1593 259.834 18.762 258.178 16.6026L256.273 18.0634ZM259.564 24.4877C260.28 26.8235 260.645 29.3908 260.645 32.1982H263.045C263.045 29.1827 262.653 26.3751 261.858 23.7838L259.564 24.4877ZM260.645 32.1982C260.645 34.0328 260.483 36.0733 260.153 38.3233L262.528 38.6708C262.871 36.3297 263.045 34.171 263.045 32.1982H260.645ZM261.341 37.2971H230.351V39.6971H261.341V37.2971ZM229.165 38.683C229.671 41.9054 231.38 44.3311 234.237 45.8547L235.366 43.7371C233.184 42.5732 231.926 40.7997 231.536 38.3111L229.165 38.683ZM234.242 45.8573C237.012 47.3184 240.439 48.0115 244.46 48.0115V45.6115C240.698 45.6115 237.687 44.9609 235.362 43.7345L234.242 45.8573ZM244.46 48.0115C248.219 48.0115 252.943 47.0907 258.594 45.3106L257.873 43.0215C252.326 44.7687 247.868 45.6115 244.46 45.6115V48.0115ZM257.033 44.166V53.4463H259.433V44.166H257.033ZM257.642 52.4024C254.345 54.271 249.504 55.2697 242.99 55.2697V57.6697C249.69 57.6697 255.011 56.6528 258.825 54.4902L257.642 52.4024ZM242.99 55.2697C238.959 55.2697 235.436 54.6975 232.403 53.58L231.573 55.8321C234.923 57.0662 238.735 57.6697 242.99 57.6697V55.2697ZM232.415 53.5845C229.393 52.4347 227.013 50.8778 225.229 48.9385L223.463 50.5634C225.542 52.8234 228.256 54.5699 231.562 55.8276L232.415 53.5845ZM225.24 48.9508C223.442 46.9413 222.079 44.6411 221.151 42.0407L218.89 42.8479C219.921 45.7346 221.442 48.3054 223.451 50.5511L225.24 48.9508ZM221.154 42.051C220.252 39.4491 219.793 36.5745 219.793 33.416H217.393C217.393 36.8084 217.886 39.9526 218.887 42.8377L221.154 42.051ZM229.931 31.8445H250.591V29.4445H229.931V31.8445ZM251.791 30.6445C251.791 27.1232 250.902 24.2522 248.927 22.2444L247.216 23.9274C248.6 25.3351 249.391 27.5031 249.391 30.6445H251.791ZM248.927 22.2444C246.979 20.264 244.379 19.3244 241.269 19.3244V21.7244C243.869 21.7244 245.804 22.4925 247.216 23.9274L248.927 22.2444ZM241.269 19.3244C237.765 19.3244 234.815 20.2883 232.535 22.315L234.129 24.1088C235.88 22.5522 238.221 21.7244 241.269 21.7244V19.3244ZM232.542 22.3088C230.246 24.3181 229.006 27.1116 228.734 30.5501L231.127 30.739C231.359 27.7947 232.387 25.6331 234.122 24.115L232.542 22.3088ZM271.629 55H270.429V56.2H271.629V55ZM271.629 12.168V10.968H270.429V12.168H271.629ZM282.043 12.168L283.237 12.0459L283.127 10.968H282.043V12.168ZM282.799 19.5586L281.605 19.6807L282.009 23.632L283.861 20.1179L282.799 19.5586ZM300.016 11.0342H301.216V10.0972L300.307 9.87001L300.016 11.0342ZM300.016 22.918L299.764 24.0913L301.216 24.4024V22.918H300.016ZM287.964 24.0098L288.501 25.0831L288.506 25.0802L287.964 24.0098ZM283.513 28.9229L282.398 28.4772L282.313 28.6918V28.9229H283.513ZM283.513 55V56.2H284.713V55H283.513ZM272.829 55V12.168H270.429V55H272.829ZM271.629 13.368H282.043V10.968H271.629V13.368ZM280.849 12.2901L281.605 19.6807L283.993 19.4365L283.237 12.0459L280.849 12.2901ZM283.861 20.1179C285.271 17.4405 287.184 15.469 289.597 14.1565C292.021 12.8387 295.015 12.1502 298.63 12.1502V9.75019C294.714 9.75019 291.305 10.4964 288.451 12.0481C285.588 13.6051 283.35 15.9378 281.737 18.9993L283.861 20.1179ZM298.63 12.1502C298.966 12.1502 299.231 12.157 299.429 12.169C299.527 12.175 299.602 12.1818 299.657 12.1885C299.715 12.1957 299.734 12.2006 299.725 12.1984L300.307 9.87001C299.915 9.77211 299.303 9.75019 298.63 9.75019V12.1502ZM298.816 11.0342V22.918H301.216V11.0342H298.816ZM300.267 21.7446C298.612 21.3899 296.889 21.2141 295.103 21.2141V23.6141C296.731 23.6141 298.284 23.7742 299.764 24.0913L300.267 21.7446ZM295.103 21.2141C292.279 21.2141 289.71 21.7798 287.422 22.9393L288.506 25.0802C290.417 24.1121 292.607 23.6141 295.103 23.6141V21.2141ZM287.427 22.9365C285.081 24.1095 283.399 25.9771 282.398 28.4772L284.627 29.3685C285.419 27.3894 286.703 25.9816 288.501 25.0831L287.427 22.9365ZM282.313 28.9229V55H284.713V28.9229H282.313ZM283.513 53.8H271.629V56.2H283.513V53.8ZM309.548 14.3936L308.827 13.4345L308.823 13.4375L309.548 14.3936ZM338.564 14.0576H339.764V13.3223L339.109 12.9884L338.564 14.0576ZM338.564 23.5898L338 24.6487L339.764 25.5898V23.5898H338.564ZM331.762 21.6162L331.519 22.7914L331.53 22.7937L331.762 21.6162ZM318.534 21.1543L318.914 22.2927L318.927 22.2882L318.941 22.2834L318.534 21.1543ZM317.022 22.2881L316.008 21.6473L315.996 21.6668L315.984 21.6868L317.022 22.2881ZM319.5 28.041L319.038 29.1487L319.052 29.1542L319.065 29.1594L319.5 28.041ZM322.481 29.0068L322.183 30.169L322.481 29.0068ZM326.261 29.8467L326.025 31.0234L326.036 31.0254L326.046 31.0273L326.261 29.8467ZM326.933 29.9727L327.168 28.796L326.933 29.9727ZM333.441 31.6523L333.054 32.788L333.066 32.7922L333.079 32.7962L333.441 31.6523ZM336.213 32.8281L335.596 33.8571L335.619 33.8715L335.644 33.8847L336.213 32.8281ZM338.438 34.3818L337.66 35.2953L337.67 35.3038L337.68 35.3121L338.438 34.3818ZM340.202 36.4814L339.144 37.0481L339.157 37.0709L339.17 37.0932L340.202 36.4814ZM341.252 39.2109L340.084 39.4875L340.089 39.5058L340.094 39.524L341.252 39.2109ZM305.349 52.3545H304.149V53.0656L304.772 53.4071L305.349 52.3545ZM305.349 42.6123L305.863 41.5281L304.149 40.7149V42.6123H305.349ZM313.873 45.5098L313.575 46.6723L313.584 46.6745L313.873 45.5098ZM328.612 40.7227L327.863 41.6597L327.883 41.6761L327.904 41.6915L328.612 40.7227ZM325.799 39.5049L325.521 40.6722L325.534 40.6754L325.547 40.6782L325.799 39.5049ZM321.768 38.665L321.524 39.84L321.536 39.8426L321.549 39.845L321.768 38.665ZM312.571 36.3975L312.094 37.4983L312.101 37.5015L312.571 36.3975ZM308.582 34.1299L307.855 35.0844L307.862 35.0899L307.869 35.0954L308.582 34.1299ZM305.727 30.4346L304.628 30.9166L304.633 30.9283L304.638 30.9399L305.727 30.4346ZM305.877 24.8916C305.877 20.6833 307.361 17.5584 310.273 15.3496L308.823 13.4375C305.239 16.1558 303.477 20.0296 303.477 24.8916H305.877ZM310.269 15.3526C313.259 13.1041 317.626 11.8982 323.531 11.8982V9.49824C317.343 9.49824 312.388 10.7559 308.827 13.4345L310.269 15.3526ZM323.531 11.8982C328.996 11.8982 333.816 12.9846 338.02 15.1268L339.109 12.9884C334.523 10.6515 329.321 9.49824 323.531 9.49824V11.8982ZM337.364 14.0576V23.5898H339.764V14.0576H337.364ZM339.129 22.531C337.697 21.7671 335.271 21.0832 331.993 20.4387L331.53 22.7937C334.803 23.437 336.913 24.0689 338 24.6487L339.129 22.531ZM332.005 20.4411C328.698 19.7569 325.689 19.4084 322.985 19.4084V21.8084C325.489 21.8084 328.331 22.1317 331.519 22.7913L332.005 20.4411ZM322.985 19.4084C321.934 19.4084 321.067 19.4366 320.399 19.4973L320.616 21.8875C321.18 21.8362 321.965 21.8084 322.985 21.8084V19.4084ZM320.399 19.4973C319.664 19.5642 318.905 19.7454 318.128 20.0252L318.941 22.2834C319.563 22.0592 320.12 21.9326 320.616 21.8875L320.399 19.4973ZM318.155 20.0159C317.255 20.3158 316.51 20.8518 316.008 21.6473L318.037 22.9289C318.206 22.6606 318.47 22.4408 318.914 22.2927L318.155 20.0159ZM315.984 21.6868C315.535 22.4616 315.361 23.3911 315.361 24.3877H317.761C317.761 23.6486 317.894 23.1784 318.061 22.8893L315.984 21.6868ZM315.361 24.3877C315.361 25.4702 315.674 26.459 316.342 27.2843L318.207 25.7743C317.923 25.4238 317.761 24.9849 317.761 24.3877H315.361ZM316.342 27.2843C316.986 28.0806 317.923 28.6839 319.038 29.1487L319.962 26.9333C319.061 26.5583 318.514 26.1538 318.207 25.7743L316.342 27.2843ZM319.065 29.1594C320.114 29.5675 321.154 29.9044 322.183 30.169L322.78 27.8446C321.85 27.6053 320.901 27.2984 319.935 26.9226L319.065 29.1594ZM322.183 30.169C323.192 30.4285 324.475 30.7132 326.025 31.0234L326.496 28.67C324.967 28.3643 323.731 28.0891 322.78 27.8446L322.183 30.169ZM326.046 31.0273C326.353 31.0832 326.568 31.1236 326.697 31.1494L327.168 28.796C327.017 28.7658 326.784 28.7222 326.475 28.666L326.046 31.0273ZM326.697 31.1494C328.087 31.4273 329.215 31.6751 330.085 31.8927L330.667 29.5643C329.746 29.334 328.578 29.0779 327.168 28.796L326.697 31.1494ZM330.085 31.8927C330.94 32.1064 331.928 32.4038 333.054 32.788L333.829 30.5167C332.659 30.1171 331.604 29.7985 330.667 29.5643L330.085 31.8927ZM333.079 32.7962C334.175 33.1439 335.004 33.5021 335.596 33.8571L336.83 31.7991C336.022 31.3143 335.003 30.8886 333.804 30.5085L333.079 32.7962ZM335.644 33.8847C336.284 34.2294 336.957 34.6958 337.66 35.2953L339.217 33.4683C338.409 32.7801 337.597 32.2107 336.782 31.7716L335.644 33.8847ZM337.68 35.3121C338.325 35.8375 338.806 36.417 339.144 37.0481L341.26 35.9148C340.758 34.9782 340.063 34.1579 339.196 33.4516L337.68 35.3121ZM339.17 37.0932C339.543 37.723 339.854 38.5141 340.084 39.4875L342.42 38.9344C342.146 37.7802 341.757 36.7516 341.234 35.8697L339.17 37.0932ZM340.094 39.524C340.341 40.4398 340.472 41.4939 340.472 42.6963H342.872C342.872 41.3232 342.723 40.0537 342.41 38.8978L340.094 39.524ZM340.472 42.6963C340.472 46.4272 338.902 49.4031 335.645 51.7113L337.033 53.6695C340.886 50.9387 342.872 47.2518 342.872 42.6963H340.472ZM335.645 51.7113C332.348 54.0478 327.966 55.2697 322.397 55.2697V57.6697C328.307 57.6697 333.219 56.3721 337.033 53.6695L335.645 51.7113ZM322.397 55.2697C316.221 55.2697 310.74 53.9382 305.925 51.3019L304.772 53.4071C309.979 56.2578 315.864 57.6697 322.397 57.6697V55.2697ZM306.549 52.3545V42.6123H304.149V52.3545H306.549ZM304.834 43.6965C307.112 44.7772 310.034 45.7657 313.575 46.6723L314.171 44.3473C310.713 43.4621 307.952 42.5191 305.863 41.5281L304.834 43.6965ZM313.584 46.6745C317.15 47.5589 320.372 48.0115 323.237 48.0115V45.6115C320.616 45.6115 317.594 45.1963 314.162 44.345L313.584 46.6745ZM323.237 48.0115C325.278 48.0115 327.059 47.6376 328.502 46.7991L327.295 44.7243C326.33 45.2856 325.004 45.6115 323.237 45.6115V48.0115ZM328.502 46.7991C330.038 45.9057 330.904 44.5361 330.904 42.7803H328.504C328.504 43.6 328.166 44.218 327.295 44.7243L328.502 46.7991ZM330.904 42.7803C330.904 41.5258 330.331 40.4923 329.32 39.7538L327.904 41.6915C328.349 42.0168 328.504 42.3551 328.504 42.7803H330.904ZM329.362 39.7856C328.476 39.0766 327.349 38.6098 326.05 38.3315L325.547 40.6782C326.6 40.9039 327.349 41.249 327.863 41.6597L329.362 39.7856ZM326.077 38.3375C324.877 38.0518 323.513 37.7678 321.986 37.4851L321.549 39.845C323.046 40.1222 324.369 40.398 325.521 40.6722L326.077 38.3375ZM322.011 37.4901C320.516 37.1798 318.98 36.8837 317.401 36.6019L316.979 38.9645C318.537 39.2426 320.051 39.5344 321.524 39.84L322.011 37.4901ZM317.401 36.6019C315.926 36.3383 314.473 35.903 313.042 35.2934L312.101 37.5015C313.693 38.1797 315.32 38.6682 316.979 38.9645L317.401 36.6019ZM313.049 35.2966C311.64 34.6851 310.39 33.973 309.295 33.1644L307.869 35.0954C309.125 36.0224 310.535 36.8221 312.094 37.4983L313.049 35.2966ZM309.309 33.1754C308.313 32.4162 307.475 31.3501 306.815 29.9292L304.638 30.9399C305.434 32.6545 306.5 34.0519 307.855 35.0844L309.309 33.1754ZM306.826 29.9526C306.204 28.5366 305.877 26.8586 305.877 24.8916H303.477C303.477 27.1238 303.849 29.1411 304.628 30.9166L306.826 29.9526Z" fill="url(#paint0_linear_0_634)"/>
<defs>
<linearGradient id="paint0_linear_0_634" x1="-150.5" y1="11.5" x2="484.888" y2="96.8004" gradientUnits="userSpaceOnUse">
<stop offset="0.0246473" stop-color="#5EC7EC"/>
<stop offset="0.994004" stop-color="white"/>
</linearGradient>
</defs>
</svg>
