<svg width="70" height="64" viewBox="0 0 70 64" fill="none" xmlns="http://www.w3.org/2000/svg">
<path fill-rule="evenodd" clip-rule="evenodd" d="M20.1224 2.87614C24.037 -0.958712 30.2999 -0.958712 34.2145 2.87614L43.4824 11.9549C47.5132 15.9032 47.5132 22.3923 43.4824 26.3406L27.3308 42.1629L38.9144 53.5099C41.1213 55.672 41.158 59.2138 38.996 61.4208C36.8342 63.6274 33.2924 63.6641 31.0854 61.5021L3.02293 34.0123C-1.00763 30.0639 -1.00766 23.5749 3.02293 19.6265L20.1224 2.87614ZM19.337 34.3321L34.8377 19.1479L27.1685 11.6352L11.6678 26.8196L19.337 34.3321Z" fill="white"/>
<path fill-rule="evenodd" clip-rule="evenodd" d="M43.6169 10.5476C47.5315 6.7128 53.7944 6.7128 57.709 10.5476L66.9772 19.6265C71.0077 23.5748 71.0077 30.0639 66.9772 34.0122L38.9147 61.502C36.7077 63.664 33.1659 63.6274 31.0039 61.4204C28.8421 59.2134 28.8785 55.6719 31.0855 53.5099L42.6691 42.1628L34.3491 34.0122C30.3183 30.0639 30.3183 23.5748 34.3491 19.6265L43.6169 10.5476ZM50.663 34.3321L58.3323 26.8195L50.663 19.3066L42.994 26.8195L50.663 34.3321Z" fill="white"/>
<path opacity="0.95" d="M42.9896 26.8385L34.8428 19.1003L27.0287 26.7746L34.9821 34.6872L42.9896 26.8385Z" fill="white"/>
</svg>
