<svg width="70" height="62" viewBox="0 0 70 62" fill="none" xmlns="http://www.w3.org/2000/svg">
<path d="M52.8646 18.5938C51.5885 17.8646 49.9479 17.8646 48.4896 18.5938L38.2812 24.6094L31.3542 28.4375L21.3281 34.4532C20.0521 35.1823 18.4115 35.1823 16.9531 34.4532L9.11458 29.7136C7.83854 28.9844 6.92708 27.5261 6.92708 25.8855V16.7709C6.92708 15.3125 7.65625 13.8542 9.11458 12.9427L16.9531 8.38546C18.2292 7.65629 19.8698 7.65629 21.3281 8.38546L29.1667 13.125C30.4427 13.8542 31.3542 15.3125 31.3542 16.9532V22.9688L38.2812 18.9584V12.7605C38.2812 11.3021 37.5521 9.84379 36.0937 8.93233L21.5104 0.364624C20.2344 -0.364543 18.5937 -0.364543 17.1354 0.364624L2.1875 9.11462C0.729167 9.84379 0 11.3021 0 12.7605V29.8959C0 31.3542 0.729167 32.8125 2.1875 33.724L16.9531 42.2917C18.2292 43.0209 19.8698 43.0209 21.3281 42.2917L31.3542 36.4584L38.2812 32.448L48.3073 26.6146C49.5833 25.8855 51.224 25.8855 52.6823 26.6146L60.5208 31.1719C61.7969 31.9011 62.7083 33.3594 62.7083 35V44.1146C62.7083 45.573 61.9792 47.0313 60.5208 47.9427L52.8646 52.5C51.5885 53.2292 49.9479 53.2292 48.4896 52.5L40.651 47.9427C39.375 47.2136 38.4635 45.7552 38.4635 44.1146V38.2813L31.5365 42.2917V48.3073C31.5365 49.7657 32.2656 51.224 33.724 52.1355L48.4896 60.7032C49.7656 61.4323 51.4062 61.4323 52.8646 60.7032L67.6302 52.1355C68.9062 51.4063 69.8177 49.948 69.8177 48.3073V30.9896C69.8177 29.5313 69.0885 28.073 67.6302 27.1615L52.8646 18.5938Z" fill="white"/>
</svg>
