<svg width="50" height="44" viewBox="0 0 50 44" fill="none" xmlns="http://www.w3.org/2000/svg">
<path d="M49.718 20.6043C49.371 19.5114 48.6756 18.5566 47.734 17.8803C46.7924 17.204 45.6544 16.8419 44.4873 16.8473C43.0827 16.8739 41.737 17.4052 40.7054 18.3404C36.3746 15.476 31.2921 13.8995 26.0692 13.8007C26.9042 9.93538 27.7269 6.11825 28.525 2.26494C31.1772 2.81885 33.7435 3.34869 36.3097 3.92668C36.5062 3.92668 36.7149 4.33608 36.764 4.58896C36.8735 5.10434 37.0915 5.59164 37.4041 6.01963C37.7167 6.44762 38.117 6.80685 38.5793 7.07437C39.0417 7.34189 39.5558 7.51174 40.089 7.57311C40.6222 7.63449 41.1625 7.586 41.6755 7.43075C42.4695 7.20105 43.1658 6.72454 43.6597 6.07299C44.1536 5.42143 44.4181 4.63011 44.4136 3.81828C44.4199 3.01799 44.1663 2.23649 43.6894 1.58701C43.2126 0.937531 42.5373 0.453794 41.7614 0.205799C40.982 -0.0600206 40.1354 -0.0685465 39.3507 0.181472C38.5659 0.43149 37.886 0.926361 37.4148 1.59061C37.3215 1.77776 37.1599 1.92371 36.962 1.99954C36.7642 2.07537 36.5445 2.0755 36.3465 1.99998C33.5961 1.38586 30.8334 0.795834 28.0707 0.278046C27.8971 0.250685 27.7197 0.260198 27.5502 0.305901C27.3807 0.351603 27.2233 0.432396 27.0884 0.542925C26.8607 0.87407 26.7176 1.25406 26.6709 1.6508C25.836 5.50411 25.001 9.35739 24.2152 13.2107C24.1047 13.7526 23.8714 13.8369 23.3925 13.861C18.3342 13.9984 13.4216 15.5528 9.23518 18.3404C8.62345 17.7616 7.88053 17.3332 7.06733 17.0904C6.25414 16.8476 5.39385 16.7973 4.557 16.9436C3.4422 17.1222 2.41174 17.6366 1.60863 18.4155C0.805515 19.1945 0.269607 20.1994 0.075289 21.2906C-0.109095 22.3736 0.0470769 23.4859 0.523037 24.4796C0.998997 25.4734 1.77217 26.3015 2.73974 26.8538C2.85561 26.9292 2.95312 27.0287 3.02528 27.1453C3.09744 27.2618 3.14251 27.3926 3.15725 27.5282C2.88357 30.0658 3.51252 32.6181 4.93764 34.7531C7.29852 38.1686 10.7562 40.7117 14.7606 41.9781C19.6886 43.7427 25.0045 44.1996 30.1704 43.3026C34.2448 42.7409 38.1022 41.1564 41.3685 38.7027C44.8557 36.0054 47.0904 32.6819 46.8448 28.0941C46.7957 27.825 46.836 27.5476 46.9598 27.3026C47.0836 27.0576 47.2843 26.8581 47.5324 26.7334C48.54 26.0957 49.302 25.1468 49.6978 24.0367C50.0937 22.9266 50.1008 21.7188 49.718 20.6043ZM12.4645 25.9989C12.4742 24.9832 12.8924 24.0124 13.6282 23.2975C14.364 22.5827 15.3579 22.1817 16.3937 22.1817C16.9068 22.1769 17.4157 22.2723 17.8908 22.4622C18.3659 22.6522 18.7978 22.933 19.1612 23.2883C19.5246 23.6435 19.8123 24.0662 20.0075 24.5315C20.2027 24.9969 20.3016 25.4957 20.2983 25.9989C20.3032 26.5078 20.2046 27.0126 20.0083 27.4838C19.812 27.9549 19.5218 28.3829 19.1548 28.7428C18.7878 29.1027 18.3514 29.3873 17.8709 29.5798C17.3905 29.7724 16.8758 29.8691 16.3568 29.8642C15.32 29.8516 14.3301 29.4387 13.6015 28.7152C12.8729 27.9917 12.4644 27.0157 12.4645 25.9989ZM34.0627 36.3547C32.4465 37.647 30.4863 38.4578 28.4145 38.6907C27.2848 38.8714 26.1429 38.9315 25.3326 39.0158C22.8709 39.0627 20.4257 38.6119 18.1495 37.6913C17.2761 37.2621 16.4527 36.7413 15.6938 36.1379C15.5932 36.0554 15.5123 35.9522 15.4567 35.8357C15.4012 35.7192 15.3724 35.5921 15.3724 35.4635C15.3724 35.3349 15.4012 35.2079 15.4567 35.0914C15.5123 34.9749 15.5932 34.8717 15.6938 34.7892C15.7653 34.6812 15.8604 34.5903 15.9722 34.5229C16.084 34.4554 16.2097 34.4132 16.3402 34.3994C16.4707 34.3856 16.6027 34.4004 16.7267 34.4428C16.8506 34.4853 16.9633 34.5542 17.0567 34.6447C18.6772 35.9349 20.6702 36.6932 22.754 36.8123C25.2999 37.1789 27.8983 36.9394 30.3299 36.1138C31.1983 35.7726 32.0226 35.332 32.7857 34.8013C33.4487 34.3557 34.0135 34.2955 34.3942 34.8013C34.7748 35.307 34.6275 35.8369 34.0381 36.4028L34.0627 36.3547ZM33.5715 29.8642C33.0588 29.8627 32.5513 29.762 32.0782 29.5681C31.6051 29.3742 31.1756 29.0909 30.8142 28.7342C30.4527 28.3775 30.1665 27.9545 29.9717 27.4893C29.777 27.0241 29.6776 26.5258 29.6792 26.023C29.6743 25.5192 29.7715 25.0195 29.965 24.5529C30.1586 24.0863 30.4448 23.662 30.8068 23.3046C31.1689 22.9473 31.5998 22.664 32.0744 22.4713C32.549 22.2785 33.0579 22.1801 33.5715 22.1817C34.09 22.1785 34.604 22.2763 35.0837 22.4694C35.5634 22.6626 35.9992 22.9471 36.3658 23.3067C36.7325 23.6663 37.0227 24.0937 37.2196 24.5641C37.4165 25.0345 37.5162 25.5386 37.513 26.0471C37.5 27.068 37.0757 28.0425 36.3326 28.7577C35.5896 29.4729 34.5881 29.8707 33.547 29.8642H33.5715Z" fill="#5EC7EC"/>
</svg>
