<svg width="327" height="78" viewBox="0 0 327 78" fill="none" xmlns="http://www.w3.org/2000/svg">
<path d="M2.63184 14.8926L3.70779 15.4239L3.71036 15.4187L2.63184 14.8926ZM7.33496 9.51758L7.98105 10.5289L7.99091 10.5224L7.33496 9.51758ZM39.417 8.71973H40.617V7.89988L39.8532 7.60183L39.417 8.71973ZM39.417 19.3857L38.9313 20.4831L40.617 21.2292V19.3857H39.417ZM31.8164 17.0342L31.523 18.1978L31.5345 18.2006L31.8164 17.0342ZM19.5127 15.9004L19.5982 17.0973L19.6172 17.096L19.6362 17.094L19.5127 15.9004ZM17.0352 16.3623L17.335 17.5242L17.3524 17.5197L17.3697 17.5147L17.0352 16.3623ZM14.9355 17.3701L15.6791 18.312L15.694 18.3002L15.7085 18.288L14.9355 17.3701ZM13.5918 19.1758L12.5034 18.6704L12.4992 18.6794L12.4952 18.6884L13.5918 19.1758ZM18.9668 27.7842L18.6322 28.9366L18.6408 28.9391L18.6495 28.9415L18.9668 27.7842ZM31.0186 30.7656L30.6528 31.9085L30.6572 31.9099L31.0186 30.7656ZM36.8135 33.3691L36.1864 34.3923L36.1924 34.396L36.1985 34.3996L36.8135 33.3691ZM41.0547 37.9883L39.9962 38.5537L39.9995 38.5598L41.0547 37.9883ZM41.6006 51.9717L40.4756 51.5538L40.4724 51.5629L41.6006 51.9717ZM28.3311 61.9658L28.1207 60.7844L28.1129 60.7858L28.105 60.7873L28.3311 61.9658ZM2.50586 58.6904H1.30585V59.4609L2.00644 59.7816L2.50586 58.6904ZM2.50586 47.2266L3.05685 46.1605L1.30585 45.2555V47.2266H2.50586ZM11.1562 50.5859L10.8214 51.7383L10.8305 51.7409L11.1562 50.5859ZM28.0791 50.502L27.4668 49.4699L27.4591 49.4745L28.0791 50.502ZM18.2109 38.5342L17.9678 39.7093L17.9776 39.7113L17.9873 39.7132L18.2109 38.5342ZM13.2979 37.4424L12.9974 38.6042L13.0091 38.6072L13.0208 38.61L13.2979 37.4424ZM8.63672 35.7207L8.09201 36.79L8.10007 36.7941L8.10822 36.798L8.63672 35.7207ZM4.68945 33.0332L3.87375 33.9133L3.87958 33.9187L3.8855 33.9241L4.68945 33.0332ZM1.95996 28.876L0.840851 29.3092L0.843292 29.3153L1.95996 28.876ZM2.15216 22.9131C2.15216 19.9785 2.68546 17.4942 3.70779 15.4239L1.55588 14.3612C0.338654 16.8261 -0.247864 19.6889 -0.247864 22.9131H2.15216ZM3.71036 15.4187C4.7402 13.3075 6.16415 11.6896 7.98102 10.5288L6.6889 8.50634C4.47452 9.92108 2.76306 11.8865 1.55331 14.3665L3.71036 15.4187ZM7.99091 10.5224C9.88434 9.28644 12.0247 8.37195 14.4226 7.7858L13.8528 5.45444C11.2116 6.10006 8.81683 7.1172 6.67902 8.51272L7.99091 10.5224ZM14.4226 7.7858C16.8335 7.19649 19.5354 6.89629 22.5361 6.89629V4.49629C19.378 4.49629 16.481 4.81198 13.8528 5.45444L14.4226 7.7858ZM22.5361 6.89629C25.1985 6.89629 28.0522 7.16802 31.0997 7.71712L31.5253 5.35515C28.3579 4.78445 25.3607 4.49629 22.5361 4.49629V6.89629ZM31.0997 7.71712C34.1509 8.26688 36.7743 8.97656 38.9807 9.83762L39.8532 7.60183C37.4686 6.67122 34.6889 5.92517 31.5253 5.35515L31.0997 7.71712ZM38.217 8.71973V19.3857H40.617V8.71973H38.217ZM39.9027 18.2884C38.0957 17.4886 35.4793 16.6848 32.0983 15.8678L31.5345 18.2006C34.8722 19.0072 37.3229 19.7711 38.9313 20.4831L39.9027 18.2884ZM32.1097 15.8706C28.6992 15.0108 25.4784 14.5744 22.4521 14.5744V16.9744C25.2489 16.9744 28.2709 17.3779 31.5231 18.1978L32.1097 15.8706ZM22.4521 14.5744C21.2783 14.5744 20.2548 14.6172 19.3892 14.7068L19.6362 17.094C20.3943 17.0156 21.3305 16.9744 22.4521 16.9744V14.5744ZM19.4272 14.7034C18.5475 14.7663 17.6378 14.9378 16.7006 15.2099L17.3697 17.5147C18.1682 17.2829 18.9102 17.1465 19.5982 17.0973L19.4272 14.7034ZM16.7353 15.2004C15.7419 15.4567 14.8657 15.8601 14.1626 16.4522L15.7085 18.288C16.0692 17.9843 16.5927 17.7158 17.335 17.5242L16.7353 15.2004ZM14.192 16.4283C13.4776 16.9923 12.9253 17.7617 12.5034 18.6704L14.6802 19.6811C14.9861 19.0222 15.3297 18.5878 15.6791 18.312L14.192 16.4283ZM12.4952 18.6884C12.073 19.6384 11.8879 20.7387 11.8879 21.9473H14.2879C14.2879 20.9722 14.4387 20.2249 14.6884 19.6631L12.4952 18.6884ZM11.8879 21.9473C11.8879 23.7681 12.5766 25.3191 13.937 26.5051L15.5142 24.6961C14.691 23.9784 14.2879 23.0939 14.2879 21.9473H11.8879ZM13.937 26.5051C15.1887 27.5963 16.7694 28.3958 18.6322 28.9366L19.3014 26.6318C17.6929 26.1648 16.446 25.5085 15.5142 24.6961L13.937 26.5051ZM18.6495 28.9415C20.4167 29.426 22.3622 29.8802 24.4844 30.3046L24.9551 27.9512C22.878 27.5358 20.9882 27.0941 19.2841 26.6269L18.6495 28.9415ZM24.4844 30.3046C26.5387 30.7155 28.5948 31.25 30.6528 31.9085L31.3843 29.6227C29.2431 28.9375 27.1 28.3802 24.9551 27.9512L24.4844 30.3046ZM30.6572 31.9099C32.7004 32.5552 34.5416 33.3841 36.1864 34.3923L37.4406 32.346C35.614 31.2265 33.5919 30.3198 31.3799 29.6213L30.6572 31.9099ZM36.1985 34.3996C37.7208 35.308 38.9919 36.6739 39.9963 38.5537L42.1131 37.4228C40.9338 35.2155 39.3775 33.5019 37.4284 32.3387L36.1985 34.3996ZM39.9995 38.5598C40.9748 40.3603 41.4924 42.6026 41.4924 45.3369H43.8924C43.8924 42.3043 43.3181 39.6475 42.1098 37.4167L39.9995 38.5598ZM41.4924 45.3369C41.4924 47.6827 41.1459 49.7494 40.4757 51.5539L42.7255 52.3895C43.511 50.2746 43.8924 47.9182 43.8924 45.3369H41.4924ZM40.4724 51.5629C39.8221 53.3576 38.9247 54.8323 37.7944 56.0129L39.5279 57.6727C40.9171 56.2217 41.9793 54.4491 42.7288 52.3805L40.4724 51.5629ZM37.7944 56.0129C36.6421 57.2163 35.236 58.2268 33.5609 59.0382L34.6071 61.1981C36.5154 60.2738 38.1606 59.1007 39.5279 57.6727L37.7944 56.0129ZM33.5609 59.0382C31.8725 59.856 30.0605 60.4389 28.1207 60.7844L28.5414 63.1472C30.6888 62.7648 32.7122 62.116 34.6071 61.1981L33.5609 59.0382ZM28.105 60.7873C26.1456 61.1631 24.0106 61.3537 21.6963 61.3537V63.7537C24.1411 63.7537 26.4293 63.5524 28.5571 63.1443L28.105 60.7873ZM21.6963 61.3537C14.6749 61.3537 8.45261 60.0926 3.00528 57.5993L2.00644 59.7816C7.81302 62.4393 14.3844 63.7537 21.6963 63.7537V61.3537ZM3.70587 58.6904V47.2266H1.30585V58.6904H3.70587ZM1.95486 48.2926C4.52838 49.6227 7.48672 50.7692 10.8214 51.7383L11.4911 49.4336C8.27499 48.499 5.4664 47.4059 3.05685 46.1605L1.95486 48.2926ZM10.8305 51.7409C14.1956 52.69 17.4132 53.1717 20.4785 53.1717V50.7717C17.6649 50.7717 14.6677 50.3295 11.482 49.431L10.8305 51.7409ZM20.4785 53.1717C23.9876 53.1717 26.7905 52.6811 28.6991 51.5294L27.4591 49.4745C26.1203 50.2824 23.8561 50.7717 20.4785 50.7717V53.1717ZM28.6913 51.534C30.7937 50.2869 31.7567 48.1691 31.7567 45.5049H29.3566C29.3566 47.5438 28.6679 48.7574 27.4669 49.4699L28.6913 51.534ZM31.7567 45.5049C31.7567 44.1045 31.3396 42.8471 30.4733 41.8004L28.6244 43.3305C29.1018 43.9075 29.3566 44.6097 29.3566 45.5049H31.7567ZM30.4733 41.8004C29.6508 40.8066 28.5611 40.0674 27.2556 39.5579L26.3831 41.7937C27.3731 42.18 28.1031 42.7006 28.6244 43.3305L30.4733 41.8004ZM27.2556 39.5579C26.041 39.0839 24.6661 38.6758 23.1371 38.3296L22.6071 40.6704C24.0454 40.996 25.3021 41.3718 26.3831 41.7937L27.2556 39.5579ZM23.1371 38.3296C21.6385 37.9903 20.0709 37.6655 18.4345 37.3552L17.9873 39.7132C19.5984 40.0187 21.1382 40.3378 22.6071 40.6704L23.1371 38.3296ZM18.4541 37.3591C16.842 37.0255 15.2156 36.6641 13.5749 36.2748L13.0208 38.61C14.6835 39.0045 16.3325 39.371 17.9678 39.7093L18.4541 37.3591ZM13.5983 36.2806C12.0521 35.8807 10.5749 35.3349 9.16522 34.6434L8.10822 36.798C9.66599 37.5622 11.2962 38.1642 12.9974 38.6042L13.5983 36.2806ZM9.18143 34.6515C7.78439 33.9398 6.55722 33.1024 5.49341 32.1423L3.8855 33.9241C5.11725 35.0357 6.52161 35.9899 8.09201 36.79L9.18143 34.6515ZM5.50516 32.1531C4.51047 31.2312 3.69388 30.0054 3.07663 28.4366L0.843292 29.3153C1.56979 31.1619 2.57288 32.7076 3.87375 33.9133L5.50516 32.1531ZM3.07904 28.4428C2.47031 26.8702 2.15216 25.0339 2.15216 22.9131H-0.247864C-0.247864 25.2715 0.105865 27.4104 0.840881 29.3092L3.07904 28.4428ZM49.7471 31.1855L48.6086 30.8061L48.6061 30.8138L49.7471 31.1855ZM53.1484 24.8027L54.0752 25.5651L54.0811 25.5578L53.1484 24.8027ZM58.1455 20.3516L58.7869 21.3658L58.7907 21.3634L58.1455 20.3516ZM64.3184 17.6641L64.6164 18.8265L64.6266 18.8238L64.3184 17.6641ZM80.6953 18.5459L80.2185 19.6471L80.2253 19.6501L80.2322 19.6529L80.6953 18.5459ZM87.1621 23.333L88.1142 22.6026L87.1621 23.333ZM90.6475 30.1357L89.4991 30.4841L89.5002 30.4877L90.6475 30.1357ZM91.2773 44.4971V45.6971H92.3145L92.4647 44.6708L91.2773 44.4971ZM60.2871 44.4971V43.2971H58.8842L59.1016 44.683L60.2871 44.4971ZM64.7383 50.7959L64.1736 51.8547L64.1784 51.8573L64.7383 50.7959ZM88.1699 50.166H89.3699V48.5299L87.8094 49.0215L88.1699 50.166ZM88.1699 59.4463L88.7617 60.4902L89.3699 60.1454V59.4463H88.1699ZM61.9248 60.7061L61.498 61.8277L61.5099 61.8321L61.9248 60.7061ZM54.2822 55.751L53.3879 56.5511L53.3935 56.5573L53.3991 56.5634L54.2822 55.751ZM49.957 48.4443L48.8233 48.8377L48.8269 48.8479L49.957 48.4443ZM59.8672 36.6445L58.6709 36.5501L58.5687 37.8445H59.8672V36.6445ZM80.5273 36.6445V37.8445H81.7274V36.6445H80.5273ZM63.2686 29.2119L64.0588 30.115L64.0658 30.1088L63.2686 29.2119ZM49.7293 39.416C49.7293 36.5291 50.1205 33.913 50.888 31.5573L48.6061 30.8138C47.75 33.4411 47.3293 36.3121 47.3293 39.416H49.7293ZM50.8855 31.565C51.6871 29.1602 52.7562 27.1686 54.0752 25.5651L52.2217 24.0404C50.6852 25.9082 49.4867 28.1719 48.6086 30.8061L50.8855 31.565ZM54.0811 25.5578C55.4272 23.895 56.9947 22.4991 58.7869 21.3658L57.5042 19.3373C55.4891 20.6116 53.7252 22.1831 52.2157 24.0477L54.0811 25.5578ZM58.7907 21.3634C60.6171 20.1987 62.5578 19.3543 64.6164 18.8265L64.0203 16.5017C61.7117 17.0936 59.5372 18.0409 57.5003 19.3398L58.7907 21.3634ZM64.6266 18.8238C66.7337 18.2637 68.9254 17.9822 71.2051 17.9822V15.5822C68.7256 15.5822 66.3262 15.8887 64.0101 16.5043L64.6266 18.8238ZM71.2051 17.9822C74.6877 17.9822 77.6828 18.5492 80.2185 19.6471L81.1721 17.4447C78.2768 16.1911 74.9452 15.5822 71.2051 15.5822V17.9822ZM80.2322 19.6529C82.8128 20.7326 84.7882 22.21 86.21 24.0634L88.1142 22.6026C86.4006 20.3688 84.0648 18.6548 81.1584 17.4389L80.2322 19.6529ZM86.21 24.0634C87.6889 25.9912 88.7847 28.1291 89.4991 30.4841L91.7958 29.7874C90.9985 27.1593 89.7708 24.762 88.1142 22.6026L86.21 24.0634ZM89.5002 30.4877C90.2169 32.8235 90.5812 35.3908 90.5812 38.1982H92.9813C92.9813 35.1827 92.5897 32.3751 91.7947 29.7838L89.5002 30.4877ZM90.5812 38.1982C90.5812 40.0328 90.4193 42.0733 90.09 44.3233L92.4647 44.6708C92.8073 42.3297 92.9813 40.171 92.9813 38.1982H90.5812ZM91.2773 43.2971H60.2871V45.6971H91.2773V43.2971ZM59.1016 44.683C59.6071 47.9054 61.3168 50.3311 64.1736 51.8547L65.303 49.7371C63.1207 48.5732 61.863 46.7997 61.4726 44.3111L59.1016 44.683ZM64.1784 51.8573C66.9484 53.3184 70.3755 54.0115 74.3965 54.0115V51.6115C70.6349 51.6115 67.6233 50.9609 65.2981 49.7345L64.1784 51.8573ZM74.3965 54.0115C78.155 54.0115 82.8792 53.0907 88.5305 51.3106L87.8094 49.0215C82.2628 50.7687 77.8046 51.6115 74.3965 51.6115V54.0115ZM86.9699 50.166V59.4463H89.3699V50.166H86.9699ZM87.5781 58.4024C84.282 60.271 79.4408 61.2697 72.9268 61.2697V63.6697C79.6263 63.6697 84.9472 62.6528 88.7617 60.4902L87.5781 58.4024ZM72.9268 61.2697C68.8952 61.2697 65.3728 60.6975 62.3397 59.58L61.5099 61.8321C64.8596 63.0662 68.6719 63.6697 72.9268 63.6697V61.2697ZM62.3516 59.5845C59.33 58.4347 56.9495 56.8778 55.1653 54.9385L53.3991 56.5634C55.4782 58.8234 58.1928 60.5699 61.498 61.8276L62.3516 59.5845ZM55.1765 54.9508C53.3785 52.9413 52.0158 50.6411 51.0871 48.0407L48.8269 48.8479C49.8579 51.7346 51.3786 54.3054 53.3879 56.5511L55.1765 54.9508ZM51.0907 48.051C50.188 45.4491 49.7293 42.5745 49.7293 39.416H47.3293C47.3293 42.8084 47.8224 45.9526 48.8233 48.8377L51.0907 48.051ZM59.8672 37.8445H80.5273V35.4445H59.8672V37.8445ZM81.7274 36.6445C81.7274 33.1232 80.8381 30.2522 78.8633 28.2444L77.1523 29.9274C78.5369 31.3351 79.3273 33.5031 79.3273 36.6445H81.7274ZM78.8633 28.2444C76.9153 26.264 74.3158 25.3244 71.2051 25.3244V27.7244C73.8053 27.7244 75.7409 28.4925 77.1523 29.9274L78.8633 28.2444ZM71.2051 25.3244C67.7018 25.3244 64.7514 26.2883 62.4713 28.315L64.0658 30.1088C65.817 28.5522 68.1575 27.7244 71.2051 27.7244V25.3244ZM62.4784 28.3088C60.1821 30.3181 58.9424 33.1116 58.6709 36.5501L61.0635 36.739C61.2959 33.7947 62.3238 31.6331 64.0587 30.115L62.4784 28.3088ZM129.07 17.3281L128.859 18.5094L128.867 18.5109L128.875 18.5122L129.07 17.3281ZM135.033 19.0498H136.233V18.2904L135.547 17.9653L135.033 19.0498ZM135.033 29.3379L134.389 30.3503L136.233 31.5239V29.3379H135.033ZM129.994 27.4482L129.718 28.6159L129.725 28.6177L129.732 28.6193L129.994 27.4482ZM114.289 48.9482L113.393 49.7462L114.289 48.9482ZM135.537 49.4102H136.737V47.3058L134.926 48.3774L135.537 49.4102ZM135.537 59.6982L136.074 60.7716L136.737 60.4399V59.6982H135.537ZM129.112 61.7559L128.895 60.5756L128.882 60.5781L129.112 61.7559ZM110.426 59.8242L109.875 60.8906L109.886 60.8958L110.426 59.8242ZM102.153 51.9717L101.119 52.5805L101.121 52.5841L102.153 51.9717ZM100.288 39.8359C100.288 33.1288 102.325 27.8557 106.316 23.8904L104.625 22.1877C100.106 26.6769 97.8879 32.6017 97.8879 39.8359H100.288ZM106.316 23.8904C110.303 19.93 115.7 17.8982 122.646 17.8982V15.4982C115.202 15.4982 109.149 17.6937 104.625 22.1877L106.316 23.8904ZM122.646 17.8982C124.492 17.8982 126.562 18.0992 128.859 18.5094L129.281 16.1468C126.876 15.7172 124.662 15.4982 122.646 15.4982V17.8982ZM128.875 18.5122C131.182 18.8921 133.054 19.4402 134.52 20.1343L135.547 17.9653C133.821 17.1477 131.718 16.548 129.265 16.1441L128.875 18.5122ZM133.833 19.0498V29.3379H136.233V19.0498H133.833ZM135.677 28.3255C134.286 27.4398 132.459 26.77 130.256 26.2772L129.732 28.6193C131.784 29.0784 133.317 29.6683 134.389 30.3503L135.677 28.3255ZM130.271 26.2805C128.055 25.7558 125.835 25.4924 123.611 25.4924V27.8924C125.643 27.8924 127.678 28.1329 129.718 28.6159L130.271 26.2805ZM123.611 25.4924C119.39 25.4924 115.973 26.6488 113.556 29.1303L115.275 30.8052C117.112 28.9195 119.826 27.8924 123.611 27.8924V25.4924ZM113.556 29.1303C111.139 31.61 110.024 35.1334 110.024 39.5H112.424C112.424 35.5242 113.435 32.6927 115.275 30.8052L113.556 29.1303ZM110.024 39.5C110.024 43.7063 111.1 47.1712 113.393 49.7462L115.185 48.1503C113.39 46.1342 112.424 43.3002 112.424 39.5H110.024ZM113.393 49.7462C115.683 52.3183 118.693 53.5916 122.31 53.5916V51.1916C119.32 51.1916 116.983 50.1693 115.185 48.1503L113.393 49.7462ZM122.31 53.5916C127.902 53.5916 132.544 52.5752 136.148 50.4429L134.926 48.3774C131.811 50.2204 127.635 51.1916 122.31 51.1916V53.5916ZM134.337 49.4102V59.6982H136.737V49.4102H134.337ZM135 58.6249C133.271 59.4894 131.241 60.1442 128.895 60.5757L129.329 62.9361C131.855 62.4716 134.107 61.7547 136.074 60.7716L135 58.6249ZM128.882 60.5781C126.511 61.0414 124.293 61.2697 122.226 61.2697V63.6697C124.469 63.6697 126.842 63.4221 129.342 62.9336L128.882 60.5781ZM122.226 61.2697C118.024 61.2697 114.279 60.4226 110.966 58.7526L109.886 60.8958C113.571 62.7532 117.693 63.6697 122.226 63.6697V61.2697ZM110.976 58.7579C107.71 57.0721 105.117 54.6142 103.185 51.3592L101.121 52.5841C103.277 56.2158 106.199 58.993 109.875 60.8906L110.976 58.7579ZM103.187 51.3629C101.268 48.1017 100.288 44.2729 100.288 39.8359H97.8879C97.8879 44.6372 98.9518 48.8989 101.119 52.5805L103.187 51.3629ZM143.726 18.168V16.968H142.526V18.168H143.726ZM155.609 18.168H156.809V16.968H155.609V18.168ZM157.625 50.9639L156.814 51.8485L156.823 51.8567L157.625 50.9639ZM163.336 52.8115V54.0115H163.361L163.387 54.0105L163.336 52.8115ZM168.627 51.1318L169.297 52.1275L169.303 52.1233L169.309 52.1191L168.627 51.1318ZM172.364 46.7227L173.434 47.2657L173.564 47.0097V46.7227H172.364ZM172.364 18.168V16.968H171.164V18.168H172.364ZM184.206 18.168H185.406V16.968H184.206V18.168ZM184.206 61V62.2H185.406V61H184.206ZM173.75 61H172.55V62.2H173.75V61ZM173.75 54.0293H174.95L172.676 53.4948L173.75 54.0293ZM147.799 58.3545L146.946 59.1987L147.799 58.3545ZM144.926 46.5547V18.168H142.526V46.5547H144.926ZM143.726 19.368H155.609V16.968H143.726V19.368ZM154.409 18.168V44.4131H156.809V18.168H154.409ZM154.409 44.4131C154.409 47.656 155.093 50.2708 156.814 51.8485L158.436 50.0793C157.469 49.1934 156.809 47.441 156.809 44.4131H154.409ZM156.823 51.8567C158.478 53.3426 160.701 54.0115 163.336 54.0115V51.6115C161.099 51.6115 159.515 51.0486 158.427 50.071L156.823 51.8567ZM163.387 54.0105C165.579 53.9178 167.56 53.2958 169.297 52.1275L167.957 50.1362C166.614 51.0395 165.068 51.5373 163.285 51.6126L163.387 54.0105ZM169.309 52.1191C171.033 50.9283 172.404 49.297 173.434 47.2657L171.294 46.1796C170.421 47.8996 169.301 49.2077 167.945 50.1446L169.309 52.1191ZM173.564 46.7227V18.168H171.164V46.7227H173.564ZM172.364 19.368H184.206V16.968H172.364V19.368ZM183.006 18.168V61H185.406V18.168H183.006ZM184.206 59.8H173.75V62.2H184.206V59.8ZM174.95 61V54.0293H172.55V61H174.95ZM172.676 53.4948C171.371 56.1165 169.588 58.0384 167.332 59.3154C165.068 60.5975 162.256 61.2697 158.843 61.2697V63.6697C162.568 63.6697 165.81 62.9352 168.515 61.4039C171.228 59.8674 173.329 57.5691 174.824 54.5638L172.676 53.4948ZM158.843 61.2697C154.446 61.2697 151.097 59.9808 148.652 57.5103L146.946 59.1987C149.932 62.2152 153.945 63.6697 158.843 63.6697V61.2697ZM148.652 57.5103C146.224 55.0575 144.926 51.4685 144.926 46.5547H142.526C142.526 51.887 143.943 56.1645 146.946 59.1987L148.652 57.5103ZM195.628 61H194.428V62.2H195.628V61ZM195.628 18.168V16.968H194.428V18.168H195.628ZM206.042 18.168L207.236 18.0459L207.126 16.968H206.042V18.168ZM206.798 25.5586L205.604 25.6807L206.008 29.632L207.86 26.1179L206.798 25.5586ZM224.015 17.0342H225.215V16.0972L224.306 15.87L224.015 17.0342ZM224.015 28.918L223.763 30.0913L225.215 30.4024V28.918H224.015ZM211.963 30.0098L212.5 31.0831L212.505 31.0802L211.963 30.0098ZM207.512 34.9229L206.398 34.4772L206.312 34.6918V34.9229H207.512ZM207.512 61V62.2H208.712V61H207.512ZM196.828 61V18.168H194.428V61H196.828ZM195.628 19.368H206.042V16.968H195.628V19.368ZM204.848 18.2901L205.604 25.6807L207.992 25.4365L207.236 18.0459L204.848 18.2901ZM207.86 26.1179C209.27 23.4405 211.183 21.469 213.596 20.1565C216.02 18.8387 219.014 18.1502 222.629 18.1502V15.7502C218.713 15.7502 215.304 16.4964 212.45 18.0481C209.587 19.6051 207.349 21.9378 205.736 24.9993L207.86 26.1179ZM222.629 18.1502C222.966 18.1502 223.23 18.157 223.428 18.169C223.526 18.175 223.601 18.1818 223.656 18.1885C223.714 18.1957 223.733 18.2006 223.724 18.1984L224.306 15.87C223.914 15.7721 223.302 15.7502 222.629 15.7502V18.1502ZM222.815 17.0342V28.918H225.215V17.0342H222.815ZM224.266 27.7446C222.611 27.3899 220.888 27.2141 219.102 27.2141V29.6141C220.73 29.6141 222.283 29.7742 223.763 30.0913L224.266 27.7446ZM219.102 27.2141C216.278 27.2141 213.709 27.7798 211.421 28.9393L212.505 31.0802C214.416 30.1121 216.606 29.6141 219.102 29.6141V27.2141ZM211.426 28.9365C209.08 30.1095 207.398 31.9771 206.398 34.4772L208.626 35.3685C209.418 33.3894 210.703 31.9816 212.5 31.0831L211.426 28.9365ZM206.312 34.9229V61H208.712V34.9229H206.312ZM207.512 59.8H195.628V62.2H207.512V59.8ZM230.481 2.63086L231.321 3.48832L231.33 3.47939L230.481 2.63086ZM240.224 2.58887L239.375 3.43744L239.384 3.44628L240.224 2.58887ZM240.224 12.2891L239.375 11.4405L239.366 11.4495L240.224 12.2891ZM230.481 12.3311L229.633 13.1796L229.642 13.1885L230.481 12.3311ZM229.432 61H228.232V62.2H229.432V61ZM229.432 18.168V16.968H228.232V18.168H229.432ZM241.357 18.168H242.557V16.968H241.357V18.168ZM241.357 61V62.2H242.557V61H241.357ZM229.666 7.41797C229.666 5.86593 230.207 4.57898 231.321 3.48827L229.642 1.77345C228.068 3.31425 227.266 5.21871 227.266 7.41797H229.666ZM231.33 3.47939C232.448 2.36112 233.767 1.81523 235.353 1.81523V-0.584765C233.131 -0.584765 231.202 0.213099 229.633 1.78233L231.33 3.47939ZM235.353 1.81523C236.979 1.81523 238.294 2.35608 239.375 3.4374L241.072 1.74034C239.522 0.190148 237.589 -0.584765 235.353 -0.584765V1.81523ZM239.384 3.44628C240.494 4.53322 241.039 5.83252 241.039 7.41797H243.439C243.439 5.19613 242.641 3.27603 241.063 1.73145L239.384 3.44628ZM241.039 7.41797C241.039 9.00398 240.493 10.3223 239.375 11.4405L241.072 13.1376C242.641 11.5684 243.439 9.63925 243.439 7.41797H241.039ZM239.366 11.4495C238.283 12.5558 236.971 13.1047 235.353 13.1047V15.5047C237.597 15.5047 239.533 14.7098 241.081 13.1286L239.366 11.4495ZM235.353 13.1047C233.758 13.1047 232.437 12.5668 231.321 11.4736L229.642 13.1885C231.213 14.7268 233.139 15.5047 235.353 15.5047V13.1047ZM231.33 11.4825C230.215 10.3679 229.666 9.03723 229.666 7.41797H227.266C227.266 9.66199 228.06 11.6067 229.633 13.1796L231.33 11.4825ZM230.632 61V18.168H228.232V61H230.632ZM229.432 19.368H241.357V16.968H229.432V19.368ZM240.157 18.168V61H242.557V18.168H240.157ZM241.357 59.8H229.432V62.2H241.357V59.8ZM252.905 10.0215L252.528 8.88226L251.705 9.15462V10.0215H252.905ZM264.705 6.11621H265.905V4.45504L264.328 4.97698L264.705 6.11621ZM264.705 18.168H263.505V19.368H264.705V18.168ZM277.849 18.168H279.049V16.968H277.849V18.168ZM277.849 27.2803V28.4803H279.049V27.2803H277.849ZM264.705 27.2803V26.0803H263.505V27.2803H264.705ZM264.705 46.3867H263.505V46.3961L263.505 46.4055L264.705 46.3867ZM266.175 50.25L265.412 51.1763L265.427 51.1885L265.442 51.2001L266.175 50.25ZM276.799 49.998H277.999V47.8786L276.181 48.9691L276.799 49.998ZM276.799 59.8662L277.411 60.8982L277.999 60.5495V59.8662H276.799ZM254.105 48.4443V10.0215H251.705V48.4443H254.105ZM253.282 11.1607L265.082 7.25544L264.328 4.97698L252.528 8.88226L253.282 11.1607ZM263.505 6.11621V18.168H265.905V6.11621H263.505ZM264.705 19.368H277.849V16.968H264.705V19.368ZM276.649 18.168V27.2803H279.049V18.168H276.649ZM277.849 26.0803H264.705V28.4803H277.849V26.0803ZM263.505 27.2803V46.3867H265.905V27.2803H263.505ZM263.505 46.4055C263.536 48.3853 264.083 50.0821 265.412 51.1763L266.938 49.3237C266.363 48.8502 265.93 47.9715 265.905 46.368L263.505 46.4055ZM265.442 51.2001C266.73 52.1936 268.56 52.5838 270.71 52.5838V50.1838C268.773 50.1838 267.58 49.8181 266.908 49.2999L265.442 51.2001ZM270.71 52.5838C273.363 52.5838 275.629 52.0991 277.416 51.027L276.181 48.9691C274.889 49.7447 273.096 50.1838 270.71 50.1838V52.5838ZM275.599 49.998V59.8662H277.999V49.998H275.599ZM276.186 58.8342C273.886 60.1993 270.748 60.9338 266.679 60.9338V63.3338C271.008 63.3338 274.617 62.5565 277.411 60.8982L276.186 58.8342ZM266.679 60.9338C262.271 60.9338 259.185 59.8391 257.195 57.8603C255.205 55.8829 254.105 52.8207 254.105 48.4443H251.705C251.705 53.1943 252.901 56.9768 255.503 59.5625C258.103 62.1469 261.904 63.3338 266.679 63.3338V60.9338ZM281.502 18.168V16.968H279.62L280.414 18.674L281.502 18.168ZM294.562 18.168L295.681 17.7354L295.384 16.968H294.562V18.168ZM304.64 44.2451L303.52 44.6777L304.666 47.6421L305.766 44.6603L304.64 44.2451ZM314.256 18.168V16.968H313.419L313.13 17.7528L314.256 18.168ZM326.728 18.168L327.823 18.6584L328.58 16.968H326.728V18.168ZM300.23 77.335V78.535H301.008L301.326 77.8254L300.23 77.335ZM288.221 77.335L287.165 76.7651L286.21 78.535H288.221V77.335ZM299.391 56.6328L300.447 57.2026L300.733 56.6727L300.479 56.1268L299.391 56.6328ZM281.502 19.368H294.562V16.968H281.502V19.368ZM293.442 18.6006L303.52 44.6777L305.759 43.8125L295.681 17.7354L293.442 18.6006ZM305.766 44.6603L315.382 18.5832L313.13 17.7528L303.514 43.8299L305.766 44.6603ZM314.256 19.368H326.728V16.968H314.256V19.368ZM325.632 17.6775L299.135 76.8445L301.326 77.8254L327.823 18.6584L325.632 17.6775ZM300.23 76.135H288.221V78.535H300.23V76.135ZM289.277 77.9048L300.447 57.2026L298.335 56.063L287.165 76.7651L289.277 77.9048ZM300.479 56.1268L282.59 17.6619L280.414 18.674L298.303 57.1388L300.479 56.1268Z" fill="url(#paint0_linear_0_625)"/>
<defs>
<linearGradient id="paint0_linear_0_625" x1="-156.5" y1="17.5" x2="478.888" y2="102.8" gradientUnits="userSpaceOnUse">
<stop offset="0.0246473" stop-color="#5EC7EC"/>
<stop offset="0.994004" stop-color="white"/>
</linearGradient>
</defs>
</svg>
