<svg width="250" height="85" viewBox="0 0 250 85" fill="none" xmlns="http://www.w3.org/2000/svg">
<path d="M125.92 23.7454C126.364 24.1851 126.586 24.7505 126.586 25.3786V29.8702C126.586 30.4669 126.332 31.0637 125.92 31.5034L121.511 35.8693C121.067 36.309 120.496 36.5289 119.862 36.5289H103.115C102.48 36.5289 101.909 36.2776 101.465 35.8379C100.197 34.5501 97.5958 31.9432 97.5958 31.9432L101.878 27.7657C101.878 27.7657 103.02 28.8965 103.812 29.6503C104.257 30.0586 104.827 30.3099 105.43 30.3099H119.798V25.1274H103.115C102.48 25.1274 101.846 24.8761 101.434 24.405C100.387 23.2742 98.357 21.1384 97.342 20.0705C96.9297 19.6308 96.7077 19.0968 96.7077 18.5V14.2598C96.7077 13.663 96.9297 13.129 97.342 12.6893C98.357 11.6214 100.609 9.45417 101.687 8.35485C102.131 7.91512 102.702 7.63244 103.368 7.63244H119.798C120.401 7.63244 121.004 7.88371 121.448 8.29203L125.381 12.1868L121.099 16.427L119.449 14.7937C119.005 14.354 118.434 14.1341 117.8 14.1341H103.59V19.034H120.274C120.877 19.034 121.479 19.2853 121.923 19.6936C122.843 20.7301 124.873 22.7089 125.92 23.7454ZM121.796 59.8031C121.352 59.3634 120.782 59.1435 120.147 59.1435H103.464V54.2437H117.673C118.276 54.2437 118.878 54.495 119.322 54.9033L120.972 56.5366L125.254 52.2963L121.321 48.4016C120.877 47.9619 120.306 47.742 119.671 47.742H103.242C102.607 47.742 102.036 48.0247 101.561 48.4644C100.482 49.5637 98.2301 51.6996 97.2152 52.7989C96.8028 53.2386 96.5808 53.7726 96.5808 54.3694V58.6096C96.5808 59.2064 96.8028 59.7403 97.2152 60.1801C98.2301 61.248 100.26 63.4152 101.307 64.5145C101.751 64.9857 102.353 65.2369 102.988 65.2369H119.671V70.4509H105.303C104.701 70.4509 104.098 70.1996 103.686 69.7913C102.924 69.0375 101.751 67.9067 101.751 67.9067L97.4689 72.0841C97.4689 72.0841 100.07 74.6911 101.338 75.9789C101.783 76.4186 102.353 76.6699 102.988 76.6699H119.735C120.337 76.6699 120.94 76.4186 121.384 76.0103L125.793 71.6444C126.237 71.2047 126.459 70.6393 126.459 70.0111V65.5196C126.459 64.9228 126.205 64.3261 125.793 63.8863C124.873 62.8184 122.843 60.8396 121.796 59.8031ZM208.608 36.5603H204.009C203.153 36.5603 202.392 36.0892 201.979 35.3668C201.472 34.4245 200.837 33.2624 200.837 33.2624C200.837 33.2624 197.761 35.304 196.46 36.1834C196.08 36.4347 195.636 36.5603 195.192 36.5603H183.424C182.822 36.5603 182.251 36.3091 181.807 35.9007L177.398 31.5348C176.954 31.0951 176.732 30.5298 176.732 29.933V25.2844C176.732 24.6876 176.986 24.0909 177.398 23.6825L181.489 19.6308C181.934 19.191 182.504 18.9712 183.107 18.9712H198.649V14.1027H185.549C184.947 14.1027 184.344 14.354 183.932 14.7623L182.282 16.3956L178.032 12.1868L181.934 8.32344C182.378 7.88371 182.948 7.66385 183.551 7.66385H198.998C199.632 7.66385 200.235 7.91512 200.679 8.38626C201.725 9.48558 203.755 11.6214 204.77 12.7207C205.183 13.1291 205.405 13.6944 205.405 14.2598V30.4983H208.608V36.5603ZM198.681 25.1588H183.583V30.3727H194.557C194.843 30.3727 195.128 30.3099 195.414 30.2157C196.365 29.8388 198.681 28.8965 198.681 28.8965V25.1588ZM180.094 70.5451H183.297V76.6699H178.698C177.842 76.6699 177.081 76.1987 176.668 75.4763C176.161 74.5341 175.527 73.3719 175.527 73.3719C175.527 73.3719 172.45 75.4135 171.149 76.293C170.769 76.5443 170.325 76.6699 169.881 76.6699H158.113C157.511 76.6699 156.94 76.4186 156.496 76.0103L152.087 71.6444C151.643 71.2047 151.421 70.6393 151.421 70.0425V65.394C151.421 64.7972 151.675 64.2318 152.087 63.7921L156.179 59.7403C156.623 59.3006 157.194 59.0807 157.796 59.0807H173.338V54.2123H160.239C159.636 54.2123 159.065 54.4636 158.621 54.8719L156.972 56.5052L152.721 52.2963L156.623 48.433C157.067 47.9933 157.638 47.7734 158.24 47.7734H173.687C174.321 47.7734 174.924 48.0247 175.368 48.4958C176.415 49.5951 178.445 51.731 179.46 52.8303C179.872 53.2386 180.094 53.804 180.094 54.3694V70.5451ZM173.37 65.2683H158.272V70.4823H169.246C169.532 70.4823 169.817 70.4195 170.103 70.3252C171.054 69.9483 173.37 69.006 173.37 69.006V65.2683ZM232.206 67.9381L236.456 72.147L232.555 76.0103C232.111 76.45 231.54 76.6699 230.938 76.6699H214.127C213.524 76.6699 212.922 76.4186 212.51 76.0103L208.101 71.6444C207.657 71.2047 207.435 70.6393 207.435 70.0425V54.3694C207.435 53.7726 207.688 53.1758 208.101 52.7675C209.211 51.6682 211.431 49.5009 212.51 48.4016C212.954 47.9619 213.524 47.742 214.127 47.742H229.352C229.954 47.742 230.557 47.9933 230.969 48.4016L235.378 52.7675C235.822 53.2072 236.044 53.7726 236.044 54.3694V59.0179C236.044 59.6147 235.79 60.2115 235.378 60.6198L231.286 64.6716C230.842 65.1113 230.271 65.3312 229.669 65.3312H214.191V70.1996H228.971C229.574 70.1996 230.176 69.9483 230.589 69.54L232.206 67.9381ZM214.159 59.8031H229.257V53.8982H214.159V59.8031ZM194.208 53.8982H201.091V47.742H194.208V40.1096H187.484V70.074C187.484 70.6707 187.706 71.2047 188.118 71.6444C189.133 72.7123 191.132 74.8482 192.21 75.9475C192.654 76.4186 193.257 76.6699 193.891 76.6699H203.407V70.1996H194.24V53.8982H194.208ZM139.114 53.8982H145.997V47.742H139.114V40.1096H132.39V70.074C132.39 70.6707 132.612 71.2047 133.025 71.6444C134.04 72.7123 136.038 74.8482 137.116 75.9475C137.56 76.4186 138.163 76.6699 138.797 76.6699H148.313V70.1996H139.146V53.8982H139.114ZM240.802 30.09V13.7886H247.685V7.60103H240.802V0H234.078V29.9644C234.078 30.5612 234.3 31.0951 234.712 31.5348C235.727 32.6028 237.725 34.7386 238.804 35.8379C239.248 36.3091 239.85 36.5603 240.485 36.5603H250V30.09H240.802ZM155.259 36.5603V13.8201H164.647V36.5603H171.371V14.2598C171.371 13.663 171.118 13.0662 170.705 12.6579L166.297 8.29203C165.853 7.8523 165.282 7.63244 164.679 7.63244H157.194C156.559 7.63244 155.988 7.88371 155.544 8.32344C154.593 9.29713 152.975 10.9304 152.975 10.9304L152.912 10.9932L150.216 8.32344C149.772 7.88371 149.201 7.66385 148.598 7.66385H139.083C138.48 7.66385 137.877 7.91512 137.465 8.32344L133.056 12.6893C132.612 13.129 132.39 13.6944 132.39 14.2912V36.5917H139.114V13.8515H148.503V36.5917H155.259V36.5603ZM220.185 13.7886H229.352V7.60103H220.122C219.519 7.60103 218.917 7.8523 218.504 8.26062L214.095 12.6265C213.651 13.0662 213.429 13.6316 213.429 14.2284V36.5289H220.154V13.7886H220.185ZM11.9259 27.7657L0 34.5815V53.961L11.9259 74.5655L28.7998 84.3023L40.7257 77.4865V58.107L28.8315 37.5026L11.9259 27.7657ZM57.0287 37.5026L45.1028 58.107V77.4865L57.0287 84.3023L73.9026 74.5655L85.8285 53.961V34.5815L73.9026 27.7657L57.0287 37.5026ZM54.8401 33.1681L71.714 23.4627V9.70545L54.8401 0H30.9883L14.1144 9.70545V23.4627L30.9883 33.1681H54.8401Z" fill="white"/>
</svg>
