<svg width="50" height="43" viewBox="0 0 50 43" fill="none" xmlns="http://www.w3.org/2000/svg">
<path d="M46.8923 0.0541328L1.08757 17.9105C0.758525 18.0317 0.476236 18.2539 0.281106 18.5453C0.0859761 18.8367 -0.0119996 19.1823 0.00117393 19.5327C0.0143474 19.8831 0.138058 20.2203 0.354513 20.4962C0.570968 20.7721 0.869122 20.9725 1.20634 21.0687L12.8653 24.5118L17.2107 38.284C17.3131 38.6129 17.4991 38.9097 17.7503 39.1453C18.0015 39.381 18.3095 39.5477 18.6442 39.629C18.979 39.7103 19.3291 39.7035 19.6604 39.6093C19.9918 39.5151 20.2931 39.3367 20.535 39.0914L26.5425 32.9413L38.4152 41.6084C38.7321 41.8432 39.1025 41.9953 39.493 42.051C39.8834 42.1068 40.2816 42.0645 40.6516 41.9279C41.0216 41.7912 41.3517 41.5645 41.6121 41.2683C41.8726 40.9721 42.0551 40.6156 42.1432 40.2312L49.9555 2.83229C50.0369 2.41803 50.0063 1.98951 49.867 1.59097C49.7277 1.19243 49.4847 0.838222 49.1629 0.564866C48.8412 0.29151 48.4524 0.108967 48.0366 0.0358717C47.6208 -0.0372241 47.193 0.00182142 46.7973 0.149062L46.8923 0.0541328ZM41.1459 8.36499L19.7751 27.1712C19.5587 27.3588 19.4228 27.6223 19.3953 27.9073L18.5879 35.1972C18.5722 35.2447 18.5421 35.286 18.5015 35.3153C18.461 35.3446 18.4123 35.3605 18.3623 35.3605C18.3123 35.3605 18.2636 35.3446 18.2231 35.3153C18.1826 35.286 18.1524 35.2447 18.1368 35.1972L14.7649 24.3455C14.6912 24.1034 14.7002 23.8436 14.7905 23.6071C14.8808 23.3707 15.0472 23.171 15.2635 23.0396L40.3861 7.43889C40.5059 7.38067 40.6423 7.36629 40.7716 7.39817C40.9009 7.43004 41.015 7.50616 41.094 7.61339C41.173 7.72061 41.212 7.85218 41.2041 7.98513C41.1962 8.11809 41.1421 8.24406 41.051 8.34122L41.1459 8.36499Z" fill="#5EC7EC"/>
</svg>
