<svg width="50" height="41" viewBox="0 0 50 41" fill="none" xmlns="http://www.w3.org/2000/svg">
<path d="M0 35.8323C4.68079 38.8384 10.1277 40.4328 15.6899 40.4249C19.6416 40.4518 23.557 39.6695 27.1953 38.126C30.8336 36.5826 34.1178 34.3107 36.8458 31.4501C39.5738 28.5895 41.6879 25.2006 43.0581 21.4921C44.4283 17.7836 45.0256 13.8337 44.8133 9.88565C46.8306 8.47073 48.5858 6.71465 50 4.69633C48.1336 5.5367 46.1473 6.07949 44.1131 6.30501C46.2497 5.03203 47.8459 3.01967 48.5996 0.648665C46.6005 1.87383 44.4083 2.75114 42.1162 3.24333C41.1512 2.22353 39.9895 1.41028 38.7012 0.852798C37.413 0.295312 36.025 0.00518305 34.6214 0C33.0871 0.0262989 31.5777 0.392851 30.202 1.07324C28.8264 1.75364 27.6187 2.73087 26.6662 3.93459C25.7136 5.13831 25.0398 6.5385 24.6934 8.0342C24.3469 9.5299 24.3366 11.0838 24.6629 12.584C20.5894 12.3808 16.6044 11.3216 12.9673 9.47533C9.33014 7.62902 6.12239 5.03698 3.55289 1.86808C2.26578 4.13223 1.87666 6.79793 2.46277 9.33581C3.04889 11.8737 4.56737 14.0983 6.7168 15.568C5.08707 15.5192 3.49381 15.0739 2.07474 14.2706C2.07054 16.6524 2.8852 18.9631 4.38207 20.8151C5.87895 22.667 7.96692 23.9475 10.2956 24.4417C8.79288 24.8663 7.21092 24.9286 5.67947 24.6233C6.32902 26.657 7.59865 28.4362 9.31024 29.7113C11.0218 30.9863 13.0895 31.6931 15.223 31.7327C13.0833 33.3904 10.6358 34.6065 8.02258 35.3103C5.40932 36.014 2.68235 36.1915 0 35.8323Z" fill="#5EC7EC"/>
</svg>
